<svg width="651" height="60" viewBox="0 0 651 60" fill="none" xmlns="http://www.w3.org/2000/svg">
<mask id="mask0_72_2066" style="mask-type:luminance" maskUnits="userSpaceOnUse" x="0" y="0" width="183" height="60">
<path d="M0.285156 0H182.989V60H0.285156V0Z" fill="white"/>
</mask>
<g mask="url(#mask0_72_2066)">
<mask id="mask1_72_2066" style="mask-type:luminance" maskUnits="userSpaceOnUse" x="0" y="0" width="183" height="60">
<path d="M0.285156 0H182.989V60H0.285156V0Z" fill="white"/>
</mask>
<g mask="url(#mask1_72_2066)">
<path d="M72.236 7.24446C74.3 7.24446 75.9511 5.69647 75.9511 3.63248C75.9511 1.6717 74.3 0.0205078 72.236 0.0205078C70.2752 0.0205078 68.624 1.6717 68.624 3.63248C68.624 5.69647 70.2752 7.24446 72.236 7.24446Z" fill="white"/>
<path d="M84.8256 7.24446C86.7863 7.24446 88.4375 5.69647 88.4375 3.63248C88.4375 1.6717 86.7863 0.0205078 84.8256 0.0205078C82.7616 0.0205078 81.1104 1.6717 81.1104 3.63248C81.1104 5.69647 82.7616 7.24446 84.8256 7.24446Z" fill="white"/>
<path d="M114.651 0.227051H93.8047V7.03818H114.651V0.227051Z" fill="white"/>
<path d="M162.845 46.873H160.265V48.2145H170.688V46.873H168.831V36.553C168.831 34.0763 169.966 32.8378 171.72 32.8378C173.371 32.8378 174.506 33.9731 174.506 36.553V46.873H172.649V48.2145H182.969V46.873H180.492V36.2434C180.492 32.2187 177.706 30.0515 174.61 30.0515C171.72 30.0515 170.172 31.2899 168.831 32.9411V18.4932H168.108C165.528 18.8028 163.155 18.9059 160.059 18.9059V20.2476H162.845V46.873Z" fill="white"/>
<path fill-rule="evenodd" clip-rule="evenodd" d="M78.8401 50.6915C77.0513 49.9347 76.157 48.4555 76.157 46.2539C76.157 43.5707 77.8081 42.3323 80.0785 41.5067C77.8081 40.1651 76.673 38.514 76.673 36.3468C76.673 32.6316 80.2849 30.0516 85.2385 30.0516C87.7153 30.0516 90.0889 30.774 91.6369 32.0124C92.3592 30.3612 93.5976 29.5356 94.836 29.5356C96.0744 29.5356 97.2096 30.258 97.2096 31.5996C97.2096 32.9412 96.1776 33.5604 95.2488 33.5604C94.1136 33.5604 94.1136 32.322 93.1848 32.322C92.8752 32.322 92.5657 32.5284 92.3593 32.7348C93.1849 33.6636 93.5977 34.902 93.5977 36.2436C93.5977 40.1652 89.676 42.6419 85.5481 42.6419H81.2138C79.769 42.6419 78.9434 43.1579 78.9434 44.1899C78.9434 45.2219 79.7689 45.6347 80.9041 45.6347H88.2313C92.2561 45.6347 95.4552 47.5955 95.4552 52.1362C95.4552 57.2962 91.0177 59.9794 84.9289 59.9794C80.6977 59.9794 75.7441 58.3282 75.7441 54.8195C75.7441 53.1683 77.1889 51.8267 78.8401 50.6915ZM79.2529 53.7875C79.2529 57.193 82.1425 58.5346 85.6513 58.5346C89.7793 58.5346 92.772 56.5738 92.772 53.5811C92.772 51.9299 91.4304 51.3107 89.3665 51.3107H82.2457C81.4202 51.3107 80.6977 51.2075 80.0785 51.1043C79.5281 52.1362 79.2529 53.0307 79.2529 53.7875ZM82.5553 37.9979C82.5553 40.3715 83.4841 41.5067 85.1353 41.5067C86.8897 41.5067 87.6121 40.3715 87.7153 37.9979V34.4892C87.8185 32.4252 86.8897 31.0836 85.1353 31.0836C83.4841 31.0836 82.5553 32.4252 82.5553 34.4892V37.9979Z" fill="white"/>
<path d="M106.498 34.7989H106.395V30.2581H105.569C103.092 30.5677 100.822 30.5678 98.4482 30.5678V32.0125H100.719V46.8732H98.4482V48.2148H110.007V46.8732H106.807V39.6493C106.807 36.1405 107.427 31.4965 109.8 31.4965C110.316 31.4965 110.626 31.7029 110.626 32.3221C110.626 33.1477 109.697 33.4573 109.697 34.5925C109.697 36.1405 110.729 37.0693 112.38 37.0693C113.825 37.0693 115.167 36.0373 115.167 34.1797C115.167 31.4965 113.103 30.0518 111.348 30.0518C108.149 30.0518 107.014 32.0125 106.498 34.7989Z" fill="white"/>
<path fill-rule="evenodd" clip-rule="evenodd" d="M127.447 38.2045V34.5925C127.447 32.3221 126.106 31.1869 124.558 31.1869C123.319 31.1869 122.287 31.5997 122.287 32.5285C122.287 33.3541 123.319 33.6637 123.319 35.0053C123.319 36.3469 122.081 37.3789 120.326 37.3789C118.779 37.3789 117.437 36.1405 117.437 34.6957C117.437 31.5997 121.668 30.0518 125.383 30.0518C130.13 30.0518 133.433 32.3221 133.433 36.0373V43.674C133.433 45.2564 133.88 46.0476 134.774 46.0476C135.05 46.0476 135.394 45.91 135.806 45.6348L136.426 46.6668C135.187 48.1116 133.742 48.834 132.091 48.834C130.337 48.834 128.789 47.9052 127.86 46.1508C126.828 47.9052 124.558 48.834 122.287 48.834C118.779 48.834 116.302 46.9764 116.302 44.0868C116.302 40.3717 120.017 38.2045 127.447 38.2045ZM127.447 39.2365C124.042 39.2365 122.184 40.4749 122.184 43.4677C122.184 45.1188 123.01 46.6668 124.764 46.6668C126.931 46.6668 127.447 45.1188 127.447 42.642V39.2365Z" fill="white"/>
<path d="M53.1438 46.873H51.2862V18.4932H50.5638C47.7774 18.906 45.4038 18.9059 43.3398 18.9059V20.2476H45.3006V46.873H43.3398V48.2145H53.1438V46.873Z" fill="white"/>
<path fill-rule="evenodd" clip-rule="evenodd" d="M32.6073 48.834C27.0345 48.834 23.3193 44.4996 23.3193 39.2365C23.3193 34.4893 27.0345 30.0518 32.2977 30.0518C38.3864 30.0518 41.4824 34.4893 41.4824 39.2365H30.0273V42.126C30.0273 45.9444 31.4721 47.1828 34.2585 47.1828C37.0449 47.1828 38.7993 45.4284 39.9345 42.5388H41.276C40.244 46.4604 37.664 48.834 32.6073 48.834ZM30.0273 37.8949H34.7745V35.1085C34.7745 32.8381 34.3617 31.2901 32.2977 31.2901C30.3369 31.2901 30.0273 32.6317 30.0273 35.2117V37.8949Z" fill="white"/>
<path fill-rule="evenodd" clip-rule="evenodd" d="M158.304 39.546C158.304 45.6348 155.002 48.834 150.667 48.834C148.81 48.834 147.055 48.4212 145.714 46.77V58.3283H148.5V59.6699H137.354V58.3283H139.728V32.0125H137.354V30.5678C140.554 30.5678 142.308 30.4646 145.094 30.0518H145.714V32.4253H145.817C146.849 30.7741 148.706 30.0518 150.667 30.0518C154.692 30.0518 158.304 33.3541 158.304 39.546ZM151.493 36.5533C151.493 33.9733 150.977 32.0125 148.603 32.0125C146.849 32.0125 145.714 33.3541 145.714 36.1405V42.4357C145.714 44.9125 146.849 46.8732 148.706 46.8732C150.977 46.8732 151.493 44.9124 151.493 42.0228V36.5533Z" fill="white"/>
<path d="M4.53681 46.7696V48.2144H20.6359V46.7696H16.1984V20.2474H16.9207C20.3263 20.2474 22.5967 23.0338 23.6287 28.5033H24.9703L24.7639 18.9058H0.408838L0.305664 28.5033H1.54407C2.64486 22.9994 4.91522 20.2474 8.35519 20.2474H8.97443V46.7696H4.53681Z" fill="white"/>
<path fill-rule="evenodd" clip-rule="evenodd" d="M55.4141 39.2365C55.4141 34.4893 59.1292 30.0518 64.4956 30.0518C70.4811 30.0518 73.5771 34.4893 73.5771 39.2365H62.122V42.126C62.122 45.9444 63.5668 47.1828 66.3532 47.1828C69.1395 47.1828 70.8939 45.4284 72.0291 42.5388H73.3707C72.3387 46.4604 69.7588 48.834 64.702 48.834C59.1292 48.834 55.4141 44.4996 55.4141 39.2365ZM62.122 37.8949H66.8692V34.6957C66.8692 32.4253 66.0436 31.2901 64.4956 31.2901C62.8444 31.2901 62.122 32.4253 62.122 34.7989V37.8949Z" fill="white"/>
</g>
</g>
<g clip-path="url(#clip0_72_2066)">
<path fill-rule="evenodd" clip-rule="evenodd" d="M363.899 32.2894C360.895 32.2894 358.83 34.5362 358.83 37.3447C358.83 40.1532 360.707 42.4001 363.899 42.4001C367.09 42.4001 368.967 40.1532 368.967 37.3447C368.967 34.5362 366.902 32.2894 363.899 32.2894ZM342.216 27.8894C346.91 27.8894 349.725 31.4469 349.725 36.5958C349.725 40.6213 348.318 43.7107 345.689 46.1448L342.498 43.5235C344 41.932 345.314 39.3107 345.314 36.5958C345.314 33.8809 343.812 31.8213 341.653 31.8213C339.494 31.8213 337.993 33.2256 337.993 36.1277V40.3405H333.581V36.1277C333.581 33.2256 332.079 31.8213 329.92 31.8213C327.762 31.8213 326.26 33.6001 326.26 36.5958V36.8767C326.26 39.4979 327.574 42.0256 329.076 43.5235L325.884 46.1448C323.256 43.6171 321.848 40.6213 321.848 36.5958V36.4086C321.848 31.3532 324.758 27.8894 329.357 27.8894C333.957 27.8894 334.895 29.3873 335.834 31.5405C336.772 29.3873 339.025 27.8894 342.31 27.8894H342.216ZM478.881 27.8894C484.512 27.8894 488.079 32.1022 488.079 37.1575C488.079 42.2128 486.859 43.8043 484.512 46.1448L481.321 43.5235C483.105 41.2767 483.574 39.2171 483.574 37.1575C483.574 34.1618 481.884 31.8213 478.693 31.8213C475.502 31.8213 473.812 34.1618 473.812 37.1575C473.812 40.1533 474.281 41.2767 476.065 43.5235L472.873 46.1448C470.621 43.8043 469.307 40.9022 469.307 37.1575C469.307 33.4128 472.873 27.8894 478.505 27.8894H478.881ZM433.545 20.8682V21.0554C433.545 23.0213 438.614 23.8639 438.614 27.7022C438.614 31.5405 437.112 30.9788 435.328 31.3533C438.426 32.2894 440.303 34.8171 440.303 38.2809C440.303 41.7447 436.83 46.332 431.011 46.332C425.191 46.332 423.22 43.9916 422.281 39.966L426.224 38.3745C426.881 40.8086 428.664 42.3065 430.917 42.3065C434.108 42.3065 435.798 40.4341 435.798 38.1873C435.798 35.9405 433.92 33.8809 430.917 33.8809H428.195V29.8554H430.635C432.794 29.8554 434.014 29.1065 434.014 27.7022C434.014 25.1745 428.946 25.1745 428.946 21.149V20.8682H433.451H433.545ZM371.408 21.0554V25.0809H360.614C359.018 25.0809 358.455 26.0171 358.455 27.2341V30.6043C359.675 28.6384 362.491 28.0767 364.368 28.0767C370.094 28.0767 373.379 32.1958 373.379 37.3447C373.379 42.4937 369.812 46.6128 363.899 46.6128C357.985 46.6128 354.043 42.6809 354.043 36.5958V27.4214C354.043 23.9575 356.39 21.149 360.332 21.149H371.408V21.0554ZM453.538 35.4724C449.877 36.2213 448.375 39.4979 448.375 42.5873C448.375 46.1447 450.346 49.8894 455.321 49.8894C460.296 49.8894 462.173 46.1447 462.267 42.5873C462.267 39.5916 460.765 36.4086 457.292 35.566C457.386 36.2213 457.668 37.6256 457.668 38.749V40.715H453.256V38.749C453.256 37.532 453.538 36.0341 453.632 35.4724H453.538ZM457.574 28.3575V29.2937C457.574 29.949 457.574 30.7916 457.386 31.4469C463.675 32.383 466.679 37.3447 466.679 42.5873C466.679 47.8298 463.112 53.915 455.321 53.915C447.531 53.915 443.964 48.3915 443.964 42.5873C443.964 36.783 446.967 32.2894 453.444 31.4469C453.444 30.7916 453.256 30.0426 453.256 29.2937V28.3575H457.668H457.574ZM394.967 28.3575V28.5447C394.967 30.9788 396.845 31.5405 396.845 34.0681C396.845 36.5958 395.249 37.7192 392.996 38.1873C396.281 39.1235 397.971 41.2767 397.971 45.0213C397.971 48.766 394.404 53.915 388.209 53.915C382.014 53.915 378.447 49.7958 378.447 44.7405V28.4511H382.859V44.7405C382.859 47.4554 384.642 49.983 388.209 49.983C391.776 49.983 393.559 47.6426 393.559 45.0213C393.559 42.4001 391.682 40.2469 388.679 40.2469H387.928V36.315H389.617C391.307 36.315 392.339 35.3788 392.339 34.0681C392.339 32.1022 390.462 31.7277 390.462 28.8256V28.5447H394.873L394.967 28.3575ZM410.455 27.8894C415.899 27.8894 419.184 30.9788 419.184 36.5958V45.3022C419.184 50.2639 415.805 53.915 410.267 53.915C404.729 53.915 401.913 51.2937 401.35 46.332L405.386 45.2086C405.762 48.3916 407.545 49.983 409.985 49.983C412.426 49.983 414.679 47.9235 414.679 45.3022V36.6894C414.679 33.9745 413.271 31.915 410.455 31.915C407.639 31.915 406.137 33.9745 406.137 36.6894V38.2809H401.725V36.6894C401.725 31.166 405.011 27.983 410.455 27.983V27.8894ZM316.498 28.3575V32.1958C316.498 34.9107 315.372 36.783 313.307 37.9064C316.404 39.0298 318.281 41.6511 318.281 45.3022C318.281 48.9532 314.809 53.915 308.989 53.915C303.17 53.915 301.198 51.5745 300.26 47.549L304.202 45.9575C304.859 48.3916 306.642 49.8894 308.895 49.8894C312.086 49.8894 313.776 47.8299 313.776 45.2086C313.776 42.5873 311.899 40.3405 308.895 40.3405H305.985V36.315H307.957C310.679 36.315 311.993 34.7235 311.993 32.4767V28.2639H316.404L316.498 28.3575Z" fill="white"/>
<path fill-rule="evenodd" clip-rule="evenodd" d="M253.61 21.8977C253.798 21.9913 254.08 22.2722 254.08 22.2722C256.52 25.0807 260.932 32.3828 262.715 35.3786C264.968 39.2169 270.13 48.8594 270.599 50.0764C270.599 50.17 270.599 50.3573 270.506 50.4509C270.412 50.4509 270.224 50.6381 269.849 50.2637C267.877 48.2041 263.184 44.2722 255.488 41.1828C255.112 40.9956 254.737 40.9019 254.361 40.7147C253.235 40.153 252.672 39.4041 252.39 38.2807C251.545 35.0041 250.888 28.919 251.733 23.6764C251.733 23.4892 251.827 22.8338 252.108 22.3658C252.484 21.6168 253.047 21.5232 253.61 21.8041V21.8977ZM250.701 21.1488C250.888 21.1488 250.982 21.336 250.794 21.8041C250.043 24.519 248.917 30.6041 250.043 38.7487C250.043 39.2168 250.137 39.5913 250.231 39.9658C250.231 41.1828 249.95 42.119 249.105 42.8679C246.664 45.2083 241.69 48.7658 236.715 50.7317C236.527 50.7317 235.964 51.0126 235.401 51.1062C234.556 51.1062 234.181 50.6381 234.181 50.0764C234.181 49.5147 234.275 49.5147 234.275 49.4211C235.495 45.9573 239.625 38.4679 241.408 35.3786C243.661 31.5403 249.386 22.2722 250.231 21.2424C250.231 21.1488 250.513 21.0551 250.607 21.2424L250.701 21.1488ZM254.737 43.4296C258.022 44.3658 263.654 46.7998 267.784 50.17C267.971 50.2636 268.441 50.6381 268.722 51.1062C269.191 51.7615 268.91 52.3232 268.441 52.6041C268.253 52.6977 267.877 52.7913 267.877 52.7913C264.311 53.4466 255.675 53.6339 252.108 53.6339C247.603 53.6339 236.621 53.353 235.307 53.0722C235.213 53.0722 235.025 52.9785 235.025 52.7913C235.025 52.6041 235.025 52.5104 235.589 52.3232C238.404 51.5743 244.13 49.5147 250.701 44.4594C251.076 44.1785 251.358 43.9913 251.639 43.7105C252.672 43.0551 253.61 42.9615 254.737 43.2424V43.4296Z" fill="white"/>
<path d="M286.556 18.5276H284.96V56.3489H286.556V18.5276Z" fill="white"/>
</g>
<g clip-path="url(#clip1_72_2066)">
<path d="M595.858 28.675C595.796 33.4512 600.21 36.1163 603.536 37.701C606.952 39.3268 608.1 40.3694 608.086 41.8235C608.061 44.0486 605.361 45.0307 602.835 45.0689C598.427 45.1356 595.864 43.9051 593.826 42.9744L592.239 50.2403C594.283 51.1614 598.068 51.9647 601.993 52C611.207 52 617.235 47.5523 617.267 40.6564C617.303 31.9046 604.888 31.4202 604.973 27.5084C605.003 26.3222 606.16 25.0564 608.696 24.7346C609.951 24.572 613.417 24.4476 617.346 26.2169L618.888 19.187C616.775 18.4347 614.059 17.7143 610.678 17.7143C602.006 17.7143 595.907 22.2225 595.858 28.675V28.675ZM633.705 18.3198C632.023 18.3198 630.605 19.2795 629.972 20.7523L616.811 51.4836H626.018L627.85 46.5321H639.101L640.164 51.4836H648.278L641.197 18.3198H633.705V18.3198ZM634.993 27.2786L637.65 39.732H630.374L634.993 27.2786V27.2786ZM584.695 18.3202L577.437 51.4832H586.211L593.465 18.3194H584.695V18.3202ZM571.716 18.3194L562.584 40.8924L558.89 21.6995C558.456 19.557 556.745 18.3198 554.844 18.3198H539.916L539.707 19.2828C542.772 19.9331 546.254 20.982 548.363 22.1043C549.654 22.7899 550.022 23.3892 550.446 25.0183L557.443 51.4836H566.714L580.929 18.3198H571.716" fill="white"/>
</g>
<defs>
<clipPath id="clip0_72_2066">
<rect width="260" height="44" fill="white" transform="translate(230.989 16)"/>
</clipPath>
<clipPath id="clip1_72_2066">
<rect width="111.429" height="40" fill="white" transform="translate(539.265 12)"/>
</clipPath>
</defs>
</svg>
