<svg width="130" height="40" viewBox="0 0 130 40" fill="none" xmlns="http://www.w3.org/2000/svg">
<g clip-path="url(#clip0_32778_95921)">
<path d="M0 6C0 2.68629 2.68003 0 5.98601 0H123.711C127.017 0 129.697 2.68629 129.697 6V34C129.697 37.3137 127.017 40 123.711 40H5.98601C2.68003 40 0 37.3137 0 34V6Z" fill="black"/>
<path fill-rule="evenodd" clip-rule="evenodd" d="M25.7091 20.5806C25.7309 18.8841 26.6182 17.3171 28.0601 16.4286C27.1464 15.1204 25.6707 14.3208 24.0783 14.2709C22.403 14.0946 20.7788 15.2757 19.9251 15.2757C19.0549 15.2757 17.7404 14.2884 16.3251 14.3176C14.4627 14.3779 12.7686 15.4135 11.8626 17.0454C9.93305 20.3939 11.3722 25.3149 13.2206 28.0215C14.1453 29.3469 15.226 30.8273 16.6402 30.7748C18.024 30.7173 18.5409 29.8903 20.2113 29.8903C21.8662 29.8903 22.3511 30.7748 23.7939 30.7414C25.2788 30.7173 26.2143 29.4102 27.1067 28.0723C27.7711 27.1279 28.2823 26.0842 28.6215 24.9798C26.8579 24.2321 25.7111 22.5 25.7091 20.5806Z" fill="white"/>
<path fill-rule="evenodd" clip-rule="evenodd" d="M22.9831 12.4906C23.7928 11.5164 24.1916 10.2642 24.0951 9C22.8581 9.13022 21.7155 9.72278 20.8949 10.6596C20.0846 11.5839 19.6742 12.7932 19.7539 14.021C21.0074 14.0339 22.1976 13.4699 22.9831 12.4906Z" fill="white"/>
<path d="M41.4585 13.7802V8.79422H42.8951C43.2902 8.79422 43.6224 8.85122 43.8918 8.96522C44.1612 9.07322 44.3797 9.23522 44.5473 9.45122C44.7209 9.66122 44.8436 9.91922 44.9154 10.2252C44.9932 10.5252 45.0321 10.8672 45.0321 11.2512C45.0321 11.6472 44.9902 11.9862 44.9064 12.2682C44.8286 12.5442 44.7268 12.7752 44.6011 12.9612C44.4754 13.1472 44.3318 13.2942 44.1701 13.4022C44.0145 13.5102 43.8559 13.5942 43.6943 13.6542C43.5326 13.7082 43.38 13.7442 43.2363 13.7622C43.0927 13.7742 42.9729 13.7802 42.8772 13.7802H41.4585ZM40.6055 8.07422V14.5002H42.8053C43.3381 14.5002 43.799 14.4252 44.1881 14.2752C44.5772 14.1252 44.8974 13.9092 45.1489 13.6272C45.4003 13.3392 45.5858 12.9882 45.7056 12.5742C45.8253 12.1542 45.8851 11.6742 45.8851 11.1342C45.8851 10.1022 45.6188 9.33422 45.086 8.83022C44.5532 8.32622 43.793 8.07422 42.8053 8.07422H40.6055ZM47.5382 12.1782C47.5382 11.8962 47.5741 11.6472 47.6459 11.4312C47.7237 11.2092 47.8285 11.0232 47.9602 10.8732C48.0919 10.7232 48.2445 10.6092 48.4181 10.5312C48.5977 10.4532 48.7863 10.4142 48.9838 10.4142C49.1813 10.4142 49.3669 10.4532 49.5405 10.5312C49.7201 10.6092 49.8757 10.7232 50.0074 10.8732C50.1391 11.0232 50.2409 11.2092 50.3127 11.4312C50.3905 11.6472 50.4294 11.8962 50.4294 12.1782C50.4294 12.4602 50.3905 12.7122 50.3127 12.9342C50.2409 13.1502 50.1391 13.3332 50.0074 13.4832C49.8757 13.6272 49.7201 13.7382 49.5405 13.8162C49.3669 13.8942 49.1813 13.9332 48.9838 13.9332C48.7863 13.9332 48.5977 13.8942 48.4181 13.8162C48.2445 13.7382 48.0919 13.6272 47.9602 13.4832C47.8285 13.3332 47.7237 13.1502 47.6459 12.9342C47.5741 12.7122 47.5382 12.4602 47.5382 12.1782ZM46.7301 12.1782C46.7301 12.5202 46.7779 12.8382 46.8737 13.1322C46.9695 13.4262 47.1132 13.6842 47.3047 13.9062C47.4963 14.1222 47.7327 14.2932 48.0141 14.4192C48.2954 14.5392 48.6186 14.5992 48.9838 14.5992C49.3549 14.5992 49.6782 14.5392 49.9535 14.4192C50.2349 14.2932 50.4713 14.1222 50.6629 13.9062C50.8544 13.6842 50.9981 13.4262 51.0939 13.1322C51.1896 12.8382 51.2375 12.5202 51.2375 12.1782C51.2375 11.8362 51.1896 11.5182 51.0939 11.2242C50.9981 10.9242 50.8544 10.6662 50.6629 10.4502C50.4713 10.2282 50.2349 10.0542 49.9535 9.92822C49.6782 9.80222 49.3549 9.73922 48.9838 9.73922C48.6186 9.73922 48.2954 9.80222 48.0141 9.92822C47.7327 10.0542 47.4963 10.2282 47.3047 10.4502C47.1132 10.6662 46.9695 10.9242 46.8737 11.2242C46.7779 11.5182 46.7301 11.8362 46.7301 12.1782ZM56.9143 14.5002L58.3958 9.84722H57.6056L56.5641 13.6542H56.5461L55.5764 9.84722H54.7413L53.8075 13.6542H53.7896L52.739 9.84722H51.895L53.3855 14.5002H54.2116L55.1454 10.8012H55.1634L56.1062 14.5002H56.9143ZM59.301 9.84722V14.5002H60.0642V11.8722C60.0642 11.6622 60.0911 11.4702 60.145 11.2962C60.2049 11.1162 60.2917 10.9602 60.4054 10.8282C60.5191 10.6962 60.6598 10.5942 60.8274 10.5222C61.001 10.4502 61.2045 10.4142 61.438 10.4142C61.7313 10.4142 61.9618 10.4982 62.1294 10.6662C62.297 10.8342 62.3808 11.0622 62.3808 11.3502V14.5002H63.144V11.4402C63.144 11.1882 63.1171 10.9602 63.0632 10.7562C63.0153 10.5462 62.9285 10.3662 62.8028 10.2162C62.6771 10.0662 62.5125 9.94922 62.309 9.86522C62.1054 9.78122 61.851 9.73922 61.5457 9.73922C60.8574 9.73922 60.3545 10.0212 60.0373 10.5852H60.0193V9.84722H59.301ZM64.5148 8.07422V14.5002H65.278V8.07422H64.5148ZM67.1966 12.1782C67.1966 11.8962 67.2326 11.6472 67.3044 11.4312C67.3822 11.2092 67.487 11.0232 67.6187 10.8732C67.7503 10.7232 67.903 10.6092 68.0766 10.5312C68.2562 10.4532 68.4447 10.4142 68.6423 10.4142C68.8398 10.4142 69.0254 10.4532 69.199 10.5312C69.3785 10.6092 69.5342 10.7232 69.6659 10.8732C69.7976 11.0232 69.8993 11.2092 69.9712 11.4312C70.049 11.6472 70.0879 11.8962 70.0879 12.1782C70.0879 12.4602 70.049 12.7122 69.9712 12.9342C69.8993 13.1502 69.7976 13.3332 69.6659 13.4832C69.5342 13.6272 69.3785 13.7382 69.199 13.8162C69.0254 13.8942 68.8398 13.9332 68.6423 13.9332C68.4447 13.9332 68.2562 13.8942 68.0766 13.8162C67.903 13.7382 67.7503 13.6272 67.6187 13.4832C67.487 13.3332 67.3822 13.1502 67.3044 12.9342C67.2326 12.7122 67.1966 12.4602 67.1966 12.1782ZM66.3885 12.1782C66.3885 12.5202 66.4364 12.8382 66.5322 13.1322C66.628 13.4262 66.7716 13.6842 66.9632 13.9062C67.1547 14.1222 67.3912 14.2932 67.6725 14.4192C67.9539 14.5392 68.2771 14.5992 68.6423 14.5992C69.0134 14.5992 69.3366 14.5392 69.612 14.4192C69.8933 14.2932 70.1298 14.1222 70.3213 13.9062C70.5129 13.6842 70.6566 13.4262 70.7523 13.1322C70.8481 12.8382 70.896 12.5202 70.896 12.1782C70.896 11.8362 70.8481 11.5182 70.7523 11.2242C70.6566 10.9242 70.5129 10.6662 70.3213 10.4502C70.1298 10.2282 69.8933 10.0542 69.612 9.92822C69.3366 9.80222 69.0134 9.73922 68.6423 9.73922C68.2771 9.73922 67.9539 9.80222 67.6725 9.92822C67.3912 10.0542 67.1547 10.2282 66.9632 10.4502C66.7716 10.6662 66.628 10.9242 66.5322 11.2242C66.4364 11.5182 66.3885 11.8362 66.3885 12.1782ZM76.0879 14.4822C75.9562 14.5602 75.7736 14.5992 75.5401 14.5992C75.3426 14.5992 75.184 14.5452 75.0643 14.4372C74.9505 14.3232 74.8937 14.1402 74.8937 13.8882C74.6841 14.1402 74.4387 14.3232 74.1574 14.4372C73.882 14.5452 73.5827 14.5992 73.2595 14.5992C73.05 14.5992 72.8494 14.5752 72.6579 14.5272C72.4723 14.4792 72.3107 14.4042 72.173 14.3022C72.0353 14.2002 71.9246 14.0682 71.8408 13.9062C71.763 13.7382 71.7241 13.5372 71.7241 13.3032C71.7241 13.0392 71.769 12.8232 71.8587 12.6552C71.9485 12.4872 72.0653 12.3522 72.2089 12.2502C72.3586 12.1422 72.5262 12.0612 72.7118 12.0072C72.9033 11.9532 73.0979 11.9082 73.2954 11.8722C73.5049 11.8302 73.7024 11.8002 73.888 11.7822C74.0796 11.7582 74.2472 11.7282 74.3908 11.6922C74.5345 11.6502 74.6482 11.5932 74.732 11.5212C74.8158 11.4432 74.8577 11.3322 74.8577 11.1882C74.8577 11.0202 74.8248 10.8852 74.759 10.7832C74.6991 10.6812 74.6183 10.6032 74.5165 10.5492C74.4208 10.4952 74.31 10.4592 74.1843 10.4412C74.0646 10.4232 73.9449 10.4142 73.8251 10.4142C73.5019 10.4142 73.2325 10.4772 73.017 10.6032C72.8015 10.7232 72.6848 10.9542 72.6669 11.2962H71.9036C71.9156 11.0082 71.9755 10.7652 72.0832 10.5672C72.191 10.3692 72.3346 10.2102 72.5142 10.0902C72.6938 9.96422 72.8973 9.87422 73.1248 9.82022C73.3582 9.76622 73.6067 9.73922 73.87 9.73922C74.0796 9.73922 74.2861 9.75422 74.4896 9.78422C74.6991 9.81422 74.8877 9.87722 75.0553 9.97322C75.2229 10.0632 75.3576 10.1922 75.4593 10.3602C75.5611 10.5282 75.612 10.7472 75.612 11.0172V13.4112C75.612 13.5912 75.621 13.7232 75.6389 13.8072C75.6629 13.8912 75.7347 13.9332 75.8544 13.9332C75.9203 13.9332 75.9981 13.9182 76.0879 13.8882V14.4822ZM74.8488 12.0972C74.753 12.1692 74.6273 12.2232 74.4716 12.2592C74.316 12.2892 74.1514 12.3162 73.9778 12.3402C73.8102 12.3582 73.6396 12.3822 73.466 12.4122C73.2924 12.4362 73.1368 12.4782 72.9991 12.5382C72.8614 12.5982 72.7477 12.6852 72.6579 12.7992C72.5741 12.9072 72.5322 13.0572 72.5322 13.2492C72.5322 13.3752 72.5561 13.4832 72.604 13.5732C72.6579 13.6572 72.7237 13.7262 72.8015 13.7802C72.8853 13.8342 72.9811 13.8732 73.0889 13.8972C73.1966 13.9212 73.3104 13.9332 73.4301 13.9332C73.6815 13.9332 73.897 13.9002 74.0766 13.8342C74.2561 13.7622 74.4028 13.6752 74.5165 13.5732C74.6303 13.4652 74.7141 13.3512 74.7679 13.2312C74.8218 13.1052 74.8488 12.9882 74.8488 12.8802V12.0972ZM77.5344 12.2142C77.5344 11.9862 77.5583 11.7642 77.6062 11.5482C77.6541 11.3322 77.7319 11.1402 77.8397 10.9722C77.9474 10.8042 78.0911 10.6692 78.2707 10.5672C78.4502 10.4652 78.6687 10.4142 78.9261 10.4142C79.1895 10.4142 79.414 10.4652 79.5996 10.5672C79.7851 10.6632 79.9348 10.7922 80.0485 10.9542C80.1682 11.1162 80.255 11.3052 80.3089 11.5212C80.3628 11.7312 80.3897 11.9502 80.3897 12.1782C80.3897 12.3942 80.3628 12.6072 80.3089 12.8172C80.261 13.0272 80.1802 13.2162 80.0665 13.3842C79.9527 13.5462 79.8061 13.6782 79.6265 13.7802C79.4469 13.8822 79.2284 13.9332 78.971 13.9332C78.7256 13.9332 78.5101 13.8852 78.3245 13.7892C78.145 13.6932 77.9953 13.5642 77.8756 13.4022C77.7619 13.2402 77.6751 13.0572 77.6152 12.8532C77.5613 12.6432 77.5344 12.4302 77.5344 12.2142ZM81.126 14.5002V8.07422H80.3628V10.4682H80.3448C80.261 10.3302 80.1563 10.2162 80.0306 10.1262C79.9108 10.0302 79.7821 9.95522 79.6445 9.90122C79.5068 9.84122 79.3691 9.79922 79.2314 9.77522C79.0937 9.75122 78.965 9.73922 78.8453 9.73922C78.4921 9.73922 78.1809 9.80522 77.9115 9.93722C77.6481 10.0632 77.4266 10.2372 77.2471 10.4592C77.0735 10.6752 76.9418 10.9302 76.852 11.2242C76.7682 11.5182 76.7263 11.8302 76.7263 12.1602C76.7263 12.4902 76.7712 12.8022 76.861 13.0962C76.9507 13.3902 77.0824 13.6482 77.256 13.8702C77.4356 14.0922 77.6571 14.2692 77.9205 14.4012C78.1899 14.5332 78.5041 14.5992 78.8633 14.5992C79.1865 14.5992 79.4828 14.5422 79.7522 14.4282C80.0216 14.3142 80.2191 14.1282 80.3448 13.8702H80.3628V14.5002H81.126ZM85.7152 12.1782C85.7152 11.8962 85.7511 11.6472 85.8229 11.4312C85.9007 11.2092 86.0055 11.0232 86.1372 10.8732C86.2689 10.7232 86.4215 10.6092 86.5951 10.5312C86.7747 10.4532 86.9633 10.4142 87.1608 10.4142C87.3583 10.4142 87.5439 10.4532 87.7175 10.5312C87.8971 10.6092 88.0527 10.7232 88.1844 10.8732C88.3161 11.0232 88.4179 11.2092 88.4897 11.4312C88.5675 11.6472 88.6064 11.8962 88.6064 12.1782C88.6064 12.4602 88.5675 12.7122 88.4897 12.9342C88.4179 13.1502 88.3161 13.3332 88.1844 13.4832C88.0527 13.6272 87.8971 13.7382 87.7175 13.8162C87.5439 13.8942 87.3583 13.9332 87.1608 13.9332C86.9633 13.9332 86.7747 13.8942 86.5951 13.8162C86.4215 13.7382 86.2689 13.6272 86.1372 13.4832C86.0055 13.3332 85.9007 13.1502 85.8229 12.9342C85.7511 12.7122 85.7152 12.4602 85.7152 12.1782ZM84.9071 12.1782C84.9071 12.5202 84.9549 12.8382 85.0507 13.1322C85.1465 13.4262 85.2902 13.6842 85.4817 13.9062C85.6733 14.1222 85.9097 14.2932 86.1911 14.4192C86.4724 14.5392 86.7956 14.5992 87.1608 14.5992C87.5319 14.5992 87.8552 14.5392 88.1305 14.4192C88.4119 14.2932 88.6483 14.1222 88.8399 13.9062C89.0314 13.6842 89.1751 13.4262 89.2709 13.1322C89.3666 12.8382 89.4145 12.5202 89.4145 12.1782C89.4145 11.8362 89.3666 11.5182 89.2709 11.2242C89.1751 10.9242 89.0314 10.6662 88.8399 10.4502C88.6483 10.2282 88.4119 10.0542 88.1305 9.92822C87.8552 9.80222 87.5319 9.73922 87.1608 9.73922C86.7956 9.73922 86.4724 9.80222 86.1911 9.92822C85.9097 10.0542 85.6733 10.2282 85.4817 10.4502C85.2902 10.6662 85.1465 10.9242 85.0507 11.2242C84.9549 11.5182 84.9071 11.8362 84.9071 12.1782ZM90.494 9.84722V14.5002H91.2572V11.8722C91.2572 11.6622 91.2842 11.4702 91.338 11.2962C91.3979 11.1162 91.4847 10.9602 91.5984 10.8282C91.7122 10.6962 91.8528 10.5942 92.0204 10.5222C92.194 10.4502 92.3976 10.4142 92.631 10.4142C92.9243 10.4142 93.1548 10.4982 93.3224 10.6662C93.49 10.8342 93.5738 11.0622 93.5738 11.3502V14.5002H94.337V11.4402C94.337 11.1882 94.3101 10.9602 94.2562 10.7562C94.2083 10.5462 94.1215 10.3662 93.9958 10.2162C93.8701 10.0662 93.7055 9.94922 93.502 9.86522C93.2985 9.78122 93.044 9.73922 92.7388 9.73922C92.0504 9.73922 91.5475 10.0212 91.2303 10.5852H91.2123V9.84722H90.494ZM99.401 9.84722V8.45222H98.6378V9.84722H97.8476V10.5222H98.6378V13.4832C98.6378 13.6992 98.6587 13.8732 98.7006 14.0052C98.7425 14.1372 98.8054 14.2392 98.8892 14.3112C98.979 14.3832 99.0927 14.4342 99.2304 14.4642C99.3741 14.4882 99.5447 14.5002 99.7422 14.5002H100.326V13.8252H99.9757C99.856 13.8252 99.7572 13.8222 99.6793 13.8162C99.6075 13.8042 99.5506 13.7832 99.5087 13.7532C99.4668 13.7232 99.4369 13.6812 99.419 13.6272C99.407 13.5732 99.401 13.5012 99.401 13.4112V10.5222H100.326V9.84722H99.401ZM101.354 8.07422V14.5002H102.117V11.8722C102.117 11.6622 102.144 11.4702 102.198 11.2962C102.257 11.1162 102.344 10.9602 102.458 10.8282C102.572 10.6962 102.712 10.5942 102.88 10.5222C103.054 10.4502 103.257 10.4142 103.491 10.4142C103.784 10.4142 104.014 10.4982 104.182 10.6662C104.35 10.8342 104.433 11.0622 104.433 11.3502V14.5002H105.197V11.4402C105.197 11.1882 105.17 10.9602 105.116 10.7562C105.068 10.5462 104.981 10.3662 104.855 10.2162C104.73 10.0662 104.565 9.94922 104.362 9.86522C104.158 9.78122 103.904 9.73922 103.598 9.73922C103.461 9.73922 103.317 9.75422 103.167 9.78422C103.024 9.81422 102.883 9.86222 102.745 9.92822C102.614 9.98822 102.494 10.0692 102.386 10.1712C102.278 10.2672 102.195 10.3872 102.135 10.5312H102.117V8.07422H101.354ZM109.746 11.7282H107.079C107.091 11.5482 107.13 11.3802 107.196 11.2242C107.262 11.0622 107.352 10.9212 107.465 10.8012C107.579 10.6812 107.714 10.5882 107.869 10.5222C108.031 10.4502 108.211 10.4142 108.408 10.4142C108.6 10.4142 108.773 10.4502 108.929 10.5222C109.09 10.5882 109.228 10.6812 109.342 10.8012C109.462 10.9152 109.554 11.0532 109.62 11.2152C109.692 11.3772 109.734 11.5482 109.746 11.7282ZM110.482 13.0242H109.728C109.662 13.3302 109.524 13.5582 109.315 13.7082C109.111 13.8582 108.848 13.9332 108.525 13.9332C108.273 13.9332 108.055 13.8912 107.869 13.8072C107.684 13.7232 107.531 13.6122 107.411 13.4742C107.292 13.3302 107.205 13.1682 107.151 12.9882C107.097 12.8022 107.073 12.6072 107.079 12.4032H110.554C110.566 12.1212 110.539 11.8242 110.473 11.5122C110.413 11.2002 110.3 10.9122 110.132 10.6482C109.97 10.3842 109.752 10.1682 109.477 10.0002C109.207 9.82622 108.866 9.73922 108.453 9.73922C108.136 9.73922 107.842 9.79922 107.573 9.91922C107.31 10.0392 107.079 10.2072 106.882 10.4232C106.69 10.6392 106.54 10.8942 106.433 11.1882C106.325 11.4822 106.271 11.8062 106.271 12.1602C106.283 12.5142 106.334 12.8412 106.424 13.1412C106.519 13.4412 106.66 13.6992 106.846 13.9152C107.031 14.1312 107.259 14.2992 107.528 14.4192C107.803 14.5392 108.127 14.5992 108.498 14.5992C109.025 14.5992 109.462 14.4672 109.809 14.2032C110.156 13.9392 110.38 13.5462 110.482 13.0242Z" fill="white"/>
<path d="M56.7877 21.9768C59.0801 21.9768 60.5913 23.7932 60.5913 26.5989C60.5913 29.4124 59.089 31.22 56.8218 31.22C55.6499 31.2814 54.5461 30.6662 53.9798 29.636H53.9369V34.1204H52.0829V22.0715H53.8775V23.5774H53.9116C54.503 22.5536 55.608 21.9387 56.7877 21.9768ZM66.7293 21.9768C69.0218 21.9768 70.533 23.7932 70.533 26.5989C70.533 29.4124 69.0306 31.22 66.7634 31.22C65.5915 31.2814 64.4877 30.6662 63.9214 29.636H63.8785V34.1204H62.0245V22.0715H63.8191V23.5774H63.8532C64.4446 22.5536 65.5496 21.9387 66.7293 21.9768ZM80.0401 18.5002C82.6579 18.5002 84.4525 19.9719 84.513 22.1145H82.6414C82.5293 20.8752 81.5072 20.1272 80.0137 20.1272C78.5201 20.1272 77.4981 20.884 77.4981 21.9856C77.4981 22.8635 78.1509 23.3801 79.7477 23.7756L81.1127 24.1115C83.6546 24.714 84.7108 25.7375 84.7108 27.5539C84.7108 29.8771 82.8645 31.3322 79.9279 31.3322C77.1804 31.3322 75.3255 29.9113 75.2056 27.6652L77.1035 27.6653C77.2409 28.8967 78.4344 29.7053 80.0653 29.7053C81.6282 29.7053 82.7524 28.8967 82.7524 27.7863C82.7524 26.8225 82.0743 26.2453 80.4687 25.8498L78.8631 25.4621C76.5881 24.9113 75.532 23.8449 75.532 22.1145C75.532 19.9719 77.3948 18.5002 80.0401 18.5002ZM95.7086 21.9602C98.3274 21.9602 99.9938 23.7502 99.9938 26.5989C99.9938 29.4553 98.3362 31.2376 95.7086 31.2376C93.0818 31.2376 91.4246 29.4553 91.4246 26.5989C91.4246 23.7503 93.0985 21.9602 95.7086 21.9602ZM110.722 21.9602C113.221 21.9602 114.793 23.6809 114.793 26.426V27.0627H108.413V27.1751C108.353 27.8491 108.586 28.5163 109.051 29.0069C109.516 29.4976 110.168 29.7644 110.843 29.7395C111.742 29.824 112.591 29.3061 112.929 28.4661H114.69C114.44 30.1096 112.843 31.2376 110.801 31.2376C108.173 31.2376 106.542 29.4729 106.542 26.6418C106.542 23.802 108.182 21.9602 110.722 21.9602ZM88.7121 19.929V22.0715H90.4298V23.5432H88.7121V28.5344C88.7121 29.3098 89.0561 29.6711 89.8111 29.6711C90.0151 29.6676 90.2187 29.6532 90.421 29.6281V31.091C90.0816 31.1546 89.7365 31.1834 89.3912 31.177C87.5625 31.177 86.8494 30.4885 86.8494 28.7326V23.5432H85.536V22.0715H86.8492V19.929H88.7121ZM46.4583 18.7073L50.9313 31.1253H48.8969L47.7639 27.7688H43.0415L41.9075 31.1253H39.9072L44.3802 18.7073H46.4583ZM105.506 21.9768C105.719 21.9761 105.933 21.9993 106.141 22.0461V23.7844C105.871 23.7018 105.59 23.6639 105.308 23.6721C104.763 23.65 104.236 23.8677 103.864 24.2682C103.493 24.6686 103.314 25.2118 103.376 25.7551V31.1252H101.522V22.0715H103.29V23.6125H103.333C103.579 22.6205 104.486 21.9378 105.506 21.9768ZM95.7086 23.4915C94.2062 23.4915 93.3138 24.6536 93.3138 26.5989C93.3138 28.5608 94.2062 29.7053 95.7086 29.7053C97.2108 29.7053 98.1043 28.5608 98.1043 26.5989C98.1043 24.6448 97.2108 23.4915 95.7086 23.4915ZM56.2986 23.5608C54.882 23.5608 53.9292 24.7913 53.9292 26.5989C53.9292 28.4231 54.882 29.6448 56.2986 29.6448C57.7406 29.6448 58.6857 28.4485 58.6857 26.5989C58.6857 24.7659 57.7406 23.5608 56.2986 23.5608ZM66.2402 23.5608C64.8236 23.5608 63.8707 24.7913 63.8707 26.5989C63.8707 28.4231 64.8236 29.6448 66.2402 29.6448C67.6821 29.6448 68.6272 28.4485 68.6272 26.5989C68.6272 24.7659 67.6821 23.5608 66.2402 23.5608ZM45.4285 20.7727H45.3769L43.5306 26.22H47.2738L45.4285 20.7727ZM110.722 23.4661C110.112 23.4624 109.527 23.7031 109.095 24.1346C108.663 24.5661 108.42 25.1527 108.422 25.7639H112.938C112.972 25.1583 112.751 24.566 112.331 24.1298C111.91 23.6936 111.327 23.453 110.722 23.4661Z" fill="white"/>
</g>
<defs>
<clipPath id="clip0_32778_95921">
<rect width="129.697" height="40" fill="white"/>
</clipPath>
</defs>
</svg>
