<svg width="66" height="20" viewBox="0 0 66 20" fill="none" xmlns="http://www.w3.org/2000/svg">
<path d="M55.7116 1.87128e-06H10.5163C7.96405 -0.00157067 5.5146 0.988034 3.70176 2.75315C2.80813 3.62337 2.09866 4.65877 1.61426 5.79967C1.12985 6.94055 0.880101 8.16438 0.879395 9.40053V9.94063C0.880166 11.1767 1.12995 12.4005 1.61435 13.5413C2.09875 14.6821 2.80819 15.7174 3.70176 16.5875C5.5146 18.3527 7.96405 19.3423 10.5163 19.3407H55.7116C58.264 19.3422 60.7134 18.3526 62.5262 16.5875C63.4199 15.7173 64.1291 14.6818 64.6133 13.5409C65.0976 12.4001 65.3479 11.1763 65.3484 9.94019V9.40053C65.3479 8.16443 65.0982 6.94072 64.6133 5.79995C64.1291 4.65912 63.4199 3.62379 62.5262 2.75364C60.7134 0.988471 58.264 -0.00128438 55.7116 1.87128e-06Z" fill="#FD4100"/>
<path d="M46.8936 9.88067C46.8915 10.8378 46.6968 11.7852 46.3207 12.6682C45.9446 13.5511 45.3945 14.3524 44.7021 15.0257C43.2977 16.3917 41.4012 17.1579 39.425 17.1576H10.9149C8.93791 17.1587 7.04042 16.3931 5.63483 15.0272C4.94151 14.354 4.39053 13.5526 4.01359 12.6694C3.63665 11.7862 3.44119 10.8384 3.43845 9.88067V9.45948C3.44106 8.50195 3.63633 7.55431 4.01301 6.67116C4.38969 5.78801 4.94036 4.98674 5.63335 4.31342C7.0393 2.94714 8.9374 2.18151 10.9149 2.18305H39.424C41.4001 2.18265 43.2966 2.9486 44.7011 4.31439C45.3937 4.98768 45.9439 5.78889 46.3202 6.67188C46.6965 7.55486 46.8914 8.50223 46.8936 9.45948V9.88067Z" fill="white"/>
<path d="M50.9376 11.1093C50.933 11.3276 50.8423 11.5357 50.6846 11.6895C50.526 11.8445 50.3127 11.9336 50.0891 11.938C49.9733 11.9448 49.8574 11.9284 49.7482 11.8899C49.6391 11.8513 49.5391 11.7914 49.4542 11.7137C49.3699 11.6363 49.3027 11.5428 49.2567 11.4388C49.2107 11.3348 49.187 11.2227 49.187 11.1093C49.187 10.9959 49.2107 10.8838 49.2567 10.7798C49.3027 10.6758 49.3699 10.5823 49.4542 10.5049C49.5391 10.4272 49.6391 10.3673 49.7482 10.3287C49.8573 10.2901 49.9733 10.2737 50.0891 10.2805C50.3125 10.2844 50.5258 10.3727 50.6846 10.5271C50.8431 10.6813 50.9338 10.8902 50.9376 11.1093Z" fill="white"/>
<path d="M55.9212 7.30107C55.5348 7.38274 55.1397 7.4186 54.7445 7.40794C55.021 7.48464 55.2633 7.65014 55.4328 7.87803C55.6023 8.10586 55.6892 8.38299 55.6796 8.66508C55.6796 9.59968 54.8951 10.282 53.6087 10.282C53.4178 10.2869 53.2269 10.269 53.0403 10.2288C52.9888 10.2553 52.9456 10.2951 52.9153 10.3439C52.8846 10.3923 52.8676 10.4479 52.8661 10.5048C52.8661 10.6533 52.933 10.8017 53.4104 10.8017H54.1771C55.3331 10.8017 56.0748 11.395 56.0748 12.2039C56.0748 13.2039 55.1624 13.8087 53.4566 13.8087C51.7509 13.8087 51.2125 13.331 51.1028 12.5332C51.0998 12.4981 51.1043 12.4629 51.1159 12.4296C51.1275 12.3963 51.146 12.3657 51.1702 12.3398C51.1952 12.3138 51.2253 12.2933 51.2588 12.2794C51.2922 12.2653 51.3283 12.2584 51.3646 12.259H52.1948C52.2515 12.2588 52.3065 12.278 52.3503 12.3133C52.3942 12.3486 52.4241 12.3978 52.435 12.4524C52.4985 12.7488 52.7603 12.8557 53.5024 12.8557C54.375 12.8557 54.5698 12.6212 54.5698 12.3127C54.5698 12.0042 54.373 11.8321 53.873 11.8321H53.1525C52.0639 11.8321 51.6318 11.3969 51.6318 10.8772C51.6454 10.6871 51.7063 10.5033 51.8094 10.3419C51.9123 10.1805 52.0542 10.0465 52.2224 9.95168C51.9474 9.83768 51.7142 9.64406 51.5541 9.39661C51.3943 9.15009 51.3154 8.86131 51.3281 8.56932C51.3281 7.47464 52.2224 6.78948 53.5088 6.78948C54.2317 6.82694 54.9503 6.66012 55.5797 6.30889C55.6311 6.28502 55.6888 6.27756 55.7448 6.28756C55.8007 6.29751 55.8521 6.32442 55.8917 6.36448C55.9178 6.39106 55.9379 6.42267 55.9507 6.45732L56.124 6.98919C56.1344 7.02251 56.1376 7.0576 56.1333 7.09219C56.1289 7.12645 56.1172 7.15938 56.0989 7.18889C56.0806 7.21884 56.0561 7.2447 56.0271 7.26482C55.9974 7.28488 55.9639 7.29875 55.9286 7.30543L55.9212 7.30107ZM52.7893 8.53793C52.7748 8.64259 52.7838 8.74913 52.8158 8.85004C52.8478 8.95088 52.902 9.04367 52.9744 9.12175C53.0469 9.19977 53.1359 9.26128 53.2352 9.30184C53.3346 9.3424 53.4417 9.36107 53.5491 9.35649C54.0053 9.35649 54.2913 9.06008 54.2913 8.5171C54.2913 7.97412 54.0511 7.728 53.5491 7.728C53.4426 7.72507 53.3367 7.74458 53.2385 7.78519C53.1403 7.82581 53.0521 7.88659 52.9797 7.96346C52.9077 8.03994 52.8533 8.13084 52.8204 8.22992C52.7875 8.329 52.7769 8.43443 52.7893 8.53793Z" fill="white"/>
<path d="M60.8786 9.78933H57.8037C57.892 10.6597 58.3302 10.8956 58.9382 10.8956C59.2874 10.8881 59.6272 10.7853 59.9202 10.5988C59.9747 10.5646 60.04 10.5507 60.1041 10.5595C60.1682 10.5684 60.2273 10.5994 60.27 10.6471L60.5743 11.0624C60.5951 11.0901 60.6103 11.1217 60.6187 11.1553C60.6266 11.1889 60.6272 11.2237 60.621 11.2576C60.6148 11.2915 60.6013 11.3238 60.5822 11.3526C60.5625 11.3813 60.5372 11.4058 60.5074 11.4246C59.9995 11.7649 59.3994 11.9469 58.7846 11.9468C57.1271 11.9468 56.3001 10.9024 56.3001 9.39577C56.3001 7.93649 57.1063 6.79102 58.6131 6.79102C60.0304 6.79102 60.8999 7.7049 60.8999 9.26812C60.9039 9.44214 60.8966 9.6162 60.8786 9.78933ZM59.4612 8.8639C59.4399 8.20532 59.2453 7.74839 58.6553 7.74839C58.1536 7.74839 57.8707 8.04529 57.8037 8.93497H59.4612V8.8639Z" fill="white"/>
<path d="M15.412 8.44521V12.0615C15.412 12.0949 15.4051 12.128 15.392 12.1587C15.3788 12.1895 15.3595 12.2175 15.3352 12.2409C15.3109 12.2643 15.282 12.2829 15.2504 12.2954C15.2187 12.3079 15.1848 12.3142 15.1506 12.3138H14.0621C14.0279 12.3142 13.9941 12.3079 13.9624 12.2954C13.9307 12.2829 13.9019 12.2643 13.8775 12.2409C13.8532 12.2175 13.8339 12.1895 13.8208 12.1587C13.8076 12.128 13.8008 12.0949 13.8007 12.0615V8.72134C13.8007 8.15753 13.6039 8.0096 13.3416 8.0096C13.0163 8.0096 12.7545 8.2649 12.5355 8.701V12.0619C12.5324 12.1285 12.5037 12.1913 12.4553 12.2379C12.4066 12.2847 12.3417 12.3118 12.2737 12.3138H11.1649C11.0991 12.3108 11.0372 12.2827 10.9922 12.2355C10.9473 12.1885 10.923 12.1259 10.9247 12.0615V8.72134C10.9247 8.15753 10.7057 8.0096 10.4444 8.0096C10.1162 8.0096 9.85386 8.2649 9.6142 8.701V12.0619C9.61544 12.0937 9.61027 12.1254 9.59907 12.1551C9.58782 12.1849 9.57073 12.2122 9.54873 12.2355C9.50419 12.2827 9.44249 12.3109 9.37697 12.3138H8.26132C8.19327 12.3118 8.12842 12.2847 8.07971 12.2379C8.03128 12.1913 8.0026 12.1285 7.99951 12.0619V7.2751C8.00187 7.20807 8.03022 7.14441 8.07875 7.09716C8.12746 7.04964 8.1927 7.02201 8.26132 7.0198H9.19637C9.25621 7.01892 9.3142 7.04013 9.3588 7.07931C9.40335 7.11822 9.43113 7.17232 9.43653 7.23061L9.52461 7.6576C9.69924 7.40816 9.93378 7.20486 10.2075 7.06572C10.4811 6.92652 10.7854 6.85579 11.0935 6.85977C11.37 6.847 11.6435 6.92028 11.875 7.06915C12.1072 7.21702 12.2853 7.43386 12.3834 7.68805C12.5617 7.4301 12.8021 7.21951 13.0834 7.07511C13.3646 6.93067 13.6779 6.85684 13.9951 6.86027C14.8465 6.86121 15.412 7.45452 15.412 8.44521Z" fill="#414042"/>
<path d="M19.6419 12.3254C19.4775 12.9396 19.1141 13.4845 18.6066 13.8779C18.0992 14.2712 17.4751 14.4915 16.8289 14.5056C16.7629 14.5117 16.697 14.4931 16.6444 14.4534C16.5918 14.4139 16.5566 14.3561 16.5459 14.2919L16.4579 13.6657C16.4475 13.6036 16.4621 13.5399 16.4987 13.4883C16.5361 13.4373 16.5922 13.4026 16.6552 13.3916C16.934 13.378 17.2051 13.297 17.4444 13.1557C17.6837 13.0144 17.8837 12.8172 18.0268 12.5817C17.9189 12.5296 17.8228 12.4568 17.7443 12.3675C17.666 12.2784 17.6069 12.1746 17.5706 12.0624L16.0504 7.34954C16.0366 7.31218 16.0324 7.27212 16.0379 7.23278C16.0435 7.19343 16.0588 7.15602 16.0824 7.12375C16.1061 7.09137 16.1373 7.06506 16.1736 7.04705C16.2098 7.02904 16.2499 7.01986 16.2905 7.0203H17.4461C17.5062 7.02146 17.5643 7.04202 17.6114 7.07877C17.6587 7.11541 17.6923 7.16641 17.7069 7.22382L18.6193 11.3057L19.6439 7.21222C19.6568 7.15906 19.6872 7.11159 19.7305 7.07733C19.7742 7.04302 19.8281 7.02379 19.884 7.02268H20.9938C21.0362 7.01837 21.079 7.02473 21.1182 7.04125C21.1575 7.05771 21.1917 7.0838 21.2177 7.11701C21.2437 7.14989 21.2605 7.18879 21.2666 7.22996C21.2728 7.27113 21.2679 7.31318 21.2527 7.35197L19.6419 12.3254Z" fill="#414042"/>
<path d="M26.4877 11.6252L26.2687 12.263C26.2488 12.3188 26.2098 12.3661 26.1584 12.3969C26.1068 12.4278 26.046 12.4402 25.9862 12.4322C25.7527 12.4188 25.5277 12.342 25.3361 12.2103C25.1451 12.0791 24.9952 11.8981 24.9035 11.6876C24.7259 11.9497 24.4813 12.1615 24.1942 12.3015C23.9071 12.4415 23.5876 12.5049 23.2677 12.4854C23.0374 12.5015 22.8063 12.4701 22.5891 12.3933C22.3719 12.3166 22.1734 12.1961 22.0064 12.0396C21.8398 11.8839 21.7087 11.6953 21.6214 11.4864C21.5341 11.2774 21.4927 11.0527 21.4999 10.8269C21.4999 9.67909 22.3942 9.04709 24.0511 9.04709H24.6004V8.81263C24.6004 8.18643 24.3602 7.99689 23.688 7.99689C23.2875 8.01209 22.8913 8.08309 22.5113 8.2077C22.4443 8.2303 22.371 8.22655 22.3068 8.19726C22.2426 8.16797 22.1924 8.11542 22.1668 8.0506L21.9699 7.47812C21.9472 7.41595 21.9504 7.34748 21.9788 7.28758C22.0074 7.22746 22.0588 7.18077 22.122 7.1575C22.7071 6.97205 23.3168 6.8722 23.9316 6.86115C25.5039 6.86115 26.1786 7.49889 26.1786 8.73283V10.7854C26.1634 10.8879 26.1734 10.9926 26.2076 11.0906C26.2418 11.1887 26.2994 11.2773 26.3755 11.3491C26.4218 11.3774 26.4576 11.4196 26.4773 11.4695C26.4972 11.5192 26.4998 11.5739 26.4847 11.6252H26.4877ZM24.6004 10.8477V9.91212H24.1988C23.4606 9.91212 23.1102 10.1674 23.1102 10.6857C23.0985 10.772 23.1065 10.8598 23.1334 10.9426C23.1602 11.0256 23.2054 11.1016 23.2657 11.1654C23.3262 11.2294 23.4002 11.2797 23.4826 11.3127C23.565 11.3457 23.6537 11.3606 23.7426 11.3564C23.9198 11.3564 24.0935 11.3087 24.245 11.2186C24.3959 11.1293 24.5188 11.0011 24.6004 10.8477Z" fill="#414042"/>
<path d="M31.8518 12.3132H30.9394C30.9087 12.3145 30.8781 12.3096 30.8493 12.299C30.8206 12.2884 30.7943 12.2722 30.7721 12.2513C30.75 12.2306 30.7324 12.2058 30.7203 12.1781C30.7084 12.1506 30.7022 12.1208 30.7022 12.0908L30.6353 11.646C30.4629 11.9159 30.2206 12.1359 29.9331 12.2835C29.6456 12.4309 29.3234 12.5006 28.9994 12.4854C27.9989 12.4854 27.497 11.8476 27.497 10.8153V7.27642C27.4966 7.24276 27.503 7.20939 27.5161 7.17822C27.5291 7.14705 27.5484 7.11882 27.5727 7.09511C27.5972 7.07129 27.6262 7.05245 27.6582 7.03974C27.6901 7.02703 27.7243 7.02073 27.7588 7.02112H28.8567C28.9253 7.02333 28.9906 7.05096 29.0393 7.09848C29.0878 7.14573 29.1162 7.20939 29.1185 7.27642V10.6253C29.1185 11.1572 29.2918 11.3167 29.6417 11.3167C29.8302 11.2989 30.0106 11.2321 30.1643 11.1233C30.3175 11.0151 30.4385 10.8688 30.5147 10.6993V7.27597C30.5145 7.24282 30.521 7.20994 30.5339 7.17927C30.5469 7.1481 30.5662 7.11981 30.5906 7.0961C30.6149 7.07234 30.6438 7.05361 30.6756 7.04096C30.7069 7.02847 30.7403 7.02206 30.7741 7.02211H31.8656C31.8998 7.02206 31.9336 7.02869 31.9652 7.04151C31.9969 7.05438 32.0255 7.07328 32.0497 7.09704C32.0737 7.12069 32.0927 7.14882 32.1056 7.17982C32.1184 7.21077 32.1249 7.24398 32.1245 7.27741V12.0642C32.1249 12.0976 32.1185 12.1306 32.1056 12.1614C32.0928 12.1922 32.0737 12.2202 32.0497 12.2436C32.0255 12.2671 31.9968 12.2857 31.9654 12.2983C31.9338 12.3107 31.9001 12.317 31.8661 12.3166" fill="#414042"/>
<path d="M36.7628 11.8656C36.7873 11.9097 36.7975 11.9601 36.7922 12.0101C36.7868 12.0602 36.7661 12.1074 36.7327 12.1455C36.7106 12.171 36.6835 12.1919 36.653 12.2069C36.2683 12.3986 35.8436 12.5 35.4124 12.5033C34.214 12.5033 33.6244 11.8331 33.6244 10.59V8.12315H33.1136C33.0618 8.12387 33.0109 8.10928 32.9677 8.08127C32.9244 8.05325 32.8907 8.01308 32.871 7.966C32.8582 7.93533 32.8517 7.90245 32.8518 7.86929V7.27647C32.8514 7.24282 32.8579 7.20944 32.8709 7.17828C32.8839 7.14711 32.9032 7.11887 32.9276 7.09517C32.952 7.07135 32.9811 7.05251 33.013 7.0398C33.045 7.02709 33.0792 7.02079 33.1136 7.02118H33.6156V6.10249C33.6192 6.03928 33.6451 5.97926 33.6889 5.93279C33.7328 5.88626 33.7918 5.85604 33.8558 5.84725L34.9473 5.73165C34.9824 5.72723 35.0182 5.7301 35.0521 5.74021C35.086 5.75027 35.1174 5.76729 35.1441 5.79017C35.171 5.8131 35.1925 5.8415 35.2071 5.87339C35.2217 5.90527 35.2291 5.93992 35.2288 5.9749V7.01924H36.1865C36.2233 7.02073 36.2594 7.02996 36.2923 7.04632C36.3251 7.06262 36.354 7.08572 36.3769 7.11401C36.3995 7.14225 36.4156 7.17491 36.4241 7.20978C36.4326 7.2447 36.4333 7.28095 36.4262 7.31615L36.3381 7.90941C36.3261 7.96865 36.2935 8.02198 36.246 8.06027C36.1983 8.09884 36.1385 8.12001 36.0767 8.12023H35.2401V10.5465C35.2401 11.0566 35.4133 11.2375 35.7633 11.2375C35.8911 11.2374 36.0174 11.211 36.1343 11.1601C36.1925 11.1378 36.257 11.1365 36.3161 11.1566C36.3751 11.1767 36.425 11.2169 36.4566 11.2699L36.7628 11.8656Z" fill="#414042"/>
<path d="M42.3368 9.67909C42.3368 11.367 41.3334 12.4835 39.6763 12.4835C38.0193 12.4835 37.0154 11.4425 37.0154 9.66555C37.0154 7.97324 38.0188 6.86115 39.6763 6.86115C41.3338 6.86115 42.3368 7.89345 42.3368 9.67909ZM38.6877 9.67909C38.6877 10.8477 39.0159 11.337 39.6719 11.337C40.3279 11.337 40.6512 10.8269 40.6512 9.69307C40.6512 8.50655 40.3259 8.02303 39.6719 8.02303C39.0179 8.02303 38.6877 8.53119 38.6877 9.67909Z" fill="#414042"/>
</svg>
