<svg width="79" height="20" viewBox="0 0 79 20" fill="none" xmlns="http://www.w3.org/2000/svg">
<path d="M7.13218 17.91H63.0615V1.44272H6.47178L3.18684 3.70204L1.48209 7.63767V10.5402L3.65441 15.2112L7.13218 17.91Z" fill="white"/>
<path d="M55.7681 11.9467C55.7843 11.9782 55.7943 12.0129 55.7975 12.0485C55.8008 12.0841 55.7971 12.1201 55.7868 12.1542C55.7764 12.1884 55.7597 12.2201 55.7374 12.2474C55.7152 12.2747 55.6879 12.2972 55.6572 12.3135C55.266 12.5164 54.835 12.6225 54.3978 12.6236C53.1811 12.6129 52.5838 11.9006 52.5838 10.5574V7.91534H52.0719C52.0368 7.91582 52.002 7.909 51.9695 7.89527C51.937 7.88155 51.9074 7.8612 51.8826 7.83544C51.8578 7.80968 51.8382 7.77901 51.825 7.74526C51.8118 7.7115 51.8052 7.67534 51.8057 7.63891V6.99567C51.8052 6.95932 51.8118 6.92324 51.825 6.88958C51.8383 6.85593 51.8579 6.82537 51.8827 6.79975C51.9076 6.77413 51.9371 6.75395 51.9696 6.74042C52.0021 6.7269 52.0369 6.72029 52.0719 6.72101H52.5838V5.73223C52.5872 5.66407 52.6135 5.59929 52.6581 5.54913C52.7026 5.49897 52.7627 5.46657 52.8279 5.45757L53.9336 5.33175C53.9696 5.32667 54.0061 5.32966 54.0408 5.34055C54.0755 5.35143 54.1075 5.36994 54.1347 5.39482C54.1619 5.4197 54.1836 5.45036 54.1984 5.48473C54.2132 5.5191 54.2207 5.55637 54.2203 5.59401V6.72101H55.1947C55.232 6.72254 55.2686 6.73248 55.3018 6.75012C55.3351 6.76777 55.3642 6.79271 55.3873 6.82322C55.4103 6.85372 55.4267 6.88906 55.4353 6.9268C55.4439 6.96453 55.4445 7.00375 55.437 7.04174L55.3483 7.68498C55.3368 7.74929 55.3041 7.80745 55.2559 7.84948C55.2076 7.89151 55.1468 7.9148 55.0838 7.91534H54.2203V10.5344C54.2203 11.0837 54.391 11.2804 54.751 11.2804C54.883 11.2803 55.0136 11.2525 55.135 11.1989C55.1956 11.1741 55.2629 11.1734 55.324 11.1969C55.3851 11.2205 55.4357 11.2666 55.466 11.3265L55.7681 11.9467Z" fill="#414042"/>
<path d="M15.2894 8.24727V12.1457C15.2907 12.1817 15.2852 12.2177 15.273 12.2515C15.2608 12.2853 15.2422 12.3162 15.2184 12.3424C15.1945 12.3687 15.1659 12.3897 15.1341 12.4043C15.1024 12.4189 15.0681 12.4268 15.0334 12.4274H13.9174C13.8823 12.4279 13.8476 12.4211 13.8152 12.4073C13.7828 12.3936 13.7534 12.3732 13.7287 12.3474C13.704 12.3216 13.6846 12.291 13.6716 12.2572C13.6585 12.2235 13.6522 12.1874 13.6529 12.151V8.54674C13.6529 7.93717 13.4532 7.77592 13.187 7.77592C12.8559 7.77592 12.5914 8.05058 12.3696 8.52193V12.151C12.3675 12.2233 12.339 12.2921 12.2899 12.3434C12.2408 12.3947 12.1747 12.4248 12.1051 12.4274H10.9754C10.9083 12.4233 10.8453 12.3921 10.8001 12.3405C10.7548 12.2888 10.7308 12.2208 10.7331 12.151V8.54674C10.7331 7.93717 10.5113 7.77592 10.2468 7.77592C9.90546 7.77592 9.64949 8.05058 9.40547 8.52193V12.151C9.4078 12.2211 9.38353 12.2893 9.33789 12.341C9.29225 12.3927 9.22889 12.4238 9.16144 12.4274H8.03688C7.96726 12.4248 7.90121 12.3947 7.8521 12.3434C7.80299 12.2921 7.7745 12.2233 7.77238 12.151V6.98383C7.7745 6.91151 7.80299 6.84274 7.8521 6.79141C7.90121 6.74009 7.96726 6.71006 8.03688 6.7074H8.98909C9.05008 6.70675 9.10902 6.73018 9.154 6.77295C9.19899 6.81571 9.22665 6.87462 9.23141 6.93776L9.32014 7.39671C9.49646 7.12786 9.73412 6.90851 10.0119 6.75824C10.2897 6.60797 10.5991 6.53145 10.9123 6.53551C11.1924 6.52064 11.4698 6.5984 11.7047 6.7576C11.9396 6.9168 12.1198 7.14925 12.2194 7.42152C12.6614 6.82435 13.1682 6.53551 13.8542 6.53551C14.7177 6.53551 15.2928 7.16812 15.2928 8.24727" fill="#414042"/>
<path d="M29.5532 8.24719V12.1456C29.5539 12.182 29.5476 12.2181 29.5346 12.2518C29.5215 12.2856 29.5021 12.3162 29.4774 12.342C29.4527 12.3678 29.4233 12.3882 29.3909 12.4019C29.3585 12.4157 29.3238 12.4225 29.2887 12.422H28.183C28.1479 12.4225 28.1131 12.4157 28.0805 12.402C28.048 12.3882 28.0185 12.3679 27.9937 12.3421C27.9689 12.3164 27.9493 12.2857 27.9361 12.252C27.9229 12.2182 27.9163 12.182 27.9167 12.1456V8.54665C27.9167 7.93708 27.7171 7.77583 27.4509 7.77583C27.1198 7.77583 26.8553 8.05049 26.6335 8.52185V12.1509C26.6314 12.2232 26.6029 12.292 26.5538 12.3433C26.5047 12.3947 26.4386 12.4247 26.369 12.4274H25.241C25.1736 12.4237 25.1102 12.3927 25.0646 12.341C25.0189 12.2893 24.9947 12.221 24.997 12.1509V8.54665C24.997 7.93708 24.7769 7.77583 24.5106 7.77583C24.1779 7.77583 23.9134 8.05049 23.6694 8.52185V12.1509C23.6717 12.221 23.6474 12.2893 23.6018 12.341C23.5561 12.3927 23.4928 12.4237 23.4253 12.4274H22.2974C22.2273 12.4252 22.1606 12.3954 22.1109 12.3441C22.0611 12.2927 22.032 12.2237 22.0294 12.1509V6.98374C22.032 6.91156 22.0606 6.84302 22.1096 6.79178C22.1586 6.74055 22.2245 6.71038 22.294 6.70731H23.2462C23.3071 6.70667 23.3661 6.7301 23.4111 6.77286C23.4561 6.81562 23.4837 6.87453 23.4885 6.93767L23.5772 7.39662C23.7538 7.12763 23.9918 6.90821 24.2699 6.75794C24.548 6.60767 24.8576 6.53123 25.171 6.53542C25.4509 6.52094 25.7279 6.59887 25.9625 6.75805C26.197 6.91723 26.377 7.14946 26.4765 7.42143C26.9185 6.82426 27.4253 6.53542 28.113 6.53542C28.9748 6.53542 29.5498 7.16803 29.5498 8.24719" fill="#414042"/>
<path d="M19.5808 12.4393C19.161 13.8056 18.2976 14.6331 16.7276 14.7943C16.6605 14.8007 16.5935 14.7805 16.54 14.7378C16.4865 14.6951 16.4506 14.633 16.4392 14.564L16.3505 13.8871C16.3395 13.82 16.3542 13.7511 16.3915 13.6951C16.4289 13.6391 16.4858 13.6005 16.5502 13.5876C17.3027 13.4494 17.6781 13.1978 17.9443 12.714C17.7737 12.6697 17.545 12.3702 17.4802 12.1505L15.9444 7.06307C15.9306 7.02275 15.9265 6.9796 15.9322 6.93725C15.938 6.89491 15.9535 6.85464 15.9775 6.81986C16.0014 6.78507 16.0331 6.7568 16.0698 6.73745C16.1065 6.71809 16.1472 6.70822 16.1884 6.70867H17.3607C17.4216 6.71013 17.4805 6.73222 17.5282 6.77156C17.5759 6.8109 17.61 6.86534 17.6252 6.92662L18.5638 11.3407L19.603 6.91068C19.6161 6.85308 19.6471 6.80157 19.6912 6.76409C19.7353 6.72662 19.7901 6.70527 19.847 6.70335H20.975C21.0162 6.70278 21.0569 6.71259 21.0936 6.73195C21.1303 6.75131 21.1619 6.77964 21.1857 6.8145C21.2096 6.84937 21.2249 6.88972 21.2304 6.93209C21.2359 6.97446 21.2314 7.01758 21.2173 7.05775L19.5808 12.4393Z" fill="#414042"/>
<path d="M51.3808 9.46473C51.3808 7.61121 50.4166 6.5356 48.8399 6.5356C47.1709 6.5356 46.2682 7.89119 46.2682 9.60472C46.2682 11.3927 47.2016 12.6171 49.0378 12.6171C49.6723 12.6218 50.2948 12.4373 50.8313 12.0855L50.8859 12.0501C50.9106 12.0354 50.9345 12.0194 50.9576 12.0023C51.0113 11.9616 51.0482 11.9014 51.0608 11.8337C51.0735 11.766 51.061 11.6958 51.0258 11.6372L50.6743 11.0861C50.6373 11.0311 50.5822 10.9919 50.5194 10.9759C50.4566 10.96 50.3904 10.9683 50.333 10.9993C50.2665 11.0418 50.1982 11.0808 50.1282 11.1216C49.8401 11.2924 49.5147 11.3839 49.1829 11.3874C48.5088 11.3874 48.0412 11.1074 47.9269 10.0832H51.3398C51.3641 9.87793 51.3778 9.67149 51.3808 9.46473ZM49.7733 9.0554H47.9423C48.0156 8.03118 48.3365 7.66614 48.8876 7.66614C49.5412 7.66614 49.7682 8.19775 49.7784 8.9792L49.7733 9.0554Z" fill="#414042"/>
<path d="M35.5415 11.6835L35.3197 12.3728C35.2985 12.4318 35.2585 12.4816 35.2064 12.5138C35.1543 12.5461 35.0931 12.5588 35.033 12.55C34.5023 12.4703 34.1474 12.2523 33.9272 11.7455C33.5296 12.3763 32.9306 12.6067 32.2668 12.6067C31.1832 12.6067 30.4751 11.8607 30.4751 10.8152C30.4751 9.5748 31.3829 8.89789 33.0638 8.89789H33.6166V8.65158C33.6166 7.97467 33.3743 7.76558 32.6883 7.76558C32.2816 7.78279 31.8794 7.86037 31.4938 7.99594C31.4259 8.01628 31.3531 8.00936 31.2898 7.97653C31.2266 7.9437 31.1776 7.88737 31.1525 7.81874L30.9529 7.19853C30.9316 7.13148 30.9358 7.05851 30.9647 6.99458C30.9935 6.93066 31.0449 6.88063 31.1081 6.85476C31.704 6.65512 32.3251 6.54881 32.9511 6.53935C34.545 6.53935 35.231 7.22689 35.231 8.55944V10.778C35.231 11.1094 35.2975 11.2812 35.4289 11.3858C35.4757 11.4165 35.5118 11.462 35.5318 11.5156C35.5518 11.5692 35.5546 11.6281 35.5398 11.6835H35.5415ZM33.6166 10.8453V9.83529H33.219C32.4665 9.83529 32.1133 10.1099 32.1133 10.6734C32.1133 11.1324 32.3556 11.3964 32.7549 11.3964C32.9332 11.3946 33.1076 11.3423 33.2595 11.2452C33.4113 11.1481 33.5348 11.0098 33.6166 10.8453Z" fill="#414042"/>
<path d="M39.9066 6.56531H39.8554C39.7777 6.55644 39.6997 6.5523 39.6216 6.55291C38.9885 6.55291 38.4509 7.02604 38.2018 7.82344L38.1079 7.11464V6.99591C38.1015 6.92054 38.0682 6.85039 38.0145 6.79923C37.9609 6.74808 37.8907 6.71963 37.8178 6.71948H36.9151C36.8799 6.71876 36.8449 6.72541 36.8122 6.73903C36.7795 6.75264 36.7497 6.77295 36.7247 6.79874C36.6997 6.82453 36.68 6.85527 36.6667 6.88915C36.6534 6.92302 36.6467 6.95933 36.6472 6.99591V12.1507C36.6467 12.187 36.6533 12.2231 36.6666 12.2568C36.6798 12.2904 36.6994 12.321 36.7242 12.3466C36.7491 12.3722 36.7786 12.3924 36.8111 12.4059C36.8436 12.4195 36.8784 12.4261 36.9134 12.4254H38.0209C38.0559 12.4261 38.0907 12.4195 38.1232 12.4059C38.1557 12.3924 38.1852 12.3722 38.2101 12.3466C38.2349 12.321 38.2545 12.2904 38.2678 12.2568C38.281 12.2231 38.2876 12.187 38.2871 12.1507V9.55293C38.4731 8.70236 38.7547 8.19556 39.427 8.19556C39.4996 8.1959 39.572 8.20182 39.6438 8.21328H39.7018C39.7642 8.20936 39.8235 8.18357 39.87 8.14012C39.9165 8.09667 39.9474 8.03813 39.9577 7.97406L40.1369 6.86478C40.143 6.82907 40.1417 6.79242 40.1331 6.75727C40.1245 6.72212 40.1088 6.68928 40.087 6.66094C40.0652 6.6326 40.0378 6.60942 40.0067 6.59293C39.9756 6.57644 39.9414 6.56702 39.9066 6.56531Z" fill="#414042"/>
<path d="M42.507 4.57306C42.5073 4.53536 42.4998 4.49804 42.485 4.46359C42.4703 4.42915 42.4486 4.39838 42.4214 4.37337C42.3942 4.34836 42.3622 4.32967 42.3275 4.31857C42.2929 4.30747 42.2563 4.30422 42.2203 4.30903L41.1145 4.43484C41.0492 4.44424 40.9891 4.47699 40.9445 4.52744C40.9 4.5779 40.8738 4.64291 40.8705 4.71128V12.1661C40.8697 12.2031 40.8763 12.2398 40.8897 12.274C40.9032 12.3083 40.9232 12.3393 40.9486 12.3652C40.974 12.3911 41.0043 12.4113 41.0375 12.4246C41.0707 12.4379 41.1062 12.444 41.1418 12.4426H42.2476C42.2822 12.4423 42.3163 12.435 42.3482 12.4209C42.38 12.4069 42.4088 12.3864 42.4329 12.3607C42.457 12.3349 42.476 12.3045 42.4887 12.2711C42.5014 12.2377 42.5076 12.202 42.507 12.1661V4.57306Z" fill="#414042"/>
<path d="M45.884 12.165L45.8584 12.1154L44.2441 9.22877L45.7492 6.98363L45.7714 6.94465C45.8499 6.82946 45.8123 6.732 45.6673 6.732H44.4727C44.397 6.73547 44.323 6.75634 44.256 6.79312C44.189 6.82989 44.1308 6.88164 44.0854 6.94465L42.5734 9.33509L44.0615 12.1703C44.1053 12.2471 44.1661 12.3121 44.2387 12.3598C44.3114 12.4075 44.3939 12.4367 44.4796 12.445H45.7731C45.9198 12.4397 45.9659 12.3138 45.884 12.165Z" fill="#414042"/>
<path d="M69.2797 0H9.2498C6.89124 0.000469907 4.62943 0.973723 2.96184 2.70571C1.29424 4.43769 0.357422 6.78656 0.357422 9.23572V9.76732C0.357874 12.2162 1.29489 14.5646 2.96244 16.2962C4.62998 18.0278 6.89153 19.0008 9.2498 19.0013H69.2797C70.4477 19.001 71.6042 18.7619 72.6832 18.2976C73.7622 17.8332 74.7426 17.1527 75.5683 16.2949C76.394 15.4372 77.049 14.4189 77.4958 13.2983C77.9425 12.1776 78.1723 10.9766 78.1721 9.76378V9.23217C78.1712 6.78363 77.234 4.43567 75.5665 2.70445C73.899 0.973237 71.6377 0.000469609 69.2797 0ZM60.6519 9.7053C60.6492 11.6043 59.9207 13.4246 58.6264 14.7662C57.3322 16.1078 55.578 16.8611 53.7492 16.8607H9.62693C7.79816 16.8611 6.04399 16.1078 4.74974 14.7662C3.45549 13.4246 2.727 11.6043 2.72429 9.7053V9.29242C2.727 7.39341 3.45549 5.57317 4.74974 4.23153C6.04399 2.88989 7.79816 2.13657 9.62693 2.13704H53.7492C55.578 2.13657 57.3322 2.88989 58.6264 4.23153C59.9207 5.57317 60.6492 7.39341 60.6519 9.29242V9.7053Z" fill="#FFD102"/>
<path d="M64.1024 11.1173C64.0985 11.3533 64.0064 11.5786 63.8456 11.7455C63.6849 11.9125 63.468 12.0081 63.2406 12.0122C63.0121 12.0122 62.7929 11.9179 62.6313 11.7501C62.4697 11.5822 62.3789 11.3546 62.3789 11.1173C62.3789 10.88 62.4697 10.6523 62.6313 10.4845C62.7929 10.3167 63.0121 10.2224 63.2406 10.2224C63.4678 10.227 63.6845 10.3227 63.8452 10.4896C64.0058 10.6564 64.098 10.8814 64.1024 11.1173Z" fill="white"/>
<path d="M69.1467 7.00675C68.7544 7.0947 68.3534 7.13337 67.9522 7.12193C68.5938 7.40722 68.9027 7.79884 68.9027 8.47752C68.9027 9.48756 68.1058 10.2229 66.8003 10.2229C66.6071 10.2283 66.414 10.2092 66.2253 10.1662C66.174 10.1957 66.1312 10.2388 66.1012 10.2911C66.0712 10.3434 66.0551 10.4031 66.0546 10.4639C66.0546 10.6252 66.1212 10.774 66.6075 10.774H67.3805C68.5546 10.774 69.3071 11.4173 69.3071 12.2891C69.3071 13.37 68.3771 14.0239 66.6519 14.0239C64.9266 14.0239 64.3737 13.5083 64.2628 12.6453C64.2593 12.6078 64.2633 12.57 64.2746 12.5342C64.2859 12.4984 64.3042 12.4655 64.3285 12.4375C64.3527 12.4095 64.3823 12.387 64.4154 12.3715C64.4484 12.3561 64.4842 12.3479 64.5205 12.3476H65.3601C65.4176 12.3473 65.4735 12.3678 65.518 12.4057C65.5626 12.4435 65.593 12.4963 65.6041 12.5549C65.6707 12.865 65.9352 12.9908 66.6877 12.9908C67.5734 12.9908 67.7713 12.7374 67.7713 12.4043C67.7713 12.0712 67.5734 11.8886 67.0631 11.8886H66.3328C65.227 11.8886 64.785 11.4173 64.785 10.8538C64.7974 10.6492 64.8585 10.451 64.9627 10.2769C65.0669 10.1028 65.2111 9.95823 65.3823 9.85614C64.7406 9.50174 64.4761 9.03925 64.4761 8.36234C64.4761 7.17864 65.3823 6.44502 66.6945 6.44502C67.4254 6.48338 68.1515 6.30319 68.7867 5.92582C68.8214 5.90889 68.8591 5.89965 68.8975 5.89869C68.9358 5.89773 68.974 5.90506 69.0094 5.92023C69.0449 5.93539 69.0769 5.95806 69.1035 5.98679C69.1301 6.01551 69.1506 6.04967 69.1638 6.08708L69.3344 6.66121C69.3452 6.69741 69.3485 6.73555 69.3442 6.77316C69.3398 6.81078 69.328 6.84703 69.3093 6.87959C69.2907 6.91214 69.2656 6.94028 69.2359 6.96218C69.2061 6.98408 69.1723 6.99927 69.1365 7.00675H69.1467ZM65.9505 8.3393C65.9505 8.91343 66.2594 9.22531 66.7253 9.22531C67.1911 9.22531 67.4761 8.91521 67.4761 8.31804C67.4761 7.72087 67.2338 7.46747 66.7253 7.46747C66.2594 7.46747 65.9505 7.80061 65.9505 8.34107" fill="white"/>
<path d="M71.0717 9.68289C71.1604 10.6256 71.6024 10.8772 72.2219 10.8772C72.5782 10.8705 72.9254 10.7593 73.2236 10.5565C73.2794 10.5201 73.346 10.5059 73.4112 10.5163C73.4763 10.5267 73.5357 10.5611 73.5785 10.6132L73.8874 11.0615C73.9093 11.0912 73.9251 11.1252 73.9337 11.1616C73.9423 11.1979 73.9435 11.2357 73.9372 11.2726C73.931 11.3094 73.9174 11.3445 73.8973 11.3756C73.8773 11.4067 73.8512 11.4331 73.8208 11.4531C73.3059 11.8183 72.6969 12.0134 72.0734 12.0131C70.3925 12.0131 69.5512 10.8879 69.5512 9.25761C69.5512 7.68407 70.3703 6.44543 71.8976 6.44543C73.3345 6.44543 74.2184 7.43067 74.2184 9.12117C74.2226 9.30871 74.2152 9.49633 74.1962 9.68289H71.0717ZM72.7526 8.68348C72.7304 7.97467 72.5307 7.47674 71.9335 7.47674C71.4215 7.47674 71.1383 7.81165 71.0717 8.75259H72.7526V8.68348Z" fill="white"/>
</svg>
