<svg width="48" height="20" viewBox="0 0 48 20" fill="none" xmlns="http://www.w3.org/2000/svg">
<path d="M24.7474 0.511719C26.7055 0.511766 28.2932 2.07725 28.2933 4.00879V16.5029C28.2931 18.4344 26.7054 20 24.7474 20C22.7893 20 21.2017 18.4344 21.2015 16.5029V4.00879C21.2016 2.07722 22.7893 0.511719 24.7474 0.511719ZM32.7523 0C34.7103 0 36.298 1.56563 36.2982 3.49707V16.5029C36.298 18.4344 34.7104 20 32.7523 20C30.7943 19.9999 29.2075 18.4343 29.2074 16.5029V3.49707C29.2076 1.56572 30.7944 0.000136361 32.7523 0ZM7.86655 6.60059C8.26124 6.50145 8.65814 6.75673 8.72495 7.15332L9.00522 8.82129C9.0688 9.19956 8.84121 9.56706 8.47006 9.68262C7.83766 9.87968 6.83966 10.1967 5.93393 10.5146C5.22543 10.7637 5.20521 11.7434 5.90268 12.0215C6.52468 12.2693 7.16863 12.5408 7.7269 12.7627L7.72787 12.7607C8.95347 13.2474 10.0871 14.293 10.0872 16.1982C10.0872 18.1039 8.85657 19.9863 5.22397 19.9863C4.13632 19.9863 3.28471 19.8901 2.62534 19.7559C2.20271 19.6692 1.92958 19.2627 2.01596 18.8457L2.34311 17.2607C2.43082 16.8364 2.85617 16.5668 3.28452 16.6641C4.03944 16.8357 4.85015 17.0147 5.45932 17.1338C5.906 17.2214 6.34624 16.9559 6.47202 16.5244C6.6044 16.0686 6.33977 15.5912 5.87827 15.457C5.61295 15.3803 5.31427 15.2849 5.00424 15.1641C3.67064 14.6441 2.12827 13.6501 2.12827 11.5977C2.12837 8.85665 4.41537 8.0796 5.77963 7.4043C6.69161 6.95268 7.39094 6.72029 7.86655 6.60059ZM45.9134 16.3281C46.9076 16.3281 47.7142 17.1238 47.7142 18.1045C47.714 19.085 46.9074 19.8799 45.9134 19.8799C44.9196 19.8796 44.1139 19.0848 44.1136 18.1045C44.1136 17.124 44.9195 16.3284 45.9134 16.3281ZM37.2318 1.49609C37.2318 1.12005 37.579 0.835528 37.9535 0.90625C39.1265 1.12692 40.5395 1.4544 41.9994 1.89453C43.2208 2.26335 44.1612 3.23582 44.4701 4.45703C44.6999 5.36566 44.7656 6.34835 44.7914 7.38574C44.792 7.54709 44.7905 7.71948 44.7874 7.90137C44.7746 8.68304 44.6949 9.48001 44.5306 10.2188C44.2168 11.6254 42.8984 12.5785 41.4564 12.4746C41.362 12.4674 41.2684 12.4581 41.1771 12.4473C40.8534 12.4086 40.496 12.3694 40.3724 12.3555C40.3724 13.2141 40.3714 17.5742 40.3714 19.1709C40.3714 19.5016 40.0989 19.7705 39.763 19.7705H37.8382C37.5025 19.7705 37.23 19.502 37.2298 19.1709L37.2318 1.49609ZM19.9281 1.91895C20.3473 1.79319 20.7596 2.13227 20.7093 2.56152C20.322 5.85645 19.1947 15.9532 18.7865 19.2393C18.7491 19.5403 18.49 19.7656 18.183 19.7656H16.4369C16.1589 19.7654 15.9161 19.5798 15.848 19.3135L14.9359 15.5586L13.93 19.3203C13.8594 19.5831 13.6178 19.7666 13.3421 19.7666H11.558C11.2406 19.7666 10.9762 19.5256 10.9515 19.2139C10.7431 16.5338 10.1097 8.3785 9.93686 6.11133C9.91798 5.86174 10.0584 5.62641 10.2894 5.52246C10.9678 5.21719 11.6488 4.91967 12.3333 4.62891C12.7231 4.46386 13.1608 4.7336 13.181 5.15137C13.2686 6.96044 13.4371 10.6779 13.5345 12.8457L14.1956 10.2256C14.2275 10.1012 14.3264 10.0043 14.4525 9.97461L15.347 9.75391C15.5296 9.71162 15.7146 9.82009 15.763 9.99902C15.9653 10.7432 16.2552 11.8098 16.4906 12.6592L17.3304 3.14941L17.3294 3.14844C17.3503 2.9103 17.5118 2.70803 17.7415 2.63184C18.4156 2.40878 19.1872 2.14081 19.9281 1.91895ZM24.7494 3.48926C24.5232 3.48926 24.3402 3.67046 24.3402 3.89355V16.6172C24.3404 16.8401 24.5233 17.0205 24.7494 17.0205C24.9753 17.0204 25.1583 16.8401 25.1585 16.6172V3.89355C25.1585 3.67053 24.9754 3.48937 24.7494 3.48926ZM32.7542 2.97852C32.5282 2.97859 32.3452 3.15888 32.3451 3.38184V16.6172C32.3452 16.8401 32.5283 17.0204 32.7542 17.0205C32.9803 17.0205 33.1633 16.8401 33.1634 16.6172V3.38184C33.1633 3.15883 32.9803 2.97852 32.7542 2.97852ZM40.3714 9.15234L40.6966 9.20605C40.7192 9.21027 40.8304 9.22355 40.8529 9.22363C41.1215 9.22522 41.3689 9.07304 41.4603 8.8252L41.4896 8.71289C41.5527 8.32052 41.5864 7.80924 41.5736 7.17383C41.557 6.324 41.4535 5.67002 41.3402 5.20996C41.285 4.98573 41.1052 4.81391 40.8822 4.76367C40.7354 4.73063 40.376 4.65236 40.3714 4.65137V9.15234Z" fill="#FF0000"/>
</svg>
