<svg width="147" height="67" viewBox="0 0 147 67" fill="none" xmlns="http://www.w3.org/2000/svg">
<path d="M0 33.0404C0 14.7927 14.7927 0 33.0404 0H113.627C131.874 0 146.667 14.7927 146.667 33.0404C146.667 51.2881 131.874 66.0808 113.627 66.0808H33.0404C14.7927 66.0808 0 51.2881 0 33.0404Z" fill="#3C74FF"/>
<path d="M83.0037 26.1481C82.2381 26.1355 81.6148 26.7522 81.6148 27.5126V34.2072L74.561 26.2569H71.8641L71.8686 37.5798C71.8686 38.3413 72.4921 38.9561 73.2575 38.9432C74.0083 38.9305 74.5962 38.2856 74.5962 37.5351V30.6044L82.012 38.7316L84.2822 38.7358L84.3424 27.5565C84.3424 26.8057 83.7543 26.161 83.0037 26.1481ZM110.417 26.1926H99.4628V28.9204H103.863V37.5797C103.863 38.333 104.473 38.9436 105.227 38.9436C105.98 38.9436 106.59 38.333 106.59 37.5797V28.9204H110.417C111.17 28.9204 111.78 28.3098 111.78 27.5565C111.78 26.8032 111.17 26.1926 110.417 26.1926H110.417ZM57.9562 27.5565C57.9562 28.3098 58.5668 28.9204 59.3201 28.9204H63.146V37.5797C63.146 38.333 63.7566 38.9436 64.5099 38.9436C65.2632 38.9436 65.8738 38.333 65.8738 37.5797V28.9204H70.2739V26.1926H59.3201C58.5668 26.1926 57.9562 26.8032 57.9562 27.5565ZM86.0834 30.1407V34.8747C86.0834 37.0554 87.8512 38.8232 90.0319 38.8232H97.8327V36.0945H88.8112V33.8716H97.8327V31.144H88.8112V28.9211H97.8327V26.1924H90.0319C87.8512 26.1924 86.0834 27.9602 86.0834 30.1409V30.1407ZM41.2355 31.2354C40.5047 31.9662 40.5047 33.1511 41.2355 33.8819C41.9663 34.6127 43.1513 34.6127 43.8821 33.8819C44.6129 33.1509 44.6129 31.9662 43.8821 31.2354C43.1513 30.5045 41.9663 30.5045 41.2355 31.2354ZM47.1048 35.2837C47.5006 35.423 47.9238 35.3124 48.2019 35.0343C48.3099 34.926 48.3962 34.7926 48.4503 34.6388C49.2443 32.3822 48.6655 29.8321 46.9752 28.1417C45.2844 26.4511 42.7343 25.8724 40.4782 26.6677C39.9291 26.8614 39.6405 27.4638 39.8341 28.0133C40.0277 28.5628 40.6304 28.8513 41.1799 28.6575C42.6741 28.1306 44.3635 28.5139 45.4831 29.6338C46.6028 30.7533 46.9861 32.443 46.46 33.9385C46.2665 34.488 46.5553 35.0903 47.1048 35.2837ZM50.1421 26.7472C49.643 27.049 49.484 27.6975 49.7859 28.1961C51.7997 31.5234 51.2821 35.7716 48.5271 38.5268C45.7721 41.2818 41.524 41.7995 38.1964 39.7857C37.6981 39.484 37.0499 39.6423 36.7477 40.1421C36.446 40.6405 36.6056 41.2892 37.1039 41.5909C41.2645 44.1089 46.5755 43.4624 50.019 40.0188C53.4626 36.5753 54.1091 31.2644 51.591 27.1038C51.2894 26.6052 50.6407 26.4457 50.1421 26.7473V26.7472ZM36.5912 26.5907C39.346 23.8359 43.5946 23.3181 46.923 25.3314C47.3469 25.5878 47.8793 25.5109 48.2147 25.1753C48.2737 25.1164 48.3266 25.0493 48.3717 24.9746C48.6732 24.476 48.5137 23.8275 48.015 23.5259C43.8536 21.0087 38.5425 21.6556 35.0993 25.0988C31.6552 28.5429 31.0086 33.8542 33.5266 38.0148C33.8283 38.5132 34.4769 38.6727 34.9753 38.371C35.4741 38.0695 35.6334 37.4209 35.3316 36.9223C33.3177 33.5948 33.8357 29.3462 36.5912 26.5907ZM44.5426 38.4827C44.703 38.429 44.8417 38.3409 44.9538 38.2289C45.2275 37.955 45.3397 37.54 45.2087 37.1478C45.0239 36.5952 44.4264 36.297 43.8738 36.4817C42.3755 36.9823 40.7511 36.5996 39.6343 35.4828C38.5181 34.3665 38.1355 32.7423 38.6361 31.2442C38.8208 30.6916 38.5226 30.0939 37.97 29.9092C37.4174 29.7242 36.8195 30.023 36.6351 30.5752C35.8791 32.8369 36.4567 35.2892 38.1422 36.9747C39.8285 38.6609 42.2809 39.2387 44.5426 38.4827Z" fill="white"/>
</svg>
