<svg width="83" height="59" viewBox="0 0 83 59" fill="none" xmlns="http://www.w3.org/2000/svg">
<g clip-path="url(#clip0_24755_10872)">
<path d="M53.7843 23.0947C52.1136 28.1169 47.3429 31.7533 41.7308 31.7533C34.732 31.7533 29.0381 26.1014 29.0381 19.1541C29.0381 12.2068 34.732 6.5542 41.7308 6.5542C43.8617 6.5542 45.8705 7.0807 47.6351 8.00572L48.0898 7.60916C46.2005 6.57966 44.0338 5.99292 41.7308 5.99292C34.4202 5.99292 28.4727 11.8967 28.4727 19.1541C28.4727 26.4109 34.4195 32.314 41.7308 32.314C47.6695 32.314 52.7087 28.4184 54.3909 23.0652L53.7843 23.0947Z" fill="#003366"/>
<path d="M33.2363 23.2099C40.891 22.5099 48.4748 21.3458 55.9507 19.4763C55.8347 19.9894 55.7194 20.5011 55.6032 21.0142C46.0402 23.1784 39.3687 23.3773 33.2363 23.2099Z" fill="#00B2E2"/>
<path d="M34.4551 22.455C41.6239 21.3371 48.9642 19.5661 56.5028 17.0349C56.384 17.56 56.2659 18.0845 56.1479 18.6097C47.786 21.2192 40.6556 22.384 34.4551 22.455Z" fill="#00B2E2"/>
<path d="M35.6211 21.6532C42.6523 19.9131 49.8118 17.477 57.0589 14.5613C56.9408 15.0891 56.8214 15.6169 56.7026 16.1454C49.0249 19.1375 41.9235 21.1074 35.6211 21.6532Z" fill="#57C8E7"/>
<path d="M36.7871 20.7039C43.8763 18.5659 50.8495 15.3488 57.7512 11.4946C57.6055 12.1423 57.4597 12.7901 57.3139 13.4378C49.0479 17.5123 42.0443 20.1212 36.7871 20.7039Z" fill="#98DAE9"/>
<path d="M38.2949 19.7006C46.2567 15.8786 52.7298 11.9187 58.5613 7.89844C58.4006 8.61181 58.2394 9.32513 58.0788 10.0385C51.4666 14.2288 44.8673 17.6998 38.2949 19.7006Z" fill="#57C8E7"/>
<path d="M39.4551 18.4587C47.2839 13.5463 54.0749 8.54883 59.5656 3.44482C59.37 4.31625 59.1728 5.18903 58.9765 6.05977C52.481 11.6233 45.8338 15.4546 39.4551 18.4587Z" fill="#00B2E2"/>
<path d="M60.0126 0.334961C59.2737 0.355214 58.5362 0.373166 57.7973 0.3919C55.0591 3.71486 52.2978 6.58968 49.5218 9.21537C46.5136 12.0601 43.4906 14.6114 40.4648 17.1212C47.0925 12.6816 53.669 7.70962 60.0126 0.334961Z" fill="#00B2E2"/>
<path d="M18.3815 55.8821H0.337891V56.3543H18.3815V55.8821Z" fill="#00B2E2"/>
<path d="M82.6629 55.8821H64.4844V56.3543H82.6629V55.8821Z" fill="#00B2E2"/>
<path d="M4.90623 42.5328L2.77593 46.7492H7.02369L4.90623 42.5328ZM2.37106 47.5926L1.27925 49.7078C1.0362 50.2035 0.146335 49.8551 0.389256 49.32L4.46151 41.3545C4.54261 41.1796 4.73079 41.0994 4.90623 41.0994C5.08169 41.0994 5.24357 41.1796 5.33803 41.3545L9.39752 49.2798C9.7484 49.8545 8.75044 50.1894 8.49469 49.6677L7.44203 47.5919L2.37106 47.5926Z" fill="#003366"/>
<path d="M11.8675 48.9883H17.6268C18.2604 48.9883 18.2739 49.9052 17.6268 49.946H10.9639C10.4383 49.946 10.2764 49.5167 10.5733 49.1416L16.6159 42.0168H11.1536C10.5605 42.0168 10.5463 41.1414 11.1536 41.0999H17.5727C18.1261 41.0999 18.2745 41.5305 17.9642 41.9331L11.8675 48.9883Z" fill="#003366"/>
<path d="M20.4716 49.028H25.7991C26.3652 49.028 26.4462 49.9456 25.7991 49.9456H20.1201C19.7429 49.9456 19.5 49.6683 19.5 49.3347V41.6982C19.5 41.378 19.743 41.0994 20.1201 41.0994H25.8125C26.3922 41.0994 26.3652 41.9895 25.7998 41.9895H20.4724V45.1203H25.5441C26.0832 45.1203 26.1102 46.0098 25.5441 46.0098H20.4724L20.4716 49.028Z" fill="#003366"/>
<path d="M29.103 45.9158H31.8285C33.595 45.9158 34.3636 45.0785 34.3366 44.0504C34.3239 42.9237 33.3926 42.0195 31.8285 42.0195H29.103V45.9158ZM29.103 46.7799V49.4411C29.103 50.0727 28.1191 50.0727 28.1191 49.4562V41.5806C28.1191 41.2926 28.3209 41.1003 28.6178 41.1003H31.8143C34.1477 41.1003 35.3346 42.4453 35.3346 44.0509C35.3346 45.4354 34.5923 46.4374 32.9337 46.7247L35.1194 49.126C35.6315 49.6478 34.8898 50.2514 34.4446 49.7845L31.7205 46.7803L29.103 46.7799Z" fill="#003366"/>
<path d="M37.9807 49.0427H41.0023C42.1885 49.0427 43.497 48.7219 43.497 47.3179C43.497 46.2188 42.58 45.7466 41.4065 45.7466H37.9807V49.0427ZM37.9807 42.0043V44.841H40.7317C41.8917 44.841 42.9031 44.5222 42.9031 43.506C42.9031 42.3098 41.5273 42.0043 40.6919 42.0043H37.9807ZM41.0023 49.9456H37.4948C37.2262 49.9456 36.9961 49.7239 36.9961 49.4453V41.5997C36.9961 41.3224 37.2256 41.0994 37.4948 41.0994H40.6919C41.9456 41.0994 43.8883 41.5314 43.8883 43.506C43.8883 44.2294 43.5509 44.8698 42.8492 45.1611C43.8337 45.482 44.5085 46.1913 44.5085 47.3179C44.5085 49.3897 42.7014 49.9456 41.0023 49.9456Z" fill="#003366"/>
<path d="M49.7683 42.5328L47.638 46.7492H51.8864L49.7683 42.5328ZM47.2325 47.5926L46.1407 49.7078C45.8976 50.2035 45.0077 49.8551 45.2506 49.32L49.3236 41.3545C49.4045 41.1796 49.5928 41.0994 49.7683 41.0994C49.9437 41.0994 50.105 41.1796 50.2001 41.3545L54.2602 49.2798C54.6111 49.8545 53.6131 50.1894 53.3567 49.6677L52.3041 47.5919L47.2325 47.5926Z" fill="#003366"/>
<path d="M55.5547 41.589C55.5547 40.9278 56.5655 40.9413 56.5655 41.589V49.4894C56.5655 50.0969 55.5547 50.1231 55.5547 49.4894V41.589Z" fill="#003366"/>
<path d="M63.2288 42.0003H60.639C59.9655 42.0003 59.9655 41.0994 60.639 41.0994H63.6741C63.9164 41.0994 64.133 41.305 64.1599 41.5509V46.7787C64.1727 48.6207 62.4602 49.9584 60.6801 49.9584C58.9668 49.9584 57.5781 48.7299 57.4836 47.0922C57.4431 46.4639 58.4277 46.3414 58.4817 47.077C58.5625 48.3195 59.5464 49.0436 60.6801 49.0436C61.9885 49.0436 63.2288 48.0737 63.2288 46.7776V42.0003Z" fill="#003366"/>
<path d="M69.5275 42.5328L67.3972 46.7492H71.645L69.5275 42.5328ZM66.9917 47.5926L65.8999 49.7078C65.6576 50.2035 64.7669 49.8551 65.0105 49.32L69.0828 41.3545C69.1636 41.1796 69.3521 41.0994 69.5275 41.0994C69.703 41.0994 69.8648 41.1796 69.9593 41.3545L74.0195 49.2798C74.3704 49.8545 73.3717 50.1894 73.116 49.6677L72.064 47.5919L66.9917 47.5926Z" fill="#003366"/>
<path d="M81.4924 41.5722C81.4924 41.0043 82.518 40.9774 82.518 41.5722V49.3267C82.518 50.0032 81.5868 50.0695 81.3041 49.5959L76.2601 42.8281L76.3675 44.6929V49.4614C76.3675 50.1238 75.3418 50.1378 75.3418 49.4614V41.721C75.3418 41.0451 76.0969 40.9366 76.4343 41.4376L81.6268 48.395L81.4918 46.3547L81.4924 41.5722Z" fill="#003366"/>
<path d="M24.487 53.4568L23.0127 56.406H25.952L24.487 53.4568ZM22.7319 56.9961L21.9762 58.475C21.8081 58.822 21.1928 58.5788 21.3608 58.2038L24.1787 52.6336C24.2348 52.511 24.3648 52.4541 24.487 52.4541C24.6084 52.4541 24.7204 52.511 24.786 52.6336L27.5951 58.1763C27.8379 58.5795 27.1471 58.8126 26.9696 58.4476L26.2415 56.9961H22.7319Z" fill="#003366"/>
<path d="M28.4902 52.7982C28.4902 52.3347 29.1899 52.3434 29.1899 52.7982V58.3382C29.1899 58.7649 28.4902 58.783 28.4902 58.3382V52.7982Z" fill="#003366"/>
<path d="M31.289 55.8225H33.1737C34.397 55.8225 34.9287 55.2378 34.9098 54.5184C34.8996 53.73 34.2567 53.0977 33.1737 53.0977H31.289V55.8225ZM31.289 56.4268V58.2882C31.289 58.7296 30.6074 58.7296 30.6074 58.2983V52.7904C30.6074 52.5889 30.7477 52.4541 30.9529 52.4541H33.1642C34.7789 52.4541 35.6008 53.3946 35.6008 54.5185C35.6008 55.4871 35.0866 56.1877 33.9388 56.3893L35.451 58.0685C35.8052 58.4335 35.2931 58.8549 34.9841 58.5294L33.0988 56.4275L31.289 56.4268Z" fill="#003366"/>
<path d="M37.0925 58.6417C36.84 58.6417 36.7383 58.5179 36.7383 58.2867V52.7868C36.7383 52.3354 37.4286 52.3354 37.4286 52.7868V58.0094H40.9192C41.3956 58.0094 41.3956 58.6417 40.9192 58.6417H37.0925Z" fill="#003366"/>
<path d="M42.0488 52.7982C42.0488 52.3347 42.7486 52.3434 42.7486 52.7982V58.3382C42.7486 58.7649 42.0488 58.783 42.0488 58.3382V52.7982Z" fill="#003366"/>
<path d="M48.3758 52.7592C48.3758 52.3607 49.085 52.3406 49.085 52.7592V58.2068C49.085 58.6811 48.4419 58.7279 48.2449 58.3964L44.7549 53.6401L44.8283 54.9503V58.3006C44.8283 58.7662 44.1191 58.7755 44.1191 58.3006V52.8625C44.1191 52.3882 44.6421 52.3119 44.8756 52.663L48.4688 57.5519L48.3749 56.1179L48.3758 52.7592Z" fill="#003366"/>
<path d="M51.2867 57.9994H54.973C55.365 57.9994 55.421 58.6418 54.973 58.6418H51.0438C50.7826 58.6418 50.6152 58.4476 50.6152 58.2138V52.8646C50.6152 52.6408 50.7826 52.4453 51.0438 52.4453H54.9825C55.384 52.4453 55.3651 53.0689 54.9723 53.0689H51.2859V55.2612H54.7948C55.168 55.2612 55.1869 55.8848 54.7948 55.8848H51.2859L51.2867 57.9994Z" fill="#003366"/>
<path d="M56.7627 57.0314C57.0049 57.8037 58.0413 57.9718 58.7877 57.9718C59.5812 57.9718 60.8127 57.73 60.8127 56.7889C60.8127 55.9791 59.8329 55.9121 58.8059 55.829C57.5184 55.7265 56.1371 55.6068 56.1371 54.2181C56.1371 52.989 57.5562 52.4404 58.6939 52.4404C59.6736 52.4404 60.897 52.6728 61.289 53.7345C61.4288 54.1069 60.7945 54.2751 60.6548 53.9583C60.3741 53.2503 59.3754 53.1297 58.7034 53.1297C58.0785 53.1297 56.8652 53.3809 56.8652 54.2283C56.8652 55.0387 57.7984 55.1225 58.8808 55.2069C60.1595 55.3175 61.5313 55.3843 61.5313 56.7809C61.5313 58.2056 59.9355 58.6423 58.7877 58.6423C57.8362 58.6423 56.3801 58.3175 56.0724 57.1996C55.9597 56.789 56.6878 56.6496 56.7627 57.0314Z" fill="#003366"/>
</g>
<defs>
<clipPath id="clip0_24755_10872">
<rect width="83" height="59" fill="white"/>
</clipPath>
</defs>
</svg>
