<svg width="89" height="31" viewBox="0 0 89 31" fill="none" xmlns="http://www.w3.org/2000/svg">
<g clip-path="url(#clip0_24755_10971)">
<path fill-rule="evenodd" clip-rule="evenodd" d="M37.9446 16.5735L41.4326 9.57349C41.6503 9.68369 41.833 9.85238 41.9602 10.0606C42.0874 10.2689 42.154 10.5085 42.1526 10.7525C42.1532 10.9858 42.0907 11.2149 41.9716 11.4155L38.9716 16.4155L39.9856 16.2585C40.0389 16.2505 40.0927 16.2465 40.1466 16.2465C40.4185 16.2473 40.6789 16.3558 40.8709 16.5483C41.0628 16.7409 41.1706 17.0016 41.1706 17.2735H43.9976L43.7436 16.9535H43.2266L43.1126 16.7975H44.6126C44.6945 16.9349 44.8088 17.0502 44.9454 17.1333C45.0821 17.2165 45.237 17.2649 45.3966 17.2745C45.3806 17.3275 45.3656 17.3745 45.3486 17.4315H38.9976L41.6256 19.4485C41.7743 19.5636 41.8945 19.7115 41.9769 19.8806C42.0593 20.0496 42.1016 20.2354 42.1006 20.4235C42.102 20.7524 41.9729 21.0685 41.7416 21.3025L37.7976 17.4345H33.4396C33.4226 17.3825 33.4066 17.3345 33.3906 17.2775L37.9446 16.5775" fill="#252668"/>
<path fill-rule="evenodd" clip-rule="evenodd" d="M33.134 15.5004C33.1338 14.2623 33.5008 13.0519 34.1885 12.0223C34.8763 10.9927 35.8539 10.1902 36.9977 9.71622C38.1416 9.24226 39.4003 9.11815 40.6147 9.35958C41.829 9.60101 42.9446 10.1971 43.8201 11.0726C44.6957 11.948 45.292 13.0634 45.5336 14.2778C45.7753 15.4921 45.6514 16.7509 45.1776 17.8948C44.7038 19.0387 43.9014 20.0164 42.872 20.7043C41.8425 21.3923 40.6322 21.7594 39.394 21.7594C38.572 21.7596 37.758 21.5978 36.9985 21.2833C36.239 20.9688 35.5489 20.5078 34.9676 19.9266C34.3863 19.3453 33.9251 18.6553 33.6105 17.8959C33.2959 17.1364 33.134 16.3224 33.134 15.5004ZM13.618 21.0464H23.867C22.8613 19.3712 22.3316 17.4533 22.335 15.4994C22.3351 13.5204 22.7251 11.5608 23.4825 9.73246C24.24 7.90413 25.3501 6.2429 26.7496 4.84361C28.1491 3.44433 29.8105 2.33439 31.6389 1.57717C33.4673 0.819956 35.427 0.430289 37.406 0.43042H89L86.337 9.95242H76.159L70.317 30.5624H59.359L65.2 9.95242H54.92C55.9256 11.6277 56.4553 13.5455 56.452 15.4994C56.452 17.4785 56.0622 19.4382 55.3048 21.2667C54.5474 23.0951 53.4372 24.7565 52.0377 26.1559C50.6383 27.5553 48.9768 28.6653 47.1483 29.4226C45.3199 30.1799 43.3601 30.5696 41.381 30.5694H41.11L0 30.5624L8.507 0.431419H19.462L13.618 21.0464Z" fill="#252668"/>
</g>
<defs>
<clipPath id="clip0_24755_10971">
<rect width="89" height="30.139" fill="white" transform="translate(0 0.43042)"/>
</clipPath>
</defs>
</svg>
