<svg width="87" height="33" viewBox="0 0 87 33" fill="none" xmlns="http://www.w3.org/2000/svg">
<g clip-path="url(#clip0_24755_11045)">
<path d="M67.5688 10.4566C67.4296 10.8271 67.2441 11.1512 67.0123 11.4291C66.7804 11.7069 66.4557 11.9385 66.0384 12.0774C65.6674 12.2164 65.2036 12.309 64.6471 12.309C64.2297 12.309 63.9051 12.309 63.6732 12.2627C63.4414 12.2164 63.2559 12.17 63.1631 12.17V8.78944C63.1631 8.04848 63.3486 7.44645 63.7196 6.98336C64.0906 6.52026 64.6471 6.2424 65.3891 6.2424C66.1311 6.2424 66.6876 6.52026 67.105 7.07598C67.5224 7.63169 67.7079 8.32634 67.7079 9.20622C67.7543 9.62301 67.7079 10.0861 67.5688 10.4566ZM69.1455 5.2699C68.7281 4.85311 68.2644 4.52894 67.7079 4.3437C67.1514 4.11216 66.5949 4.01954 65.992 4.01954C65.5283 4.01954 65.1572 4.06585 64.8326 4.20478C64.508 4.2974 64.2297 4.43632 63.9515 4.57525C63.7196 4.71418 63.5341 4.85311 63.395 4.99204C63.2559 5.13097 63.2095 5.22359 63.1631 5.22359V0.731548L60.4733 1.51881V14.1151C60.5661 14.1151 60.7052 14.1614 60.9371 14.1614C61.169 14.2077 61.4472 14.2077 61.7719 14.254C62.0965 14.3003 62.4675 14.3003 62.8849 14.3466C63.3022 14.3929 63.766 14.3929 64.1834 14.3929C66.2702 14.3929 67.847 13.9298 68.8673 12.9573C69.9339 11.9848 70.444 10.5955 70.444 8.88206C70.444 8.09479 70.3049 7.40015 70.073 6.79812C69.9339 6.19609 69.5629 5.68669 69.1455 5.2699ZM55.4648 9.66932C55.4648 10.4103 55.2793 11.0123 54.9083 11.4754C54.5373 11.9385 53.9808 12.2164 53.2388 12.2164C52.4968 12.2164 51.9403 11.9385 51.5229 11.3828C51.1055 10.8271 50.92 10.1324 50.92 9.25253C50.92 8.78944 50.9664 8.32634 51.1055 7.95586C51.2447 7.58538 51.4302 7.26122 51.662 6.98336C51.8939 6.7055 52.2185 6.47395 52.6359 6.33502C53.0069 6.19609 53.4707 6.10347 54.0272 6.10347C54.4446 6.10347 54.7692 6.10347 55.0011 6.14978C55.2329 6.19609 55.4184 6.2424 55.5112 6.2424V9.66932H55.4648ZM56.8097 4.48263C56.4387 4.39001 55.9749 4.2974 55.4648 4.20478C54.9083 4.11216 54.3054 4.06585 53.6098 4.06585C52.7751 4.06585 51.9867 4.20478 51.291 4.43632C50.5954 4.71418 50.0389 5.08466 49.5752 5.54776C49.1114 6.01085 48.7404 6.56657 48.4622 7.26122C48.2303 7.90955 48.0911 8.74313 48.0911 9.5767C48.0911 10.364 48.2303 11.0586 48.4622 11.6606C48.694 12.2627 49.0187 12.7721 49.436 13.1889C49.8534 13.6056 50.3172 13.9298 50.8737 14.1151C51.4302 14.3003 51.9867 14.4392 52.6359 14.4392C53.0533 14.4392 53.4707 14.3929 53.7953 14.254C54.1199 14.1614 54.3982 14.0224 54.6764 13.8835C54.9083 13.7446 55.0938 13.6056 55.2329 13.4667C55.3721 13.3278 55.4648 13.2352 55.4648 13.1889V14.1151H58.1546V5.03835C58.1082 4.99204 57.9691 4.94573 57.7372 4.8068C57.5053 4.66787 57.1807 4.57525 56.8097 4.48263ZM48.0911 4.43632C47.8129 4.2974 47.4419 4.15847 46.8854 4.06585C46.5608 4.01954 46.1898 3.97323 45.8651 3.97323C45.2623 3.97323 44.7521 4.01954 44.242 4.11216C43.7319 4.20478 43.3145 4.34371 42.9435 4.48263C42.5725 4.62156 42.2479 4.76049 42.016 4.85311C41.7841 4.99204 41.645 5.08466 41.5986 5.08466V14.0224H44.2884V6.61288C44.3811 6.56657 44.613 6.47395 44.8913 6.33502C45.1695 6.2424 45.5869 6.14978 46.1434 6.14978C46.3289 6.14978 46.5144 6.14978 46.6999 6.19609C46.8854 6.2424 47.0709 6.2424 47.2564 6.28871H47.3028C47.581 5.64038 47.8129 5.03835 48.0911 4.39001C48.0448 4.48263 48.0911 4.43632 48.0911 4.43632ZM84.3102 9.66932C84.3102 10.4103 84.1247 11.0123 83.7537 11.4754C83.3827 11.9385 82.8262 12.2164 82.0842 12.2164C81.3422 12.2164 80.7857 11.9385 80.3683 11.3828C79.951 10.8271 79.7655 10.1324 79.7655 9.25253C79.7655 8.78944 79.8118 8.32634 79.951 7.95586C80.0901 7.58538 80.2756 7.26122 80.5075 6.98336C80.7393 6.7055 81.064 6.47395 81.4813 6.33502C81.8523 6.19609 82.3161 6.10347 82.8726 6.10347C83.29 6.10347 83.6146 6.10347 83.8465 6.14978C84.0784 6.19609 84.2639 6.2424 84.3566 6.2424L84.3102 9.66932ZM86.5826 4.8068C86.3507 4.71418 86.0725 4.57525 85.7015 4.48263C85.3305 4.39001 84.8667 4.2974 84.3566 4.20478C83.8001 4.11216 83.1972 4.06585 82.5016 4.06585C81.6668 4.06585 80.8785 4.20478 80.1828 4.43632C79.4872 4.71418 78.9307 5.08466 78.4669 5.54776C78.0032 6.01085 77.6322 6.56657 77.3539 7.26122C77.1221 7.90955 76.9829 8.74313 76.9829 9.5767C76.9829 10.364 77.1221 11.0586 77.3539 11.6606C77.5858 12.2627 77.9104 12.7721 78.3278 13.1889C78.7452 13.6056 79.209 13.9298 79.7655 14.1151C80.322 14.3003 80.8785 14.4392 81.5277 14.4392C81.9451 14.4392 82.3625 14.3929 82.6871 14.254C83.0117 14.1614 83.29 14.0224 83.5682 13.8835C83.8001 13.7446 83.9856 13.6056 84.1247 13.4667C84.2639 13.3278 84.3566 13.2352 84.3566 13.1889V14.1151H87.0464V5.03835C86.9536 4.99204 86.8145 4.89942 86.5826 4.8068ZM73.7831 0.5C73.3657 0.5 73.041 0.638929 72.7164 0.916787C72.4382 1.19465 72.2527 1.51881 72.2527 1.9356C72.2527 2.35239 72.3918 2.67656 72.7164 3.00072C72.9947 3.27858 73.3657 3.41751 73.7831 3.41751C74.2004 3.41751 74.5714 3.27858 74.8497 3.00072C75.1279 2.72287 75.2671 2.35239 75.2671 1.9356C75.2671 1.51881 75.1279 1.19465 74.8497 0.916787C74.5714 0.638929 74.2004 0.5 73.7831 0.5ZM72.4845 14.1151H75.1743V4.06585L72.4845 4.85311V14.1151ZM30.9787 8.65051C31.2106 8.04848 31.4424 7.40015 31.6743 6.79812C31.9062 6.14978 32.1381 5.59407 32.3236 5.08466C32.5091 4.62156 32.6946 4.15847 32.8337 3.74168C32.9728 3.3712 33.1119 3.09334 33.1583 2.95441C33.2047 3.09334 33.3438 3.32489 33.4829 3.74168C33.6684 4.20478 33.8539 4.62156 33.9931 5.08466L34.6423 6.79812C34.8742 7.44646 35.1061 8.04848 35.338 8.65051H30.9787ZM38.3987 9.1136C38.0741 8.28003 37.7495 7.49276 37.4248 6.7055C37.1466 6.01085 36.822 5.2699 36.5437 4.52894C36.3118 3.92692 36.08 3.3712 35.8017 2.81549C35.6162 2.44501 35.4771 2.02822 35.2916 1.65774C35.0133 1.00941 34.8742 0.731548 34.8742 0.731548H31.4424C31.4424 0.731548 31.3033 1.00941 31.0251 1.65774C30.8396 2.02822 30.6541 2.3987 30.5149 2.81549C30.2831 3.3712 30.0048 3.97323 29.7729 4.52894C29.4947 5.17728 29.2164 5.91823 28.8918 6.7055C28.5672 7.49276 28.2425 8.32634 27.9179 9.1136C27.5933 9.94718 27.2687 10.7808 26.944 11.6606C26.6194 12.4942 26.3412 13.3278 26.0629 14.1151H28.8918L30.0048 11.1512H36.3118L37.4248 14.1151H40.2537C39.9755 13.2815 39.6509 12.4479 39.3262 11.6606C39.048 10.7808 38.7233 9.94718 38.3987 9.1136ZM16.9733 0.5C16.556 0.5 16.2313 0.638929 15.9067 0.916787C15.6285 1.19465 15.4893 1.51881 15.4893 1.9356C15.4893 2.35239 15.6285 2.67656 15.9067 3.00072C16.2313 3.27858 16.556 3.41751 16.9733 3.41751C17.3907 3.41751 17.7617 3.27858 18.04 3.00072C18.3182 2.72287 18.4574 2.35239 18.4574 1.9356C18.4574 1.51881 18.3182 1.19465 18.04 0.916787C17.7617 0.638929 17.3907 0.5 16.9733 0.5ZM15.6285 14.1151H18.3182V4.06585L15.6285 4.85311V14.1151ZM4.8694 8.65051C5.10128 8.04848 5.33316 7.40015 5.56503 6.79812C5.79691 6.14978 6.02878 5.59407 6.21429 5.08466C6.39979 4.57525 6.58529 4.11216 6.72441 3.74168C6.86354 3.3712 7.00267 3.09334 7.04904 2.95441C7.09542 3.09334 7.23454 3.32489 7.37367 3.74168C7.55917 4.20478 7.74467 4.62156 7.8838 5.08466C8.0693 5.59407 8.30117 6.19609 8.53305 6.79812C8.76493 7.44646 8.9968 8.04848 9.22868 8.65051H4.8694ZM12.2894 9.1136C11.9648 8.28003 11.6402 7.49276 11.3156 6.7055C10.9909 5.91823 10.7127 5.22359 10.4344 4.52894C10.2026 3.97323 9.97068 3.3712 9.73881 2.81549C9.5533 2.44501 9.41418 2.02822 9.22868 1.65774C9.08955 1.33357 8.95043 1.05572 8.8113 0.731548H5.37953C5.37953 0.731548 5.24041 1.00941 4.96215 1.65774C4.82303 1.9356 4.6839 2.30608 4.45203 2.81549C4.17377 3.3712 3.9419 3.97323 3.71002 4.52894C3.43177 5.17728 3.15352 5.91823 2.82889 6.7055C2.50426 7.49276 2.17964 8.32634 1.85501 9.1136C1.53038 9.94718 1.20576 10.7808 0.88113 11.6606C0.556503 12.4942 0.278252 13.3278 0 14.1151H2.82889L3.9419 11.1512H10.2489L11.3619 14.1151H14.1908C13.9126 13.2815 13.588 12.4479 13.3097 11.6606C12.9387 10.7808 12.6141 9.94718 12.2894 9.1136ZM26.573 6.38133C26.8513 5.733 27.1295 5.08466 27.3614 4.48263C27.3614 4.48263 27.3614 4.43632 27.4078 4.43632C27.1295 4.2974 26.7585 4.15847 26.202 4.06585C25.8774 4.01954 25.5064 3.97323 25.1818 3.97323C24.5789 3.97323 24.0688 4.01954 23.5586 4.11216C23.0485 4.20478 22.6311 4.34371 22.2601 4.48263C21.8891 4.62156 21.5645 4.76049 21.3326 4.85311C21.1007 4.99204 20.9616 5.08466 20.9152 5.08466V14.0224H23.605V6.61288C23.6978 6.56657 23.9296 6.47395 24.2079 6.33502C24.4861 6.2424 24.9035 6.14978 25.46 6.14978C25.6455 6.14978 25.831 6.14978 26.0165 6.19609C26.202 6.2424 26.3875 6.2424 26.573 6.28871C26.5267 6.38133 26.5267 6.38133 26.573 6.38133ZM51.7084 25.2757C51.7084 25.8777 51.5693 26.3871 51.2447 26.8039C50.92 27.2207 50.4563 27.4059 49.8534 27.4059C49.2042 27.4059 48.7404 27.1744 48.3694 26.7113C47.9984 26.2482 47.8593 25.6462 47.8593 24.9052C47.8593 24.5347 47.9057 24.1179 47.9984 23.7938C48.0912 23.4696 48.2767 23.1918 48.4622 22.9602C48.694 22.7287 48.9259 22.5434 49.2505 22.4045C49.5752 22.2656 49.9925 22.2192 50.4099 22.2192C50.7345 22.2192 51.0128 22.2192 51.2447 22.2656C51.4765 22.3119 51.6157 22.3119 51.662 22.3582L51.7084 25.2757ZM66.5485 20.5984L64.2761 21.2467V27.267H61.6327C61.3545 27.267 61.1226 27.2207 60.9371 27.1281C60.7516 27.0355 60.6125 26.9428 60.5197 26.7576C60.427 26.6187 60.3806 26.3871 60.3342 26.1556C60.2878 25.8777 60.2878 25.5999 60.2878 25.3683V20.5984L58.0155 21.2467V25.4146C58.0155 25.7388 58.0155 25.9703 57.9691 26.2019C57.9227 26.4334 57.8763 26.6187 57.7836 26.8039C57.6908 26.9428 57.5517 27.0818 57.3662 27.1744C57.1807 27.267 56.9488 27.3133 56.6706 27.3133H54.0272V21.3394C53.9808 21.2931 53.8417 21.2467 53.6562 21.1541C53.4707 21.0615 53.2388 20.9689 52.9142 20.8763C52.5896 20.7836 52.2185 20.691 51.7548 20.6447C51.291 20.5521 50.7809 20.5521 50.178 20.5521C49.436 20.5521 48.7868 20.6447 48.2303 20.8763C47.6738 21.1078 47.1636 21.3857 46.7463 21.8025C46.3289 22.2192 46.0506 22.6823 45.8188 23.2381C45.5869 23.7938 45.4941 24.4884 45.4941 25.1831C45.4941 25.8314 45.5869 26.4334 45.8188 26.9428C46.0043 27.4522 46.2825 27.869 46.6535 28.2395C46.9781 28.5637 47.3955 28.8415 47.8593 29.0268C48.323 29.212 48.8332 29.3046 49.3433 29.3046C49.7143 29.3046 50.0389 29.2583 50.3172 29.1657C50.5954 29.0731 50.8273 28.9805 51.0592 28.8415C51.2447 28.7026 51.4302 28.61 51.5229 28.5174C51.6157 28.4247 51.7084 28.3321 51.7084 28.2858V29.212H53.9808H57.1343C57.5517 29.212 57.9691 29.1194 58.3401 28.9805C58.7111 28.8415 58.9893 28.5174 59.2212 28.1006C59.4531 28.5174 59.7313 28.8415 60.056 28.9805C60.3806 29.1194 60.7516 29.212 61.169 29.212H66.5021L66.5485 20.5984ZM59.2676 29.9993C58.8966 29.9993 58.6183 30.1382 58.3865 30.3698C58.1546 30.6013 58.0155 30.9255 58.0155 31.2496C58.0155 31.6201 58.1546 31.898 58.3865 32.1295C58.6183 32.3611 58.943 32.5 59.2676 32.5C59.6386 32.5 59.9168 32.3611 60.1951 32.1295C60.427 31.898 60.5661 31.5738 60.5661 31.2496C60.5661 30.8792 60.427 30.6013 60.1951 30.3698C59.9168 30.1382 59.5922 29.9993 59.2676 29.9993ZM29.541 27.3596C28.7063 27.5912 27.4542 27.3596 27.3614 27.3133V22.636C27.3614 22.636 28.2425 21.9877 29.3555 22.2192C30.4685 22.4508 31.2106 23.2844 31.2106 24.9052C31.2106 26.1556 30.6077 27.0355 29.541 27.3596ZM40.9494 27.3133H39.419C39.1407 27.3133 38.9088 27.267 38.7233 27.1744C38.5378 27.0818 38.3987 26.9891 38.306 26.8039C38.2132 26.665 38.1668 26.4334 38.1205 26.2019C38.0741 25.9703 38.0741 25.6925 38.0741 25.4146V17.4957L35.8017 18.144V25.4146C35.8017 25.7388 35.8017 25.9703 35.7553 26.2019C35.709 26.4334 35.6626 26.6187 35.5698 26.8039C35.4771 26.9428 35.338 27.0818 35.1525 27.1744C34.967 27.267 34.7351 27.3133 34.4568 27.3133H32.9264C33.2974 26.665 33.4829 25.8314 33.4829 24.8589C33.4829 22.3582 32.0453 20.7836 29.9584 20.5521C28.7527 20.4132 27.5933 20.83 27.2687 20.9689V17.4957L25.0426 18.144V27.267H24.1151C23.8369 27.267 23.605 27.2207 23.4195 27.1281C23.234 27.0355 23.0949 26.9428 23.0021 26.7576C22.9094 26.6187 22.863 26.3871 22.8166 26.1556C22.7703 25.8777 22.7703 25.5999 22.7703 25.3683V20.5984L20.4979 21.2467V25.4146C20.4979 25.7388 20.4979 25.9703 20.4515 26.2019C20.4051 26.4334 20.3587 26.6187 20.266 26.8039C20.1732 26.9428 20.0341 27.0818 19.8486 27.1744C19.6631 27.267 19.4312 27.3133 19.153 27.3133H16.5096V20.5984L14.2372 21.2467V29.1194C14.2372 29.6288 14.0981 29.953 13.8662 30.1382C13.6343 30.3234 13.3097 30.4161 12.8923 30.4161C12.6604 30.4161 12.4286 30.3698 12.1503 30.3234C11.9184 30.2771 11.7793 30.2308 11.7329 30.1845L11.1764 31.7127C11.1764 31.7127 11.2692 31.759 11.4083 31.8054C11.5474 31.8517 11.6866 31.898 11.8721 31.9443C12.0576 31.9906 12.2894 32.0369 12.5213 32.0832C12.7532 32.1295 13.0315 32.1295 13.2633 32.1295C13.6807 32.1295 14.0981 32.0832 14.4691 31.9906C14.8401 31.898 15.2111 31.7127 15.4893 31.4349C15.7676 31.2033 15.9995 30.8329 16.185 30.4161C16.3705 29.9993 16.4632 29.4899 16.4632 28.8415V29.212H19.6167C20.0341 29.212 20.4515 29.1194 20.8225 28.9805C21.1935 28.8415 21.4717 28.5174 21.7036 28.1006C21.9355 28.5174 22.2138 28.8415 22.5384 28.9805C22.863 29.1194 23.234 29.212 23.6514 29.212H34.9669C35.3843 29.212 35.8017 29.1194 36.1727 28.9805C36.5437 28.8415 36.822 28.5174 37.0538 28.1006C37.2857 28.5174 37.564 28.8415 37.8886 28.9805C38.2132 29.1194 38.5842 29.212 39.0016 29.212H43.2217V17.4957L40.9494 18.144V27.3133ZM55.8358 29.9993C55.4648 29.9993 55.1866 30.1382 54.9547 30.3698C54.7228 30.6013 54.5837 30.9255 54.5837 31.2496C54.5837 31.6201 54.7228 31.898 54.9547 32.1295C55.1866 32.3611 55.5112 32.5 55.8358 32.5C56.2068 32.5 56.4851 32.3611 56.7633 32.1295C56.9952 31.898 57.1343 31.5738 57.1343 31.2496C57.1343 30.8792 56.9952 30.6013 56.7633 30.3698C56.4851 30.1382 56.2068 29.9993 55.8358 29.9993ZM62.653 29.9993C62.282 29.9993 62.0037 30.1382 61.7255 30.3698C61.4936 30.6013 61.3545 30.9255 61.3545 31.2496C61.3545 31.6201 61.4936 31.898 61.7255 32.1295C61.9574 32.3611 62.282 32.5 62.653 32.5C63.024 32.5 63.3022 32.3611 63.5341 32.1295C63.766 31.898 63.9051 31.5738 63.9051 31.2496C63.9051 30.8792 63.766 30.6013 63.5341 30.3698C63.3022 30.1382 63.024 29.9993 62.653 29.9993ZM84.7276 18.1903V29.212H87V17.4957L84.7276 18.1903ZM80.693 26.2019C80.693 26.7113 80.5538 27.0355 80.322 27.2207C80.0901 27.4059 79.7655 27.4986 79.3481 27.4986H75.4062C75.3134 27.4059 75.2207 27.3596 75.1279 27.267C74.8961 27.0355 74.7569 26.7576 74.6178 26.4334C74.4787 26.1093 74.4323 25.6925 74.4323 25.2294C74.4323 24.3495 74.6642 23.7012 75.0816 23.1918C75.4989 22.6823 76.1018 22.4971 76.7974 22.4971C77.1221 22.4971 77.4003 22.5434 77.6322 22.636C77.8641 22.7287 78.0959 22.8213 78.2814 22.9139L79.1626 21.2004C79.0235 21.0615 78.6988 20.9226 78.3278 20.7836C77.9104 20.6447 77.3539 20.5521 76.5656 20.5521C75.9627 20.5521 75.3598 20.6447 74.8033 20.8763C74.2932 21.1078 73.7831 21.3857 73.412 21.8025C72.9947 22.2192 72.67 22.6823 72.4382 23.2844C72.2063 23.8401 72.0672 24.5347 72.0672 25.2294C72.0672 25.9703 72.2063 26.665 72.4382 27.2207C72.4845 27.3133 72.5309 27.4059 72.5773 27.4986H70.4904V20.5984L68.218 21.2467V29.1194C68.218 29.6288 68.0789 29.953 67.847 30.1382C67.6151 30.3234 67.2905 30.4161 66.8731 30.4161C66.6413 30.4161 66.4094 30.3698 66.1775 30.3234C66.0384 30.2771 65.8993 30.2308 65.7601 30.1845L65.2036 31.7127C65.2036 31.7127 65.2964 31.759 65.4355 31.8054C65.5746 31.8517 65.7138 31.898 65.8993 31.9443C66.0848 31.9906 66.3166 32.0369 66.5485 32.0832C66.7804 32.1295 67.0586 32.1295 67.2905 32.1295C67.7079 32.1295 68.1253 32.0832 68.4963 31.9906C68.8673 31.898 69.2383 31.7127 69.5165 31.4349C69.7948 31.2033 70.0266 30.8329 70.2122 30.4161C70.3977 29.9993 70.4904 29.4899 70.4904 28.8415V29.212H79.7655C80.1828 29.212 80.6002 29.1657 80.9712 29.0731C81.3422 28.9805 81.7132 28.7952 81.9915 28.5174C82.2697 28.2395 82.5016 27.9153 82.6871 27.4986C82.8726 27.0818 82.9653 26.5261 82.9653 25.924V17.4957L80.693 18.144V26.2019ZM51.662 19.6722C52.0331 19.6722 52.3113 19.5333 52.5896 19.3017C52.8214 19.0702 52.9606 18.746 52.9606 18.4219C52.9606 18.0514 52.8214 17.7735 52.5896 17.542C52.3577 17.3104 52.0331 17.1715 51.662 17.1715C51.291 17.1715 51.0128 17.3104 50.7809 17.542C50.549 17.7735 50.4099 18.0977 50.4099 18.4219C50.4099 18.7923 50.549 19.0702 50.7809 19.3017C51.0128 19.5796 51.3374 19.6722 51.662 19.6722ZM4.26652 19.9038C4.63753 19.9038 4.91578 19.7648 5.19403 19.5333C5.42591 19.3017 5.56503 18.9776 5.56503 18.6534C5.56503 18.2829 5.42591 18.0051 5.19403 17.7735C4.96215 17.542 4.63753 17.403 4.26652 17.403C3.89552 17.403 3.61727 17.542 3.38539 17.7735C3.15352 18.0051 3.01439 18.3292 3.01439 18.6534C3.01439 19.0239 3.15352 19.3017 3.38539 19.5333C3.61727 19.7648 3.89552 19.9038 4.26652 19.9038ZM48.2766 19.6722C48.6477 19.6722 48.9259 19.5333 49.2042 19.3017C49.436 19.0702 49.5752 18.746 49.5752 18.4219C49.5752 18.0514 49.436 17.7735 49.2042 17.542C48.9723 17.3104 48.6477 17.1715 48.2766 17.1715C47.9056 17.1715 47.6274 17.3104 47.3955 17.542C47.1636 17.7735 47.0245 18.0977 47.0245 18.4219C47.0245 18.7923 47.1636 19.0702 47.3955 19.3017C47.6274 19.5796 47.9056 19.6722 48.2766 19.6722ZM6.26066 24.3495C6.26066 25.7851 6.26066 27.4522 4.26652 27.4522C2.27239 27.4522 2.27239 25.8314 2.27239 24.3495V22.4045L0 23.0528V24.2569V24.4884C0 25.322 0.139126 26.0166 0.371002 26.6187C0.602878 27.267 0.927505 27.7764 1.29851 28.1932C1.66951 28.61 2.13326 28.8878 2.68977 29.0731C3.19989 29.2583 3.7564 29.3509 4.35927 29.3509C4.91578 29.3509 5.42591 29.2583 5.93603 29.1194C6.44616 28.9342 6.90991 28.7026 7.28092 28.2858C7.65192 27.9153 7.97655 27.4059 8.20842 26.7576C8.4403 26.1093 8.57942 25.322 8.57942 24.3958V20.6447L6.30704 21.2931L6.26066 24.3495ZM21.75 29.9993C21.379 29.9993 21.1007 30.1382 20.8689 30.3698C20.637 30.6013 20.4979 30.9255 20.4979 31.2496C20.4979 31.6201 20.637 31.898 20.8689 32.1295C21.1007 32.3611 21.4254 32.5 21.75 32.5C22.121 32.5 22.3993 32.3611 22.6775 32.1295C22.9094 31.898 23.0485 31.5738 23.0485 31.2496C23.0485 30.8792 22.9094 30.6013 22.6775 30.3698C22.3993 30.1382 22.121 29.9993 21.75 29.9993ZM12.5213 17.4957L10.2489 18.144V29.212H12.5213V17.4957ZM18.3182 29.9993C17.9472 29.9993 17.669 30.1382 17.4371 30.3698C17.2052 30.6013 17.0661 30.9255 17.0661 31.2496C17.0661 31.6201 17.2052 31.898 17.4371 32.1295C17.669 32.3611 17.9936 32.5 18.3182 32.5C18.6892 32.5 18.9675 32.3611 19.2457 32.1295C19.4776 31.898 19.6167 31.5738 19.6167 31.2496C19.6167 30.8792 19.4776 30.6013 19.2457 30.3698C19.0139 30.1382 18.6892 29.9993 18.3182 29.9993Z" fill="#E81142"/>
</g>
<defs>
<clipPath id="clip0_24755_11045">
<rect width="87" height="32" fill="white" transform="translate(0 0.5)"/>
</clipPath>
</defs>
</svg>
