<svg width="348" height="155" viewBox="0 0 348 155" fill="none" xmlns="http://www.w3.org/2000/svg">
<path d="M-61 44.4505L-18.5063 148.445L38.2847 153.28C88.567 157.561 138.328 140.471 175.369 106.199L216.437 68.2025C236.729 49.4284 263.356 39 291 39V39" stroke="#00E3DD" stroke-opacity="0.25" stroke-width="1.50636" stroke-linecap="round" stroke-dasharray="4.85 4.85"/>
<mask id="mask0_31889_131678" style="mask-type:luminance" maskUnits="userSpaceOnUse" x="271" y="-14" width="95" height="96">
<path d="M365.271 -13.1475H271.734V81.9745H365.271V-13.1475Z" fill="white"/>
</mask>
<g mask="url(#mask0_31889_131678)">
<path d="M301.82 38.6342L299.825 35.8265C299.397 35.2247 299.66 34.3739 300.349 34.1288L301.427 33.7454C301.695 33.65 301.989 33.6647 302.246 33.7862L307.923 36.4639L301.82 38.6342Z" fill="#00B6B0"/>
<path d="M326.763 38.1724C319.769 41.0911 312.01 41.5461 304.742 39.4708L301.828 38.6385L325.334 30.271C326.589 29.8271 327.866 29.483 329.164 29.2611C330.965 28.9393 332.798 28.8394 334.631 28.9947C336.214 29.1279 337.632 29.4387 338.145 30.0934C338.2 30.1822 338.254 30.271 338.287 30.3708C338.778 31.8135 334.38 34.9985 326.763 38.1724Z" fill="#00E3DD"/>
<path d="M317.322 36.6474L309.835 29.2548C309.253 28.6801 309.47 27.6835 310.235 27.4111L312.046 26.767C312.301 26.6763 312.581 26.6851 312.83 26.7918L327.443 33.0475L317.322 36.6474Z" fill="#4AF1EC"/>
<path d="M340.103 43.2583H325.917C324.712 43.2583 323.734 44.2519 323.734 45.4778C323.734 46.7036 324.712 47.6973 325.917 47.6973H332.464C331.259 47.6973 330.282 48.691 330.282 49.9168C330.282 51.1426 331.259 52.1364 332.464 52.1364H336.829C338.035 52.1364 339.012 51.1426 339.012 49.9168C339.012 48.691 338.035 47.6973 336.829 47.6973H340.103C341.309 47.6973 342.286 46.7036 342.286 45.4778C342.286 44.2519 341.309 43.2583 340.103 43.2583Z" fill="#AEF4F4"/>
<path d="M311.741 49.9173H307.376C308.582 49.9173 309.559 48.9236 309.559 47.6978C309.559 46.4719 308.582 45.4783 307.376 45.4783H300.829C299.623 45.4783 298.646 46.4719 298.646 47.6978C298.646 48.9236 299.623 49.9173 300.829 49.9173H296.464C295.258 49.9173 294.281 50.9109 294.281 52.1368C294.281 53.3626 295.258 54.3563 296.464 54.3563H311.741C312.947 54.3563 313.924 53.3626 313.924 52.1368C313.924 50.9109 312.947 49.9173 311.741 49.9173Z" fill="#AEF4F4"/>
<path d="M318.988 16.6248H313.532C314.737 16.6248 315.714 15.6311 315.714 14.4053C315.714 13.1794 314.737 12.1858 313.532 12.1858H305.893C304.688 12.1858 303.711 13.1794 303.711 14.4053C303.711 15.6311 304.688 16.6248 305.893 16.6248H297.163C295.958 16.6248 294.98 17.6184 294.98 18.8443C294.98 20.0701 295.958 21.0638 297.163 21.0638H318.988C320.194 21.0638 321.171 20.0701 321.171 18.8443C321.171 17.6184 320.194 16.6248 318.988 16.6248Z" fill="#AEF4F4"/>
</g>
</svg>
