<svg width="24" height="24" viewBox="0 0 24 24" fill="none" xmlns="http://www.w3.org/2000/svg">
<g clip-path="url(#clip0_24248_3586)">
<path opacity="0.56" d="M2 18.5H22V20.5H2V18.5Z" fill="#21E3DF"/>
<path d="M15.774 7.1885C15.774 7.1885 10.5335 3.60651 9.538 3.51351C8.542 3.42151 7.5 3.82651 7.5 3.82651L11.6525 8.312L15.774 7.1885Z" fill="#00C6C2"/>
<path d="M1 6L4.1195 10.4955L6.9685 8.414L2.5 5.5L1 6Z" fill="#00C6C2"/>
<path d="M5.7455 8.6415C5.7455 8.6415 14.4415 5.5045 16.8285 4.7595C19.693 3.8665 22.3385 5.077 22.5005 5.5955C22.649 6.072 21.888 6.847 18.8255 7.803C15.763 8.7585 9.65249 11.0895 9.65249 11.0895C9.65249 11.0895 5.258 12.4695 1.5 10.5C4.16 9.23349 5.7455 8.6415 5.7455 8.6415Z" fill="#39E6E3"/>
<path d="M16.1 8.781C15.977 9.477 13.244 14.6885 12.4245 15.2625C11.6055 15.836 10.5 16 10.5 16C11.7705 10.8305 11.79 10.8345 11.963 9.8465C12.0855 9.15 16.223 8.085 16.1 8.781Z" fill="#39E6E3"/>
<path d="M21.6484 4.97501C21.2619 4.80401 20.7579 4.65001 20.1824 4.55051L20.4269 5.34951L21.6484 4.97501Z" fill="#303064"/>
<path d="M18.6997 4.832L19.6563 4.53896L19.9494 5.49559L18.9927 5.78862L18.6997 4.832Z" fill="#303064"/>
<path d="M10.283 8.38101C10.0068 8.38101 9.78296 8.60487 9.78296 8.88101C9.78296 9.15715 10.0068 9.38101 10.283 9.38101C10.5591 9.38101 10.783 9.15715 10.783 8.88101C10.783 8.60487 10.5591 8.38101 10.283 8.38101ZM12.172 7.72551C11.8958 7.72551 11.672 7.94937 11.672 8.22551C11.672 8.50165 11.8958 8.72551 12.172 8.72551C12.4481 8.72551 12.672 8.50165 12.672 8.22551C12.672 7.94937 12.4481 7.72551 12.172 7.72551ZM14.5335 7.40501C14.625 7.66651 14.486 7.95101 14.2265 8.04251C13.9655 8.13201 13.6805 7.99451 13.589 7.73301C13.4995 7.47251 13.637 7.18701 13.897 7.09651C14.1595 7.00751 14.444 7.14451 14.5335 7.40501ZM15.9515 6.41351C15.6753 6.41351 15.4515 6.63737 15.4515 6.91351C15.4515 7.18965 15.6753 7.41351 15.9515 7.41351C16.2276 7.41351 16.4515 7.18965 16.4515 6.91351C16.4515 6.63737 16.2276 6.41351 15.9515 6.41351Z" fill="#303064"/>
</g>
<defs>
<clipPath id="clip0_24248_3586">
<rect width="24" height="24" fill="white"/>
</clipPath>
</defs>
</svg>
