<svg width="24" height="24" viewBox="0 0 24 24" fill="none" xmlns="http://www.w3.org/2000/svg">
<g clip-path="url(#clip0_24394_1032)">
<g clip-path="url(#clip1_24394_1032)">
<g clip-path="url(#clip2_24394_1032)">
<path d="M12.9999 16.2501C12.8499 16.2501 12.6999 16.2001 12.5499 16.1001L9.4999 13.8001L5.9999 15.0001C5.5999 15.1001 5.3999 14.6001 5.2999 14.2001C5.1999 13.8001 5.3999 13.4001 5.7999 13.2501L9.2999 12.2501C9.4999 12.2001 9.7499 12.2501 9.94989 12.3501L13.4499 14.8501C13.7999 15.1001 13.8499 15.5501 13.6499 15.9001C13.4499 16.1501 13.2499 16.2501 12.9999 16.2501Z" fill="#FFB74D"/>
<path d="M10.4999 12C10.3499 12 10.1999 11.9 10.0999 11.8C9.9999 11.65 9.9999 11.4 10.0999 11.2L12.5999 7.7C12.6999 7.6 12.7999 7.5 12.9499 7.5C13.0999 7.5 13.1999 7.5 13.3499 7.6L15.8499 9.6C15.9999 9.7 16.0499 9.9 16.0499 10.1C15.9999 10.3 15.8999 10.45 15.6999 10.5L10.6999 12C10.5999 12 10.5499 12 10.4999 12ZM13.0999 8.7L11.7499 10.6L14.4499 9.8L13.0999 8.7Z" fill="#546E7A"/>
<path d="M6.04984 9C5.14984 9 4.19985 9.5 4.04985 10.45L3.54985 12.95C3.39985 13.9 4.04984 14.8 4.99984 14.95C5.09984 14.95 5.19984 15 5.29984 15C6.14984 15 6.89984 14.4 6.99984 13.55L7.89984 9C7.89984 9 6.14984 9 6.04984 9Z" fill="#00ACC1"/>
<path d="M5.25 5C6.2 5 7 5.8 7 6.75C7 7.7 6.2 8.5 5.25 8.5C4.3 8.5 3.5 7.7 3.5 6.75C3.5 5.8 4.3 5 5.25 5ZM5.75 10.5H11.75C12.15 10.5 12.5 10.15 12.5 9.75C12.5 9.35 12.15 9 11.75 9H5.75C5.35 9 5 9.35 5 9.75C5 10.15 5.35 10.5 5.75 10.5Z" fill="#FFB74D"/>
<path d="M15 9.5H22V10.5H15V9.5Z" fill="#546E7A"/>
<path d="M9.3 12.3L6.8 13H5.5L6 15L9.5 13.8V12.25C9.45 12.25 9.35 12.25 9.3 12.3Z" fill="#2D4C5C"/>
<path d="M3.55018 19.6501C3.90018 20.9001 8.00018 20.7501 12.6502 19.3001C17.3502 17.8501 20.8502 15.6001 20.5002 14.3501C20.1502 13.1001 16.0502 13.2501 11.4002 14.7001C6.65018 16.2001 3.15018 18.4001 3.55018 19.6501Z" fill="#FF754C"/>
<path d="M5.90008 16.95L5.95008 17C6.40008 16.75 6.85008 16.5 7.40008 16.25L6.00008 13H3.50008C3.40008 13.6 3.65008 14.15 4.05008 14.5L5.90008 16.95Z" fill="#546E7A"/>
<path d="M22 19C20.5 19 20 18 20 18C20 18 19.5 19 18 19C16.5 19 16 18 16 18C16 18 15.5 19 14 19C12.5 19 12 18 12 18C12 18 11.5 19 10 19C8.5 19 8 18 8 18C8 18 7.5 19 6 19C4.5 19 4 18 4 18C4 18 3.5 19 2 19V22H22V19Z" fill="#7E8CCF"/>
<path d="M22 20C20.5 20 20 19 20 19C20 19 19.5 20 18 20C16.5 20 16 19 16 19C16 19 15.5 20 14 20C12.5 20 12 19 12 19C12 19 11.5 20 10 20C8.5 20 8 19 8 19C8 19 7.5 20 6 20C4.5 20 4 19 4 19C4 19 3.5 20 2 20V22H22V20Z" fill="#C5CAE9"/>
</g>
</g>
</g>
<defs>
<clipPath id="clip0_24394_1032">
<rect width="24" height="24" fill="white"/>
</clipPath>
<clipPath id="clip1_24394_1032">
<rect width="24" height="24" fill="white"/>
</clipPath>
<clipPath id="clip2_24394_1032">
<rect width="24" height="24" fill="white"/>
</clipPath>
</defs>
</svg>
