<svg width="24" height="24" viewBox="0 0 24 24" fill="none" xmlns="http://www.w3.org/2000/svg">
<g clip-path="url(#clip0_21818_37992)">
<path d="M21.5 12C21.5 17.25 17.25 21.5 12 21.5C6.75 21.5 2.5 17.25 2.5 12C2.5 6.75 6.75 2.5 12 2.5C17.25 2.5 21.5 6.75 21.5 12Z" fill="#90CAF9"/>
<path d="M12 22C6.5 22 2 17.5 2 12C2 6.5 6.5 2 12 2C17.5 2 22 6.5 22 12C22 17.5 17.5 22 12 22ZM12 3C7.05 3 3 7.05 3 12C3 16.95 7.05 21 12 21C16.95 21 21 16.95 21 12C21 7.05 16.95 3 12 3Z" fill="#1565C0"/>
<path d="M12 22C8.9 22 6.5 17.6 6.5 12C6.5 6.4 8.9 2 12 2C15.1 2 17.5 6.4 17.5 12C17.5 17.6 15.1 22 12 22ZM12 3C9.55 3 7.5 7.1 7.5 12C7.5 16.9 9.55 21 12 21C14.45 21 16.5 16.9 16.5 12C16.5 7.1 14.45 3 12 3Z" fill="#1565C0"/>
<path d="M20 8H4.00005C3.70005 8 3.50005 7.8 3.50005 7.5C3.50005 7.2 3.70005 7 4.00005 7H20C20.3 7 20.5 7.2 20.5 7.5C20.5 7.8 20.3 8 20 8ZM20 17H4.00005C3.70005 17 3.50005 16.8 3.50005 16.5C3.50005 16.2 3.70005 16 4.00005 16H20C20.3 16 20.5 16.2 20.5 16.5C20.5 16.8 20.3 17 20 17ZM2.55005 11.5H21.5V12.5H2.55005V11.5Z" fill="#1565C0"/>
<path d="M11.5 2.5498H12.5V21.4998H11.5V2.5498Z" fill="#1565C0"/>
</g>
<defs>
<clipPath id="clip0_21818_37992">
<rect width="24" height="24" fill="white"/>
</clipPath>
</defs>
</svg>
