<svg width="24" height="24" viewBox="0 0 24 24" fill="none" xmlns="http://www.w3.org/2000/svg">
<g clip-path="url(#clip0_24969_75755)">
<path d="M21.7031 8.61973C21.7988 10.7084 20.1797 12.4936 19.0805 13.4568C18.8091 13.6938 18.4602 13.8232 18.0999 13.8204C17.7396 13.8177 17.3928 13.6831 17.125 13.442C16.0586 12.4846 14.5 10.7256 14.5 8.61973C14.5 7.66464 14.8794 6.74866 15.5548 6.07331C16.2301 5.39796 17.1461 5.01855 18.1012 5.01855C20.0906 5.01855 21.6121 6.63301 21.7031 8.61973Z" fill="#FF337F"/>
<path d="M21.7032 8.61934C21.6431 7.3127 20.9646 6.16738 19.9415 5.53613C20.299 6.11199 20.5022 6.77026 20.5313 7.44746C20.6271 9.53613 19.0079 11.3213 17.9087 12.2846C17.66 12.5019 17.3456 12.6293 17.0158 12.6463C16.686 12.6634 16.3601 12.5692 16.0903 12.3787C16.4105 12.7563 16.7562 13.1114 17.1251 13.4416C17.3929 13.6827 17.7397 13.8173 18.1 13.82C18.4603 13.8228 18.8092 13.6934 19.0806 13.4564C20.1794 12.4932 21.7989 10.708 21.7032 8.61934Z" fill="#FF005F"/>
<path d="M18.9341 16.2509H17.3083C17.2412 16.2509 17.1755 16.2326 17.1181 16.198C17.0607 16.1634 17.0138 16.1137 16.9826 16.0544C16.9514 15.9951 16.9369 15.9284 16.9408 15.8615C16.9447 15.7946 16.9668 15.73 17.0048 15.6747L18.1212 14.0493L19.2376 15.6747C19.2755 15.73 19.2976 15.7946 19.3015 15.8615C19.3054 15.9284 19.291 15.9951 19.2597 16.0544C19.2285 16.1137 19.1816 16.1634 19.1242 16.198C19.0668 16.2326 19.0011 16.2509 18.9341 16.2509Z" fill="#FF337F"/>
<path d="M19.2375 15.6747L18.1211 14.0493L17.8281 14.4759L18.6516 15.6747C18.6895 15.73 18.7116 15.7946 18.7155 15.8615C18.7194 15.9284 18.705 15.9951 18.6737 16.0544C18.6425 16.1137 18.5956 16.1634 18.5382 16.198C18.4808 16.2326 18.4151 16.2509 18.348 16.2509H18.934C19.001 16.2509 19.0668 16.2326 19.1242 16.198C19.1816 16.1634 19.2284 16.1137 19.2597 16.0544C19.2909 15.9951 19.3053 15.9284 19.3014 15.8615C19.2975 15.7946 19.2754 15.73 19.2375 15.6747Z" fill="#FF005F"/>
<path d="M18.6051 13.6519H17.4719C17.1778 13.6519 16.9395 13.8902 16.9395 14.1843C16.9395 14.4783 17.1778 14.7167 17.4719 14.7167H18.6051C18.8991 14.7167 19.1375 14.4783 19.1375 14.1843C19.1375 13.8902 18.8991 13.6519 18.6051 13.6519Z" fill="#FF337F"/>
<path d="M18.6051 13.6521H18.5492C18.536 13.7834 18.4744 13.9052 18.3764 13.9937C18.2785 14.0823 18.1512 14.1313 18.0191 14.1313H16.9422C16.9422 14.1489 16.9395 14.1665 16.9395 14.1845C16.9395 14.3258 16.9956 14.4613 17.0955 14.5612C17.1954 14.6611 17.331 14.7173 17.4723 14.7173H18.6051C18.6762 14.7192 18.7471 14.7069 18.8134 14.681C18.8797 14.6551 18.9401 14.6161 18.9911 14.5665C19.0421 14.5168 19.0827 14.4575 19.1104 14.3919C19.1381 14.3263 19.1523 14.2559 19.1523 14.1847C19.1523 14.1135 19.1381 14.043 19.1104 13.9774C19.0827 13.9119 19.0421 13.8525 18.9911 13.8028C18.9401 13.7532 18.8797 13.7143 18.8134 13.6884C18.7471 13.6625 18.6762 13.6501 18.6051 13.6521Z" fill="#FF005F"/>
<path d="M9.49531 8.61973C9.59102 10.7084 7.97187 12.4936 6.87266 13.4568C6.60124 13.6938 6.25241 13.8232 5.89211 13.8204C5.5318 13.8177 5.18497 13.6831 4.91719 13.442C3.85078 12.4846 2.29297 10.7256 2.29297 8.61973C2.29297 7.66464 2.67238 6.74866 3.34773 6.07331C4.02308 5.39796 4.93905 5.01855 5.89414 5.01855C7.88281 5.01855 9.4043 6.63301 9.49531 8.61973Z" fill="#FED402"/>
<path d="M9.49531 8.61934C9.43555 7.3123 8.75781 6.16738 7.73359 5.53613C8.09134 6.1119 8.2945 6.77022 8.32344 7.44746C8.41914 9.53613 6.8 11.3213 5.70078 12.2846C5.45222 12.5019 5.13782 12.6293 4.8081 12.6464C4.47837 12.6635 4.15249 12.5692 3.88281 12.3787C4.20273 12.7564 4.54835 13.1115 4.91719 13.4416C5.18497 13.6827 5.5318 13.8173 5.89211 13.82C6.25241 13.8228 6.60124 13.6934 6.87266 13.4564C7.97148 12.4932 9.59102 10.708 9.49531 8.61934Z" fill="#FAC600"/>
<path d="M6.72668 16.098H5.10051C5.03347 16.0981 4.96771 16.0798 4.91031 16.0452C4.85292 16.0105 4.80607 15.9609 4.77483 15.9016C4.74359 15.8423 4.72914 15.7756 4.73305 15.7086C4.73695 15.6417 4.75906 15.5771 4.79699 15.5219L5.9134 13.8965L7.0298 15.5219C7.06771 15.5771 7.08982 15.6417 7.09374 15.7085C7.09766 15.7754 7.08325 15.8421 7.05205 15.9014C7.02086 15.9607 6.97407 16.0103 6.91673 16.045C6.85939 16.0797 6.79367 16.098 6.72668 16.098Z" fill="#FED402"/>
<path d="M6.39731 13.499H5.26411C4.97006 13.499 4.73169 13.7374 4.73169 14.0314C4.73169 14.3255 4.97006 14.5639 5.26411 14.5639H6.39731C6.69136 14.5639 6.92974 14.3255 6.92974 14.0314C6.92974 13.7374 6.69136 13.499 6.39731 13.499Z" fill="#FED402"/>
<path d="M7.02974 15.5221L5.91333 14.0146L5.62036 14.3232L6.4438 15.5221C6.48171 15.5773 6.50381 15.6419 6.50774 15.7087C6.51166 15.7756 6.49724 15.8423 6.46605 15.9016C6.43485 15.9609 6.38806 16.0105 6.33072 16.0452C6.27338 16.0798 6.20767 16.0982 6.14067 16.0982H6.72661C6.79361 16.0982 6.85932 16.0798 6.91666 16.0452C6.974 16.0105 7.02079 15.9609 7.05199 15.9016C7.08318 15.8423 7.09759 15.7756 7.09367 15.7087C7.08975 15.6419 7.06764 15.5773 7.02974 15.5221Z" fill="#FAC600"/>
<path d="M6.39731 13.499H6.34145C6.3281 13.6303 6.26649 13.752 6.16857 13.8405C6.07064 13.9289 5.94335 13.9779 5.81138 13.9779H4.73442C4.73442 13.9955 4.73169 14.0135 4.73169 14.0314C4.73179 14.1727 4.78797 14.3081 4.88788 14.4079C4.9878 14.5078 5.12326 14.5639 5.2645 14.5639H6.39731C6.53852 14.5639 6.67394 14.5078 6.77379 14.4079C6.87364 14.3081 6.92974 14.1727 6.92974 14.0314C6.92974 13.8902 6.87364 13.7548 6.77379 13.655C6.67394 13.5551 6.53852 13.499 6.39731 13.499Z" fill="#FAC600"/>
<path d="M12.9565 15.4077H11.0425C10.9637 15.4077 10.8863 15.3861 10.8189 15.3454C10.7514 15.3046 10.6964 15.2462 10.6597 15.1765C10.623 15.1067 10.606 15.0283 10.6106 14.9496C10.6152 14.8709 10.6412 14.795 10.6858 14.73L11.9991 12.8159L13.3124 14.73C13.357 14.7949 13.383 14.8708 13.3876 14.9494C13.3922 15.028 13.3754 15.1064 13.3387 15.1761C13.3021 15.2458 13.2472 15.3042 13.1798 15.3451C13.1125 15.3859 13.0353 15.4075 12.9565 15.4077Z" fill="#26A6FE"/>
<path d="M13.3133 14.73L12 12.8159L11.707 13.2425L12.7273 14.7269C12.7719 14.7918 12.798 14.8678 12.8026 14.9465C12.8072 15.0251 12.7902 15.1036 12.7535 15.1733C12.7168 15.2431 12.6618 15.3015 12.5943 15.3422C12.5268 15.383 12.4495 15.4046 12.3707 15.4046H12.9566C13.035 15.4042 13.1117 15.3825 13.1787 15.3419C13.2456 15.3013 13.3003 15.2433 13.3369 15.1741C13.3735 15.1048 13.3907 15.027 13.3865 14.9488C13.3823 14.8705 13.357 14.7949 13.3133 14.73Z" fill="#0593FC"/>
<path d="M16.2188 6.51211C16.3309 8.95938 14.4336 11.0504 13.1461 12.1793C12.8282 12.4571 12.4195 12.6087 11.9974 12.6056C11.5752 12.6024 11.1688 12.4446 10.8551 12.1621C9.60513 11.0402 7.78052 8.9793 7.78052 6.51211C7.78047 5.958 7.88958 5.4093 8.10161 4.89736C8.31365 4.38543 8.62446 3.92027 9.0163 3.52847C9.40813 3.13668 9.87332 2.82591 10.3853 2.61392C10.8972 2.40192 11.4459 2.29287 12 2.29297C14.3301 2.29297 16.1125 4.18438 16.2188 6.51211Z" fill="#26A6FE"/>
<path d="M16.2188 6.51211C16.1517 5.03359 15.4075 3.73164 14.2771 2.97656C14.7455 3.67897 15.0119 4.49666 15.047 5.34023C15.1591 7.7875 13.2618 9.87852 11.9743 11.0074C11.6701 11.2732 11.2823 11.4239 10.8784 11.4331C10.4745 11.4423 10.0802 11.3095 9.76416 11.0578C10.1051 11.4477 10.4694 11.8165 10.8552 12.1621C11.1689 12.4446 11.5753 12.6024 11.9974 12.6056C12.4196 12.6087 12.8283 12.4571 13.1462 12.1793C14.4341 11.0504 16.3313 8.95938 16.2188 6.51211Z" fill="#0593FC"/>
<path d="M12.5696 12.3501H11.2364C10.8904 12.3501 10.6099 12.6306 10.6099 12.9767C10.6099 13.3227 10.8904 13.6032 11.2364 13.6032H12.5696C12.9157 13.6032 13.1962 13.3227 13.1962 12.9767C13.1962 12.6306 12.9157 12.3501 12.5696 12.3501Z" fill="#26A6FE"/>
<path d="M12.6082 12.3516C12.6082 12.3645 12.6102 12.3773 12.6102 12.3906C12.6102 12.5564 12.5443 12.7154 12.4271 12.8326C12.3099 12.9498 12.1509 13.0156 11.9852 13.0156H10.6504C10.6375 13.0156 10.6246 13.0156 10.6113 13.0137C10.6208 13.1729 10.6908 13.3225 10.807 13.4318C10.9232 13.5411 11.0768 13.6018 11.2363 13.6016H12.5695C12.7353 13.6016 12.8943 13.5357 13.0115 13.4185C13.1287 13.3013 13.1945 13.1423 13.1945 12.9766C13.1948 12.8173 13.1343 12.6639 13.0254 12.5477C12.9164 12.4316 12.7672 12.3614 12.6082 12.3516Z" fill="#0593FC"/>
<path d="M21.9957 8.60627C21.948 7.56213 21.5316 6.58986 20.8238 5.86877C20.47 5.50564 20.0468 5.21731 19.5793 5.0209C19.1119 4.82449 18.6098 4.724 18.1027 4.72541C17.4648 4.72463 16.8364 4.8812 16.2734 5.18127C16.0485 4.48384 15.6647 3.84816 15.1523 3.32423C14.7423 2.90372 14.252 2.56982 13.7105 2.34235C13.169 2.11488 12.5873 1.99847 12 2.00002C11.0373 2.00122 10.1001 2.30971 9.32494 2.88058C8.54976 3.45144 7.97706 4.25486 7.69023 5.17384C7.13759 4.87804 6.52019 4.72395 5.89336 4.72541C4.86109 4.72685 3.87152 5.13762 3.14166 5.86762C2.41181 6.59762 2.00124 7.58727 2 8.61955C2 9.60939 2.32227 10.618 2.95781 11.6184C3.38164 12.2852 3.93437 12.9332 4.59844 13.5469C4.52501 13.6472 4.47526 13.7629 4.45292 13.8852C4.43058 14.0075 4.43624 14.1332 4.46947 14.253C4.5027 14.3728 4.56264 14.4835 4.64478 14.5768C4.72692 14.6702 4.82914 14.7437 4.94375 14.7918L4.55625 15.3559C4.48797 15.4553 4.44819 15.5715 4.44121 15.6918C4.43423 15.8122 4.46032 15.9322 4.51664 16.0388C4.57297 16.1455 4.65739 16.2346 4.76077 16.2967C4.86415 16.3588 4.98254 16.3914 5.10313 16.391H5.54258C5.38406 16.8273 5.30868 17.2895 5.32031 17.7535C5.33359 18.2192 5.4375 18.5422 5.53555 18.8543C5.61267 19.08 5.67132 19.3117 5.71094 19.5469C5.81367 20.1965 5.71758 20.902 5.425 21.6438C5.41089 21.6795 5.40397 21.7178 5.40464 21.7562C5.40531 21.7947 5.41355 21.8326 5.4289 21.8679C5.44424 21.9031 5.46639 21.935 5.49408 21.9617C5.52176 21.9884 5.55444 22.0094 5.59023 22.0235C5.62439 22.0371 5.66086 22.0442 5.69766 22.0442C5.7566 22.0443 5.81421 22.0266 5.86299 21.9935C5.91176 21.9605 5.94943 21.9134 5.97109 21.8586C6.30234 21.0184 6.40977 20.2102 6.29062 19.4555C6.24592 19.1911 6.17981 18.9307 6.09297 18.677C5.99805 18.3781 5.91641 18.1199 5.90508 17.7363C5.89557 17.274 5.98618 16.8151 6.1707 16.391H6.72656C6.84695 16.391 6.96503 16.3581 7.06808 16.2958C7.17112 16.2336 7.2552 16.1443 7.31124 16.0378C7.36729 15.9313 7.39317 15.8114 7.3861 15.6912C7.37902 15.5711 7.33926 15.4551 7.27109 15.3559L6.84141 14.7274C7.01935 14.6148 7.14722 14.4382 7.19855 14.234C7.24989 14.0299 7.22075 13.8138 7.11719 13.6305C7.82344 13.0055 8.71406 12.0633 9.26797 10.9242C9.67351 11.4227 10.1167 11.8893 10.5938 12.3199C10.4815 12.4295 10.3992 12.5661 10.3546 12.7165C10.3101 12.8669 10.3049 13.0263 10.3394 13.1793C10.374 13.3324 10.4472 13.474 10.552 13.5907C10.6568 13.7075 10.7898 13.7954 10.9383 13.8461L10.4449 14.5641C10.3702 14.6731 10.3266 14.8005 10.319 14.9324C10.3113 15.0644 10.3398 15.1959 10.4013 15.3129C10.4629 15.4299 10.5552 15.5278 10.6684 15.5962C10.7815 15.6645 10.9112 15.7007 11.0434 15.7008H11.6352C11.5096 16.0994 11.4401 16.5135 11.4285 16.9313C11.4141 17.5469 11.5312 17.9813 11.6484 18.3996C11.7175 18.6317 11.773 18.8677 11.8145 19.1063C11.9383 19.8781 11.8242 20.7172 11.475 21.5992C11.4464 21.6715 11.4477 21.7522 11.4786 21.8235C11.5094 21.8948 11.5674 21.9509 11.6396 21.9795C11.7119 22.0081 11.7926 22.0068 11.8639 21.9759C11.9352 21.9451 11.9913 21.8871 12.0199 21.8149C12.4082 20.8332 12.534 19.891 12.3934 19.0137C12.3482 18.7535 12.2881 18.4962 12.2133 18.243C12.1035 17.8488 12.0004 17.4762 12.0141 16.9465C12.0267 16.5212 12.1074 16.1006 12.2531 15.7008H12.9563C13.0884 15.7007 13.2181 15.6645 13.3312 15.5962C13.4444 15.5278 13.5367 15.4299 13.5983 15.3129C13.6599 15.1959 13.6883 15.0644 13.6807 14.9324C13.673 14.8005 13.6294 14.6731 13.5547 14.5641L13.0156 13.7797C13.1302 13.7161 13.2298 13.6287 13.3078 13.5234C13.3858 13.4181 13.4404 13.2974 13.4679 13.1692C13.4954 13.0411 13.4951 12.9086 13.4672 12.7806C13.4392 12.6525 13.3842 12.532 13.3059 12.427C13.3168 12.418 13.3281 12.409 13.3387 12.3996C13.8563 11.9474 14.3368 11.4543 14.7754 10.925C15.3328 12.0633 16.1969 12.9953 16.877 13.6133C16.784 13.7096 16.7158 13.8272 16.6785 13.9557C16.6412 14.0843 16.6357 14.22 16.6627 14.3512C16.6896 14.4823 16.7481 14.605 16.8331 14.7084C16.918 14.8119 17.027 14.8931 17.1504 14.9449L16.7629 15.509C16.6948 15.6083 16.6551 15.7242 16.6481 15.8444C16.6411 15.9645 16.6671 16.0843 16.7231 16.1908C16.7792 16.2973 16.8633 16.3864 16.9664 16.4486C17.0694 16.5109 17.1875 16.5437 17.3078 16.5438H17.6672C17.5309 16.8436 17.4495 17.1655 17.427 17.4942C17.391 18.0473 17.5441 18.443 17.6906 18.8254C17.7893 19.0623 17.8665 19.3076 17.9215 19.5582C18.0465 20.1883 17.9504 20.8863 17.6359 21.6375C17.6059 21.7091 17.6055 21.7897 17.6348 21.8616C17.6641 21.9335 17.7207 21.9909 17.7922 22.0211C17.828 22.0363 17.8665 22.0442 17.9055 22.0442C17.9632 22.0442 18.0196 22.0271 18.0676 21.9951C18.1156 21.9632 18.1531 21.9177 18.1754 21.8645C18.5359 21.0051 18.6441 20.191 18.4957 19.4426C18.4343 19.159 18.3477 18.8814 18.2367 18.6133C18.1008 18.2617 17.9832 17.9551 18.0105 17.5305C18.0372 17.1814 18.1441 16.8432 18.323 16.5422H18.9324C19.0528 16.5422 19.1708 16.5093 19.2739 16.4471C19.3769 16.3849 19.461 16.2957 19.5171 16.1892C19.5732 16.0827 19.5991 15.963 19.5921 15.8428C19.5851 15.7227 19.5454 15.6067 19.4773 15.5074L19.0477 14.8789C19.1444 14.8182 19.2274 14.738 19.2913 14.6433C19.3553 14.5487 19.3988 14.4417 19.419 14.3293C19.4392 14.2169 19.4357 14.1015 19.4088 13.9905C19.3818 13.8795 19.332 13.7754 19.2625 13.6848L19.2738 13.6754C19.7879 13.2246 20.5199 12.5035 21.0867 11.6164C21.7352 10.6059 22.041 9.5922 21.9957 8.60627ZM6.79258 15.7649C6.7865 15.777 6.77704 15.7872 6.76533 15.7941C6.75362 15.8011 6.74016 15.8045 6.72656 15.8039H5.10039C5.08678 15.8039 5.07344 15.8001 5.0618 15.7931C5.05016 15.786 5.04066 15.7759 5.03432 15.7639C5.02798 15.7518 5.02503 15.7383 5.0258 15.7247C5.02657 15.7111 5.03102 15.698 5.03867 15.6867L5.60898 14.8563H6.21875L6.78945 15.6867C6.79755 15.698 6.80216 15.7114 6.80272 15.7253C6.80328 15.7392 6.79975 15.753 6.79258 15.7649ZM5.02461 14.0313C5.02482 13.9678 5.05016 13.9069 5.09511 13.862C5.14006 13.8172 5.20094 13.7919 5.26445 13.7918H6.39727C6.46077 13.7918 6.52168 13.817 6.56658 13.8619C6.61149 13.9069 6.63672 13.9678 6.63672 14.0313C6.63672 14.0948 6.61149 14.1557 6.56658 14.2006C6.52168 14.2455 6.46077 14.2707 6.39727 14.2707H5.26445C5.20094 14.2706 5.14006 14.2454 5.09511 14.2005C5.05016 14.1556 5.02482 14.0948 5.02461 14.0313ZM6.6793 13.236C6.67383 13.241 6.66797 13.2453 6.66211 13.25C6.57683 13.2209 6.48737 13.206 6.39727 13.2059H5.26445C5.21267 13.206 5.16102 13.211 5.11016 13.2207C4.16602 12.3727 2.58594 10.6492 2.58594 8.61955C2.58697 7.74248 2.93585 6.90162 3.55603 6.28144C4.17621 5.66125 5.01707 5.31238 5.89414 5.31134C6.47724 5.31004 7.04964 5.46793 7.54961 5.76798C7.50843 6.01389 7.48779 6.2628 7.48789 6.51213C7.48789 7.66173 7.86289 8.83478 8.60234 9.99884C8.68594 10.1305 8.77461 10.2617 8.8668 10.3922C8.36484 11.5945 7.40781 12.5977 6.6793 13.2363V13.236ZM10.9027 12.9766C10.9028 12.8881 10.938 12.8033 11.0006 12.7408C11.0631 12.6783 11.1479 12.6431 11.2363 12.643H12.5695C12.6133 12.643 12.6567 12.6516 12.6972 12.6684C12.7377 12.6851 12.7744 12.7097 12.8054 12.7407C12.8364 12.7717 12.861 12.8084 12.8777 12.8489C12.8945 12.8894 12.9031 12.9328 12.9031 12.9766C12.9031 13.0204 12.8945 13.0638 12.8777 13.1042C12.861 13.1447 12.8364 13.1815 12.8054 13.2125C12.7744 13.2434 12.7377 13.268 12.6972 13.2848C12.6567 13.3015 12.6133 13.3102 12.5695 13.3102H11.2363C11.1479 13.3101 11.0631 13.2749 11.0006 13.2124C10.938 13.1498 10.9028 13.065 10.9027 12.9766ZM13.0719 14.8957C13.0863 14.9167 13.0948 14.9413 13.0963 14.9667C13.0978 14.9922 13.0923 15.0175 13.0805 15.0401C13.0686 15.0627 13.0508 15.0816 13.029 15.0947C13.0071 15.1079 12.9821 15.1149 12.9566 15.1149H11.0426C11.0171 15.1149 10.9921 15.1079 10.9703 15.0947C10.9484 15.0816 10.9306 15.0627 10.9188 15.0401C10.9069 15.0175 10.9014 14.9922 10.9029 14.9667C10.9044 14.9413 10.9129 14.9167 10.9273 14.8957L11.6137 13.8961H12.3848L13.0719 14.8957ZM12.9547 11.959C12.9027 12.0045 12.8475 12.0462 12.7895 12.0836C12.718 12.066 12.6447 12.0571 12.5711 12.057H11.1973C11.1468 12.0219 11.0984 11.9838 11.0523 11.943C9.93945 10.9453 8.07383 8.91408 8.07383 6.51213C8.07507 5.47122 8.48912 4.4733 9.22515 3.73727C9.96118 3.00124 10.9591 2.58719 12 2.58595C12.5095 2.58468 13.0141 2.68575 13.4838 2.88316C13.9535 3.08057 14.3788 3.3703 14.7344 3.73517C15.4543 4.46798 15.8777 5.459 15.9266 6.5258C16.0348 8.88986 14.1094 10.9453 12.9531 11.961L12.9547 11.959ZM19.0004 15.918C18.9942 15.9301 18.9846 15.9402 18.9729 15.9472C18.9611 15.9541 18.9476 15.9575 18.934 15.957H17.3082C17.2946 15.9575 17.2811 15.9541 17.2693 15.9472C17.2576 15.9402 17.248 15.9301 17.2418 15.918C17.2347 15.906 17.2314 15.8921 17.2323 15.8782C17.2331 15.8643 17.238 15.851 17.2465 15.8399L17.8168 15.0094H18.4254L18.9957 15.8399C19.0041 15.851 19.0091 15.8643 19.0099 15.8782C19.0108 15.8921 19.0074 15.906 19.0004 15.918ZM17.2344 14.1844C17.2345 14.1209 17.2597 14.0601 17.3046 14.0152C17.3495 13.9703 17.4104 13.945 17.4738 13.9449H18.6066C18.6299 13.9449 18.6531 13.9483 18.6754 13.9551C18.73 13.9722 18.7768 14.0083 18.8071 14.0568C18.8375 14.1054 18.8495 14.1632 18.841 14.2198C18.8324 14.2764 18.8039 14.3281 18.7606 14.3655C18.7172 14.4029 18.6619 14.4236 18.6047 14.4238H17.4719C17.4088 14.4231 17.3485 14.3976 17.304 14.3528C17.2596 14.308 17.2346 14.2475 17.2344 14.1844ZM18.8891 13.2363C18.8328 13.2858 18.7718 13.3296 18.707 13.3672C18.6732 13.3627 18.6392 13.3603 18.6051 13.3602H17.5043C17.4389 13.3211 17.3774 13.2758 17.3207 13.225C16.6211 12.5965 15.6953 11.6055 15.1801 10.402C15.2742 10.2711 15.366 10.1371 15.4535 9.99924C16.2078 8.82228 16.5637 7.64494 16.5109 6.50002C16.4998 6.2546 16.4707 6.01032 16.4238 5.76916C16.932 5.46964 17.5113 5.31195 18.1012 5.31252C18.5306 5.31113 18.9559 5.39611 19.3518 5.5624C19.7478 5.72869 20.1062 5.97289 20.4059 6.28048C21.0129 6.89845 21.3699 7.73439 21.4113 8.634C21.502 10.6328 19.8691 12.3758 18.8871 13.2363H18.8891Z" fill="black"/>
</g>
<defs>
<clipPath id="clip0_24969_75755">
<rect width="20" height="20" fill="white" transform="translate(2 2)"/>
</clipPath>
</defs>
</svg>
