<svg width="24" height="24" viewBox="0 0 24 24" fill="none" xmlns="http://www.w3.org/2000/svg">
<g clip-path="url(#clip0_24394_3958)">
<g clip-path="url(#clip1_24394_3958)">
<path d="M20 17H4L3.5 8.5L7.5 11.5L12 7L16.5 11.5L20.5 8.5L20 17Z" fill="#FFC107"/>
<path d="M20 19H4V17H20V19ZM12 7C12.55 7 13 6.55 13 6C13 5.45 12.55 5 12 5C11.45 5 11 5.45 11 6C11 6.55 11.45 7 12 7ZM21 8.5C21.55 8.5 22 8.05 22 7.5C22 6.95 21.55 6.5 21 6.5C20.45 6.5 20 6.95 20 7.5C20 8.05 20.45 8.5 21 8.5ZM3 8.5C3.55 8.5 4 8.05 4 7.5C4 6.95 3.55 6.5 3 6.5C2.45 6.5 2 6.95 2 7.5C2 8.05 2.45 8.5 3 8.5Z" fill="#FF9800"/>
</g>
</g>
<defs>
<clipPath id="clip0_24394_3958">
<rect width="24" height="24" fill="white"/>
</clipPath>
<clipPath id="clip1_24394_3958">
<rect width="24" height="24" fill="white"/>
</clipPath>
</defs>
</svg>
