<svg width="24" height="24" viewBox="0 0 24 24" fill="none" xmlns="http://www.w3.org/2000/svg">
<g clip-path="url(#clip0_24772_5132)">
<g clip-path="url(#clip1_24772_5132)">
<path d="M5 13C5 14.6 5.5 16.1 6.5 17.3C7.5 18.6 8 20.3 8 22H16C16 22 16.5 18.6 17.5 17.2C18.4 16 19 14.5 19 12.9C19 10.2 17.4 7.6 15 6.5V3H9V6.5C9 6.5 5 8.1 5 13Z" fill="#FF8A65"/>
<path d="M17.9998 13C17.9998 11.9 18.2998 11.05 18.6498 10.7C18.5498 10.35 18.3998 10.05 18.2498 9.75C17.4998 10.25 16.9998 11.45 16.9998 13C16.9998 14.45 17.4498 15.65 18.1498 16.2C18.2998 15.9 18.4498 15.55 18.5998 15.25C18.2998 14.8 17.9998 14.05 17.9998 13ZM11.9998 9.5C10.0498 9.5 8.4998 11.05 8.4998 13C8.4998 14.95 10.0498 16.5 11.9998 16.5C13.9498 16.5 15.4998 14.95 15.4998 13C15.4998 11.05 13.9498 9.5 11.9998 9.5ZM11.9998 15.5C10.5998 15.5 9.4998 14.4 9.4998 13C9.4998 11.6 10.5998 10.5 11.9998 10.5C13.3998 10.5 14.4998 11.6 14.4998 13C14.4998 14.4 13.3998 15.5 11.9998 15.5ZM5.6998 9.7C5.5498 10 5.3998 10.3 5.2998 10.65C5.6498 11 5.9498 11.85 5.9498 12.95C5.9498 14.05 5.6498 14.85 5.2998 15.2C5.3998 15.55 5.5498 15.85 5.6998 16.15C6.4998 15.7 6.9998 14.5 6.9998 13C6.9998 11.45 6.4998 10.2 5.6998 9.7ZM8.9998 5.5H14.9998V6.5H8.9998V5.5Z" fill="#FFAB91"/>
<path d="M8 3C8 3.55 8.45 4 9 4H15C15.55 4 16 3.55 16 3C16 2.45 15.55 2 15 2H9C8.45 2 8 2.45 8 3Z" fill="#FF7043"/>
<path d="M11.3499 14.9502L12.0999 18.6002L11.9999 14.6002L10.4999 13.4002L12.2999 10.4002H7.8999L6.5999 8.4502C6.2499 8.8502 5.9499 9.30019 5.6499 9.90019L6.9499 11.3502L11.2999 11.0002L9.1999 13.8002L11.3499 14.9502Z" fill="#8C2A0B"/>
</g>
</g>
<defs>
<clipPath id="clip0_24772_5132">
<rect width="24" height="24" fill="white"/>
</clipPath>
<clipPath id="clip1_24772_5132">
<rect width="24" height="24" fill="white"/>
</clipPath>
</defs>
</svg>
