<svg width="24" height="24" viewBox="0 0 24 24" fill="none" xmlns="http://www.w3.org/2000/svg">
<g clip-path="url(#clip0_24394_1129)">
<g clip-path="url(#clip1_24394_1129)">
<path d="M21 18.5C21 19.881 19.881 21 18.5 21H5.5C4.1195 21 3 19.881 3 18.5V5.5C3 4.119 4.1195 3 5.5 3H18.5C19.881 3 21 4.119 21 5.5V18.5Z" fill="#F50057"/>
<path d="M9.8875 7.4105C9.6605 7.463 9.5 7.665 9.5 7.898V14.5C9.5 14.776 9.276 15 9 15H8.5C7.3955 15 6.5 15.6715 6.5 16.5C6.5 17.3285 7.3955 18 8.5 18C9.6045 18 10.5 17.3285 10.5 16.5V10.667C10.5 10.434 10.6605 10.232 10.8875 10.18L14.5405 9.337C14.7755 9.2825 15 9.461 15 9.702V13C15 13.276 14.776 13.5 14.5 13.5H14C12.8955 13.5 12 14.1715 12 15C12 15.8285 12.8955 16.5 14 16.5C15.1045 16.5 16 15.8285 16 15V6.6285C16 6.307 15.701 6.069 15.3875 6.1415L9.8875 7.4105Z" fill="white"/>
</g>
</g>
<defs>
<clipPath id="clip0_24394_1129">
<rect width="24" height="24" fill="white"/>
</clipPath>
<clipPath id="clip1_24394_1129">
<rect width="24" height="24" fill="white"/>
</clipPath>
</defs>
</svg>
