<svg width="24" height="24" viewBox="0 0 24 24" fill="none" xmlns="http://www.w3.org/2000/svg">
<path d="M19.6155 7.0874H21.7309V18.9336H19.6155V7.0874Z" fill="#4B6981"/>
<path d="M21.7308 19.3564H19.6155C19.5033 19.3564 19.3956 19.3118 19.3163 19.2325C19.237 19.1531 19.1924 19.0455 19.1924 18.9333V7.08714C19.1924 6.97493 19.237 6.86732 19.3163 6.78798C19.3956 6.70864 19.5033 6.66406 19.6155 6.66406H21.7308C21.8431 6.66406 21.9507 6.70864 22.03 6.78798C22.1093 6.86732 22.1539 6.97493 22.1539 7.08714V18.9333C22.1539 19.0455 22.1093 19.1531 22.03 19.2325C21.9507 19.3118 21.8431 19.3564 21.7308 19.3564ZM20.0385 18.5102H21.3078V7.51022H20.0385V18.5102Z" fill="#2A3D4F"/>
<path d="M12.4125 14.6766C12.2868 14.7484 12.1447 14.7862 12 14.7862C11.8553 14.7862 11.7131 14.7484 11.5875 14.6766C8.94831 13.1611 6.70431 13.4446 6.70431 13.4446L6.62773 13.4531C5.29631 13.5825 4.23439 12.5832 4.3575 11.435C4.44804 10.5931 3.86673 9.87214 3.45 9.42875C2.97912 8.92783 2.60512 8.35837 2.42658 7.73221C1.87996 5.81356 2.93131 5.06683 2.93131 5.06683C3.75842 6.43464 6.40646 6.14991 6.40646 6.14991C6.98989 6.01071 7.5915 6.07206 8.11612 6.20321C8.82858 6.38091 9.46742 6.72529 10.0212 7.15006C10.8801 7.80837 12 8.25852 12 8.25852C12 8.25852 13.1198 7.80837 13.9787 7.15006C14.5325 6.72529 15.1713 6.38133 15.8834 6.20321C16.408 6.07206 17.01 6.01071 17.5935 6.14948C17.5935 6.14948 20.2411 6.43464 21.0686 5.06641C21.0686 5.06641 22.12 5.81356 21.5729 7.73221C21.3948 8.35837 21.0208 8.92783 20.5499 9.42875C20.1328 9.87214 19.5515 10.5935 19.6424 11.435C19.7655 12.5832 18.7032 13.5825 17.3722 13.4531L17.2956 13.4446C17.2956 13.4446 15.0516 13.1611 12.4125 14.6766Z" fill="#EB675E"/>
<path d="M12 15.2085C11.7842 15.2085 11.5689 15.1535 11.3768 15.043C8.90479 13.6245 6.77755 13.8605 6.75598 13.8643L6.66882 13.8732C5.86794 13.9528 5.10386 13.6862 4.56952 13.1468C4.09863 12.6713 3.86805 12.0307 3.93702 11.3893C4.00852 10.7251 3.51732 10.1176 3.14163 9.71819C2.58105 9.12165 2.20367 8.49211 2.02005 7.84819C1.39813 5.6668 2.63352 4.7593 2.6864 4.72165C2.73381 4.68799 2.78764 4.66447 2.84454 4.65255C2.90144 4.64062 2.96018 4.64056 3.01711 4.65235C3.07404 4.66414 3.12793 4.68753 3.17541 4.72108C3.22289 4.75462 3.26295 4.79759 3.29309 4.8473C3.84859 5.76538 5.65386 5.79795 6.33671 5.73153C6.90363 5.60122 7.53698 5.62238 8.21898 5.79245C8.93567 5.97142 9.62825 6.31495 10.2785 6.81376C10.8962 7.28676 11.6717 7.65315 12 7.79784C12.3283 7.65315 13.1042 7.28676 13.7215 6.81376C14.3718 6.31495 15.0644 5.97142 15.7811 5.79245C16.4626 5.62238 17.096 5.60122 17.6633 5.73111C18.3462 5.79795 20.1514 5.76495 20.7069 4.8473C20.7371 4.79759 20.7771 4.75462 20.8246 4.72108C20.8721 4.68753 20.926 4.66414 20.9829 4.65235C21.0399 4.64056 21.0986 4.64062 21.1555 4.65255C21.2124 4.66447 21.2662 4.68799 21.3136 4.72165C21.3665 4.7593 22.6015 5.6668 21.98 7.84776C21.7964 8.49211 21.419 9.12122 20.858 9.71776C20.4827 10.1176 19.9915 10.7251 20.0626 11.3889C20.132 12.0307 19.9014 12.6708 19.4305 13.1468C18.8957 13.6866 18.1291 13.9515 17.3312 13.8732L17.2487 13.8648C17.2233 13.8614 15.0944 13.6249 12.6232 15.0426C12.4335 15.1514 12.2187 15.2086 12 15.2085ZM7.1744 12.9991C8.01971 12.9991 9.79832 13.1612 11.7982 14.309C11.8596 14.3442 11.929 14.3627 11.9997 14.3628C12.0705 14.3628 12.14 14.3445 12.2014 14.3094C14.9319 12.7415 17.2517 13.0123 17.3486 13.0245L17.4137 13.0313C17.9595 13.0842 18.4744 12.9095 18.8293 12.5515C19.1246 12.2533 19.2638 11.8725 19.2219 11.4799C19.1005 10.352 19.9594 9.43853 20.2416 9.13857C20.7091 8.64145 21.02 8.12911 21.166 7.61592C21.4397 6.65553 21.2599 6.05222 21.0729 5.72434C19.9145 6.80869 17.6544 6.58107 17.5482 6.57007C17.5304 6.56811 17.5128 6.565 17.4954 6.56076C17.0541 6.45584 16.546 6.47319 15.9862 6.61322C15.3829 6.76426 14.794 7.05746 14.236 7.48519C13.3416 8.17099 12.2056 8.63172 12.1578 8.65034C12.0566 8.69123 11.9434 8.69123 11.8422 8.65034C11.794 8.6313 10.658 8.17099 9.76406 7.48519C9.20559 7.05746 8.61752 6.76426 8.01379 6.61365C7.45321 6.47361 6.94552 6.45584 6.50425 6.56076C6.48684 6.565 6.46917 6.56811 6.45136 6.57007C6.34559 6.58107 4.0834 6.80911 2.92502 5.72265C2.73802 6.04926 2.55863 6.65045 2.83363 7.61592C2.98002 8.12911 3.29098 8.64145 3.75848 9.13857C4.04067 9.43895 4.89952 10.3528 4.77809 11.4799C4.73579 11.8725 4.8754 12.2533 5.17113 12.5515C5.52525 12.909 6.04056 13.0829 6.58632 13.0313L6.65698 13.0237C6.68152 13.0207 6.86598 12.9991 7.1744 12.9991Z" fill="#2A3D4F"/>
<path d="M5.56073 8.71713C5.69638 9.53111 6.14981 10.2579 6.82127 10.7376C7.49273 11.2173 8.32723 11.4106 9.14123 11.2751C9.07406 10.872 8.92815 10.4861 8.71184 10.1394C8.49553 9.79268 8.21305 9.49198 7.88053 9.25446C7.54801 9.01693 7.17196 8.84723 6.77386 8.75503C6.37575 8.66284 5.96381 8.64996 5.56073 8.71713Z" fill="#D4C8BC"/>
<path d="M8.62811 11.7411C6.93199 11.7411 5.43091 10.5138 5.14322 8.7872C5.13408 8.73239 5.13582 8.67631 5.14834 8.62218C5.16087 8.56804 5.18394 8.5169 5.21624 8.47168C5.24853 8.42646 5.28942 8.38804 5.33656 8.35863C5.3837 8.32921 5.43618 8.30937 5.49099 8.30024C7.41514 7.98039 9.23861 9.28347 9.55845 11.2059C9.5768 11.3166 9.55048 11.4299 9.48527 11.5212C9.42006 11.6124 9.3213 11.674 9.21068 11.6925C9.01816 11.7247 8.82331 11.741 8.62811 11.7411ZM6.09303 9.09816C6.27543 9.62055 6.61579 10.0733 7.06695 10.3936C7.51641 10.7167 8.05516 10.892 8.60864 10.8954C8.42432 10.374 8.08408 9.92183 7.63407 9.60033C7.18406 9.27883 6.64606 9.10351 6.09303 9.09816Z" fill="#2A3D4F"/>
<path d="M18.4391 8.71757C18.3035 9.53155 17.8501 10.2583 17.1786 10.738C16.5071 11.2177 15.6726 11.411 14.8586 11.2755C14.9943 10.4615 15.4477 9.73475 16.1192 9.25506C16.7906 8.77537 17.6251 8.58203 18.4391 8.71757Z" fill="#D4C8BC"/>
<path d="M15.3719 11.741C15.1798 11.741 14.9852 11.7254 14.7893 11.6924C14.7345 11.6833 14.6821 11.6635 14.6349 11.6341C14.5878 11.6047 14.5469 11.5664 14.5146 11.5212C14.4823 11.476 14.4592 11.4249 14.4467 11.3708C14.4342 11.3167 14.4324 11.2606 14.4416 11.2058C14.7618 9.28336 16.5866 7.98071 18.509 8.30013C18.6196 8.31858 18.7184 8.38019 18.7836 8.47142C18.8488 8.56265 18.8751 8.67604 18.8568 8.78667C18.5691 10.5137 17.0676 11.741 15.3719 11.741ZM17.907 9.09806C17.354 9.10341 16.8159 9.27873 16.3659 9.60023C15.9159 9.92173 15.5757 10.3739 15.3914 10.8953C15.9449 10.8919 16.4836 10.7166 16.9331 10.3935C17.3842 10.0732 17.7246 9.62045 17.907 9.09806Z" fill="#2A3D4F"/>
<path d="M12.0001 12.9322C12.5842 12.9322 13.0578 12.275 13.0578 11.4642C13.0578 10.6534 12.5842 9.99609 12.0001 9.99609C11.4159 9.99609 10.9424 10.6534 10.9424 11.4642C10.9424 12.275 11.4159 12.9322 12.0001 12.9322Z" fill="#FCCB4F"/>
<path d="M12.0001 13.356C11.1696 13.356 10.5193 12.5251 10.5193 11.4649C10.5193 10.4047 11.1696 9.57373 12.0001 9.57373C12.8306 9.57373 13.4808 10.4042 13.4808 11.4649C13.4808 12.5255 12.8301 13.356 12.0001 13.356ZM12.0001 10.4199C11.6997 10.4199 11.3654 10.8489 11.3654 11.4649C11.3654 12.0809 11.6997 12.5099 12.0001 12.5099C12.3004 12.5099 12.6347 12.0805 12.6347 11.4649C12.6347 10.8493 12.3004 10.4199 12.0001 10.4199Z" fill="#2A3D4F"/>
</svg>
