<svg width="24" height="24" viewBox="0 0 24 24" fill="none" xmlns="http://www.w3.org/2000/svg">
<path d="M15.0103 14.3883C18.1806 14.3883 20.7506 11.8183 20.7506 8.64803C20.7506 5.47774 18.1806 2.90771 15.0103 2.90771C11.84 2.90771 9.27002 5.47774 9.27002 8.64803C9.27002 11.8183 11.84 14.3883 15.0103 14.3883Z" fill="#ED9700"/>
<path d="M16.8034 14.1011C16.7556 14.1169 16.7062 14.1318 16.658 14.1465C16.6579 14.1314 16.6598 14.1164 16.6635 14.1018C16.8607 13.2391 16.9007 12.3018 16.7818 11.3147C15.0259 12.117 13.5084 13.3445 12.8144 13.9516C12.6219 13.8721 12.4341 13.7817 12.252 13.6809C12.2531 13.6805 12.2527 13.6794 12.2538 13.679C12.9152 13.084 14.6548 11.6218 16.6901 10.7251C16.6281 10.3794 16.5472 10.026 16.4489 9.66953C16.0953 9.80735 15.7714 9.92393 15.4627 10.0255C13.6276 10.6332 11.7127 10.9662 9.78019 11.0136C9.69635 10.8282 9.62254 10.6385 9.55908 10.4451C11.5052 10.4176 13.4356 10.0917 15.2828 9.47875C15.5983 9.37493 15.928 9.25643 16.2857 9.11599C16.2816 9.09968 16.2764 9.08374 16.2715 9.06893C16.1726 8.76822 16.0507 8.44352 15.9004 8.07888C13.9789 8.57336 11.5449 7.38325 9.79327 6.25657C9.87271 6.08109 9.96137 5.90993 10.0589 5.7438C11.4182 6.6221 13.857 7.94946 15.6723 7.54291C15.0314 6.13164 14.1406 4.69394 13.0204 3.26486C13.0849 3.24003 13.1502 3.21689 13.2159 3.19549C13.3458 3.15278 13.476 3.115 13.6055 3.08252C14.7026 4.50658 15.5793 5.94002 16.2146 7.34941C17.4894 6.69649 17.9338 4.87394 18.0866 3.82258C18.0875 3.81654 18.0889 3.81058 18.0908 3.80477C18.2713 3.91895 18.4451 4.04347 18.6112 4.17771C18.4075 5.34677 17.8659 7.17733 16.4396 7.88004C16.5937 8.25227 16.7175 8.58269 16.8183 8.88907C16.8194 8.89249 16.8198 8.89741 16.8213 8.902C18.1072 8.35738 19.3288 7.67188 20.4636 6.85807C20.5275 7.05169 20.5809 7.24859 20.6236 7.44794C19.486 8.24493 18.2664 8.91782 16.9855 9.45513C17.0861 9.81086 17.1701 10.1658 17.2351 10.513C18.6593 10.0419 19.7881 10.3535 20.3991 10.6259C20.3327 10.8056 20.2576 10.982 20.174 11.1544C19.635 10.9126 18.6255 10.6337 17.3333 11.0878C17.4672 12.0277 17.4508 12.9829 17.2846 13.9177C17.1292 13.9864 16.9686 14.0468 16.8034 14.1011Z" fill="#2D4860"/>
<path d="M6.49267 17.9458C9.27579 17.9458 11.532 15.6896 11.532 12.9065C11.532 10.1234 9.27579 7.86719 6.49267 7.86719C3.70954 7.86719 1.45337 10.1234 1.45337 12.9065C1.45337 15.6896 3.70954 17.9458 6.49267 17.9458Z" fill="white"/>
<path d="M1.8077 11.0494L2.08857 11.6144L3.53973 10.6575L4.07612 9.00406L3.45709 8.88369C2.71926 9.44085 2.1487 10.19 1.8077 11.0494ZM3.27873 16.7883L3.90296 16.6957L3.44134 15.02L2.03448 13.9989L1.72876 14.5504C2.03167 15.4237 2.56766 16.1976 3.27873 16.7883ZM9.29612 16.5403L7.55978 16.4615L6.15395 17.484L6.58403 17.9452C7.5084 17.9281 8.41032 17.6574 9.19131 17.1626L9.29612 16.5403ZM11.3744 11.6551L10.815 11.3631L10.2035 12.9902L10.7415 14.6432L11.313 14.3766C11.5824 13.4922 11.6037 12.5508 11.3744 11.6551ZM6.81113 7.877L6.36053 8.3187L7.71896 9.40311L9.45727 9.40227L9.38045 8.77634C8.62259 8.2468 7.7338 7.93572 6.81113 7.877ZM4.88195 11.6797L7.16148 10.9955L8.51663 12.9521L7.07471 14.8455L4.82832 14.0592L4.88195 11.6797Z" fill="#2D4860"/>
<path d="M22.1775 12.7856C22.2937 12.8328 22.3919 12.9156 22.458 13.0222C22.5241 13.1288 22.5547 13.2536 22.5454 13.3787C22.4584 14.5422 21.9217 17.8501 18.6662 19.8699C15.4107 21.8898 12.2085 20.9016 11.1274 20.4628C11.0112 20.4156 10.913 20.3327 10.8469 20.2262C10.7807 20.1196 10.7501 19.9948 10.7595 19.8697C10.8465 18.7062 11.3832 15.3983 14.6387 13.3785C17.8942 11.3586 21.0963 12.3468 22.1775 12.7856Z" fill="#E2433E"/>
<path d="M12.0288 15.9751C11.6904 16.5225 11.4155 17.1066 11.2095 17.7163C11.6599 18.9452 12.3573 20.0688 13.2586 21.018C13.8961 21.1035 14.5413 21.1162 15.1817 21.0559C14.5556 20.6853 13.7882 19.8686 13.1309 18.8092C12.4739 17.7503 12.0831 16.7006 12.0288 15.9751V15.9751Z" fill="#FFF7EE"/>
<path d="M17.6657 13.7532C17.6459 13.7654 17.625 13.7757 17.6033 13.7838C16.1541 14.3361 14.8242 15.1612 13.6858 16.2144C13.6519 16.246 13.6122 16.2706 13.5688 16.2869C13.5254 16.3031 13.4793 16.3107 13.433 16.3091C13.3867 16.3075 13.3411 16.2968 13.299 16.2777C13.2568 16.2585 13.2188 16.2312 13.1872 16.1973C13.1556 16.1635 13.131 16.1237 13.1147 16.0803C13.0985 16.037 13.0909 15.9908 13.0925 15.9445C13.0941 15.8982 13.1048 15.8527 13.1239 15.8105C13.1431 15.7683 13.1704 15.7304 13.2043 15.6988C14.4103 14.5825 15.8195 13.7083 17.3552 13.1234C17.4371 13.0928 17.5275 13.0937 17.6088 13.1259C17.6902 13.1581 17.7566 13.2194 17.7953 13.2979C17.834 13.3764 17.8421 13.4664 17.8182 13.5505C17.7942 13.6347 17.7399 13.7069 17.6657 13.7532Z" fill="#FFF7EE"/>
<path d="M20.0464 12.2301C19.4089 12.1446 18.7637 12.1318 18.1233 12.1922C18.7493 12.5628 19.5167 13.3794 20.1741 14.4389C20.8311 15.4978 21.2217 16.5475 21.2762 17.2729C21.6146 16.7256 21.8895 16.1414 22.0955 15.5318C21.645 14.3029 20.9477 13.1792 20.0464 12.2301Z" fill="#FFF7EE"/>
</svg>
