<svg width="24" height="24" viewBox="0 0 24 24" fill="none" xmlns="http://www.w3.org/2000/svg">
<g clip-path="url(#clip0_24270_6649)">
<g clip-path="url(#clip1_24270_6649)">
<g clip-path="url(#clip2_24270_6649)">
<path d="M16.1236 12.753C18.8168 12.753 21.0001 10.5697 21.0001 7.8765C21.0001 5.18328 18.8168 3 16.1236 3C13.4304 3 11.2471 5.18328 11.2471 7.8765C11.2471 10.5697 13.4304 12.753 16.1236 12.753Z" fill="#F4B53F"/>
<path d="M16.1236 12.753C18.8168 12.753 21.0001 10.5697 21.0001 7.8765C21.0001 5.18328 18.8168 3 16.1236 3C13.4304 3 11.2471 5.18328 11.2471 7.8765C11.2471 10.5697 13.4304 12.753 16.1236 12.753Z" fill="#F6C465"/>
<path d="M18.4877 12.1682L11.8312 5.51168C11.7702 5.45068 11.7587 5.35568 11.8037 5.28218L12.1172 4.76518C12.1802 4.66119 12.3242 4.64368 12.4102 4.72968L19.2702 11.5897C19.3562 11.6757 19.3387 11.8192 19.2347 11.8827L18.7177 12.1962C18.6437 12.2407 18.5487 12.2292 18.4877 12.1682Z" fill="url(#paint0_linear_24270_6649)"/>
<path d="M10.8689 8.63098C9.98837 11.2725 4.45637 17.015 3.14688 18.3495C2.97138 18.528 2.95038 18.8045 3.09888 19.006C3.26138 19.2265 3.53437 19.5535 3.99037 20.0095C4.44637 20.4655 4.77337 20.739 4.99387 20.901C5.19537 21.0495 5.47137 21.0285 5.65037 20.853C6.98537 19.543 12.7279 14.0115 15.3694 13.131L10.8689 8.63098Z" fill="url(#paint1_linear_24270_6649)"/>
<path d="M15.3294 13.1545L10.8459 8.67102C10.7669 8.59202 10.7669 8.46452 10.8459 8.38552L11.0559 8.17552C11.1349 8.09652 11.2624 8.09652 11.3414 8.17552L15.8249 12.659C15.9039 12.738 15.9039 12.8655 15.8249 12.9445L15.6149 13.1545C15.5359 13.233 15.4079 13.233 15.3294 13.1545Z" fill="url(#paint2_linear_24270_6649)"/>
<path d="M11.7069 12.293C11.3164 11.9025 10.6834 11.9025 10.2929 12.293C10.0974 12.4885 9.48837 13.0975 9.29287 13.293C8.90238 13.6835 8.90238 14.3165 9.29287 14.707C9.68337 15.0975 10.3164 15.0975 10.7069 14.707C10.9024 14.5115 11.5114 13.9025 11.7069 13.707C12.0974 13.3165 12.0974 12.6835 11.7069 12.293Z" fill="url(#paint3_linear_24270_6649)"/>
<path d="M11 13.75C11.4142 13.75 11.75 13.4142 11.75 13C11.75 12.5858 11.4142 12.25 11 12.25C10.5858 12.25 10.25 12.5858 10.25 13C10.25 13.4142 10.5858 13.75 11 13.75Z" fill="#CCCCCC"/>
</g>
</g>
</g>
<defs>
<linearGradient id="paint0_linear_24270_6649" x1="11.945" y1="4.94536" x2="19.0708" y2="12.0711" gradientUnits="userSpaceOnUse">
<stop stop-color="#889097"/>
<stop offset="1" stop-color="#64717C"/>
</linearGradient>
<linearGradient id="paint1_linear_24270_6649" x1="9.18437" y1="21.328" x2="9.18437" y2="8.82148" gradientUnits="userSpaceOnUse">
<stop stop-color="#889097"/>
<stop offset="1" stop-color="#64717C"/>
</linearGradient>
<linearGradient id="paint2_linear_24270_6649" x1="10.9626" y1="8.28479" x2="15.7323" y2="13.0544" gradientUnits="userSpaceOnUse">
<stop stop-color="#889097"/>
<stop offset="1" stop-color="#64717C"/>
</linearGradient>
<linearGradient id="paint3_linear_24270_6649" x1="11.6994" y1="12.3005" x2="9.37687" y2="14.623" gradientUnits="userSpaceOnUse">
<stop stop-color="#4C4C4C"/>
<stop offset="1" stop-color="#343434"/>
</linearGradient>
<clipPath id="clip0_24270_6649">
<rect width="24" height="24" fill="white"/>
</clipPath>
<clipPath id="clip1_24270_6649">
<rect width="24" height="24" fill="white" transform="translate(0.5)"/>
</clipPath>
<clipPath id="clip2_24270_6649">
<rect width="24" height="24" fill="white"/>
</clipPath>
</defs>
</svg>
