<svg width="24" height="24" viewBox="0 0 24 24" fill="none" xmlns="http://www.w3.org/2000/svg">
<g clip-path="url(#clip0_24270_6595)">
<path d="M13.85 8.74961C14.5 10.5996 12.5 14.7996 10.7 15.4496L6.5 3.74962C10.15 2.44962 11.9 3.19962 11.9 3.19962L13.85 8.74961Z" fill="#FF8F00"/>
<path d="M4 12.35C4.65 14.2 8.9 16.15 10.7 15.5L6.5 3.75C2.85 5.05 2 6.75 2 6.75L4 12.35Z" fill="#FFA000"/>
<path d="M11.4502 7.89962C11.4502 7.89962 10.3502 7.09962 8.8502 7.44962C8.8502 7.44962 9.0002 6.39962 9.8502 6.39962C11.0502 6.34962 11.4502 7.89962 11.4502 7.89962ZM9.2502 11.3496C10.9502 10.7496 12.0502 11.3496 12.0502 11.3496C12.0502 11.3496 10.6502 9.54962 8.8502 10.1996C7.0502 10.8496 7.1002 13.0996 7.1002 13.0996C7.1002 13.0996 7.5502 11.9496 9.2502 11.3496ZM5.3002 10.0996C5.3002 10.0996 5.6002 8.74962 7.0002 8.09962C7.0002 8.09962 6.2002 7.39962 5.5502 7.94962C4.65021 8.64962 5.3002 10.0996 5.3002 10.0996Z" fill="#693D14"/>
<path d="M20.1998 16.9492C19.5998 19.0492 15.0998 21.4992 13.0498 20.8992L16.8498 7.69922C20.9498 8.89922 21.9998 10.6992 21.9998 10.6992L20.1998 16.9492Z" fill="#FFB300"/>
<path d="M9.09989 13.7496C8.49989 15.8496 10.9999 20.3496 13.0499 20.8996L16.8499 7.69965C12.7499 6.54965 10.8999 7.49965 10.8999 7.49965L9.09989 13.7496Z" fill="#FFC107"/>
<path d="M19.1498 14.0496C19.1498 14.0496 18.3998 12.9996 16.4998 12.7496C16.4998 12.7496 17.2498 11.9996 18.1498 12.2496C19.1998 12.5496 19.1498 14.0496 19.1498 14.0496ZM11.5498 11.8496C11.5498 11.8496 12.7498 11.3496 14.4498 12.1496C14.4498 12.1496 14.1998 11.0996 13.2998 10.8496C12.2998 10.5496 11.5498 11.8496 11.5498 11.8496ZM14.4498 15.9996C12.2998 15.3996 11.6498 13.9496 11.6498 13.9496C11.6498 13.9496 11.7498 16.7496 14.0498 17.3996C16.3498 18.0496 17.8998 15.7496 17.8998 15.7496C17.8998 15.7496 16.5998 16.6496 14.4498 15.9996Z" fill="#694A14"/>
</g>
<defs>
<clipPath id="clip0_24270_6595">
<rect width="24" height="24" fill="white"/>
</clipPath>
</defs>
</svg>
