<svg width="24" height="24" viewBox="0 0 24 24" fill="none" xmlns="http://www.w3.org/2000/svg">
<g clip-path="url(#clip0_23253_12486)">
<g clip-path="url(#clip1_23253_12486)">
<g clip-path="url(#clip2_23253_12486)">
<path d="M8 18C8 17.7235 7.7765 17.5 7.5 17.5H5.5C5.2235 17.5 5 17.7235 5 18V21C5 21.2765 5.2235 21.5 5.5 21.5H7.5C7.7765 21.5 8 21.2765 8 21V18ZM19 18C19 17.7235 18.7765 17.5 18.5 17.5H16.5C16.2235 17.5 16 17.7235 16 18V21C16 21.2765 16.2235 21.5 16.5 21.5H18.5C18.7765 21.5 19 21.2765 19 21V18Z" fill="#263238"/>
<path d="M18.75 2H5.25C4.5595 2 4 2.5595 4 3.25V18.5C4 18.5 4 19.5 5 19.5C6 19.5 17.9995 19.5 19 19.5C20 19.5 20 18.5 20 18.5V3.25C20 2.5595 19.4405 2 18.75 2Z" fill="#EE5837"/>
<path d="M5 11.2495C5 11.6635 4.6645 11.9995 4.25 11.9995H3.75C3.3355 11.9995 3 11.6635 3 11.2495V9.75C3 9.3355 3.3355 9 3.75 9H4.25C4.6645 9 5 9.3355 5 9.75V11.2495ZM21 11.2495C21 11.6635 20.664 11.9995 20.25 11.9995H19.75C19.336 11.9995 19 11.6635 19 11.2495V9.75C19 9.3355 19.336 9 19.75 9H20.25C20.664 9 21 9.3355 21 9.75V11.2495Z" fill="#263238"/>
<path d="M6.75 15C6.05964 15 5.5 15.5596 5.5 16.25C5.5 16.9404 6.05964 17.5 6.75 17.5C7.44035 17.5 8 16.9404 8 16.25C8 15.5596 7.44035 15 6.75 15ZM17.25 15C16.5596 15 16 15.5596 16 16.25C16 16.9404 16.5596 17.5 17.25 17.5C17.9403 17.5 18.5 16.9404 18.5 16.25C18.5 15.5596 17.9403 15 17.25 15Z" fill="#FFF8E1"/>
<path d="M18.25 3H5.75C5.3355 3 5 3.336 5 3.75V8.25V8.75V11.75C5 12.4405 5.5595 13 6.25 13H17.75C18.4405 13 19 12.4405 19 11.75V8.75V8.25V3.75C19 3.336 18.664 3 18.25 3Z" fill="#75DEFE"/>
<path d="M14.215 13C14.082 12.8515 14 12.6815 14 12.5C14 11.958 14.687 11.5 15.5 11.5C16.313 11.5 17 11.958 17 12.5C17 12.6815 16.918 12.8515 16.785 13H17.911C17.9635 12.8395 18 12.674 18 12.5C18 11.397 16.8785 10.5 15.5 10.5C14.1215 10.5 13 11.397 13 12.5C13 12.674 13.0365 12.8395 13.089 13H14.215Z" fill="#3949AB"/>
</g>
</g>
</g>
<defs>
<clipPath id="clip0_23253_12486">
<rect width="24" height="24" fill="white"/>
</clipPath>
<clipPath id="clip1_23253_12486">
<rect width="24" height="24" fill="white"/>
</clipPath>
<clipPath id="clip2_23253_12486">
<rect width="24" height="24" fill="white"/>
</clipPath>
</defs>
</svg>
