<svg width="350" height="111" viewBox="0 0 350 111" fill="none" xmlns="http://www.w3.org/2000/svg">
<g clip-path="url(#clip0_34249_87863)">
<path d="M131.056 55.6467V55.5489C131.056 44.7912 139.32 36.8696 150.014 36.8696C157.889 36.8696 163.139 40.6837 166.153 46.1604L156.333 51.9304C154.972 49.3877 153.125 47.5296 149.82 47.5296C145.833 47.5296 143.111 51.0503 143.111 55.3534V55.4511C143.111 60.1454 145.833 63.3727 149.82 63.3727C153.222 63.3727 155.07 61.5146 156.528 58.874L166.347 64.4485C163.333 69.8273 158.375 74.1304 149.431 74.1304C139.708 74.2282 131.056 66.6978 131.056 55.6467Z" fill="white"/>
<path d="M180.542 37.2609H192.403L207.472 73.4459H194.542L192.695 68.6538H180.25L178.403 73.4459H165.667L180.542 37.2609ZM189.681 60.1454L186.375 51.4415L183.07 60.1454H189.681Z" fill="white"/>
<path d="M208.931 37.5542H226.333C232.653 37.5542 236.639 39.119 239.167 41.6617C241.306 43.8132 242.472 46.4538 242.472 50.1701V50.2679C242.472 55.5489 239.75 59.1674 235.472 61.2212L243.736 73.4458H230.125L223.417 63.1771H220.889V73.4458H208.931V37.5542ZM226.042 54.6687C228.861 54.6687 230.611 53.3974 230.611 51.148V51.0502C230.611 48.7031 228.861 47.6273 226.042 47.6273H220.792V54.6687H226.042Z" fill="white"/>
<path d="M242.57 37.5542H255.111L260.167 54.7666L265.903 37.4564H276.208L281.945 54.7666L287 37.5542H299.25L287.583 73.7392H277.181L270.958 55.8423L264.639 73.7392H254.236L242.57 37.5542Z" fill="white"/>
<path d="M301.486 37.5542H313.445V73.4458H301.486V37.5542Z" fill="white"/>
<path d="M316.459 65.0353L332.597 47.4317H317.042V37.5542H349.709V45.9648L333.57 63.5683H349.709V73.4458H316.361L316.459 65.0353Z" fill="white"/>
<path d="M208.931 87.6265H215.542C217.389 87.6265 218.75 88.1155 219.722 89.0934C220.5 89.8758 220.986 91.0494 220.986 92.4185C220.986 94.7657 219.722 96.2326 217.875 96.9172L221.375 102.1H217.681L214.57 97.504H212.042V102.1H208.931V87.6265ZM215.25 94.6679C216.806 94.6679 217.681 93.8855 217.681 92.6141C217.681 91.2449 216.708 90.5604 215.153 90.5604H212.042V94.6679H215.25Z" fill="white"/>
<path d="M224.972 87.6265H235.764V90.4626H228.084V93.3965H234.889V96.2326H228.084V99.2643H235.861V102.1H224.972V87.6265Z" fill="white"/>
<path d="M239.945 87.6265H242.861L249.57 96.526V87.6265H252.681V102.1H249.959L242.959 92.9075V102.1H239.847L239.945 87.6265Z" fill="white"/>
<path d="M260.653 90.5604H256.278V87.6265H268.139V90.5604H263.764V102.1H260.556L260.653 90.5604Z" fill="white"/>
<path d="M284.084 87.5286H287L293.125 102.1H289.82L288.459 98.8731H282.431L281.07 102.1H277.861L284.084 87.5286ZM287.389 96.037L285.445 91.3427L283.5 96.037H287.389Z" fill="white"/>
<path d="M303.236 94.9613C303.236 90.8538 306.347 87.4308 310.722 87.4308C313.445 87.4308 315.097 88.311 316.361 89.6802L314.32 92.0273C313.25 91.0494 312.084 90.3648 310.625 90.3648C308.195 90.3648 306.445 92.4185 306.445 94.8635C306.445 97.3084 308.097 99.3621 310.625 99.3621C312.278 99.3621 313.25 98.6775 314.417 97.6996L316.459 99.7533C315 101.318 313.347 102.296 310.528 102.296C306.347 102.394 303.236 99.0687 303.236 94.9613Z" fill="white"/>
<path d="M325.111 87.5286H328.028L334.153 102.1H330.945L329.584 98.8731H323.556L322.195 102.1H318.986L325.111 87.5286ZM328.514 96.037L326.57 91.3427L324.625 96.037H328.514Z" fill="white"/>
<path d="M337.653 87.6265H344.264C346.111 87.6265 347.472 88.1155 348.445 89.0934C349.222 89.8758 349.708 91.0494 349.708 92.4185C349.708 94.7657 348.445 96.2326 346.597 96.9172L350.097 102.1H346.403L343.292 97.504H340.764V102.1H337.653V87.6265ZM343.972 94.6679C345.528 94.6679 346.403 93.8855 346.403 92.6141C346.403 91.2449 345.431 90.5604 343.875 90.5604H340.764V94.6679H343.972Z" fill="white"/>
<path d="M55.2222 111C24.7917 111 0 86.0617 0 55.4511C0 24.8405 24.7917 -0.0977783 55.2222 -0.0977783C85.6528 -0.0977783 110.444 24.8405 110.444 55.4511C110.347 86.1595 85.6528 111 55.2222 111ZM55.2222 2.73834C26.25 2.73834 2.72221 26.4053 2.72221 55.5489C2.72221 84.6925 26.25 108.359 55.2222 108.359C84.1944 108.359 107.722 84.6925 107.722 55.5489C107.722 26.4053 84.1944 2.73834 55.2222 2.73834Z" fill="#FFBA00"/>
<path d="M64.6528 23.4714C73.3056 28.1656 78.0695 36.7718 79.4306 39.6079H86.4306C83.9028 35.0115 76.8056 24.5471 64.6528 23.4714Z" fill="#FFBA00"/>
<path d="M80.4028 47.2362L85.1667 42.7375H79.1389L74.375 47.2362H80.4028Z" fill="#FFBA00"/>
<path d="M62.3193 76.3798C63.7777 76.3798 65.3332 76.1842 66.6943 75.6952C73.986 73.4459 77.486 66.9912 78.8471 63.7639H71.8471C71.361 66.5022 69.3193 71.8811 62.3193 76.3798Z" fill="#FFBA00"/>
<path d="M71.2639 46.0626L76.7083 40.7815C75.9305 39.2168 73.9861 35.7938 70.9722 32.4687C65.625 26.4053 59.3055 23.3736 52.3055 23.3736C34.125 23.3736 23.2361 39.7057 23.2361 55.4511C23.2361 75.1084 37.7222 86.4529 48.7083 87.4309C44.3333 85.2793 40.5416 81.9542 37.5277 77.7489C32.8611 71.2943 30.3333 62.6881 30.5278 54.1798C30.8194 39.9014 41.6111 31.393 51.8194 31.393C53.6666 31.393 55.4166 31.6864 57.0694 32.1754C65.7222 35.0115 69.7083 42.2485 71.2639 46.0626Z" fill="#FFBA00"/>
<path d="M81.6666 64.9375C80.111 68.7516 76.1249 75.9886 67.5694 78.6291C65.9166 79.1181 64.0693 79.4115 62.3193 79.4115C51.9166 79.4115 41.0277 70.9031 40.6388 56.6247C40.4443 46.6494 44.1388 39.3146 51.6249 34.6203C42.8749 34.7181 33.8332 42.1507 33.5416 54.3754C33.1527 69.534 42.1943 85.7683 60.0832 87.5287C61.0555 87.5287 61.9305 87.6265 62.8055 87.6265C77.3888 87.6265 85.2638 74.0326 87.2082 70.2185L81.6666 64.9375Z" fill="#FFBA00"/>
</g>
<defs>
<clipPath id="clip0_34249_87863">
<rect width="350" height="111" fill="white"/>
</clipPath>
</defs>
</svg>
