<svg width="131" height="32" viewBox="0 0 131 32" fill="none" xmlns="http://www.w3.org/2000/svg">
<path d="M74.2552 0.813446H0V9.72906C3.47065 9.72906 6.27626 12.5347 6.27626 16.0053C6.27626 19.476 3.47065 22.2816 0 22.2816V31.218H74.2552" fill="#009DF6"/>
<path d="M74.2554 31.218H130.721V22.2816C127.25 22.2816 124.445 19.476 124.445 16.0053C124.445 12.5347 127.25 9.72906 130.721 9.72906V0.813446H74.2554" fill="#FF005F"/>
<path d="M22.0084 27.2693H15.9192V10.1655H12.5732V4.76208H25.4791V10.1655H21.9876V27.2693H22.0084Z" fill="white"/>
<path d="M45.3884 27.2693H38.8212L34.7894 16.899L34.9556 27.2693H28.8872V4.76208H34.9556L34.7894 14.4051L38.3847 4.76208H44.8065L39.9434 15.6312L45.3884 27.2693Z" fill="white"/>
<path d="M58.0865 27.2693H51.9973V10.1655H48.6514V4.76208H61.5572V10.1655H58.0658V27.2693H58.0865Z" fill="white"/>
<path d="M95.1412 14.2596H103.62V15.1948C103.62 19.5383 102.976 22.6556 101.688 24.5468C100.274 26.6251 98.1962 27.6642 95.4321 27.6642C92.7096 27.6642 90.5898 26.6458 89.052 24.6092C87.5141 22.5517 86.7451 19.7253 86.7451 16.13C86.7451 12.4931 87.5141 9.60433 89.0727 7.50532C90.6106 5.4063 92.7304 4.34641 95.4113 4.34641C98.9651 4.34641 101.542 6.19603 103.142 9.91607L97.261 12.0774C97.1778 11.3708 96.97 10.8097 96.6583 10.3941C96.3465 9.97841 95.9517 9.77059 95.4737 9.77059C93.8111 9.77059 92.959 12.0774 92.959 16.6703C92.959 18.6239 93.1461 20.0371 93.5202 20.9307C93.8942 21.8243 94.4761 22.2608 95.2867 22.2608C95.5984 22.2608 95.8893 22.1776 96.1595 22.0322C96.4297 21.8867 96.6375 21.6581 96.8246 21.3671C97.0116 21.0762 97.1363 20.7437 97.2402 20.3488C97.3441 19.9539 97.3857 19.4967 97.3857 18.9979H95.1412V14.2596Z" fill="white"/>
<path d="M106.863 27.2693V4.76208H118.147V10.0616H112.931V13.3452H117.628V18.4369H112.952V21.8867H118.168V27.2901H106.863V27.2693Z" fill="white"/>
<path d="M74.2555 22.2817C77.7218 22.2817 80.5318 19.4717 80.5318 16.0054C80.5318 12.5391 77.7218 9.72916 74.2555 9.72916C70.7892 9.72916 67.9792 12.5391 67.9792 16.0054C67.9792 19.4717 70.7892 22.2817 74.2555 22.2817Z" fill="white"/>
</svg>
