<svg width="66" height="20" viewBox="0 0 66 20" fill="none" xmlns="http://www.w3.org/2000/svg">
<path d="M56.3754 0H9.22051C4.24637 0 0.210205 4.13831 0.210205 9.23834V9.76292C0.210205 14.863 4.24637 19.0013 9.22051 19.0013H56.3469C61.3211 19.0013 65.3572 14.863 65.3572 9.76292V9.23834C65.3857 4.13831 61.3495 0 56.3754 0Z" fill="#26B571"/>
<path d="M48.1323 9.70414C48.1323 13.6385 45.0057 16.8442 41.1401 16.8442H9.58978C5.75258 16.8442 2.59755 13.6385 2.59755 9.70414V9.29614C2.59755 5.36183 5.72416 2.15608 9.58978 2.15608H41.1117C44.9489 2.15608 48.1039 5.36183 48.1039 9.29614V9.70414H48.1323Z" fill="white"/>
<path d="M51.9128 10.8999C51.9128 11.337 51.5433 11.7159 51.1169 11.7159C50.6622 11.7159 50.3211 11.337 50.3211 10.8999C50.3211 10.4627 50.6622 10.0839 51.1169 10.0839C51.5433 10.0839 51.9128 10.4627 51.9128 10.8999Z" fill="white"/>
<path d="M56.5456 7.16961C56.2613 7.22789 55.9203 7.28618 55.4371 7.28618C56.034 7.54847 56.3182 7.89821 56.3182 8.51022C56.3182 9.44279 55.5792 10.0839 54.3854 10.0839C54.1864 10.0839 54.0159 10.0839 53.8453 10.0256C53.7316 10.0839 53.6748 10.2005 53.6748 10.2879C53.6748 10.4336 53.7316 10.5793 54.1864 10.5793H54.897C55.9771 10.5793 56.6593 11.1622 56.6593 11.9491C56.6593 12.9399 55.8066 13.5228 54.2148 13.5228C52.6515 13.5228 52.1115 13.0565 52.0262 12.2696C51.9978 12.1239 52.1399 12.0074 52.282 12.0074H53.0495C53.1632 12.0074 53.2484 12.0656 53.2769 12.1822C53.3337 12.4736 53.5895 12.5902 54.2717 12.5902C55.096 12.5902 55.2665 12.3571 55.2665 12.0656C55.2665 11.7742 55.096 11.5994 54.6128 11.5994H53.9306C52.9074 11.5994 52.5094 11.1622 52.5094 10.6668C52.5094 10.3171 52.7368 9.96734 53.0495 9.76334C52.4526 9.44277 52.2252 9.03476 52.2252 8.39362C52.2252 7.31532 53.0495 6.64503 54.2717 6.64503C55.1528 6.67418 55.7213 6.4702 56.2045 6.17877C56.3182 6.12049 56.4887 6.17877 56.5456 6.32449L56.7161 6.84903C56.773 6.99475 56.6877 7.14047 56.5456 7.16961ZM53.6179 8.39362C53.6179 8.91819 53.9022 9.20962 54.3285 9.20962C54.7833 9.20962 55.0107 8.91819 55.0107 8.39362C55.0107 7.86904 54.7833 7.60675 54.3285 7.60675C53.9022 7.57761 53.6179 7.89818 53.6179 8.39362Z" fill="white"/>
<path d="M61.2073 9.61783H58.3365C58.4218 10.463 58.8197 10.6961 59.3882 10.6961C59.7008 10.6961 59.9851 10.6087 60.2977 10.4047C60.4114 10.3173 60.5535 10.3755 60.6104 10.463L60.8946 10.871C60.9799 10.9876 60.9515 11.1333 60.8378 11.2207C60.4114 11.5121 59.8714 11.7453 59.2176 11.7453C57.6827 11.7453 56.8869 10.7253 56.8869 9.23897C56.8869 7.81096 57.6543 6.67438 59.0471 6.67438C60.383 6.67438 61.1788 7.57782 61.1788 9.1224C61.2073 9.23897 61.2073 9.47211 61.2073 9.61783ZM59.8714 8.68525C59.8429 8.04411 59.6724 7.57782 59.1039 7.57782C58.6491 7.57782 58.3649 7.86925 58.3081 8.74354H59.8429V8.68525H59.8714Z" fill="white"/>
<path d="M13.8248 8.27619V11.8316C13.8248 11.9774 13.711 12.0939 13.5689 12.0939H12.5457C12.4036 12.0939 12.2899 11.9774 12.2899 11.8316V8.53847C12.2899 7.98476 12.1193 7.83904 11.8635 7.83904C11.5508 7.83904 11.3234 8.10133 11.0961 8.50933V11.8025C11.0961 11.9482 10.9824 12.0648 10.8403 12.0648H9.7886C9.6749 12.0648 9.56121 11.9482 9.56121 11.8025V8.53847C9.56121 7.98476 9.36221 7.83904 9.1064 7.83904C8.79374 7.83904 8.56635 8.10133 8.33896 8.50933V11.8025C8.33896 11.9482 8.22527 12.0648 8.11157 12.0648H7.0599C6.9462 12.0648 6.80411 11.9482 6.80411 11.8025V7.11046C6.80411 6.96475 6.91778 6.84818 7.0599 6.84818H7.94106C8.05475 6.84818 8.14 6.93561 8.16842 7.05218L8.25369 7.46018C8.65162 6.93561 9.1064 6.67332 9.73172 6.67332C10.3002 6.67332 10.7266 6.96475 10.9255 7.48932C11.3235 6.93561 11.8066 6.67332 12.432 6.67332C13.2847 6.70246 13.8248 7.28532 13.8248 8.27619Z" fill="#414042"/>
<path d="M38.2125 8.27611V11.8316C38.2125 11.9773 38.0988 12.0939 37.9567 12.0939H36.9334C36.7913 12.0939 36.6776 11.9773 36.6776 11.8316V8.5384C36.6776 7.98468 36.5071 7.83897 36.2513 7.83897C35.9386 7.83897 35.7112 8.10125 35.4838 8.50926V11.8024C35.4838 11.9481 35.3701 12.0647 35.228 12.0647H34.1763C34.0626 12.0647 33.9489 11.9481 33.9489 11.8024V8.5384C33.9489 7.98468 33.75 7.83897 33.4942 7.83897C33.1815 7.83897 32.9541 8.10125 32.7267 8.50926V11.8024C32.7267 11.9481 32.613 12.0647 32.4993 12.0647H31.4477C31.334 12.0647 31.1918 11.9481 31.1918 11.8024V7.11039C31.1918 6.96467 31.3055 6.8481 31.4477 6.8481H32.3288C32.4425 6.8481 32.5278 6.93553 32.5562 7.0521L32.6414 7.46011C33.0394 6.93553 33.4942 6.67324 34.1195 6.67324C34.688 6.67324 35.1143 6.96467 35.3133 7.48925C35.7112 6.93553 36.1944 6.67324 36.8197 6.67324C37.6724 6.70239 38.2125 7.28525 38.2125 8.27611Z" fill="#414042"/>
<path d="M17.7757 12.0948C17.3777 13.3479 16.5819 14.0765 15.1607 14.2222C15.047 14.2222 14.9049 14.1348 14.9049 14.0182L14.8196 13.4062C14.7912 13.2896 14.8764 13.1439 14.9901 13.1439C15.6723 13.0274 16.0418 12.7942 16.2692 12.3571C16.0987 12.3279 15.8997 12.0365 15.8429 11.8325L14.4501 7.19875C14.3932 7.05304 14.5069 6.87818 14.6775 6.87818H15.7576C15.8713 6.87818 15.9565 6.96561 16.0134 7.08218L16.8661 11.1039L17.8325 7.08218C17.8609 6.96561 17.9462 6.90732 18.0599 6.90732H19.1116C19.2821 6.90732 19.3958 7.08218 19.339 7.22789L17.7757 12.0948Z" fill="#414042"/>
<path d="M30.2823 9.47144C30.2823 11.1326 29.3443 12.24 27.8094 12.24C26.2745 12.24 25.3365 11.22 25.3365 9.47144C25.3365 7.81029 26.2745 6.70285 27.8094 6.70285C29.3443 6.70285 30.2823 7.72286 30.2823 9.47144ZM26.8714 9.47144C26.8714 10.608 27.184 11.1035 27.7809 11.1035C28.3778 11.1035 28.6905 10.608 28.6905 9.47144C28.6905 8.30572 28.3778 7.83943 27.7809 7.83943C27.184 7.83943 26.8714 8.33486 26.8714 9.47144Z" fill="#414042"/>
<path d="M43.8404 9.38448C43.8404 7.69418 42.9592 6.73246 41.5096 6.73246C39.9747 6.73246 39.1504 7.95646 39.1504 9.53019C39.1504 11.1622 40.0032 12.2696 41.7086 12.2696C42.3623 12.2696 42.9024 12.0656 43.3572 11.7742C43.3856 11.7742 43.3856 11.7451 43.414 11.7451C43.4424 11.7451 43.4708 11.7159 43.4708 11.6868C43.5845 11.5993 43.613 11.4536 43.5277 11.3662L43.215 10.8708C43.1013 10.6959 42.9308 10.7833 42.9024 10.7833C42.8455 10.8125 42.7887 10.8708 42.7034 10.8999C42.4192 11.0748 42.1349 11.1331 41.8223 11.1331C41.1969 11.1331 40.7706 10.8708 40.6569 9.93819H43.8119C43.8119 9.79248 43.8404 9.55933 43.8404 9.38448ZM40.6853 9.00562C40.7422 8.07304 41.0548 7.75246 41.5665 7.75246C42.1634 7.75246 42.3907 8.2479 42.3907 8.94733V9.00562H40.6853Z" fill="#414042"/>
<path d="M24.3987 8.22301C24.3987 7.23214 23.8587 6.64928 23.006 6.64928C22.4091 6.64928 21.9543 6.88243 21.5564 7.37786V4.84241C21.5564 4.6967 21.4427 4.58013 21.3005 4.60927L20.2773 4.72584C20.1636 4.75498 20.0499 4.84241 20.0499 4.98813V11.8076C20.0499 11.9533 20.1636 12.0699 20.3057 12.0699H21.329C21.4711 12.0699 21.5848 11.9533 21.5848 11.8076V8.48529C21.8406 8.07729 22.1248 7.815 22.4659 7.815C22.7502 7.815 22.9491 7.96072 22.9491 8.51444V11.8076C22.9491 11.9533 23.0628 12.0699 23.2049 12.0699H24.2282C24.3703 12.0699 24.484 11.9533 24.484 11.8076L24.3987 8.22301Z" fill="#414042"/>
</svg>
