<svg width="69" height="20" viewBox="0 0 69 20" fill="none" xmlns="http://www.w3.org/2000/svg">
<path d="M58.6408 0H9.91808C4.63525 0 0.348633 4.13832 0.348633 9.23835V9.76292C0.348633 14.863 4.63525 19.0013 9.91808 19.0013H58.6408C63.9237 19.0013 68.2103 14.863 68.2103 9.76292V9.23835C68.2103 4.13832 63.9237 0 58.6408 0Z" fill="#009DB9"/>
<path d="M49.7903 9.70443C49.7903 13.6387 46.4761 16.8445 42.3786 16.8445H10.2911C6.22369 16.8445 2.87933 13.6387 2.87933 9.70443V9.29642C2.87933 5.36211 6.19356 2.15637 10.2911 2.15637H42.3786C46.446 2.15637 49.7903 5.36211 49.7903 9.29642V9.70443Z" fill="white"/>
<path d="M40.3902 11.6571C40.4504 11.7736 40.4203 11.9193 40.2697 11.9776C39.9081 12.1525 39.426 12.2691 39.0344 12.2691C37.8593 12.2691 37.2568 11.5988 37.2568 10.3748V7.98503H36.7747C36.624 7.98503 36.5035 7.86847 36.5035 7.72275V7.13989C36.5035 6.99418 36.624 6.8776 36.7747 6.8776H37.2568V5.97417C37.2568 5.8576 37.3773 5.74102 37.4978 5.71188L38.5824 5.59532C38.7331 5.56617 38.8536 5.68274 38.8536 5.82846V6.84846H39.8177C39.9684 6.84846 40.0889 6.99418 40.0588 7.13989L39.9684 7.72275C39.9383 7.83933 39.8479 7.92676 39.6972 7.92676H38.8536V10.3165C38.8536 10.8119 39.0344 10.9868 39.3658 10.9868C39.4863 10.9868 39.6068 10.9576 39.7273 10.8993C39.8479 10.8702 39.9985 10.8993 40.0588 11.0159L40.3902 11.6571Z" fill="#414042"/>
<path d="M14.7504 8.30548V11.8609C14.7504 12.0067 14.6299 12.1232 14.4792 12.1232H13.3946C13.2439 12.1232 13.1234 12.0067 13.1234 11.8609V8.56776C13.1234 8.01404 12.9426 7.86834 12.6715 7.86834C12.3401 7.86834 12.099 8.13062 11.858 8.53862V11.8318C11.858 11.9775 11.7375 12.0941 11.5868 12.0941H10.4721C10.3516 12.0941 10.231 11.9775 10.231 11.8318V8.53862C10.231 7.98491 10.0201 7.83918 9.74898 7.83918C9.41756 7.83918 9.17654 8.10149 8.93551 8.50949V11.8026C8.93551 11.9484 8.81498 12.0649 8.69446 12.0649H7.5797C7.45919 12.0649 7.30853 11.9484 7.30853 11.8026V7.11061C7.30853 6.96489 7.42906 6.84833 7.5797 6.84833H8.5137C8.63421 6.84833 8.72458 6.93576 8.75471 7.05234L8.84511 7.46033C9.26692 6.93575 9.74897 6.67346 10.4118 6.67346C11.0144 6.67346 11.4663 6.96491 11.6772 7.48948C12.0991 6.93576 12.6112 6.67346 13.2741 6.67346C14.1779 6.73175 14.7504 7.31462 14.7504 8.30548Z" fill="#414042"/>
<path d="M18.9385 12.1233C18.5167 13.3765 17.6731 14.1051 16.1666 14.2508C16.0461 14.2508 15.8954 14.1925 15.8954 14.0468L15.805 13.4348C15.7749 13.3182 15.8653 13.1725 15.9858 13.1725C16.7089 13.0559 17.1006 12.8228 17.3416 12.3856C17.1608 12.3565 16.9499 12.0651 16.8897 11.8611L15.4134 7.2273C15.3531 7.08159 15.4736 6.90674 15.6544 6.90674H16.7993C16.9198 6.90674 17.0102 6.99415 17.0705 7.11073L17.9744 11.1325L18.9987 7.11073C19.0288 6.99415 19.1192 6.93587 19.2398 6.93587H20.3545C20.5353 6.93587 20.6558 7.11073 20.5956 7.25644L18.9385 12.1233Z" fill="#414042"/>
<path d="M31.8937 11.424L31.6828 12.0651C31.6527 12.1817 31.5321 12.24 31.4116 12.24C30.8994 12.1526 30.5379 11.9777 30.327 11.5114C29.9353 12.0943 29.3629 12.2983 28.7 12.2983C27.6455 12.2983 26.9525 11.628 26.9525 10.6663C26.9525 9.52969 27.8263 8.91768 29.4834 8.91768H30.0257V8.68454C30.0257 8.07254 29.7847 7.86854 29.1218 7.86854C28.8205 7.86854 28.3987 7.92683 27.9468 8.07255C27.8263 8.10169 27.6756 8.0434 27.6154 7.92683L27.4346 7.37311C27.4044 7.25653 27.4647 7.11082 27.5852 7.05254C28.1878 6.87768 28.8506 6.76111 29.3628 6.76111C30.9296 6.76111 31.5924 7.37311 31.5924 8.59712V10.608C31.5924 10.8994 31.6527 11.0743 31.7732 11.1617C31.8937 11.22 31.9238 11.3366 31.8937 11.424ZM30.0257 10.6663V9.73368H29.634C28.9109 9.73368 28.5494 9.99598 28.5494 10.4914C28.5494 10.8994 28.7904 11.1617 29.1821 11.1617C29.5436 11.1617 29.8148 10.9577 30.0257 10.6663Z" fill="#414042"/>
<path d="M43.5236 8.88855C42.5595 8.62626 42.4089 8.50969 42.4089 8.21826C42.4089 7.98512 42.6198 7.83939 43.0416 7.83939C43.4031 7.83939 43.7346 7.92683 44.066 8.07255C44.0961 8.10169 44.1262 8.10167 44.1563 8.13082C44.2769 8.1891 44.4275 8.15996 44.4878 8.04339L44.8192 7.54796C44.8795 7.43138 44.8493 7.28568 44.7589 7.22739C44.7288 7.19825 44.6384 7.1691 44.6384 7.1691C44.1865 6.90681 43.6141 6.76111 42.9813 6.76111C41.6255 6.76111 40.7819 7.46053 40.7819 8.33482C40.7819 9.15083 41.2941 9.67541 42.3788 9.96684C43.3429 10.2291 43.5236 10.3457 43.5236 10.6954C43.5236 11.016 43.2224 11.1908 42.7403 11.1908C42.3185 11.1908 41.9268 11.0743 41.5954 10.8703C41.5652 10.8411 41.505 10.812 41.4749 10.7828C41.3845 10.7246 41.2338 10.7537 41.1434 10.8703L40.7518 11.3948C40.6614 11.5114 40.6915 11.6571 40.7819 11.7446C40.812 11.7737 40.8422 11.8028 40.8723 11.832C41.3845 12.1526 42.0172 12.3566 42.7704 12.3566C44.0961 12.3566 45.1506 11.7154 45.1506 10.6371C45.1807 9.61712 44.6083 9.17998 43.5236 8.88855Z" fill="#414042"/>
<path d="M35.8709 6.76111H35.8107C35.7504 6.76111 35.66 6.76111 35.5696 6.76111C34.9671 6.76111 34.4247 7.19825 34.1837 7.92683L34.0933 7.28568V7.22739V7.1691C34.0933 7.02339 33.9728 6.90682 33.8222 6.90682H33.5209H33.2798H32.9183C32.7676 6.90682 32.6471 7.02339 32.6471 7.1691V7.28568V11.7446V11.8029V11.8611C32.6471 12.0069 32.7676 12.1234 32.9183 12.1234H34.0029C34.1536 12.1234 34.2741 12.0069 34.2741 11.8611V11.7446V9.50054C34.4549 8.71368 34.726 8.27653 35.3889 8.27653C35.4491 8.27653 35.5395 8.27654 35.5998 8.30569H35.6299H35.66C35.7806 8.30569 35.9011 8.21825 35.9312 8.10168L36.112 7.08167C36.112 6.90682 36.0216 6.79025 35.8709 6.76111Z" fill="#414042"/>
<path d="M24.3616 6.73206C23.8193 6.73206 23.2469 6.93607 22.8251 7.48979L22.7949 7.28578V7.22749V7.1692C22.7949 7.02349 22.6744 6.90692 22.5238 6.90692H22.2225H21.9814H21.6199C21.4692 6.90692 21.3487 7.02349 21.3487 7.1692V7.31492V12.619V13.9304V13.9013V13.9887C21.3487 14.1344 21.4692 14.251 21.6199 14.2218L22.7045 14.1052C22.825 14.0761 22.9456 13.9887 22.9456 13.843V13.7847V13.8138V13.7847V11.7155C23.277 12.0652 23.7289 12.2401 24.2411 12.2401C25.5668 12.2401 26.3803 11.0744 26.3803 9.47151C26.3501 7.81036 25.7476 6.73206 24.3616 6.73206ZM23.7289 11.1327C23.3975 11.1327 23.1565 10.9869 22.9154 10.6664V8.48064C23.1565 8.10178 23.4578 7.86864 23.8495 7.86864C24.3918 7.86864 24.7232 8.21835 24.7232 9.50064C24.693 10.6664 24.3315 11.1327 23.7289 11.1327Z" fill="#414042"/>
<path d="M53.7977 10.8995C53.7977 11.3366 53.406 11.7155 52.9541 11.7155C52.472 11.7155 52.1105 11.3366 52.1105 10.8995C52.1105 10.4624 52.472 10.0835 52.9541 10.0835C53.406 10.0835 53.7977 10.4624 53.7977 10.8995Z" fill="white"/>
<path d="M58.7087 7.16907C58.4074 7.2565 58.0459 7.28565 57.5337 7.28565C58.1664 7.54794 58.4677 7.89766 58.4677 8.50966C58.4677 9.44224 57.6843 10.0834 56.4189 10.0834C56.208 10.0834 56.0272 10.0834 55.8465 10.0251C55.7259 10.0834 55.6657 10.2 55.6657 10.2874C55.6657 10.4331 55.7259 10.5788 56.208 10.5788H56.9612C58.1061 10.5788 58.8292 11.1617 58.8292 11.9485C58.8292 12.9394 57.9254 13.5223 56.2381 13.5223C54.581 13.5223 54.0086 13.056 53.9182 12.2691C53.8881 12.1234 54.0387 12.0068 54.1894 12.0068H55.0028C55.1233 12.0068 55.2137 12.0651 55.2439 12.1817C55.3041 12.4731 55.5753 12.5897 56.2984 12.5897C57.1721 12.5897 57.3529 12.3565 57.3529 12.0651C57.3529 11.7737 57.1721 11.5988 56.6599 11.5988H55.9369C54.8522 11.5988 54.4304 11.1617 54.4304 10.6662C54.4304 10.3165 54.6714 9.96681 55.0028 9.76281C54.3701 9.44224 54.1291 9.03423 54.1291 8.39308C54.1291 7.31479 55.0028 6.6445 56.2984 6.6445C57.2324 6.67364 57.835 6.46965 58.3472 6.17822C58.4677 6.11993 58.6485 6.17822 58.7087 6.32393L58.8895 6.84851C58.9497 6.99422 58.8594 7.13993 58.7087 7.16907ZM55.6054 8.39308C55.6054 8.91766 55.9067 9.20909 56.3586 9.20909C56.8407 9.20909 57.0817 8.91766 57.0817 8.39308C57.0817 7.86851 56.8407 7.60622 56.3586 7.60622C55.9067 7.57707 55.6054 7.89765 55.6054 8.39308Z" fill="white"/>
<path d="M63.6499 9.61692H60.6069C60.6973 10.4621 61.1191 10.6952 61.7217 10.6952C62.0531 10.6952 62.3544 10.6078 62.6858 10.4038C62.8063 10.3164 62.957 10.3746 63.0172 10.4621L63.3185 10.8701C63.4089 10.9866 63.3788 11.1324 63.2582 11.2198C62.8063 11.5112 62.2339 11.7444 61.5409 11.7444C59.9139 11.7444 59.0703 10.7244 59.0703 9.23806C59.0703 7.81005 59.8838 6.67346 61.3601 6.67346C62.7762 6.67346 63.6198 7.5769 63.6198 9.12148C63.6801 9.23806 63.6801 9.4712 63.6499 9.61692ZM62.2338 8.68434C62.2037 8.04319 62.0229 7.57691 61.4204 7.57691C60.9383 7.57691 60.637 7.86834 60.5767 8.74263H62.2037V8.68434H62.2338Z" fill="white"/>
</svg>
