<svg width="107" height="33" viewBox="0 0 107 33" fill="none" xmlns="http://www.w3.org/2000/svg">
<g clip-path="url(#clip0_602_206)">
<path d="M19.8601 25.7577C20.1142 25.6739 20.334 25.5359 20.5113 25.3611C20.9447 24.933 21.1225 24.2845 20.9149 23.6715C20.6223 22.808 19.6761 22.3419 18.801 22.6306C16.4288 23.4131 13.8567 22.815 12.0884 21.0697C10.3208 19.325 9.71509 16.7869 10.5078 14.4457C10.8003 13.5821 10.3278 12.6483 9.45306 12.3596C8.57797 12.0708 7.63147 12.5376 7.3394 13.4005C6.14236 16.935 7.05693 20.767 9.72594 23.4011C12.3957 26.0361 16.2789 26.9392 19.8601 25.7578V25.7577Z" fill="#3C74FF"/>
<path d="M7.27018 7.17404C11.6321 2.86928 18.3592 2.05995 23.6294 5.20599C24.3007 5.60661 25.1437 5.48632 25.6747 4.96213C25.7681 4.86993 25.8518 4.76516 25.9232 4.64858C26.4007 3.86953 26.1481 2.85593 25.3586 2.38468C18.7694 -1.5488 10.3599 -0.537996 4.90786 4.84261C-0.545596 10.2248 -1.56963 18.5246 2.41736 25.0264C2.89517 25.8053 3.92236 26.0546 4.71142 25.583C5.50111 25.1119 5.75323 24.0982 5.27573 23.3191C2.08692 18.1192 2.90713 11.4799 7.27018 7.17389V7.17404Z" fill="#3C74FF"/>
<path d="M28.7266 7.41838C27.936 7.8901 27.6847 8.90354 28.1623 9.68244C31.3511 14.8822 30.5316 21.5206 26.1691 25.8261C21.8067 30.1314 15.0801 30.9405 9.81144 27.7934C9.02222 27.3222 7.99582 27.5693 7.51738 28.3503C7.03989 29.1291 7.29232 30.1427 8.0817 30.6143C14.6694 34.5493 23.0788 33.5389 28.5313 28.1577C33.9841 22.7762 35.0077 14.4769 31.0207 7.97531C30.5427 7.19626 29.5157 6.94697 28.7266 7.41838Z" fill="#3C74FF"/>
<path d="M23.9173 20.7586C24.544 20.9762 25.2139 20.8032 25.6541 20.3685C25.8254 20.1998 25.9617 19.9912 26.0476 19.7507C27.3051 16.2243 26.3883 12.2389 23.712 9.59769C21.035 6.95551 16.9967 6.0515 13.4248 7.2942C12.555 7.59689 12.0982 8.53831 12.4047 9.39699C12.7114 10.2558 13.6654 10.7064 14.5357 10.4036C16.9019 9.58031 19.5764 10.1792 21.3496 11.929C23.1226 13.6786 23.7297 16.3193 22.8962 18.656C22.59 19.515 23.0472 20.4562 23.9174 20.7584L23.9173 20.7586Z" fill="#3C74FF"/>
<path d="M14.6239 14.4321C13.4668 15.5742 13.4668 17.426 14.6239 18.5679C15.7812 19.7101 17.6575 19.7101 18.8146 18.5679C19.9718 17.426 19.9718 15.5742 18.8146 14.4321C17.6575 13.2901 15.7812 13.2901 14.6239 14.4321Z" fill="#3C74FF"/>
<path d="M63.1722 24.928H57.0407V21.0527H63.1722V24.928ZM61.9828 18.4297H54.3838V29.3962C54.3838 30.12 54.9785 30.7069 55.7118 30.7069C56.4452 30.7066 57.0405 30.1203 57.0408 29.3962V27.5513H61.9828C64.1064 27.5513 65.8291 25.8522 65.8291 23.7552V22.2256C65.8291 20.1287 64.1064 18.4297 61.9828 18.4297Z" fill="#3C74FF"/>
<path d="M76.1559 24.928H70.0244V21.0527H76.1559V24.928ZM74.9666 18.4297H67.3677V29.3962C67.3677 30.12 67.9623 30.7069 68.6954 30.7069C69.429 30.7066 70.0243 30.1203 70.0244 29.3962V27.5513H74.9664C77.09 27.5513 78.8128 25.8522 78.8128 23.7552V22.2256C78.8128 20.1287 77.09 18.4297 74.9664 18.4297H74.9666Z" fill="#3C74FF"/>
<path d="M45.1374 25.0899L46.5636 21.0526H49.9161V25.0899H45.1374ZM46.6903 18.4294C45.621 18.4294 44.6615 19.0771 44.2738 20.0606L40.8272 28.8058C40.4661 29.7217 41.1509 30.7096 42.1466 30.7096C42.7488 30.7096 43.2851 30.3335 43.4834 29.7722L44.2557 27.5859H49.9161V29.3983C49.9161 30.1224 50.5108 30.7096 51.2445 30.7096C51.9782 30.7096 52.5728 30.1225 52.5728 29.3983V18.4294H46.6903Z" fill="#3C74FF"/>
<path d="M54.8101 10.7747V3.60162C54.8101 2.87751 55.4047 2.29062 56.1386 2.29062C56.8723 2.29062 57.467 2.87751 57.467 3.60162V11.9476H64.6495V3.60162C64.6495 2.87751 65.2442 2.29062 65.9779 2.29062C66.7116 2.29062 67.3064 2.87751 67.3064 3.60162V10.7747C67.3064 12.8712 65.5842 14.5708 63.46 14.5708H58.4482C56.324 14.5708 54.8102 12.8712 54.8102 10.7747H54.8101Z" fill="#3C74FF"/>
<path d="M84.7348 5.0514V7.1885H93.5233V9.81081H84.7348V11.9479H93.5233V14.5712H85.9243C83.8007 14.5712 82.0779 12.8719 82.0779 10.7751V6.22457C82.0779 4.12752 83.8007 2.42847 85.9243 2.42847H93.5233V5.05171H84.7348V5.0514Z" fill="#3C74FF"/>
<path d="M77.9634 8.90711H71.8329V5.03076H77.9634V8.90711ZM76.7741 2.4086H69.175V13.3755C69.175 14.0991 69.7697 14.6862 70.504 14.6862C71.2368 14.6859 71.833 14.0996 71.833 13.3755V11.5305H76.7741C78.8977 11.5305 80.6203 9.83146 80.6203 7.73441V6.20486C80.6203 4.10797 78.8978 2.40875 76.7741 2.40875V2.4086Z" fill="#3C74FF"/>
<path d="M104.343 8.90711H98.2117V5.05125H104.343V8.90711ZM107 7.73426V6.2047C107 4.10781 105.277 2.4086 103.154 2.4086H95.5547V14.686H98.2117V11.5304H100.642L103.56 14.686H106.933L104.004 11.4347C105.719 11.0531 107 9.54182 107 7.73426Z" fill="#3C74FF"/>
<path d="M44.5404 5.03121V7.18786H50.1472C51.9045 7.18786 53.329 8.59355 53.329 10.3278V10.7743C53.329 12.8707 51.6068 14.5702 49.4826 14.5702H41.9877V11.947H50.6719V9.79046L45.0722 9.80288C43.3123 9.80676 41.8835 8.39983 41.8835 6.6629V6.20406C41.8835 4.10702 43.6062 2.40796 45.7298 2.40796H52.754V5.03121H44.5403H44.5404Z" fill="#3C74FF"/>
</g>
<defs>
<clipPath id="clip0_602_206">
<rect width="107" height="33" fill="white"/>
</clipPath>
</defs>
</svg>
