<svg width="105" height="17" viewBox="0 0 105 17" fill="none" xmlns="http://www.w3.org/2000/svg">
<g clip-path="url(#clip0_24755_10861)">
<mask id="mask0_24755_10861" style="mask-type:luminance" maskUnits="userSpaceOnUse" x="0" y="0" width="105" height="17">
<path d="M105 0H0V16.9643H105V0Z" fill="white"/>
</mask>
<g mask="url(#mask0_24755_10861)">
<path d="M104.501 1.46478C103.248 0.579955 101.838 0.122287 100.303 0.0307537C100.147 0.000242377 100.021 0.000242375 99.8959 0.000242375C99.708 -0.0302689 99.5201 0.0307537 99.3322 0.0307537C98.3611 0.0307537 97.4211 0.213822 96.5128 0.61047C95.3538 1.09865 94.4143 1.86143 93.7878 2.95984C93.1925 3.9362 92.9734 5.0041 93.0985 6.133C93.1613 6.77375 93.3176 7.384 93.5999 7.9637C93.7878 8.39085 94.038 8.757 94.3515 9.1231C94.6333 9.45875 94.9152 9.79435 95.197 10.0995C95.4794 10.4351 95.7612 10.7708 96.0431 11.1063C96.356 11.4725 96.6695 11.8386 96.9825 12.2048C97.2649 12.5404 97.5151 12.876 97.5467 13.3032C97.5467 13.4252 97.5467 13.5472 97.5467 13.6998C97.5467 13.7913 97.5151 13.8829 97.4839 13.9744C97.4211 14.2795 97.2649 14.5542 97.0453 14.7677C96.6695 15.1034 96.2309 15.2254 95.7612 15.2559C95.5417 15.2559 95.3538 15.2559 95.1347 15.2559C94.1948 15.1948 93.3804 14.8898 92.7227 14.2185C92.5348 14.0354 92.347 13.8218 92.3153 13.5472C92.2525 13.2116 92.0963 13.0896 91.7828 13.1201C91.5637 13.1506 91.4381 13.2726 91.3442 13.4862C91.1251 14.066 90.9372 14.6152 90.7177 15.1948C90.6865 15.2559 90.6865 15.2864 90.7493 15.3169C90.9372 15.439 91.1251 15.561 91.313 15.6831C92.2842 16.2628 93.3492 16.5984 94.5082 16.7204C94.6961 16.7509 94.9152 16.7204 95.1031 16.7815C95.4166 16.7815 95.7296 16.7815 96.0431 16.7815C96.2309 16.7204 96.45 16.7509 96.6384 16.7204C98.0164 16.5679 99.2383 16.1102 100.303 15.2254C100.836 14.7677 101.274 14.249 101.619 13.6388C101.932 13.0285 102.12 12.3879 102.214 11.7166C102.339 10.7402 102.12 9.8554 101.587 9.0316C101.212 8.4824 100.836 7.9332 100.397 7.445C99.9271 6.9263 99.5201 6.4076 99.0504 5.8889C98.6118 5.40075 98.2043 4.88205 97.9225 4.30233C97.6407 3.60057 97.6718 2.95984 98.1104 2.34962C98.5178 1.83092 99.0815 1.61734 99.7391 1.55632C99.9587 1.55632 100.147 1.55632 100.366 1.55632C101.368 1.61734 102.183 2.01399 102.778 2.80729C102.872 2.92933 102.966 3.08189 102.997 3.26495C102.997 3.44802 103.122 3.60058 103.279 3.6616C103.467 3.72262 103.624 3.6616 103.78 3.57007C103.874 3.47853 103.937 3.387 103.999 3.26495C104.187 2.74626 104.375 2.19705 104.563 1.67836C104.595 1.55632 104.563 1.52581 104.501 1.46478Z" fill="#E31F26"/>
<path d="M93.8174 1.55644C94.0992 1.52593 94.2248 1.34286 94.2248 1.09877C94.2248 0.793653 94.0053 0.580078 93.6611 0.580078C91.7817 0.580078 89.9334 0.580078 88.0539 0.580078C87.8972 0.580078 87.8344 0.610588 87.8032 0.763143C86.5191 3.63121 85.2662 6.5298 83.9815 9.39785C83.5746 10.3132 83.1983 11.198 82.7602 12.1133C82.3216 13.0592 81.2566 13.5168 80.2226 13.2422C79.5334 13.0592 79.1887 12.4184 79.3143 11.6557C79.4394 11.0149 79.659 10.4047 79.9097 9.7945C81.0059 7.29255 82.1332 4.79064 83.2611 2.2582C83.4179 1.86155 83.6686 1.61746 84.1383 1.58695C84.4513 1.55644 84.608 1.31235 84.5452 1.00723C84.4829 0.763143 84.295 0.610588 84.0132 0.610588C82.9481 0.610588 81.9142 0.610588 80.8491 0.610588C79.8157 0.610588 78.7818 0.610588 77.7795 0.610588C77.6856 0.610588 77.56 0.610588 77.466 0.641098C77.247 0.702123 77.0591 0.854678 77.0591 1.06826C77.0274 1.28184 77.1214 1.43439 77.3721 1.58695C77.6228 1.70899 77.6856 1.83104 77.56 2.10564C76.8712 3.63121 76.2131 5.1873 75.4926 6.71285C74.8973 8.02485 74.4592 9.39785 74.3648 10.8319C74.2708 12.3269 75.0857 13.6999 76.4637 14.3407C78.3743 15.195 80.3477 15.4085 82.3839 15.0119C85.8298 14.3101 88.3669 12.4184 89.8706 9.2758C90.9668 6.98745 91.9379 4.63808 92.9719 2.31922C93.1286 1.86155 93.3477 1.58695 93.8174 1.55644Z" fill="#E31F26"/>
<path d="M46.6744 8.177C46.925 8.1465 47.0503 7.9634 47.0503 7.7193C47.0503 7.50575 46.8937 7.29215 46.6744 7.23115C46.5805 7.20065 46.4865 7.20065 46.3925 7.20065C44.3877 7.20065 42.4143 7.20065 40.4095 7.20065C40.3155 7.20065 40.2529 7.20065 40.1589 7.20065C39.8457 7.23115 39.6578 7.47525 39.6891 7.74985C39.7204 7.9634 39.8457 8.05495 40.0336 8.1465C40.3782 8.29905 40.4408 8.4821 40.2842 8.81775C40.1589 9.09235 40.0649 9.36695 39.9396 9.64155C39.6578 10.2823 39.4071 10.923 39.0626 11.5332C38.6867 12.1434 38.1855 12.6316 37.4337 12.8147C36.5253 13.0283 35.7108 12.9062 35.053 12.174C34.5831 11.6553 34.5205 11.0146 34.6145 10.3433C35.0843 7.56675 36.3686 5.1869 38.4674 3.23415C39.4385 2.31881 40.5661 1.7391 41.9131 1.58654C42.5083 1.52552 43.0721 1.4645 43.636 1.64757C44.513 1.89166 45.3275 2.22728 45.6094 3.20364C45.6407 3.3562 45.7973 3.44774 45.9853 3.44774C46.2359 3.44774 46.4552 3.29518 46.5491 3.05109C46.7371 2.62393 46.925 2.19677 47.113 1.7391C47.1443 1.64757 47.1443 1.61706 47.0503 1.55604C45.3275 0.73223 43.542 0.122003 41.5999 0.0304693C40.3782 -0.0305534 39.1879 -4.20362e-05 37.9662 0.244049C33.7061 1.15939 30.3544 4.30205 29.2893 8.4211C29.07 9.2449 28.9134 10.0687 29.0387 10.8925C29.3519 13.0893 31.2314 14.7369 33.5181 14.8285C34.959 14.8895 36.3686 14.6759 37.747 14.1267C37.9036 14.0656 37.9662 14.0962 38.0288 14.2183C38.0915 14.4013 38.2168 14.4318 38.3734 14.4318C39.1252 14.4318 39.9083 14.4318 40.6601 14.4318C41.4433 14.4318 42.2263 14.4318 43.0095 14.4318C43.1661 14.4318 43.2287 14.3708 43.2914 14.2487C44.0745 12.4791 44.8576 10.7094 45.6407 8.93975C45.9226 8.5126 46.1732 8.238 46.6744 8.177Z" fill="#E31F26"/>
<path d="M28.2863 5.92C28.1296 5.9505 28.0043 6.04205 27.9417 6.1641C27.7538 6.4997 27.4405 6.59125 27.0646 6.59125C26.1248 6.59125 25.1538 6.59125 24.2141 6.59125C24.1514 6.59125 24.1201 6.59125 24.0575 6.56075C24.7466 5.03515 25.4044 3.47909 26.0936 1.95352C26.1249 1.8925 26.1562 1.86199 26.2188 1.86199C27.4092 1.86199 28.6308 1.86199 29.8212 1.86199C29.9778 1.86199 30.0717 1.95352 30.1031 2.10608C30.1344 2.1671 30.1344 2.25864 30.1344 2.31966C30.1971 2.65528 30.5103 2.80784 30.8236 2.68579C30.9802 2.62477 31.0742 2.47221 31.1681 2.31966C31.4501 1.70943 31.7007 1.09921 31.9825 0.458471C32.0139 0.427959 32.0139 0.397448 32.0139 0.336426C31.9825 0.336426 31.9512 0.336426 31.9199 0.336426C28.067 0.336426 24.2141 0.336426 20.3298 0.336426C20.2672 0.336426 20.1732 0.336426 20.1106 0.366937C19.8286 0.427959 19.672 0.580515 19.6407 0.794095C19.6094 1.00767 19.7347 1.19074 19.9853 1.31279C20.3612 1.49585 20.4238 1.64841 20.2672 2.01455C18.5443 5.79795 16.8841 9.58135 15.1926 13.3647C15.0359 13.7309 14.8794 14.0971 14.6914 14.4937C14.7854 14.4937 14.848 14.4937 14.9106 14.4937C19.0768 14.4937 23.243 14.4937 27.4092 14.4937C27.4405 14.4937 27.4718 14.4937 27.5032 14.4937C27.5658 14.4937 27.5971 14.4632 27.6285 14.4022C27.8477 13.8835 28.0983 13.3342 28.3489 12.8155C28.4742 12.5104 28.2549 12.1748 27.9104 12.1443C27.6598 12.1138 27.4405 12.2053 27.3152 12.4189C27.0646 12.8155 26.72 12.9681 26.2501 12.9376C24.9032 12.9376 23.5563 12.9376 22.2093 12.9376C21.8647 12.9376 21.5515 12.9376 21.2069 12.9376C21.2069 12.9071 21.2069 12.9071 21.2069 12.8765C21.9274 11.2594 22.6478 9.64235 23.3683 8.02525C23.3996 7.96425 23.4623 7.93375 23.5249 7.93375C24.6213 7.93375 25.6863 7.93375 26.7827 7.93375C26.9706 7.93375 27.0959 8.0253 27.0959 8.20835C27.0959 8.26935 27.0959 8.3304 27.0959 8.3914C27.1273 8.75755 27.4718 8.9101 27.7851 8.72705C27.8791 8.666 27.973 8.5745 28.0356 8.48295C28.3489 7.8117 28.6308 7.14045 28.9441 6.4692C29.0381 6.28615 28.9754 6.10305 28.8188 5.9505C28.6622 5.85895 28.4742 5.85895 28.2863 5.92Z" fill="#E31F26"/>
<path d="M74.7086 3.53954C74.8342 3.44801 74.8965 3.32596 74.9592 3.20392C75.1471 2.68523 75.335 2.16653 75.5229 1.67835C75.5546 1.58682 75.5546 1.52579 75.4606 1.46477C74.8342 1.0071 74.1449 0.67148 73.4244 0.427389C72.3282 0.091765 71.2315 -0.0302804 70.0725 0.0307422C68.7572 0.091765 67.5354 0.457901 66.4392 1.19017C63.7765 2.99034 63.2751 6.6822 65.3425 9.0926C66.2513 10.1605 67.1596 11.2284 68.0679 12.2658C68.2247 12.4489 68.3498 12.6624 68.4437 12.876C68.7256 13.5168 68.4754 14.4016 67.9428 14.8287C67.5982 15.1033 67.1908 15.1948 66.7522 15.2254C65.7187 15.2864 64.7788 15.0728 63.9955 14.4321C63.6514 14.1575 63.3691 13.8524 63.2751 13.3947C63.2128 13.0896 62.8682 12.9981 62.5863 13.1506C62.4296 13.2422 62.3668 13.3642 62.304 13.5168C62.21 13.7914 62.1161 14.066 61.991 14.4016C61.9599 14.2185 61.8971 14.066 61.8659 13.9439C60.8948 9.9164 59.9237 5.8584 58.9525 1.83091C58.8586 1.46477 58.8897 1.43426 59.2032 1.25119C59.5479 1.06813 59.5479 0.64097 59.2344 0.427389C59.0776 0.335855 58.9214 0.305344 58.7646 0.305344C57.167 0.305344 55.5694 0.305344 53.9718 0.305344C53.8151 0.305344 53.7528 0.335855 53.6588 0.4579C50.9961 4.57692 48.3021 8.69595 45.6082 12.8455C45.3889 13.1811 45.107 13.4252 44.6685 13.4862C44.3239 13.5168 44.1673 13.8218 44.2612 14.127C44.3239 14.3406 44.5432 14.4626 44.7938 14.4626C45.6708 14.4626 46.5479 14.4626 47.425 14.4626C47.4877 14.4626 47.5503 14.4626 47.613 14.4321C47.8636 14.371 48.0515 14.2185 48.0828 13.9744C48.1142 13.7913 47.9889 13.6082 47.7383 13.4862C47.4877 13.3642 47.425 13.2116 47.5816 12.9676C48.3961 11.6556 49.2418 10.3741 50.0563 9.0621C50.1189 8.97055 50.1816 8.94005 50.3069 8.94005C51.7166 8.94005 53.1263 8.94005 54.5355 8.94005C54.6611 8.94005 54.7239 8.97055 54.755 9.1231C55.068 10.4046 55.3815 11.6861 55.6634 12.9676C55.7573 13.3642 55.7573 13.3642 55.3815 13.5778C55.068 13.7608 55.0369 14.1575 55.3504 14.371C55.5066 14.4626 55.6634 14.4931 55.8513 14.4931C57.7624 14.4931 59.673 14.4931 61.6152 14.4931C61.6464 14.4931 61.7092 14.4931 61.7403 14.4931C61.8343 14.4931 61.8343 14.5236 61.8031 14.5847C61.7403 14.7372 61.7092 14.8898 61.6464 15.0423C61.5836 15.1644 61.6152 15.2254 61.7403 15.3169C62.9933 16.2017 64.403 16.6289 65.9689 16.7204V16.7509C66.3136 16.7509 66.6582 16.7509 67.0029 16.7509V16.7204C67.8172 16.6899 68.5693 16.5678 69.3209 16.2932C70.9185 15.7135 72.1087 14.6762 72.7668 13.1201C73.1426 12.1742 73.2993 11.1979 73.0487 10.191C72.8919 9.55025 72.5161 8.97055 72.1087 8.45185C71.3254 7.38395 70.4171 6.4076 69.5716 5.40075C69.2581 5.0346 69.0074 4.60744 68.8195 4.14977C68.4126 3.14289 68.8823 2.075 69.8846 1.67835C70.4171 1.46477 70.9497 1.46477 71.4822 1.52579C72.4222 1.64784 73.2054 2.04449 73.7374 2.83778C73.8319 2.95983 73.8942 3.08188 73.8942 3.23443C74.0198 3.63108 74.4267 3.78364 74.7086 3.53954ZM54.2537 7.2619C53.2825 7.2619 52.3119 7.2619 51.3091 7.2619C52.0612 6.072 52.7816 4.94306 53.5332 3.75312C53.6272 4.08875 53.69 4.39386 53.7528 4.69897C53.9407 5.5228 54.1286 6.3466 54.3476 7.1704C54.3793 7.2314 54.3793 7.2619 54.2537 7.2619Z" fill="#E31F26"/>
<path d="M17.3547 6.1946C18.2005 4.91314 18.3571 3.54013 17.8559 2.1061C17.48 1.0382 16.5403 0.397461 15.2873 0.397461C13.7524 0.397461 12.2175 0.397461 10.6513 0.397461C9.02237 0.397461 7.42481 0.397461 5.79596 0.397461C5.67066 0.397461 5.57666 0.397461 5.48272 0.427972C5.26342 0.488995 5.07548 0.672065 5.04418 0.85513C5.01284 1.0382 5.13812 1.22126 5.35742 1.34331C5.63931 1.46535 5.67066 1.5874 5.54536 1.862C3.72853 6.01155 1.88038 10.1611 0.0635566 14.3412C-0.0304174 14.5242 -0.0304173 14.5242 0.188855 14.5242C2.09966 14.5242 4.01046 14.5242 5.92125 14.5242C6.04655 14.5242 6.17185 14.5242 6.26585 14.4632C6.45379 14.3716 6.61039 14.2496 6.64174 14.036C6.67303 13.8225 6.54774 13.6699 6.35979 13.5784C6.14055 13.4563 6.1092 13.3953 6.2032 13.1512C6.79833 11.8087 7.39352 10.4662 7.95735 9.0932C8.02 8.97115 8.08265 8.9101 8.20794 8.9101C9.55491 8.9101 10.9019 8.94065 12.2488 8.9101C14.4729 8.9101 16.1644 7.96425 17.3547 6.1946ZM10.8079 7.04895C10.4946 7.17095 10.1501 7.2625 9.7742 7.2625C9.46091 7.2625 9.11637 7.2625 8.77178 7.2625C9.02237 6.6523 9.30431 6.07255 9.55491 5.49285C10.0561 4.33342 10.5886 3.2045 11.0898 2.04507C11.1525 1.92302 11.1838 1.89251 11.3404 1.89251C12.4054 1.89251 13.0319 2.47223 13.0946 3.4791C13.2199 4.88263 12.1548 6.53025 10.8079 7.04895Z" fill="#E31F26"/>
</g>
</g>
<defs>
<clipPath id="clip0_24755_10861">
<rect width="105" height="17" fill="white"/>
</clipPath>
</defs>
</svg>
