<svg width="146" height="43" viewBox="0 0 146 43" fill="none" xmlns="http://www.w3.org/2000/svg">
<path d="M3.547 16.984V33.236H13.719L14.28 30.531H6.788V26.406H12.987L13.551 23.478H6.788V19.685H13.675L14.28 16.984H3.547Z" fill="#8F174F"/>
<path d="M107.264 26.149C107.871 26.224 108.697 26.343 109.107 26.548C109.518 26.755 109.863 27.056 110.107 27.353C110.35 27.65 110.525 27.985 110.631 28.358C110.737 28.731 110.791 29.107 110.791 29.488V29.717C110.791 30.387 110.669 30.961 110.426 31.44C110.182 31.92 109.836 32.307 109.388 32.604C108.938 32.901 108.084 33.139 107.452 33.277C106.82 33.415 106.125 33.482 105.363 33.482C104.724 33.482 104.039 33.432 103.309 33.335C102.578 33.235 101.848 33.072 101.118 32.843L101.626 30.615C102.341 30.813 102.988 30.932 103.566 31.016C104.144 31.1 104.723 31.129 105.301 31.141C105.844 31.153 106.193 31.149 106.554 31.109C106.886 31.072 107.134 30.975 107.316 30.854C107.5 30.732 107.67 30.543 107.723 30.355C107.77 30.197 107.783 30.104 107.783 29.876C107.783 29.526 107.685 29.279 107.511 29.044C107.336 28.808 106.974 28.679 106.41 28.603L104.715 28.37C103.527 28.219 102.307 27.894 101.743 27.332C101.18 26.769 100.898 26.023 100.898 25.096V24.867C100.898 23.666 101.343 22.763 102.234 22.162C103.125 21.561 104.755 21.18 106.414 21.18C107.235 21.18 107.977 21.241 108.64 21.363C109.303 21.485 109.83 21.622 110.226 21.774L109.683 23.935C109.15 23.796 108.608 23.697 108.097 23.63C107.539 23.556 107.048 23.522 106.47 23.522C105.42 23.522 104.742 23.582 104.369 23.8C103.996 24.022 103.835 24.231 103.835 24.718C103.835 25.128 103.97 25.357 104.197 25.531C104.426 25.707 104.791 25.847 105.368 25.924L107.264 26.149Z" fill="#8F174F"/>
<path d="M96.437 21.393C95.567 21.172 94.718 21.116 93.738 21.116C92.806 21.116 91.683 21.232 90.948 21.453C90.214 21.673 89.589 22.012 89.076 22.468C88.562 22.925 88.167 23.511 87.891 24.226C87.614 24.941 87.476 25.792 87.476 26.783V27.582C87.476 29.515 87.867 30.934 88.649 31.838C89.431 32.744 90.88 33.326 92.43 33.326C94.041 33.326 95.049 32.885 95.873 32.092V32.611C95.873 33.874 95.659 34.628 95.13 35.267C94.601 35.906 93.659 36.185 92.443 36.131C91.593 36.094 91.103 36.043 90.456 35.938C89.808 35.831 89.204 35.689 88.651 35.522L88.12 37.94C88.862 38.198 89.625 38.385 90.407 38.499C91.189 38.613 92.055 38.648 93.002 38.671C94.961 38.716 96.456 38.138 97.491 37.073C98.526 36.007 98.986 34.501 98.986 32.553V22.348C98.276 21.968 97.305 21.614 96.437 21.393ZM95.874 27.852C95.874 28.917 95.668 29.701 95.259 30.203C94.848 30.705 94.193 30.957 93.295 30.957C92.777 30.957 92.356 30.881 92.028 30.728C91.7 30.576 91.446 30.352 91.263 30.055C91.079 29.757 90.954 29.397 90.887 28.97C90.818 28.544 90.783 28.05 90.783 27.487V26.666C90.783 25.449 91.015 24.58 91.479 24.063C91.943 23.546 92.677 23.287 93.682 23.287C94.077 23.287 94.473 23.326 94.869 23.401C95.265 23.477 95.599 23.599 95.873 23.766L95.874 27.852Z" fill="#8F174F"/>
<path d="M74.496 33.236V21.39H77.388L77.57 22.669C77.95 22.166 78.441 21.781 79.043 21.516C79.644 21.25 80.332 21.116 81.108 21.116C81.747 21.116 82.472 21.2 82.997 21.367C83.522 21.535 83.975 21.79 84.355 22.132C84.735 22.475 85.032 22.904 85.245 23.422C85.459 23.94 85.565 24.548 85.565 25.248V33.236H82.415V26C82.415 25.042 82.24 24.36 81.891 23.957C81.54 23.554 81.018 23.354 80.196 23.354C79.299 23.354 78.633 23.823 78.234 24.366C77.814 24.938 77.755 26.086 77.755 27.121V33.235L74.496 33.236Z" fill="#8F174F"/>
<path d="M36.953 24.042C36.769 23.997 36.55 23.952 36.291 23.905C36.031 23.86 35.766 23.838 35.491 23.838C34.487 23.838 33.761 24.1 33.311 24.624C32.862 25.149 32.748 25.719 32.748 26.799V33.236H29.334V21.39H32.383L32.566 22.805C32.946 22.288 33.419 21.896 33.981 21.629C34.544 21.363 35.221 21.23 36.012 21.23C36.317 21.23 36.587 21.249 36.823 21.287C37.059 21.325 37.305 21.39 37.565 21.481L36.953 24.042Z" fill="#8F174F"/>
<path d="M27.229 21.39V33.237H24.338L24.156 31.959C23.776 32.461 23.285 32.846 22.683 33.111C22.082 33.377 21.393 33.511 20.618 33.511C19.978 33.511 19.254 33.427 18.728 33.259C18.204 33.091 17.751 32.837 17.371 32.494C16.991 32.151 16.694 31.722 16.48 31.204C16.267 30.687 16.161 30.078 16.161 29.378V21.39H19.31V28.627C19.31 29.584 19.486 30.266 19.835 30.67C20.185 31.072 20.708 31.272 21.53 31.272C22.427 31.272 23.093 30.803 23.492 30.26C23.912 29.688 23.971 28.539 23.971 27.506V21.39H27.229Z" fill="#8F174F"/>
<path d="M70.702 16.608C71.339 16.608 71.826 16.749 72.111 17.015C72.396 17.282 72.539 17.693 72.539 18.18C72.539 18.667 72.396 19.078 72.111 19.344C71.826 19.61 71.339 19.735 70.702 19.735C70.067 19.735 69.562 19.61 69.277 19.344C68.992 19.078 68.849 18.667 68.849 18.18C68.849 17.693 68.992 17.282 69.277 17.015C69.562 16.749 70.067 16.608 70.702 16.608ZM69.122 21.39H72.337V33.237H69.122V21.39Z" fill="#8F174F"/>
<path d="M62.567 28.667L64.31 21.39H67.475L63.982 33.237H61.094L59.03 26.073L56.992 33.237H53.998L50.426 21.39H53.775L55.538 28.743L57.479 21.892H60.629L62.567 28.667Z" fill="#8F174F"/>
<path d="M49.469 24.55C49.294 23.851 48.997 23.249 48.579 22.747C48.16 22.245 47.6 21.849 46.9 21.56C46.201 21.271 45.065 21.132 44.015 21.132C42.965 21.132 41.79 21.31 41.091 21.599C40.39 21.888 39.831 22.284 39.413 22.786C38.994 23.288 38.693 23.89 38.511 24.589C38.329 25.289 38.182 25.999 38.182 26.821V27.78C38.182 28.6 38.314 29.346 38.49 30.046C38.665 30.746 38.962 31.351 39.381 31.86C39.799 32.371 40.358 32.77 41.058 33.059C41.758 33.348 42.952 33.526 44.016 33.526C45.081 33.526 46.246 33.364 46.954 33.059C47.662 32.756 48.221 32.344 48.632 31.828C49.043 31.312 49.332 30.706 49.499 30.013C49.667 29.322 49.806 28.583 49.806 27.792V26.833C49.805 26.011 49.644 25.251 49.469 24.55ZM46.641 27.963C46.641 29.196 46.448 30.067 46.059 30.577C45.671 31.086 44.998 31.341 44.039 31.341C43.566 31.341 43.164 31.288 42.829 31.181C42.494 31.076 42.216 30.894 41.996 30.634C41.774 30.375 41.615 30.03 41.517 29.595C41.417 29.161 41.369 28.617 41.369 27.963V26.64C41.369 25.423 41.57 24.558 41.973 24.048C42.376 23.539 43.065 23.284 44.039 23.284C45.013 23.284 45.689 23.539 46.069 24.048C46.451 24.558 46.64 25.423 46.64 26.64L46.641 27.963Z" fill="#8F174F"/>
<path d="M122.103 3.58899C119.521 3.23599 118.21 4.67299 116.402 5.99399L110.221 10.848L110.219 10.849L111.409 11.478C111.411 11.48 111.414 11.481 111.417 11.483C112.965 12.244 115.118 11.984 116.584 10.898L119.194 8.82399L120.192 8.02999L125.166 4.07799L122.103 3.58899Z" fill="#7BCBE2"/>
<path d="M110.221 10.848L111.409 11.479C111.412 11.48 111.414 11.482 111.417 11.483C112.965 12.245 115.119 11.985 116.585 10.898L119.194 8.82501L120.193 8.03101L110.221 10.848Z" fill="#089BC9"/>
<path d="M132.658 6.58698L129.34 5.98998C129.34 5.98998 127.03 5.44098 125.1 6.93598C125.1 6.93598 123.675 7.99598 122.624 8.81598L120.287 10.667L114.881 14.967L114.836 15.003L116.468 15.866C118.017 16.631 120.175 16.372 121.643 15.284L126.477 11.455L130.375 8.38498L132.658 6.58698Z" fill="#8F174F"/>
<path d="M122.625 8.81598C123.674 7.99598 125.099 6.93598 125.099 6.93598C125.464 6.65298 125.843 6.44398 126.217 6.28998L120.194 8.03098L119.195 8.82398L116.587 10.898C115.121 11.985 112.967 12.245 111.419 11.483C112.739 12.274 114.789 12.456 117.877 11.535L119.986 10.907L120.289 10.667L122.625 8.81598Z" fill="#C8C4C3"/>
<path d="M131.121 10.66C132.116 9.88099 132.867 9.31699 133.614 8.98199L126.872 11.144L126.476 11.456L121.642 15.284C120.174 16.372 118.016 16.632 116.467 15.866C118.847 17.173 122.512 16.212 125.594 15.116L125.778 14.967C125.778 14.967 130.937 10.793 131.121 10.66Z" fill="#C8C4C3"/>
<path d="M139.049 15.003C136.343 14.217 135.531 14.714 132.343 15.673H132.342L132.076 15.894V15.893L132.073 15.896L132.076 15.894L132.068 15.899L126.93 19.973C125.466 21.058 123.178 21.267 121.63 20.509C123.54 21.505 125.515 21.261 128.894 20.207L142.436 16.05L139.049 15.003Z" fill="#C8C4C3"/>
<path d="M139.947 9.38498L136.365 8.73298C134.219 8.33498 133.204 9.02898 131.12 10.66C130.936 10.794 125.777 14.967 125.777 14.967L119.985 19.64L121.616 20.503C123.166 21.269 125.464 21.061 126.931 19.973L132.069 15.899L132.076 15.894L132.073 15.896L139.947 9.38498Z" fill="#8F174F"/>
<path d="M119.985 10.907L131.44 7.54498L126.871 11.144L114.835 15.003L119.985 10.907Z" fill="#B4175E"/>
<path d="M125.593 15.115L138.067 10.94L132.343 15.673L119.986 19.64L125.593 15.115Z" fill="#B4175E"/>
</svg>
