<svg width="101" height="61" viewBox="0 0 101 61" fill="none" xmlns="http://www.w3.org/2000/svg">
<g clip-path="url(#clip0_24755_10946)">
<mask id="mask0_24755_10946" style="mask-type:luminance" maskUnits="userSpaceOnUse" x="0" y="0" width="101" height="61">
<path d="M0.5 0.500008H100.5V60.5H0.5V0.500008Z" fill="white"/>
</mask>
<g mask="url(#mask0_24755_10946)">
<path d="M0.5 13.266C0.5 6.21564 6.14953 0.500008 13.1183 0.500008H100.5V47.734C100.5 54.7844 94.8505 60.5 87.8817 60.5H0.5V13.266Z" fill="#1C294E"/>
<path d="M51.1471 25.2031C51.1471 25.2031 49.1802 25.2054 49.1802 27.1196L49.1818 33.5862C49.1818 34.2781 49.0935 34.8344 48.9212 35.2388C48.7509 35.6364 48.4843 35.9189 48.1058 36.1027C47.7222 36.2897 47.201 36.3848 46.5581 36.3848C46.2263 36.3848 45.8673 36.3552 45.4916 36.2971L45.3496 36.2751V38.0218L45.448 38.0425C45.8521 38.1271 46.3253 38.1702 46.8553 38.1702C47.8496 38.1702 48.6676 38.0157 49.2887 37.7115C49.9184 37.4033 50.3916 36.9188 50.6944 36.2706C50.9928 35.632 51.1442 34.8012 51.1442 33.8007L51.1477 25.2031H51.1471Z" fill="white"/>
<path d="M70.6796 36.7365C70.0972 36.7365 69.6499 36.5661 69.3477 36.23C69.0439 35.8924 68.89 35.39 68.89 34.7355V30.7145H70.9818C72.5073 30.7145 72.5095 29.0272 72.5095 29.0272H68.89V26.7468H66.9755V29.0262H65.1855V30.7145H66.9755V35.0868C66.9755 36.1684 67.2622 37.0142 67.8288 37.5985C68.3934 38.1826 69.2228 38.4788 70.2928 38.4788C70.954 38.4788 71.6256 38.39 72.2884 38.2151L72.3818 38.1906V36.4522L72.224 36.4991C71.7001 36.6558 71.1796 36.7349 70.6783 36.7349L70.6796 36.7365Z" fill="white"/>
<path d="M64.5738 34.2587V34.1326C64.5738 33.3057 64.4221 32.5276 64.1227 31.8197C63.7256 30.8996 63.042 30.1755 62.0924 29.6674C61.1502 29.1634 59.9801 28.9081 58.6148 28.9081C57.2495 28.9081 56.0902 29.1539 55.1309 29.639C54.1631 30.1292 53.4704 30.8383 53.0719 31.7479C52.8082 32.3597 52.6738 33.0175 52.6738 33.7024C52.6738 34.3873 52.8022 35.0339 53.0546 35.5844C53.4527 36.5058 54.1543 37.2271 55.1398 37.7291C56.1164 38.2263 57.3211 38.4788 58.7211 38.4788C59.6912 38.4788 60.5827 38.3623 61.3732 38.1331C62.1694 37.9014 62.8476 37.5296 63.3874 37.0285C63.9805 36.4863 64.3669 35.8052 64.5363 35.0039L64.5688 34.851H62.6256L62.6022 34.9464C62.5032 35.3505 62.3022 35.691 62.0066 35.9591C61.6577 36.2683 61.1994 36.5074 60.6435 36.6692C60.082 36.8329 59.4527 36.9159 58.7738 36.9159C57.7855 36.9159 56.9369 36.7538 56.2521 36.4333C55.5782 36.119 55.107 35.6658 54.8502 35.0862C54.7338 34.8299 54.6543 34.5529 54.6133 34.2602C54.5202 33.4337 54.6868 32.7682 54.6868 32.7682C54.7394 32.5726 54.788 32.4283 54.8334 32.3364C55.1016 31.7332 55.5593 31.2708 56.1928 30.9625C56.8366 30.6488 57.6521 30.4898 58.6161 30.4898C59.5805 30.4898 60.3905 30.6459 61.0593 30.9542C61.7148 31.2567 62.1776 31.7039 62.4328 32.279C62.501 32.4449 62.5574 32.6083 62.6 32.7682L56.7252 32.765C55.3246 32.765 55.323 34.2587 55.323 34.2587H64.5754H64.5738Z" fill="white"/>
<path d="M42.7674 26.2966C42.7674 25.101 41.8787 24.0989 41.5913 23.8037C41.3036 23.5075 40.332 22.521 40.332 22.521V33.1688C40.332 34.3647 41.2204 35.3665 41.5081 35.662C41.7958 35.9582 42.7674 36.9443 42.7674 36.9443V26.2966Z" fill="#438CD2"/>
<path d="M38.5484 27.7797C39.3863 26.9342 39.4607 25.5919 39.4642 25.1776C39.468 24.7634 39.473 23.3725 39.473 23.3725L29.1844 33.7525C28.3465 34.598 28.2724 35.9406 28.2686 36.3546C28.2648 36.7688 28.2598 38.1597 28.2598 38.1597L38.5484 27.7797Z" fill="#438CD2"/>
<path d="M38.5484 27.7794C39.3863 26.934 39.4607 25.5917 39.4642 25.1774C39.468 24.7631 39.473 23.3723 39.473 23.3723L29.1844 33.7523C28.3465 34.5977 28.2724 35.9404 28.2686 36.3543C28.2648 36.7686 28.2598 38.1594 28.2598 38.1594L38.5484 27.7794Z" fill="#438CD2"/>
<path d="M38.4024 37.2407C39.2403 38.0861 40.5712 38.1611 40.9816 38.1646C41.392 38.1685 42.7705 38.1736 42.7705 38.1736L38.7314 34.0984C37.8936 33.2529 36.563 33.1779 36.1522 33.1744C35.7418 33.1706 34.3633 33.1655 34.3633 33.1655L38.4024 37.2407Z" fill="#438CD2"/>
</g>
</g>
<defs>
<clipPath id="clip0_24755_10946">
<rect width="100" height="60" fill="white" transform="translate(0.5 0.5)"/>
</clipPath>
</defs>
</svg>
