<svg width="115" height="37" viewBox="0 0 115 37" fill="none" xmlns="http://www.w3.org/2000/svg">
<path d="M24.0243 29.8178C23.808 29.8178 23.5917 29.8178 23.3753 29.8178C23.159 29.8178 22.8345 29.8178 22.6182 29.8178L23.3753 28.0766L24.0243 29.8178ZM24.8896 31.7766C24.9977 31.7766 25.2141 31.7766 25.4304 31.7766C25.6467 31.7766 25.863 31.7766 25.9712 31.7766C25.6467 31.1237 25.2141 30.0355 24.8896 29.3825C24.6733 28.7296 24.2406 27.7502 23.9161 26.7708C23.808 26.7708 23.808 26.7708 23.6998 26.7708C23.5917 26.7708 23.5917 26.7708 23.4835 26.7708C23.2672 27.3149 22.9427 28.2943 22.1856 29.9266L21.3203 31.7766C21.4285 31.7766 21.5366 31.7766 21.6448 31.7766C21.7529 31.7766 21.8611 31.7766 21.9693 31.7766C22.0774 31.3413 22.2937 30.7972 22.5101 30.2531C22.8345 30.2531 23.0509 30.2531 23.3753 30.2531C23.6998 30.2531 24.0243 30.2531 24.2406 30.2531L24.5651 31.0149L24.8896 31.7766Z" fill="#525A68"/>
<path d="M26.5125 28.5117C26.5125 29.7088 26.5125 30.9059 26.4043 31.7765C26.5125 31.7765 26.7288 31.7765 26.9451 31.7765C27.1614 31.7765 27.2696 31.7765 27.4859 31.7765C27.3777 31.2323 27.3777 30.4706 27.3777 29.3823C27.3777 28.6206 27.3777 27.4235 27.4859 26.8794C27.2696 26.8794 27.1614 26.8794 26.9451 26.8794C26.8369 26.8794 26.6206 26.8794 26.4043 26.8794C26.5125 27.5323 26.5125 28.0765 26.5125 28.5117Z" fill="#525A68"/>
<path d="M30.8378 29.3824C31.4867 29.2736 32.0275 28.8383 32.0275 28.0765C32.0275 27.75 31.9193 27.5324 31.703 27.3148C31.3785 26.9883 31.0541 26.9883 30.6214 26.9883C30.4051 26.9883 29.648 26.9883 29.4317 26.9883C29.1072 26.9883 28.8909 26.9883 28.6746 26.9883C28.6746 27.8589 28.6746 27.9677 28.6746 28.9471C28.6746 30.3618 28.6746 30.4706 28.5664 31.8853C28.6746 31.8853 28.8909 31.8853 29.1072 31.8853C29.3235 31.8853 29.4317 31.8853 29.5398 31.8853C29.5398 31.6677 29.5398 30.7971 29.5398 30.5795V29.6H29.7562C30.1888 30.1442 30.6214 30.7971 30.9459 31.3412C31.0541 31.5589 31.1622 31.7765 31.2704 31.8853C31.4867 31.8853 31.5949 31.8853 31.8112 31.8853C32.0275 31.8853 32.2438 31.8853 32.4601 31.8853C32.0275 31.3412 31.8112 31.0148 31.2704 30.253C31.1622 30.1442 31.0541 29.8177 30.9459 29.7089L30.8378 29.3824ZM29.648 27.2059C29.7562 27.2059 29.9725 27.2059 30.1888 27.2059C30.4051 27.2059 30.6214 27.2059 30.8378 27.4236C31.0541 27.6412 31.1622 27.8589 31.1622 28.1853C31.1622 28.6206 30.9459 29.1648 30.1888 29.1648C29.9725 29.1648 29.8643 29.1648 29.648 29.1648V27.2059Z" fill="#525A68"/>
<path d="M34.516 30.1441C34.1915 29.1647 33.7589 27.75 33.5425 26.8794C33.3262 26.8794 33.2181 26.8794 33.0017 26.8794C32.7854 26.8794 32.5691 26.8794 32.4609 26.8794C32.7854 27.6412 33.0017 28.2941 33.2181 28.8382C33.5425 29.8176 33.7589 30.3617 33.9752 31.2323L34.1915 31.7765C34.2996 31.7765 34.4078 31.7765 34.516 31.7765C34.6241 31.7765 34.6241 31.7765 34.7323 31.7765C34.8404 31.45 34.9486 30.9059 35.0568 30.6882C35.3812 29.8176 35.3812 29.7088 35.7057 28.7294L35.922 28.1853C36.0302 28.4029 36.1384 28.7294 36.2465 29.0559C36.3547 29.2735 36.6792 30.3617 36.7873 30.5794C36.8955 30.9059 36.8955 31.0147 37.22 31.8853C37.3281 31.8853 37.4363 31.8853 37.5444 31.8853C37.6526 31.8853 37.7607 31.8853 37.8689 31.8853C38.1934 31.0147 38.1934 30.9059 38.5179 29.8176C38.9505 28.7294 39.1668 28.0765 39.5995 26.9882C39.4913 26.9882 39.3831 26.9882 39.275 26.9882C39.1668 26.9882 39.0587 26.9882 38.9505 26.9882C38.7342 27.9676 38.5179 28.4029 38.4097 28.947C38.0852 29.9265 38.0852 30.0353 37.8689 30.5794C37.6526 29.9265 37.4363 29.3823 37.22 28.7294C36.8955 28.2941 36.4628 26.8794 36.4628 26.8794C36.3547 26.8794 36.2465 26.8794 36.1384 26.8794C36.0302 26.8794 35.922 26.8794 35.8139 26.8794C35.5976 27.75 34.8404 29.8176 34.7323 30.0353L34.6241 30.4706L34.516 30.1441Z" fill="#525A68"/>
<path d="M41.6532 29.8178C41.4369 29.8178 41.2206 29.8178 41.0042 29.8178C40.7879 29.8178 40.4635 29.8178 40.2471 29.8178L41.0042 28.0766L41.6532 29.8178ZM42.5185 31.7766C42.6266 31.7766 42.843 31.7766 43.0593 31.7766C43.2756 31.7766 43.4919 31.7766 43.6001 31.7766C43.2756 31.1237 42.843 30.0355 42.5185 29.3825C42.3022 28.7296 41.8695 27.7502 41.545 26.7708C41.4369 26.7708 41.4369 26.7708 41.3287 26.7708C41.2206 26.7708 41.2206 26.7708 41.1124 26.7708C40.8961 27.3149 40.5716 28.2943 39.8145 29.9266L38.9492 31.7766C39.0574 31.7766 39.1655 31.7766 39.2737 31.7766C39.3819 31.7766 39.49 31.7766 39.5982 31.7766C39.7063 31.3413 39.9227 30.7972 40.139 30.2531C40.4635 30.2531 40.6798 30.2531 41.0042 30.2531C41.3287 30.2531 41.6532 30.2531 41.8695 30.2531L42.194 31.0149L42.5185 31.7766Z" fill="#525A68"/>
<path d="M45.4396 29.8176C45.4396 29.7088 45.4396 29.7088 45.5477 29.6C45.8722 29.0559 46.0885 28.5117 46.413 28.0765C46.5212 27.8588 47.062 27.097 47.1701 26.8794C47.062 26.8794 47.062 26.8794 46.8456 26.8794C46.7375 26.8794 46.5212 26.8794 46.413 26.8794C45.8722 27.9676 45.7641 28.2941 45.2233 29.2735C44.5743 28.1853 44.358 27.6412 43.9253 26.8794C43.709 26.8794 43.4927 26.8794 43.3845 26.8794C43.2764 26.8794 43.0601 26.8794 42.8438 26.8794C43.1682 27.5323 43.8172 28.5117 44.1417 29.1647L44.5743 29.9265C44.5743 30.3617 44.5743 31.3412 44.5743 31.8853C44.6825 31.8853 44.8988 31.8853 45.0069 31.8853C45.2233 31.8853 45.3314 31.8853 45.5477 31.8853C45.5477 31.2323 45.5477 30.797 45.5477 30.2529V29.8176H45.4396Z" fill="#525A68"/>
<path d="M47.603 30.6884C47.603 31.0149 47.603 31.1237 47.3867 31.4502C47.603 31.559 48.1438 31.7766 48.6846 31.7766C49.9825 31.7766 50.5233 30.906 50.5233 30.2531C50.5233 30.0355 50.5233 29.6002 50.1989 29.2737C49.9825 29.056 49.7662 28.9472 49.2254 28.7296C48.5765 28.5119 48.252 28.2943 48.252 27.859C48.252 27.4237 48.5765 27.0972 49.1173 27.0972C49.5499 27.0972 49.9825 27.3149 50.0907 27.7502H50.1989C50.307 27.4237 50.307 27.4237 50.4152 27.0972C50.0907 26.9884 49.7662 26.7708 49.2254 26.7708C47.9275 26.7708 47.603 27.5325 47.603 28.1855C47.603 28.7296 47.8194 29.1649 48.4683 29.4913C48.6846 29.6002 49.0091 29.709 49.2254 29.8178C49.3336 29.9266 49.7662 30.0355 49.7662 30.6884C49.7662 31.2325 49.4418 31.559 48.7928 31.559C48.3602 31.559 48.0357 31.4502 47.603 30.6884Z" fill="#525A68"/>
<path d="M8.01639 17.4118C8.01639 11.9707 10.9367 10.5559 13.0999 10.5559C16.561 10.5559 18.0752 13.4942 18.0752 16.6501C18.0752 18.3912 17.8589 20.1324 16.9936 21.4383C16.1283 22.7442 14.6141 23.6148 13.0999 23.6148C9.20614 23.6148 8.01639 19.8059 8.01639 17.4118ZM18.7242 28.5118C19.3731 28.0765 20.3466 27.5324 21.1037 27.2059L16.2365 24.1589C19.1568 23.0707 21.1037 20.4589 21.1037 16.7589C21.1037 11.6442 17.2099 9.35889 13.208 9.35889C8.88166 9.35889 5.20424 11.753 5.20424 17.1942C5.09608 18.5001 5.42056 20.6765 7.15111 22.5265C8.98982 24.3765 11.2612 24.703 13.0999 24.703C13.3162 24.703 13.5325 24.703 13.857 24.703L18.7242 28.5118Z" fill="#5C0D34"/>
<path d="M31.0548 18.3913C30.4059 18.3913 29.7569 18.5001 29.108 18.5001C28.3509 18.5001 27.5937 18.3913 26.8366 18.3913L28.9998 13.0589L31.0548 18.3913ZM33.4343 24.3766C33.867 24.3766 34.4078 24.2678 35.0567 24.2678C35.7057 24.2678 36.3546 24.3766 36.6791 24.3766C35.7057 22.3089 34.2996 19.0442 33.5425 17.1942C32.7854 15.3442 31.4875 12.406 30.514 9.46777C30.2977 9.5766 30.0814 9.5766 29.8651 9.5766C29.6488 9.5766 29.4324 9.5766 29.108 9.46777C28.5672 11.2089 27.3774 14.0384 25.2142 18.9354L22.7266 24.4854C23.051 24.4854 23.3755 24.3766 23.7 24.3766C24.0245 24.3766 24.4571 24.4854 24.6734 24.4854C24.9979 23.2884 25.6469 21.4384 26.404 19.806C27.2693 19.806 28.1345 19.6972 28.9998 19.6972C29.8651 19.6972 30.8385 19.6972 31.7038 19.806L32.5691 22.0913L33.4343 24.3766Z" fill="#5C0D34"/>
<path d="M42.951 13.4943C42.951 12.6237 42.951 11.862 42.951 11.1002C44.4652 11.1002 45.9795 11.1002 47.1692 11.209C47.0611 10.8825 47.0611 10.6649 47.0611 10.4472C47.0611 10.2296 47.0611 10.012 47.1692 9.57666C45.1142 9.79431 43.2755 9.79431 41.5449 9.79431C39.9226 9.79431 37.5431 9.79431 35.8125 9.68548C35.9207 9.90313 35.9207 10.2296 35.9207 10.4472C35.9207 10.6649 35.9207 10.9914 35.8125 11.209C36.8941 11.1002 38.9491 11.1002 39.1654 11.1002H40.247C40.247 11.9708 40.247 12.7325 40.247 13.4943V19.4796C40.247 21.112 40.1389 22.7443 40.0307 24.3767C40.7878 24.2678 41.1123 24.2678 41.4368 24.2678C41.6531 24.2678 42.4102 24.3767 42.951 24.3767C42.951 23.8325 42.951 23.0708 42.951 21.4384V13.4943Z" fill="#5C0D34"/>
<path d="M54.8498 18.3913C54.2008 18.3913 53.5518 18.5001 52.9029 18.5001C52.1458 18.5001 51.3887 18.3913 50.6315 18.3913L52.7947 13.0589L54.8498 18.3913ZM57.2293 24.3766C57.6619 24.3766 58.2027 24.2678 58.8517 24.2678C59.5006 24.2678 60.1496 24.3766 60.474 24.3766C59.5006 22.3089 58.0945 19.0442 57.3374 17.1942C56.5803 15.3442 55.2824 12.406 54.309 9.46777C54.0926 9.5766 53.8763 9.5766 53.66 9.5766C53.4437 9.5766 53.2274 9.5766 52.9029 9.46777C52.3621 11.2089 51.1723 14.0384 49.0091 18.9354L46.5215 24.4854C46.846 24.4854 47.1704 24.3766 47.4949 24.3766C47.8194 24.3766 48.252 24.4854 48.4684 24.4854C48.7928 23.2884 49.4418 21.4384 50.1989 19.806C51.0642 19.806 51.9295 19.6972 52.7947 19.6972C53.66 19.6972 54.6334 19.6972 55.4987 19.806L56.364 22.0913L57.2293 24.3766Z" fill="#5C0D34"/>
<path d="M69.1263 17.0855C71.0732 16.759 72.8037 15.4531 72.8037 13.059C72.8037 12.1884 72.4792 11.3178 71.8303 10.6649C70.965 9.79431 69.8834 9.57666 68.4773 9.57666C67.9365 9.57666 65.557 9.68548 64.9081 9.68548C63.8265 9.68548 63.2857 9.57666 62.7449 9.57666C62.853 12.2972 62.853 12.6237 62.853 15.4531C62.853 19.5884 62.853 20.0237 62.6367 24.2678C63.0694 24.159 63.6102 24.159 64.1509 24.159C64.6917 24.159 65.1244 24.2678 65.557 24.2678C65.557 23.7237 65.4489 20.8943 65.4489 20.3502V17.412H65.9897C67.1794 19.0443 68.4773 20.8943 69.5589 22.6355C69.8834 23.1796 70.316 23.9414 70.6405 24.3767C71.2895 24.2678 71.5058 24.2678 72.3711 24.2678C73.1282 24.2678 73.669 24.3767 74.3179 24.3767C73.02 22.6355 72.3711 21.8737 70.7487 19.5884C70.4242 19.1531 69.9916 18.3914 69.6671 17.9561L69.1263 17.0855ZM65.557 10.7737C65.8815 10.7737 66.6386 10.6649 67.0713 10.6649C67.8284 10.6649 68.4773 10.7737 69.0181 11.209C69.7752 11.7531 69.8834 12.5149 69.8834 13.4943C69.8834 14.909 69.1263 16.4325 66.9631 16.4325C66.4223 16.4325 65.8815 16.4325 65.4489 16.3237V10.7737H65.557Z" fill="#5C0D34"/>
<path d="M101.033 17.0854C101.033 17.1943 99.0864 17.3031 96.3824 17.4119C95.8416 17.0854 95.5171 16.8678 95.3008 16.6501C98.5456 16.8678 101.033 16.9766 101.033 17.0854Z" fill="#757F8B"/>
<path d="M99.0871 12.4059C99.0871 12.5147 97.4647 12.6235 95.1934 12.7324C95.5178 12.5147 95.8423 12.2971 96.275 12.1882C97.8973 12.2971 99.0871 12.2971 99.0871 12.4059Z" fill="#757F8B"/>
<path d="M81.7817 22.5265C80.7001 22.5265 79.7267 22.5265 79.0777 22.5265C77.9961 22.5265 77.1309 22.2 77.1309 21.7647C77.1309 21.3294 77.9961 21.0029 79.0777 21.0029C80.0512 21.0029 81.2409 21.0029 82.7552 21.0029C82.1062 21.9823 81.8899 22.4176 81.7817 22.5265Z" fill="#757F8B"/>
<path d="M82.3227 23.5061C82.6472 23.9414 82.9717 24.2679 83.5125 24.7032C83.5125 24.7032 83.7288 24.9208 84.1614 24.7032C84.7022 24.4855 85.1349 24.159 85.6757 23.5061C87.1899 23.5061 88.7041 23.6149 90.2184 23.6149C90.3265 23.8326 90.651 24.159 90.8673 24.7032C86.5409 24.812 81.8901 24.9208 79.5106 24.9208C78.5372 24.9208 77.6719 24.5943 77.6719 24.2679C77.6719 23.8326 78.429 23.6149 79.5106 23.6149C80.3759 23.5061 81.2411 23.5061 82.3227 23.5061Z" fill="#757F8B"/>
<path d="M80.6986 27.0971C79.8333 27.0971 79.0762 26.7707 79.0762 26.4442C79.0762 26.1177 79.8333 25.7913 80.6986 25.7913C83.0781 25.7913 87.8371 25.9001 91.9471 26.0089C92.1635 26.3354 92.3798 26.553 92.4879 26.8795C88.2697 27.0971 83.1862 27.0971 80.6986 27.0971Z" fill="#757F8B"/>
<path d="M94.3275 29.056C90.8664 29.1648 84.9177 29.2737 82.5381 29.2737C81.8892 29.2737 81.2402 29.056 81.2402 28.8384C81.2402 28.6207 81.781 28.4031 82.5381 28.4031C84.9177 28.4031 90.4338 28.5119 93.8949 28.6207C94.003 28.7295 94.1112 28.9472 94.3275 29.056Z" fill="#757F8B"/>
<path d="M85.3509 30.3618C87.4059 30.3618 93.571 30.4706 93.571 30.6883C93.571 30.9059 87.4059 31.0148 85.3509 31.0148C84.9182 31.0148 84.5938 30.9059 84.5938 30.6883C84.5938 30.5795 84.9182 30.3618 85.3509 30.3618Z" fill="#757F8B"/>
<path d="M85.351 17.8471C82.7551 17.8471 80.4838 17.9559 79.0777 17.9559C77.9961 17.9559 77.1309 17.6294 77.1309 17.1941C77.1309 16.7588 77.9961 16.4324 79.0777 16.4324C80.8083 16.4324 83.6204 16.4324 86.6489 16.5412C86.1081 16.9765 85.6755 17.4118 85.351 17.8471Z" fill="#757F8B"/>
<path d="M97.8975 14.4736C99.4117 14.5825 100.385 14.6913 100.385 14.6913C100.385 14.8001 99.1954 14.9089 97.4648 15.0178C97.7893 14.8001 97.8975 14.5825 97.8975 14.4736Z" fill="#757F8B"/>
<path d="M79.618 15.4531C78.6446 15.4531 77.7793 15.1266 77.7793 14.8002C77.7793 14.3649 78.5364 14.1472 79.618 14.1472C81.673 14.1472 85.3505 14.1472 89.0279 14.256C88.5952 14.6913 88.1626 15.0178 87.73 15.4531C84.4852 15.4531 81.4567 15.4531 79.618 15.4531Z" fill="#757F8B"/>
<path d="M90.7574 12.95C86.9718 13.0588 82.8618 13.0588 80.6986 13.0588C79.8333 13.0588 79.0762 12.7323 79.0762 12.4059C79.0762 12.0794 79.8333 11.7529 80.6986 11.7529C83.0781 11.7529 87.8371 11.8618 91.9471 11.9706C91.7308 12.0794 91.5145 12.297 91.2982 12.4059C91.0819 12.6235 90.8655 12.7323 90.7574 12.95Z" fill="#757F8B"/>
<path d="M82.4307 10.5561C81.7818 10.5561 81.1328 10.3385 81.1328 10.1208C81.1328 9.90316 81.6736 9.68551 82.4307 9.68551C85.1347 9.57669 91.6243 9.68551 94.8691 9.90316C94.6527 10.012 94.4364 10.2296 94.2201 10.3385C90.8672 10.4473 84.9184 10.5561 82.4307 10.5561Z" fill="#757F8B"/>
<path d="M78.8609 20.2413C77.7793 20.2413 76.9141 19.9148 76.9141 19.4795C76.9141 19.0442 77.7793 18.7178 78.8609 18.7178C80.1588 18.7178 82.2139 18.7178 84.4852 18.8266C84.0526 19.3707 83.7281 19.806 83.4036 20.2413C81.5649 20.2413 79.9425 20.2413 78.8609 20.2413Z" fill="#757F8B"/>
<path d="M84.5938 8.27081C84.5938 8.05316 84.9182 7.94434 85.3509 7.94434C87.4059 7.94434 93.571 8.05316 93.571 8.27081C93.571 8.48845 87.4059 8.59728 85.3509 8.59728C84.9182 8.59728 84.5938 8.37963 84.5938 8.27081Z" fill="#757F8B"/>
<path d="M101.251 18.9354C101.251 19.2619 101.251 19.6972 101.251 20.0236C97.6813 20.1325 94.2202 20.3501 94.2202 20.6766C94.2202 20.8942 97.5731 21.1119 101.142 21.3295C101.034 21.7648 101.034 22.2001 100.926 22.5266C97.465 22.6354 94.2202 22.853 94.2202 23.0707C94.2202 23.2883 97.2487 23.506 100.602 23.6148C100.493 24.0501 100.277 24.4854 100.061 24.9207C97.1405 25.0295 94.761 25.2472 94.761 25.4648C94.761 25.6825 96.816 25.7913 99.52 26.0089C99.4118 26.2266 99.1955 26.4442 99.0874 26.6619C98.871 26.8795 98.7629 27.0972 98.5466 27.4236C96.9242 27.5325 95.7344 27.6413 95.7344 27.8589C95.7344 27.9678 96.4915 28.0766 97.7894 28.1854C97.1405 28.8383 96.2752 29.4913 95.4099 30.0354C95.4099 30.0354 94.3284 29.056 93.3549 27.9678C92.4896 26.9883 90.7591 24.2677 90.4346 23.7236C90.002 23.1795 89.7857 22.9619 89.2449 23.1795C88.5959 23.3972 87.8388 23.506 87.6225 23.506C87.4062 23.506 87.298 23.3972 87.6225 23.2883C88.0551 23.1795 89.5693 22.4178 90.2183 20.8942C91.0836 19.2619 90.3265 16.8678 90.3265 16.8678C90.002 18.0648 89.353 18.6089 89.353 18.6089C89.5693 17.4119 89.353 16.4325 88.8122 15.6707L88.3796 16.9766C88.3796 16.9766 88.1633 16.9766 87.7306 17.4119C87.298 17.8472 87.0817 18.3913 87.0817 18.3913C87.5143 18.5001 87.9469 18.1736 87.9469 18.1736C87.4062 20.3501 86.5409 22.2001 85.8919 23.1795C85.243 24.1589 84.8103 24.4854 84.1614 24.703C83.6206 24.9207 83.5124 24.703 83.5124 24.703C83.0798 24.2678 82.7553 23.9413 82.3227 23.506C82.3227 23.506 82.3227 23.506 82.4308 23.506C82.6471 23.506 83.1879 23.0707 83.1879 22.853C83.2961 22.6354 83.2961 22.5266 83.1879 22.5266C83.0798 22.5266 83.0798 22.6354 82.539 22.9619C82.1063 23.2883 81.7819 23.0707 81.6737 22.853C81.5655 22.7442 81.6737 22.5266 81.7819 22.4178C81.89 22.3089 84.3777 17.5207 91.1917 12.406C100.061 5.76775 105.793 4.02658 106.118 3.80893C106.334 3.70011 106.659 3.59128 106.767 3.70011C106.875 3.80893 106.875 3.91775 106.875 4.02658C106.875 4.1354 106.767 4.1354 106.442 4.35305C102.981 5.87658 98.9792 8.37952 96.816 9.90305C94.0039 11.3178 91.408 13.2766 91.2999 13.2766C91.0836 13.3854 91.1917 13.603 91.4081 13.4942C96.1671 10.3383 101.683 8.16187 107.74 6.42069C108.065 6.31187 108.173 6.31187 108.281 6.42069C108.389 6.52952 108.389 6.52952 108.389 6.63834C108.389 6.74716 108.281 6.85599 108.065 6.85599C101.467 9.35893 96.7079 11.5354 93.5712 13.7119C93.5712 13.7119 93.2468 13.9295 93.2468 14.1472C93.2468 14.256 93.4631 14.256 93.4631 14.256C94.9773 14.256 97.1405 14.3648 98.1139 14.4736C98.1139 14.4736 98.0058 15.0178 97.0323 15.3442C96.2752 15.6707 95.6263 15.5619 94.9773 15.5619C94.8691 15.5619 94.6528 15.6707 94.8692 15.8883C94.6528 16.106 96.0589 18.3913 101.251 18.9354Z" fill="#5C0D34"/>
<path d="M53.7677 31.0147H52.9024C52.9024 31.0147 52.7942 30.4706 53.1187 30.2529C53.4432 30.0353 53.7677 29.9265 53.7677 29.9265V31.0147ZM57.8777 28.947C57.8777 28.947 57.3369 29.2735 57.0124 29.6C56.688 29.9265 57.1206 30.0353 57.1206 30.0353V31.0147H54.5248V27.4235C54.5248 27.4235 53.5513 28.2941 53.5513 28.4029C53.4432 28.5117 53.7677 28.6206 53.7677 28.6206V28.947C53.7677 28.947 53.4432 29.1647 52.9024 29.4912C52.4697 29.8176 52.1453 30.1441 52.1453 30.4706C52.1453 30.6882 52.0371 31.7765 52.0371 31.7765H57.9859V28.947H57.8777ZM52.5779 27.6412C52.9024 27.6412 53.1187 27.5323 53.1187 27.3147C53.1187 27.097 53.0105 26.8794 52.5779 26.8794C52.2534 26.8794 52.1453 26.9882 52.1453 27.3147C52.2534 27.5323 52.3616 27.6412 52.5779 27.6412ZM53.6595 27.6412C53.984 27.6412 54.2003 27.5323 54.2003 27.3147C54.2003 27.097 54.0921 26.8794 53.6595 26.8794C53.335 26.8794 53.2269 26.9882 53.2269 27.3147C53.335 27.5323 53.4432 27.6412 53.6595 27.6412ZM55.39 32.1029C55.0656 32.1029 54.9574 32.2117 54.9574 32.5382C54.9574 32.7559 55.0656 32.8647 55.39 32.8647C55.7145 32.8647 55.9308 32.7559 55.9308 32.5382C55.8227 32.2117 55.7145 32.1029 55.39 32.1029ZM56.4716 32.1029C56.1472 32.1029 56.039 32.2117 56.039 32.5382C56.039 32.7559 56.1472 32.8647 56.4716 32.8647C56.7961 32.8647 57.0124 32.7559 57.0124 32.5382C57.0124 32.2117 56.7961 32.1029 56.4716 32.1029ZM69.2344 27.6412C69.5589 27.6412 69.7752 27.5323 69.7752 27.3147C69.7752 27.097 69.6671 26.8794 69.2344 26.8794C68.91 26.8794 68.8018 26.9882 68.8018 27.3147C68.8018 27.5323 68.91 27.6412 69.2344 27.6412ZM70.316 27.6412C70.6405 27.6412 70.8568 27.5323 70.8568 27.3147C70.8568 27.097 70.7487 26.8794 70.316 26.8794C69.9916 26.8794 69.8834 26.9882 69.8834 27.3147C69.8834 27.5323 69.9916 27.6412 70.316 27.6412ZM73.4527 27.75C73.3445 27.8588 73.3445 28.0765 73.5608 28.0765V31.8853H74.4261V27.2059C74.4261 27.097 73.5608 27.5323 73.4527 27.75ZM70.0997 29.8176H69.5589C69.5589 29.4912 70.0997 29.3823 70.0997 29.3823V29.8176ZM66.5305 30.4706C66.5305 30.5794 66.5305 30.797 66.5305 31.0147H61.7715V30.1441C61.8796 29.8176 62.0959 29.8176 62.4204 29.8176H65.8815C66.6386 29.8176 66.5305 30.2529 66.5305 30.4706ZM72.0466 27.9676V31.0147H70.965V28.2941C70.965 28.2941 70.7487 28.4029 70.4242 28.5117C70.0997 28.6206 69.0181 29.1647 69.0181 29.7088V30.4706H70.2079V31.0147H67.5039C67.5039 30.9059 67.5039 30.6882 67.5039 30.3617C67.5039 29.4912 66.7468 28.947 66.0978 28.947H62.9612C62.4204 28.947 62.0959 29.0559 61.9878 29.2735V26.9882C61.9878 26.9882 61.447 27.3147 61.1225 27.6412C60.798 27.9676 61.1225 28.0765 61.1225 28.0765V31.0147H60.0409V28.5117C60.0409 28.5117 59.2838 29.0559 59.0675 29.1647C58.8512 29.2735 58.9593 29.4912 59.1756 29.4912C59.1756 29.4912 59.1756 31.3412 59.1756 31.7765C59.1756 32.2117 58.8511 32.7559 58.094 32.5382C58.094 32.5382 57.8777 32.5382 58.094 32.7559C58.3104 32.9735 58.5267 33.0823 58.8512 33.0823C59.1756 33.0823 60.1491 32.8647 60.1491 31.7765H73.2363V27.097C73.2363 27.097 72.4792 27.6412 72.2629 27.75C71.8303 27.8588 71.8303 27.9676 72.0466 27.9676Z" fill="#5C0D34"/>
</svg>
