<svg width="25" height="24" viewBox="0 0 25 24" fill="none" xmlns="http://www.w3.org/2000/svg">
<g clip-path="url(#clip0_35975_35530)">
<path d="M12.332 12.75C13.962 12.75 15.402 13.14 16.572 13.65C17.652 14.13 18.332 15.21 18.332 16.38V17C18.332 17.55 17.882 18 17.332 18H7.33203C6.78203 18 6.33203 17.55 6.33203 17V16.39C6.33203 15.21 7.01203 14.13 8.09203 13.66C9.26203 13.14 10.702 12.75 12.332 12.75ZM4.33203 13C5.43203 13 6.33203 12.1 6.33203 11C6.33203 9.9 5.43203 9 4.33203 9C3.23203 9 2.33203 9.9 2.33203 11C2.33203 12.1 3.23203 13 4.33203 13ZM5.46203 14.1C5.09203 14.04 4.72203 14 4.33203 14C3.34203 14 2.40203 14.21 1.55203 14.58C0.812031 14.9 0.332031 15.62 0.332031 16.43V17C0.332031 17.55 0.782031 18 1.33203 18H4.83203V16.39C4.83203 15.56 5.06203 14.78 5.46203 14.1ZM20.332 13C21.432 13 22.332 12.1 22.332 11C22.332 9.9 21.432 9 20.332 9C19.232 9 18.332 9.9 18.332 11C18.332 12.1 19.232 13 20.332 13ZM24.332 16.43C24.332 15.62 23.852 14.9 23.112 14.58C22.262 14.21 21.322 14 20.332 14C19.942 14 19.572 14.04 19.202 14.1C19.602 14.78 19.832 15.56 19.832 16.39V18H23.332C23.882 18 24.332 17.55 24.332 17V16.43ZM12.332 6C13.992 6 15.332 7.34 15.332 9C15.332 10.66 13.992 12 12.332 12C10.672 12 9.33203 10.66 9.33203 9C9.33203 7.34 10.672 6 12.332 6Z" fill="#191953"/>
</g>
<defs>
<clipPath id="clip0_35975_35530">
<rect width="24" height="24" fill="white" transform="translate(0.332031)"/>
</clipPath>
</defs>
</svg>