<svg width="25" height="24" viewBox="0 0 25 24" fill="none" xmlns="http://www.w3.org/2000/svg">
<path d="M20.668 3.20898H4.66797C3.55797 3.20898 2.67797 4.09898 2.67797 5.20898L2.66797 17.209C2.66797 18.319 3.55797 19.209 4.66797 19.209H8.66797C9.21797 19.209 9.66797 18.759 9.66797 18.209C9.66797 17.659 9.21797 17.209 8.66797 17.209H4.66797V11.209H22.668V5.20898C22.668 4.10898 21.768 3.20898 20.668 3.20898ZM20.668 7.20898H4.66797V5.20898H20.668V7.20898ZM15.598 18.379L13.478 16.259C13.088 15.869 12.458 15.869 12.068 16.259C11.678 16.649 11.678 17.279 12.068 17.669L14.898 20.499C15.288 20.889 15.918 20.889 16.308 20.499L21.968 14.839C22.358 14.449 22.358 13.819 21.968 13.429C21.578 13.039 20.948 13.039 20.558 13.429L15.598 18.379Z" fill="#191953"/>
</svg>