<svg width="91" height="55" viewBox="0 0 91 55" fill="none" xmlns="http://www.w3.org/2000/svg">
<path d="M0.517578 0H90.481V55H0.517578V0Z" fill="#BFD730"/>
<path d="M62.4793 23.7933H64.4329V25.7468H62.4793V31.3069C62.4793 32.1083 62.5794 32.8097 63.7818 32.8097C64.0823 32.8097 64.3328 32.7594 64.533 32.7094V34.6629C64.1824 34.7132 63.8318 34.7632 63.3309 34.7632C60.4758 34.7632 59.9248 33.3104 59.9248 31.4572V25.7468H58.3218V23.7933H59.9248V20.2368H62.4793V23.7933ZM77.2062 26.6539C76.6992 26.2059 75.8564 25.5964 74.4512 25.5964C72.2472 25.5964 71.3454 27.4499 71.3454 29.203C71.3454 29.9544 71.5458 32.8097 74.3508 32.8097C75.8036 32.8097 76.7553 32.1584 77.4566 31.6574V33.9117C76.9557 34.1622 75.8036 34.7632 73.9502 34.7632C70.2934 34.7632 68.7408 32.0082 68.7408 29.1529C68.7408 26.1474 70.3937 23.5428 74.0503 23.5428C75.8036 23.5428 76.7553 24.0938 77.2062 24.3443V26.6539C77.2231 26.6688 77.2397 26.6838 77.2562 26.6984H77.2062V26.6539ZM22.4065 34.6128H20.3527V34.5127L20.0522 33.4107C19.4011 33.9617 18.3992 34.7632 16.7962 34.7632C14.8928 34.7632 13.4902 33.5108 13.4902 31.8078C13.4902 30.7058 13.8911 29.4034 16.2452 28.6019L19.351 27.55C19.8017 27.3998 19.852 27.3998 19.852 27.0993V26.6484C19.852 25.7468 19.0505 25.4963 17.9986 25.4963C16.2955 25.4963 14.7426 26.5483 14.1416 26.9489V24.7449C14.8427 24.3443 16.1451 23.6429 18.3992 23.6429C21.7552 23.6429 22.4065 25.2959 22.4065 27.3498V34.6128ZM54.114 34.5628H52.0604V34.5127L51.7599 33.3607C51.1088 33.9117 50.1069 34.7132 48.5039 34.7132C46.6005 34.7132 45.1979 33.4608 45.1979 31.7578C45.1979 30.6558 45.5986 29.3533 47.9529 28.5519L51.0585 27.4999C51.5094 27.3498 51.5094 27.3498 51.5094 27.0492V26.5983C51.5094 25.6968 50.7079 25.4463 49.706 25.4463C48.003 25.4463 46.4503 26.4982 45.849 26.8989V24.6949C46.5504 24.2942 47.8528 23.5929 50.1069 23.5929C53.4629 23.5929 54.114 25.2459 54.114 27.2997V34.5628ZM67.9893 34.5628H65.4348V23.7933H67.9893V34.5628ZM26.1634 23.7933V34.5127H23.6086V23.7933H26.1634ZM57.6705 34.5127H55.1159V20.2368H57.6705V34.5127ZM29.9201 34.5127H27.3155V23.7933H29.82V25.7969C30.6215 24.6448 31.7735 23.5929 33.3264 23.5929C33.627 23.5929 33.7771 23.5929 33.9275 23.6429V26.0473C33.7271 25.9973 33.3264 25.9973 33.1761 25.9973C32.024 25.9973 29.9201 27.0993 29.9201 29.2532V34.5127ZM39.4875 34.5127H34.5786V20.2368H39.187C40.3891 20.2368 44.4966 20.2368 44.4966 23.7432C44.4966 26.1474 42.6434 26.7988 41.6415 27.0993C42.7435 27.3998 44.7971 27.9508 44.7971 30.6057C44.7971 32.7594 43.1443 34.5127 39.4875 34.5127ZM17.5477 29.9544C16.4457 30.3552 16.0951 30.856 16.0951 31.6074C16.0951 32.6593 17.0467 32.9098 17.4976 32.9098C17.8982 32.9098 18.8 32.7594 19.852 31.7077V29.0528C19.7016 29.1529 19.6515 29.203 19.2006 29.3533L17.5477 29.9544ZM49.2554 29.9544C48.1534 30.3552 47.8026 30.856 47.8026 31.6074C47.8026 32.6593 48.7544 32.9098 49.2053 32.9098C49.6059 32.9098 50.5075 32.7594 51.5595 31.7077V29.0528C51.4093 29.1529 51.359 29.203 50.9084 29.3533L49.2554 29.9544ZM39.187 28.1512H37.3336V32.4088H38.9866C40.7899 32.4088 42.0924 31.8078 42.0924 30.305C42.0924 29.3033 41.5414 28.1512 39.187 28.1512ZM39.4375 22.2904H37.3336V26.0473H39.187C41.6415 26.0473 41.8419 24.5948 41.8419 24.0938C41.8419 22.2904 39.9885 22.2904 39.4375 22.2904ZM26.1634 20.2368V22.7914H23.6086V20.2368H26.1634ZM67.9893 22.7914H65.4348V20.2368H67.9893V22.7914Z" fill="#11175E"/>
</svg>
