<svg width="79" height="83" viewBox="0 0 79 83" fill="none" xmlns="http://www.w3.org/2000/svg">
<path d="M68 11.5569H11V71.4429H68V11.5569Z" fill="#D71A21"/>
<path d="M42.0125 26.4064C41.6537 26.8682 41.4543 27.4356 41.4543 28.0161C41.4543 28.2141 41.4543 32.898 41.4543 33.0695C41.4277 33.4521 41.2815 33.8084 41.0422 34.1119C40.9093 34.2438 40.1251 34.9431 40.0586 35.0223L40.4972 35.0355C40.6434 34.9035 42.1588 33.5709 42.305 33.3862C42.7436 32.9112 42.9962 32.2911 42.9962 31.6445C42.9962 31.4334 42.9962 26.987 42.9962 26.7891C42.9829 26.3009 43.169 25.8127 43.5146 25.4565C43.7006 25.2586 44.2855 24.7704 44.3918 24.6516L43.9266 24.6384C43.8336 24.7572 42.172 26.2481 42.0125 26.4064Z" fill="white"/>
<path d="M38.2773 44.786L40.125 46.3825H41.3611C42.5441 46.3825 43.6873 45.9208 44.5247 45.0895C45.2823 44.3374 45.5615 43.3215 45.5615 42.3715V39.7459C45.5482 39.1521 45.2956 38.5848 44.8437 38.189C44.7639 38.1098 44.2189 37.5952 44.2189 37.5952V39.6139C44.2189 39.6139 44.8171 40.2209 44.9234 40.3396C45.4684 40.9202 45.4684 41.9757 43.7271 43.6513C43.4214 43.9416 42.5574 44.7597 41.3611 44.7597L38.2773 44.786Z" fill="white"/>
<path d="M43.4215 34.0063C43.2221 34.2174 43.0227 34.7452 43.0227 35.2202V36.2098H44.0329C44.4317 36.2098 44.9501 35.8535 45.0564 35.6688C45.0564 35.6556 45.0564 34.6792 45.0564 34.6792C45.2027 34.8903 45.3887 35.0882 45.6014 35.2466C45.7078 35.1146 46.6382 34.0063 47.4092 33.9931C48.6985 33.9799 48.4061 35.6028 47.8877 36.1174C47.7149 36.2889 46.9572 36.975 46.718 37.1993C46.1065 37.7799 45.0564 37.5028 45.0564 36.0118C45.0564 36.0118 43.9399 37.0674 43.7671 37.2125C43.5943 37.3576 43.0227 37.9646 43.0227 37.9646V40.5902C43.0227 41.8437 42.6107 42.2659 42.2651 42.6485C42.1322 42.7937 40.7099 44.0867 40.5105 44.2318L40.0453 44.245C40.0453 44.245 40.8827 43.4929 41.0422 43.3214C41.2283 43.1235 41.4543 42.7277 41.4543 42.068C41.4543 41.8965 41.4277 37.9514 41.4277 37.9514H34.9411C32.6814 37.9514 32.2029 35.4709 32.1896 34.798C32.1896 34.6001 32.1896 32.6209 32.1896 32.3043C32.1896 31.8953 31.9238 31.2092 31.5117 30.998H32.1497C32.2295 31.0244 32.6283 31.1828 32.6283 32.7133C32.6283 32.7133 32.6017 34.4813 32.6017 34.5869C32.6017 35.3653 33.2264 36.2493 34.117 36.2493L41.4543 36.2361C41.4543 36.0382 41.6536 35.2994 42.0125 34.9035C42.2119 34.6792 43.7937 33.2543 43.9665 33.1091H44.4317C44.3652 33.1751 43.5943 33.848 43.4348 34.0327L43.4215 34.0063ZM45.8274 35.4973C46.0135 35.748 46.2261 35.9986 46.4521 36.2229C47.2496 36.8563 47.6218 36.1702 47.0901 35.4577C46.8775 35.1674 46.0666 35.2466 45.8274 35.4973Z" fill="white"/>
<path d="M37.9586 40.1946C37.9586 40.5508 36.8288 41.4876 36.7623 41.5404C36.6826 41.1578 36.3901 40.7487 35.5527 39.9043L36.7889 38.6772C37.6263 39.5085 37.9586 39.6932 37.9586 40.1946Z" fill="white"/>
<path d="M40.1117 26.0898C40.3642 26.3405 40.8959 27.0002 40.5769 27.3301C40.2978 27.6071 39.8591 28.0557 39.8591 28.0557C39.8326 27.8974 39.4205 27.5016 39.4205 27.5016C39.4205 27.5016 39.4205 28.6891 39.4205 28.8342C39.4072 29.3752 39.2078 29.5203 39.2078 29.5203C39.2078 29.5203 40.2047 30.4967 40.2047 31.7633C40.2047 32.3702 40.2047 32.9376 40.2047 33.0563C40.218 33.2938 40.125 33.5445 39.9522 33.716C39.8591 33.8216 38.942 34.7452 38.7958 34.8639C38.5831 35.0487 38.3172 35.1542 38.0381 35.141H34.5954C34.0505 35.141 33.4922 34.7188 33.4922 34.2966C33.4922 34.191 33.5055 33.0299 33.5055 33.0299C33.6783 33.2279 33.8644 33.4654 34.2897 33.4654C34.6353 33.4654 34.9809 33.2015 35.074 33.0959C35.167 32.9904 37.6792 30.4043 37.6792 30.4043C37.6792 30.4043 36.5095 29.3224 35.7386 28.8078C35.3664 28.5571 34.8613 28.8738 34.7815 29.2036C34.5423 30.2328 34.7815 31.7897 34.7815 31.7897L33.8378 30.8529C33.4523 30.4703 33.4656 29.6126 33.9308 29.164C33.9973 29.0849 34.7018 28.3196 35.5791 28.3196H36.9482C37.8653 28.3196 38.8755 29.23 38.8755 29.23C38.9553 29.1377 39.0084 29.0321 39.0217 28.9134C39.0217 28.4384 39.0084 27.1849 39.0084 27.1849C38.3172 26.4988 38.2242 25.7863 38.5565 25.4565C39.1812 24.8364 39.4072 24.6252 39.4072 24.6252C39.4072 24.6252 39.3806 25.3773 40.1117 26.0898ZM35.7917 32.9508C35.4461 33.307 35.393 33.3862 35.074 33.5841H38.9553C40.0053 33.5841 39.7927 32.9376 39.6066 32.6077C39.2211 31.9348 37.9982 30.6946 37.9982 30.6946C37.9982 30.6946 35.8582 32.8848 35.7917 32.9508Z" fill="white"/>
<path d="M31.3665 36.4604H30.7285C30.7285 36.4604 31.4064 36.8299 31.4064 37.7931V40.8673C31.4064 42.8596 33.0679 44.7068 35.0883 44.7068H36.7765C37.7867 44.7068 38.1455 44.4693 38.757 43.9284C38.983 43.7305 39.2754 43.4006 39.3817 43.2818C39.7273 42.886 40.1128 42.5694 40.1128 41.5402V40.5375C40.1128 39.6666 39.6077 39.3104 39.3551 39.0597C39.1956 38.9014 38.7703 38.4924 38.7703 38.4924V40.5506C38.7703 40.5506 39.1956 40.9993 39.3817 41.1444C40.259 41.8305 39.5678 43.018 38.7437 43.018C38.5842 43.018 35.2744 43.018 35.0352 43.018C33.6794 43.0444 31.8318 41.8437 31.8318 39.8118V38.1493C31.8451 36.4604 31.3665 36.4604 31.3665 36.4604Z" fill="white"/>
<path d="M35.4332 40.2078C35.4332 40.564 34.3034 41.5008 34.2369 41.5536C34.1572 41.1709 33.8648 40.7619 33.0273 39.9175L34.2635 38.6904C35.0876 39.5085 35.4332 39.6932 35.4332 40.2078Z" fill="white"/>
<path d="M22.4738 53.8637H20.48C19.8553 53.8637 19.9084 53.3491 19.842 52.9137V50.0901C19.842 50.0901 20.2806 50.0769 20.7724 50.0769C21.3174 50.0769 22.0086 49.9978 22.6732 50.3672C22.3276 49.6415 21.5832 49.1929 20.7724 49.2193H19.8553V48.3089C19.8553 48.3089 19.8553 47.5173 19.6559 47.293H20.9718C22.1016 47.293 22.9789 47.2798 23.8961 47.8735C23.8961 47.8735 23.7233 46.3826 21.5301 46.3826H17.25C17.25 46.3826 17.9944 47.0159 17.9678 48.2957L17.9944 53.4415C17.9944 54.7345 18.5128 54.7741 18.5128 54.7741H22.7264C23.6834 54.7741 24.0157 54.1012 24.0157 53.7317L24.029 53.2436C24.029 53.2436 23.7233 53.8637 22.4738 53.8637Z" fill="white"/>
<path d="M33.6921 53.4281V49.8261C33.6921 48.4275 32.549 48.0581 31.685 48.0581C30.5552 48.0581 30.2096 48.9949 30.0633 49.3247C29.8108 48.4539 28.9202 48.0581 28.2024 48.0581C26.8333 48.0581 26.4877 49.3511 26.4877 49.3511C26.4877 49.3511 26.4612 48.0977 25.3579 48.0977H24.2812C24.2812 48.0977 24.906 48.3484 24.906 49.4303V53.4281C24.906 54.7476 25.4377 54.774 25.4377 54.774H27.2188C26.7935 54.4573 26.5409 53.9559 26.5409 53.4149V49.8657C26.5675 49.7074 26.8333 49.1796 27.591 49.1796C28.0296 49.1796 28.5082 49.6282 28.4949 50.1296V53.4281C28.4949 54.7608 29.0266 54.774 29.0266 54.774H30.8077C30.3824 54.4441 30.1298 53.9559 30.1298 53.4149V49.8657C30.3026 49.3511 30.8609 49.0609 31.3926 49.2324C31.7913 49.3643 32.0705 49.7206 32.0838 50.1428C32.0838 50.1428 32.0838 53.1511 32.0838 53.4281C32.097 54.774 32.6154 54.7608 32.6154 54.7608C33.5459 54.7608 34.3966 54.7608 34.3966 54.7608C33.9579 54.4441 33.7054 53.9559 33.6921 53.4281Z" fill="white"/>
<path d="M36.8026 53.4281C36.8026 53.9559 37.0552 54.4573 37.4805 54.7739C37.4805 54.7739 36.6298 54.7739 35.6994 54.7739C35.6994 54.7739 35.1544 54.7871 35.1544 53.4413V49.4171C35.1544 48.3616 34.543 48.0845 34.543 48.0845H35.6196C36.0051 48.0845 36.7893 48.0845 36.7893 49.5754V53.4017L36.8026 53.4281Z" fill="white"/>
<path d="M42.2791 48.599C42.2791 48.599 42.1063 48.124 41.3752 48.124C40.2587 48.124 39.9929 49.4435 39.9929 49.4435C39.8998 48.4011 39.6207 48.0977 38.8364 48.0977H37.7598C37.7598 48.0977 38.3845 48.3483 38.3845 49.4303V53.4281C38.3845 54.7475 38.9162 54.7739 38.9162 54.7739H40.6973C40.272 54.4573 40.0194 53.9559 40.0194 53.4281V50.1428C40.0593 49.8657 40.2188 49.615 40.4581 49.4699C41.0562 49.074 41.8405 49.1928 42.3057 49.7337L42.2791 48.599Z" fill="white"/>
<path d="M50.5589 48.8368C50.9311 48.8368 51.29 48.9291 51.609 49.1007V48.0979H50.1202V46.5674C49.8012 47.0688 49.3892 47.5174 48.9239 47.9C48.4188 48.309 47.3555 48.8236 47.3555 48.8236L48.4853 48.8368V53.4811C48.4853 54.7742 49.0303 54.7742 49.0303 54.7742C50.0006 54.7742 50.7981 54.7742 50.7981 54.7742C50.3728 54.4707 50.1202 53.9825 50.1069 53.4679V48.8368C50.5855 48.8368 50.2665 48.8368 50.5589 48.8368Z" fill="white"/>
<path d="M55.9578 50.8554C54.9609 51.8845 54.1767 51.7262 53.5519 52.4915C53.5519 52.4915 53.6583 53.5206 54.4425 53.8768C54.7083 53.9956 55.8116 54.3914 56.5161 53.1776V54.2595C56.5161 54.2595 56.0642 54.7872 54.6153 54.7872C52.874 54.7872 51.6777 53.4282 51.6777 51.5811C51.6777 49.7603 52.6481 48.0846 54.4957 48.0714C56.2901 48.045 57.2737 49.4964 55.9578 50.8554ZM54.8679 50.4332C55.1603 49.8922 55.3995 48.52 54.3893 48.5992C53.2196 48.6915 53.4456 51.7658 53.4456 51.7658C53.8311 51.3436 54.4159 51.2512 54.8679 50.4332Z" fill="white"/>
<path d="M35.9784 47.5567C36.4303 47.5435 36.7759 47.1741 36.7759 46.7387C36.7626 46.2901 36.3905 45.947 35.9518 45.947C35.5132 45.9602 35.1543 46.3165 35.1543 46.7519C35.1543 47.2005 35.5265 47.5567 35.9784 47.5567Z" fill="white"/>
<path d="M44.1262 54.0086C43.7274 54.0086 43.435 53.5864 43.435 53.1642C43.435 51.5017 44.8041 51.2642 45.1762 50.8288V53.6392C45.0034 53.7711 44.8439 54.0086 44.1262 54.0086ZM45.1762 50.1823C44.7642 50.8948 41.5475 51.0531 42.0393 53.5205C42.2387 54.4968 42.89 54.7871 43.7141 54.7871C44.5116 54.7871 45.0034 54.3781 45.2028 53.9823C45.3225 54.7211 45.7079 54.7739 45.7079 54.7739C46.6384 54.7739 47.4891 54.7739 47.4891 54.7739C47.0637 54.4572 46.7979 53.9691 46.7979 53.4413V49.6809C46.7979 48.7837 45.801 48.0844 44.7376 48.0844C44.1394 48.0713 43.5679 48.2428 43.0761 48.5726V49.7337C43.0761 49.7337 43.4483 48.8101 44.3654 48.8101C45.2693 48.8101 45.3357 49.2587 45.3357 49.483C45.349 49.7205 45.3092 49.9712 45.1762 50.1823Z" fill="white"/>
<path d="M59.8906 52.9532C59.9039 53.4281 59.4785 54.0483 58.5746 54.0483C57.6442 54.0483 57.272 53.1115 57.272 53.1115V54.299C57.7771 54.6156 58.362 54.774 58.9601 54.774C60.1697 54.774 61.4059 53.8636 61.3793 52.5837C61.366 52.1615 61.2198 51.7525 60.9672 51.4226C60.5552 50.8817 59.8108 50.499 59.226 50.1428C58.8937 49.9449 58.7209 49.5754 58.7209 49.4567C58.7076 49.2324 58.8272 48.7838 59.7178 48.7838C60.5951 48.7838 60.9805 49.7074 60.9805 49.7074V48.5859C60.4887 48.2428 59.8906 48.0581 59.2791 48.0581C58.2158 48.0581 57.2454 48.7574 57.272 49.6546C57.2853 50.4463 57.6176 50.9476 58.2689 51.4358C58.5614 51.6469 58.8671 51.8316 59.1861 52.0032C59.6912 52.2802 59.8773 52.6233 59.8906 52.9532Z" fill="white"/>
</svg>
