<svg width="103" height="27" viewBox="0 0 103 27" fill="none" xmlns="http://www.w3.org/2000/svg">
<g clip-path="url(#clip0_24755_10798)">
<path d="M9.11635 13.4989C10.473 11.5997 12.0476 11.9776 13.9036 12.1909C13.4111 11.6667 13.1687 11.0055 13.1687 10.2954C13.1687 8.65976 14.5307 7.3334 16.2115 7.3334C19.7217 7.3334 19.2881 11.2919 17.7655 11.2919C17.4237 11.2919 17.1491 11.0527 17.0749 10.7693C17.0138 10.5354 17.0725 10.2604 16.9916 10.0387C16.8776 9.7294 16.5626 9.50236 16.21 9.50236C15.9829 9.50236 15.7787 9.59153 15.6288 9.73546C15.1562 10.1895 15.4514 11.0984 15.7596 11.5631C16.1886 12.2076 16.9419 12.6236 17.806 12.6152L17.9467 12.6109C20.3534 12.3412 21.0615 10.3003 20.4505 8.44823C20.1851 7.64373 19.259 6.45982 18.2159 5.96388C20.1369 4.85617 20.7265 2.30171 20.6585 0.785645L0 13.4992L20.6585 26.2143C20.7266 24.6975 20.1369 22.143 18.2159 21.0361C19.259 20.5394 20.1851 19.3554 20.4505 18.5509C21.0615 16.6989 20.3534 14.658 17.9467 14.3875L17.806 14.3832C16.9419 14.3746 16.1886 14.7908 15.7596 15.4353C15.4514 15.9 15.1562 16.8089 15.6288 17.2629C15.7787 17.407 15.9829 17.496 16.21 17.496C16.5626 17.496 16.8776 17.2698 16.9916 16.9598C17.0727 16.7381 17.0138 16.4638 17.0749 16.2291C17.1491 15.9457 17.4237 15.7065 17.7655 15.7065C19.2881 15.7065 19.7217 19.665 16.2115 19.665C14.5307 19.665 13.1687 18.3387 13.1687 16.703C13.1687 15.993 13.4111 15.3317 13.9036 14.8075C12.0476 15.0215 10.473 15.3997 9.11635 13.4989Z" fill="#9B804D"/>
<path d="M34.4315 19.9148V13.4224C34.4315 13.3417 34.4293 13.2624 34.4271 13.1847V13.1804L34.4228 13.0975V13.0932V13.0867L34.4213 13.0716V13.0651C34.2752 10.7887 32.7129 10.0071 30.7658 10.0071C29.2379 10.0071 28.022 10.4985 27.4056 11.0995V12.3101C28.2369 11.8637 29.4276 11.4386 30.3598 11.4386C31.5183 11.4386 32.329 11.7859 32.3313 13.0651L32.332 13.0759V13.1865L32.3364 13.8142C29.3141 14.1075 26.7852 14.6537 26.7852 17.2608C26.7852 19.1699 28.1296 20.4917 30.839 20.4917C31.7682 20.4917 33.6675 20.3224 34.4315 19.9148ZM32.3364 18.9642C31.7383 19.2088 30.6746 19.2324 30.1056 19.0634C29.776 18.9651 29.5053 18.8142 29.3065 18.5902C29.0449 18.2954 28.9042 17.881 28.9042 17.334C28.9042 15.5353 30.3733 15.1361 32.3364 15.1361V18.9642Z" fill="#253168"/>
<path d="M73.7855 20.292V18.705C73.605 18.7584 73.4613 18.7949 73.2625 18.7949C72.5046 18.7949 72.1979 18.2913 72.1979 17.5363V11.4363H73.7855V10.0467H72.1979V7.59204L69.9963 8.96182L69.9971 10.0467H68.8301V11.4363H69.9971V17.8646C69.9971 19.2123 70.7549 20.49 72.6668 20.49C73.1906 20.49 73.5867 20.3818 73.7855 20.292Z" fill="#253168"/>
<path d="M67.6088 17.4072C67.6088 16.2241 67.1492 15.2085 65.1402 14.4193C64.2409 14.0627 63.6092 13.6491 63.6092 12.8225C63.6092 12.1079 64.1262 11.4877 65.0829 11.4877C65.8101 11.4877 66.6406 11.9593 67.0176 12.3577V11.1213C65.7214 9.17022 61.3517 9.75224 61.3517 12.9352C61.3517 13.9873 61.7532 15.0394 63.7056 15.7723C64.7578 16.1669 65.3536 16.5608 65.3536 17.4247C65.3536 19.2782 62.3757 19.0543 61.3418 18.2871L61.3526 19.9068C61.9614 20.2146 62.7307 20.4896 63.9359 20.4896C66.1934 20.4896 67.6088 19.0611 67.6088 17.4072Z" fill="#253168"/>
<path d="M92.97 20.2148L92.9685 13.0596C92.9685 11.4483 91.9842 10.0046 88.9918 10.0046C87.3003 10.0046 86.0178 10.2819 85.0703 10.7269L85.0711 20.2148H87.3385L87.3377 11.7074C87.7652 11.5413 88.1552 11.43 88.8985 11.43C90.3301 11.43 90.7018 12.2818 90.7018 13.0962L90.7026 20.2148H92.97Z" fill="#253168"/>
<path d="M46.4115 10.0194C43.8749 9.93258 42.5381 10.2297 41.498 10.7294V20.2151H43.7632V11.7472C44.2825 11.4509 45.5389 11.281 46.4107 11.6336L46.4115 10.0194Z" fill="#253168"/>
<path d="M39.0664 10.0527H36.8633V20.2149H39.0664V10.0527Z" fill="#253168"/>
<path d="M59.5279 19.9146V13.4222C59.5279 13.3414 59.5258 13.2622 59.5236 13.1845V13.1802L59.5193 13.0972V13.0929V13.0865L59.5178 13.0713V13.0648C59.3716 10.7885 57.8093 10.0068 55.8623 10.0068C54.3344 10.0068 53.1185 10.4982 52.5013 11.0993V12.3098C53.3333 11.8634 54.524 11.4383 55.4563 11.4383C56.6148 11.4383 57.4254 11.7857 57.4277 13.0648V13.0757V13.1862L57.4321 13.814C54.4098 14.1073 51.8809 14.6535 51.8809 17.2606C51.8809 19.1697 53.2253 20.4915 55.9339 20.4915C56.8639 20.4915 58.764 20.3222 59.5279 19.9146ZM57.4321 18.964C56.8333 19.2085 55.7703 19.2322 55.2013 19.0631C54.8717 18.9649 54.6003 18.814 54.4022 18.59C54.1399 18.2952 53.9999 17.8807 53.9999 17.3337C53.9999 15.5351 55.4682 15.1358 57.4321 15.1358V18.964Z" fill="#253168"/>
<path d="M82.6373 19.9146V13.4222C82.6373 13.3414 82.6358 13.2622 82.633 13.1845L82.6322 13.1802L82.6279 13.0972V13.0929V13.0865L82.6271 13.0713L82.6264 13.0648C82.4811 10.7885 80.9179 10.0068 78.9709 10.0068C77.4437 10.0068 76.2278 10.4982 75.6107 11.0993V12.3098C76.4427 11.8634 77.6327 11.4383 78.5656 11.4383C79.7242 11.4383 80.5348 11.7857 80.5371 13.0648V13.0757V13.1862L80.5414 13.814C77.5192 14.1073 74.9902 14.6535 74.9902 17.2606C74.9902 19.1697 76.3354 20.4915 79.0441 20.4915C79.974 20.4915 81.8741 20.3222 82.6373 19.9146ZM80.5414 18.964C79.9434 19.2085 78.8804 19.2322 78.3107 19.0631C77.9819 18.9649 77.7104 18.814 77.5116 18.59C77.25 18.2952 77.1093 17.8807 77.1093 17.3337C77.1093 15.5351 78.5784 15.1358 80.5414 15.1358V18.964Z" fill="#253168"/>
<path d="M102.426 19.9146V13.4222C102.426 13.3414 102.424 13.2622 102.422 13.1845L102.421 13.1802L102.417 13.0972V13.0929V13.0865L102.415 13.0713V13.0648C102.269 10.7885 100.707 10.0068 98.76 10.0068C97.2321 10.0068 96.0161 10.4982 95.3998 11.0993V12.3098C96.2318 11.8634 97.4217 11.4383 98.3539 11.4383C99.5125 11.4383 100.323 11.7857 100.326 13.0648V13.0757V13.1862L100.331 13.814C97.3083 14.1073 94.7793 14.6535 94.7793 17.2606C94.7793 19.1697 96.1237 20.4915 98.8332 20.4915C99.7623 20.4915 101.662 20.3222 102.426 19.9146ZM100.331 18.964C99.7325 19.2085 98.6695 19.2322 98.0998 19.0631C97.771 18.9649 97.4995 18.814 97.3006 18.59C97.0391 18.2952 96.8984 17.8807 96.8984 17.3337C96.8984 15.5351 98.3667 15.1358 100.331 15.1358V18.964Z" fill="#253168"/>
<path d="M39.1395 7.60735C39.1395 6.99559 38.6317 6.50952 37.9649 6.50952C37.3172 6.50952 36.791 6.99559 36.791 7.60735C36.791 8.20081 37.3172 8.6861 37.9649 8.6861C38.6317 8.6861 39.1395 8.20081 39.1395 7.60735Z" fill="#253168"/>
</g>
<defs>
<clipPath id="clip0_24755_10798">
<rect width="103" height="26" fill="white" transform="translate(0 0.5)"/>
</clipPath>
</defs>
</svg>
