<svg width="109" height="29" viewBox="0 0 109 29" fill="none" xmlns="http://www.w3.org/2000/svg">
<path d="M104.153 12.8434V8.1139H99.4146V12.8434H96.8086V1.63452H99.4146V6.08023H104.153V1.63452H106.759V12.8434H104.153Z" fill="black"/>
<path d="M48.2441 1.63452V8.63415C48.2441 9.39086 48.3389 10.1003 48.5758 10.6205C48.8127 11.1408 49.1444 11.6137 49.5234 11.9448C49.9499 12.2758 50.4711 12.5596 51.0396 12.7015C51.6082 12.8434 52.2715 12.938 53.0296 12.938C53.7403 12.938 54.4037 12.8434 54.9723 12.7015C55.5408 12.5596 56.0146 12.2758 56.3937 11.9448C56.7727 11.6137 57.1044 11.1408 57.2939 10.6205C57.5308 10.053 57.6256 9.39086 57.6256 8.63415V1.63452H55.2092V8.58685C55.2092 9.29627 55.0196 9.86381 54.688 10.2895C54.3563 10.7151 53.7877 10.9516 53.0296 10.9516C52.2715 10.9516 51.703 10.7151 51.3713 10.2895C51.0396 9.86381 50.8501 9.29627 50.8501 8.58685V1.63452H48.2441Z" fill="black"/>
<path d="M40.757 12.8434V3.71549H37.7246V1.63452H46.4427V2.62771C46.4427 3.24254 45.9689 3.71549 45.353 3.71549H43.363V12.8434H40.757Z" fill="black"/>
<path d="M82.4531 1.63452H85.0591V12.8434H82.4531V1.63452Z" fill="black"/>
<path d="M73.8286 7.59366L73.9234 7.68825L77.24 11.9448C77.6665 12.465 78.2824 12.7961 78.9931 12.7961H81.0779L76.3398 6.74236L76.2924 6.64777L76.3398 6.55318L80.2251 1.63452H77.5243L73.9234 6.45859L73.8286 6.55318V6.364V1.63452H71.2227V12.8434H73.8286V7.78284V7.59366Z" fill="black"/>
<path d="M67.8589 12.8434C67.1008 12.8434 66.3427 12.4177 65.9636 11.8029L63.9263 8.49226H62.647V12.8907H60.041V1.63452H64.6844C65.8689 1.63452 66.8165 1.96558 67.4325 2.53312C68.0958 3.14795 68.4275 3.99926 68.4275 4.99245C68.4275 5.51269 68.2853 6.03293 68.001 6.55318C67.7167 7.07342 67.2429 7.49907 66.5796 7.83014L66.4375 7.87743L69.612 12.7961H67.8589V12.8434ZM62.647 6.74236H64.1632C64.6844 6.74236 65.1108 6.60047 65.3951 6.3167C65.6794 6.03293 65.8215 5.65458 65.8215 5.18163C65.8215 4.70868 65.6794 4.33032 65.4425 4.04655C65.1582 3.76279 64.7791 3.6209 64.2106 3.6209H62.6944V6.74236H62.647Z" fill="black"/>
<path d="M87.1914 12.3704V10.2421C87.9969 10.6205 89.0867 10.9989 90.1764 10.9989C91.4557 10.9989 92.0717 10.5732 92.0717 9.7219C92.0717 8.72871 91.2188 8.63412 89.4657 7.8774C88.2812 7.35716 87.1914 6.55315 87.1914 4.66136C87.1914 2.4858 88.8497 1.44531 91.1714 1.44531C92.4033 1.44531 93.4457 1.72908 94.0143 1.96555V4.04652C93.4457 3.76276 92.4033 3.43169 91.3136 3.43169C90.1764 3.43169 89.6552 3.85735 89.6552 4.56677C89.6552 5.32348 90.3186 5.55996 91.4557 5.98561C92.9245 6.74233 94.6776 7.07339 94.6776 9.58001C94.6776 11.7556 92.9245 12.9379 90.6028 12.9379C89.2288 12.9852 88.0916 12.7488 87.1914 12.3704Z" fill="black"/>
<path d="M91.2656 27.4574V16.2485H98.278V17.2417C98.278 17.8566 97.8042 18.3295 97.1883 18.3295H93.8242V20.7415H97.6147V22.6333H93.8242V25.3764H98.278V27.4574H91.2656Z" fill="black"/>
<path d="M65.584 27.4574V16.2485H66.8633C67.6214 16.2485 68.1899 16.8634 68.1899 17.5728V25.4237H72.3121V27.4574H65.584Z" fill="black"/>
<path d="M49.5215 27.4574V16.2485H52.1274V27.4574H49.5215Z" fill="black"/>
<path d="M62.2671 27.4574C61.509 27.4574 60.7509 27.0317 60.3719 26.4169L58.3345 23.1063H57.0552V27.5047H54.4492V16.2485H59.0926C60.2771 16.2485 61.2247 16.5796 61.8407 17.1471C62.504 17.762 62.8357 18.6133 62.8357 19.6065C62.8357 20.1267 62.6935 20.6469 62.4092 21.2145C62.125 21.7347 61.6511 22.1604 60.9878 22.4914L60.8457 22.5387L64.0202 27.4574H62.2671ZM57.1026 21.3564H58.6188C59.1873 21.3564 59.5664 21.2145 59.8507 20.9307C60.1349 20.6469 60.2771 20.2686 60.2771 19.7956C60.2771 19.3227 60.1349 18.9443 59.898 18.6606C59.6138 18.3768 59.2347 18.2349 58.6661 18.2349H57.1499L57.1026 21.3564Z" fill="black"/>
<path d="M43.8367 16.2485H40.8517L36.6348 27.4574H38.4826C38.9564 27.4574 39.3829 27.1736 39.525 26.7007L39.9514 25.3764H44.5L45.1634 27.4574H47.9588L43.8367 16.2485ZM40.6148 23.39L41.6098 20.5524C41.8467 19.9375 42.0836 19.2281 42.2257 18.7552H42.2731C42.4153 19.2754 42.6522 19.8902 42.8417 20.5524L43.8367 23.39H40.6148Z" fill="black"/>
<path d="M100.361 26.9844V24.8562C101.167 25.2345 102.257 25.6129 103.346 25.6129C104.626 25.6129 105.242 25.1872 105.242 24.3359C105.242 23.3427 104.389 23.2481 102.636 22.4914C101.451 21.9712 100.361 21.1672 100.361 19.2754C100.361 17.0998 102.02 16.0593 104.341 16.0593C105.573 16.0593 106.616 16.3431 107.184 16.5796V18.6605C106.616 18.3768 105.573 18.0457 104.483 18.0457C103.346 18.0457 102.825 18.4714 102.825 19.1808C102.825 19.9375 103.488 20.174 104.626 20.5996C106.094 21.3563 107.848 21.6874 107.848 24.194C107.848 26.3696 106.094 27.552 103.773 27.552C102.399 27.5992 101.262 27.3628 100.361 26.9844Z" fill="black"/>
<path d="M78.9941 16.2485H80.6051C81.3632 16.2485 82.0739 16.6269 82.5003 17.289L85.6275 22.3023C85.9592 22.8698 86.3856 23.5792 86.6225 24.0995H86.6699C86.6225 23.5792 86.6225 22.9171 86.6225 22.3969V16.2485H88.8968V27.4574H86.0539L82.2634 21.4037C81.9318 20.8361 81.5527 20.174 81.2684 19.6538H81.221C81.221 20.1267 81.2684 20.6942 81.2684 21.2618V27.4574H78.9941V16.2485Z" fill="black"/>
<path d="M74.0176 16.2485H76.6235V27.4574H74.0176V16.2485Z" fill="black"/>
<path d="M17.1143 0.310166C24.3163 1.06688 29.9546 7.12061 29.9546 14.5459C29.9546 22.4441 23.5582 28.8289 15.6455 28.8289C7.73289 28.8289 1.28906 22.4441 1.28906 14.5459C1.28906 6.64766 7.68551 0.215576 15.6455 0.215576C16.1193 0.215576 16.6405 0.262871 17.1143 0.310166ZM17.8724 27.8357C25.2165 26.6061 30.1915 19.6537 28.9596 12.2757C27.9172 6.17472 22.9422 1.72901 17.067 1.11418C15.8824 0.972292 14.6505 1.01959 13.4186 1.20877C11.9498 1.44524 10.5758 1.91819 9.34384 2.58031C15.7877 4.80317 19.2939 8.1611 19.5308 11.5663C19.6729 13.6946 18.6779 15.208 17.3512 16.4377L26.5432 15.8228C26.7801 15.8228 26.8748 16.1066 26.5905 16.2012L4.65312 22.4441C6.88003 25.5183 10.3388 27.5519 14.1767 27.9303C15.4086 28.0722 16.6405 28.0722 17.8724 27.8357ZM11.855 14.8297C13.0396 10.3367 11.6655 5.60718 8.39622 3.10056C3.9424 5.93824 1.33644 11.2353 2.28406 16.7687C2.56835 18.6132 3.23169 20.2686 4.17931 21.7347C7.68551 20.7888 10.7653 18.9443 11.855 14.8297Z" fill="white"/>
<path d="M17.872 27.8358C25.2161 26.6061 30.1911 19.6538 28.9592 12.2758C27.9168 6.17478 22.9418 1.72907 17.0665 1.11424C15.882 0.972352 14.6501 1.01965 13.4182 1.20883C11.9494 1.4453 10.5753 1.91825 9.3434 2.58037C15.7872 4.80323 19.2934 8.16116 19.5303 11.5664C19.6725 13.6946 18.6775 15.2081 17.3508 16.4377L26.5427 15.8229C26.7796 15.8229 26.8744 16.1067 26.5901 16.2013L4.65267 22.4442C6.87958 25.5183 10.3384 27.552 14.1763 27.9304C15.4082 28.0723 16.6401 28.0723 17.872 27.8358ZM11.8546 14.8297C13.0391 10.3367 11.6651 5.60724 8.39578 3.10062C3.94196 5.9383 1.336 11.2353 2.28362 16.7688C2.56791 18.6133 3.23124 20.2686 4.17886 21.7348C7.68506 20.7889 10.7648 18.9444 11.8546 14.8297Z" fill="#C70A0C"/>
</svg>
