<svg width="113" height="23" viewBox="0 0 113 23" fill="none" xmlns="http://www.w3.org/2000/svg">
<g clip-path="url(#clip0_24755_10794)">
<path fill-rule="evenodd" clip-rule="evenodd" d="M27.9341 4.92511V15.2053C27.9341 16.1516 27.5254 17.5666 23.7616 17.5666C19.9978 17.5666 19.5881 16.1516 19.5881 15.2053V4.92511H17.4501V15.3225C17.4501 17.8681 19.5298 18.9774 23.39 18.9774C25.3643 18.9774 26.8194 18.6422 27.911 18.3305V22.9776H30.0158L30.0048 4.92511H27.9341ZM8.53969 0.0192871C6.28623 0.0192871 2.9432 0.494997 2.9432 2.82771V4.92511H0.501953V6.12813H2.9432V18.6504H4.98979V6.12813H8.21132L8.21232 4.92511H4.98979V3.08644C4.98979 1.29566 7.05044 1.01043 8.53969 1.01043C11.004 1.01043 12.2302 1.19888 12.2302 3.93498L12.2292 18.6504H14.2748V0.350348H12.2302C11.0904 0.350348 10.5401 0.0192871 8.53969 0.0192871ZM110.423 6.23815C109.186 6.23815 108.182 7.25985 108.182 8.51788C108.182 9.77795 109.186 10.8007 110.423 10.8007C111.673 10.8007 112.672 9.77795 112.672 8.51788C112.672 7.25985 111.673 6.23815 110.423 6.23815Z" fill="#FF8200"/>
<path fill-rule="evenodd" clip-rule="evenodd" d="M94.0914 8.03187C95.6821 7.84851 97.1071 7.75887 98.0048 7.75581C97.5108 5.82343 95.2533 5.06861 91.5286 5.06861C88.3111 5.06861 85.4401 6.19524 85.4401 6.19524V8.87938C85.4401 8.87938 87.4294 7.25464 91.5839 7.25464C92.9446 7.25464 93.6957 7.50115 94.0914 8.03187ZM44.449 14.7763C44.3335 16.2636 42.7539 17.0683 41.2195 17.0683C37.8955 17.0683 37.4295 15.6025 37.4295 12.2542C37.4295 8.90994 38.0813 7.44716 41.0558 7.44716C42.9839 7.44716 44.3335 8.2468 44.449 9.73301C44.5414 10.935 44.5896 11.5493 44.5896 12.2542C44.5896 12.9611 44.5414 13.6467 44.449 14.7763ZM44.5896 5.88863C43.2168 5.3467 42.1725 5.06352 40.4743 5.06352C35.2916 5.06352 33.7109 7.04581 33.7109 12.2542C33.7109 17.4411 36.0347 19.4469 41.2195 19.4469C44.3787 19.4469 46.6754 18.2479 48.3082 18.2479V0.819824H44.5896V5.88863ZM104.942 5.38236L101.223 5.38338V7.6458H104.942V5.38236ZM94.5252 14.7427C94.5252 16.7026 92.7176 17.1977 91.4794 17.1977C89.3676 17.1977 88.286 16.5529 88.286 15.1655C88.286 12.8226 91.2485 11.6175 94.5252 11.4168V14.7427ZM105.725 8.9843L104.646 8.98634C89.5694 8.98634 84.6839 11.8263 84.6839 15.0738C84.6839 18.09 87.2406 19.4132 91.379 19.4132C94.0492 19.4132 96.7516 18.2428 98.1655 18.2428V10.9299C99.9289 10.7038 101.247 10.6671 101.247 10.6671V19.1219H104.963V12.7574C104.963 10.4838 105.725 8.9843 105.725 8.9843ZM75.2232 17.0683C73.6878 17.0683 72.1091 16.2636 71.9936 14.7763C71.9013 13.6467 71.8541 12.9611 71.8541 12.2542C71.8541 11.5493 71.9013 10.935 71.9936 9.73199C72.1091 8.2468 73.4598 7.44716 75.3879 7.44716C78.3614 7.44716 79.0131 8.90994 79.0131 12.2542C79.0131 15.6025 78.5482 17.0683 75.2232 17.0683ZM75.9673 5.06352C74.2702 5.06352 73.2248 5.3467 71.8541 5.88863V0.819824H68.1354V18.2479C69.7673 18.2479 72.0619 19.4469 75.2232 19.4469C80.407 19.4469 82.7317 17.4411 82.7317 12.2542C82.7317 7.04581 81.1501 5.06352 75.9673 5.06352ZM61.351 14.8711C61.351 15.8174 61.0467 17.2293 58.258 17.2293C55.4693 17.2293 55.169 15.8174 55.169 14.8711V5.39458H51.4474V15.7919C51.4484 18.3375 54.0262 19.4469 57.8884 19.4469C61.3038 19.4469 63.509 18.3854 64.6026 18.2673L65.0676 18.2184V5.39458H61.351V14.8711Z" fill="#006496"/>
</g>
<defs>
<clipPath id="clip0_24755_10794">
<rect width="113" height="23" fill="white"/>
</clipPath>
</defs>
</svg>
