<svg width="150" height="20" viewBox="0 0 150 20" fill="none" xmlns="http://www.w3.org/2000/svg">
<path d="M10.3259 13.9175C10.3259 13.269 10.6751 13.1693 11.2737 13.5185C12.3711 14.1171 13.5683 14.7655 13.5683 14.7655C13.6182 14.4164 13.9175 14.1171 14.566 14.2667C15.1646 14.4164 15.863 14.566 15.863 14.566C15.863 14.566 15.5138 13.718 15.3143 13.3688C15.015 12.6704 15.3143 12.3711 15.6136 12.2714C15.6136 12.2714 15.2145 11.9721 14.9152 11.7725C14.3166 11.3735 14.4662 10.9245 15.015 10.6751C15.8131 10.3259 16.8108 9.87695 16.8108 9.87695C16.5115 9.67742 16.1124 9.17858 16.5614 8.57998C16.9604 7.98138 17.559 7.18324 17.559 7.18324H15.7632C15.1147 7.18324 14.9651 6.63452 14.9651 6.28533C14.9651 6.28533 13.9175 7.03359 13.1693 7.53242C12.5208 7.98138 11.9721 7.53242 12.0718 6.78417C12.2215 5.63685 12.3711 4.33987 12.3711 4.33987C11.9721 4.58929 11.3236 4.58929 11.0243 3.9408C10.5254 3.09278 9.97672 1.94546 9.97672 1.94546C9.97672 1.94546 9.47788 3.0429 9.02893 3.99069C8.72963 4.63917 8.03126 4.63917 7.68207 4.38976C7.68207 4.38976 7.83173 5.68673 7.98138 6.83405C8.08114 7.58231 7.48254 7.98138 6.88394 7.58231C6.13568 7.08347 5.08813 6.33522 5.08813 6.33522C5.08813 6.6844 4.93848 7.23312 4.28999 7.23312H2.49418C2.49418 7.23312 3.09278 8.08114 3.49185 8.62986C3.89092 9.22847 3.54174 9.7273 3.24243 9.92684C3.24243 9.92684 4.24011 10.3758 5.03824 10.725C5.63685 10.9744 5.7865 11.3735 5.13801 11.8224C4.83871 12.0219 4.43964 12.3212 4.43964 12.3212C4.73894 12.421 5.03824 12.7203 4.73894 13.4187C4.58929 13.7679 4.19022 14.6159 4.19022 14.6159C4.19022 14.6159 4.88859 14.4662 5.4872 14.3166C6.13568 14.1669 6.48487 14.4662 6.48487 14.8154C6.48487 14.8154 7.63219 14.1669 8.72963 13.5683C9.32823 13.2192 9.67742 13.3688 9.67742 13.9674V15.4639C9.67742 16.3618 9.52777 17.3595 9.17858 17.8583C4.88859 17.4094 1.34686 14.0173 1.34686 9.52777C1.34686 4.88859 5.23778 1.09744 9.97672 1.09744C14.7655 1.09744 18.6066 4.83871 18.6066 9.47788C18.6066 13.8178 15.2644 17.3595 10.9245 17.8084V18.9558C16.0126 18.5068 19.9534 14.4164 19.9534 9.47788C20.0033 4.24011 15.5138 0 9.97672 0C4.48952 0 0 4.24011 0 9.52777C0 14.1669 3.44197 18.008 8.08114 18.856C8.87928 19.0056 9.32823 19.1054 9.77719 19.6043C10.276 18.7063 10.3758 16.8108 10.3758 15.7133V13.9175H10.3259Z" fill="#D82F2E"/>
<path d="M50.6818 14.6159V4.43964H55.6202C58.2641 4.43964 59.4613 5.53708 59.5112 6.9837C59.561 7.63219 59.4114 8.28068 58.9624 8.77951C58.5135 9.27835 58.3139 9.47788 57.4659 9.87695L61.2072 14.6159H58.4137L55.1214 10.4257H52.8766V14.6159H50.6818ZM52.9265 9.02893H53.9242C56.6678 9.02893 57.2165 8.57998 57.2165 7.23312C57.2165 5.93615 56.0193 5.73661 54.2235 5.73661H52.8766V9.02893H52.9265ZM28.3838 14.6159L32.8234 4.43964H35.5171L39.9069 14.6159H37.1633L35.9661 11.8723H31.277L30.0798 14.6159H28.3838ZM31.8756 10.5254H35.4174L33.6714 6.48487L31.8756 10.5254ZM43.0995 4.43964H45.4939V14.6159H43.0995V4.43964ZM78.3173 14.2667C77.1699 14.7157 75.7732 14.9152 74.1271 14.9152C72.1317 14.9152 70.5354 14.4164 69.438 13.4686C68.2907 12.5208 67.7419 11.1739 67.7419 9.47788C67.7419 7.73196 68.2907 6.43498 69.438 5.48719C70.5853 4.53941 72.1816 4.09045 74.2767 4.09045C75.6236 4.09045 76.9704 4.2401 78.2674 4.48952V6.13568C76.7709 5.68673 75.3741 5.48719 74.3765 5.48719C73.0795 5.48719 72.0818 5.83638 71.3835 6.48487C70.6851 7.18324 70.3359 8.13103 70.3359 9.428C70.3359 10.6751 70.6851 11.6229 71.4832 12.3212C72.2315 13.0196 73.279 13.3688 74.6259 13.3688C75.8231 13.3688 77.1699 13.1194 78.3672 12.6205V14.2667H78.3173ZM81.2105 14.6159L85.6502 4.43964H88.3439L92.7336 14.6159H89.99L88.7928 11.8723H84.1038L82.9066 14.6159H81.2105ZM84.7024 10.5254H88.2441L86.4982 6.48487L84.7024 10.5254ZM110.592 14.6159L115.032 4.43964H117.725L122.115 14.6159H119.371L118.174 11.8723H113.485L112.288 14.6159H110.592ZM114.084 10.5254H117.626L115.88 6.48487L114.084 10.5254ZM138.477 14.6159L142.917 4.43964H145.61L150 14.6159H147.256L146.059 11.8723H141.37L140.173 14.6159H138.477ZM141.969 10.5254H145.51L143.765 6.48487L141.969 10.5254ZM98.8693 4.43964L105.254 11.6728V4.43964H107.2V14.6159H104.706L98.0712 6.9837V14.6159H96.1257V4.43964H98.8693ZM125.507 14.6159V4.43964H130.446C132.192 4.43964 133.538 4.88859 134.486 5.68673C135.434 6.53475 135.883 7.73196 135.883 9.27835C135.883 10.9744 135.384 12.2714 134.386 13.1693C133.389 14.1171 131.992 14.566 130.196 14.566H125.507V14.6159ZM127.852 13.1693H129.598C130.845 13.1693 131.743 12.87 132.391 12.2714C132.99 11.6728 133.289 10.725 133.339 9.47788C133.339 8.53009 133.089 7.68207 132.591 7.03359C132.241 6.58463 131.842 6.28533 131.393 6.0858C130.895 5.93615 130.246 5.83638 129.298 5.83638H127.852V13.1693Z" fill="black"/>
</svg>
