<svg width="130" height="12" viewBox="0 0 130 12" fill="none" xmlns="http://www.w3.org/2000/svg">
<path d="M123.038 0L117.199 8.44855C116.43 9.55963 115.183 10.63 113.677 10.7452V11.0044H120.171C121.895 11.0044 123.152 9.88196 124.004 8.64565L130 0.000325253L123.038 0Z" fill="#ED1C24"/>
<path d="M123.038 0L117.199 8.44725C116.43 9.55963 115.183 10.63 113.677 10.7449V11.0041H120.171C121.895 11.0041 123.152 9.88163 124.004 8.64533L130 0H123.038Z" fill="url(#paint0_linear_5178_37096)"/>
<path d="M15.4978 11.004V0.928213H18.4391V11.004H15.4978ZM83.3016 11.004L76.2373 5.02092V11.004H73.7543V0.928213H75.8636L82.8342 6.81764V0.928213H85.3172V11.004H83.3016ZM98.6651 4.17916C97.3357 3.52506 95.8399 2.99522 93.8558 2.99522C91.487 2.99522 89.7205 4.22046 89.7205 5.92416C89.7205 7.67079 91.5179 8.90579 93.8344 8.90579C95.7459 8.90579 97.2632 8.41725 98.7591 7.55532V10.0487C97.4385 10.7038 95.6834 11.191 93.7104 11.191C89.6792 11.191 86.5109 9.13412 86.5109 5.92448C86.5109 2.76624 89.742 0.74054 93.7004 0.74054C95.5693 0.74054 97.2632 1.09377 98.6651 1.66524V4.17916ZM34.7999 11.004V0.928213H44.6266V3.08792H37.7386V5.5924H44.4711V7.7534H37.7386V11.004H34.7999ZM100.442 11.004V0.928213H110.643V3.08792H103.382V4.83422H110.528V6.99425H103.382V8.84301H110.611V11.0043H100.442V11.004ZM54.8377 7.22356L58.9005 11.004H55.7624C55.067 11.004 54.6097 10.7861 54.2454 10.4329L51.483 7.7534C51.4303 7.70071 51.3477 7.67079 51.2439 7.67079H49.3636V11.004H46.4233V0.928213H52.7925C56.0945 0.928213 57.4879 2.41269 57.4879 4.05523C57.4872 5.96547 55.7835 6.87976 54.8377 7.22356ZM52.49 5.56085C53.6537 5.56085 54.2151 4.96823 54.2151 4.30438C54.2151 3.63923 53.7165 3.08792 52.49 3.08792H49.3633V5.56085H52.49ZM29.6062 7.22356L33.6673 11.004H30.5306C29.8339 11.004 29.3769 10.7861 29.0136 10.4329L26.2499 7.7534C26.1988 7.70071 26.1146 7.67079 26.0108 7.67079H24.1318V11.004H21.1905V0.928213H27.5593C30.8627 0.928213 32.2548 2.41269 32.2548 4.05523C32.2544 5.96547 30.5507 6.87976 29.6062 7.22356ZM27.2585 5.56085C28.421 5.56085 28.9823 4.96823 28.9823 4.30438C28.9823 3.63923 28.4837 3.08792 27.2585 3.08792H24.1318V5.56085H27.2585ZM10.8977 11.004L9.60841 8.79195H3.97887L2.80502 11.004H0L5.6084 0.938296H8.16395L14.5217 11.004H10.8977ZM5.10003 6.69372H8.3822L6.6785 3.61776L5.10003 6.69372ZM69.6001 11.004L68.3423 8.79195H62.8582L61.7256 11.004H58.9935L64.4581 0.938296H66.9398L73.121 11.004H69.6001ZM63.9588 6.69372H67.1584L65.4963 3.61776L63.9588 6.69372Z" fill="#002157"/>
<defs>
<linearGradient id="paint0_linear_5178_37096" x1="121.838" y1="-3.25257e-05" x2="121.838" y2="11.0042" gradientUnits="userSpaceOnUse">
<stop offset="0.3352" stop-color="#FF1E27"/>
<stop offset="0.6915" stop-color="#E81B23"/>
<stop offset="0.7841" stop-color="#A61319"/>
<stop offset="0.8719" stop-color="#9D1218"/>
<stop offset="0.9551" stop-color="#931116"/>
<stop offset="1" stop-color="#800F14"/>
</linearGradient>
</defs>
</svg>
