<svg width="131" height="40" viewBox="0 0 131 40" fill="none" xmlns="http://www.w3.org/2000/svg">
<g clip-path="url(#clip0_32778_95927)">
<path d="M0.697266 6C0.697266 2.68629 3.37729 0 6.68328 0H124.408C127.715 0 130.394 2.68629 130.394 6V34C130.394 37.3137 127.715 40 124.408 40H6.68328C3.37729 40 0.697266 37.3137 0.697266 34V6Z" fill="black"/>
<path fill-rule="evenodd" clip-rule="evenodd" d="M105.346 30.9525H107.208V18.4515H105.346V30.9525ZM122.114 22.9545L119.98 28.3745H119.916L117.701 22.9545H115.696L119.017 30.5295L117.123 34.7435H119.066L124.184 22.9545H122.114ZM111.556 29.5325C110.946 29.5325 110.096 29.2275 110.096 28.4715C110.096 27.5065 111.155 27.1365 112.069 27.1365C112.888 27.1365 113.272 27.3135 113.77 27.5545C113.626 28.7125 112.631 29.5325 111.556 29.5325ZM111.781 22.6815C110.433 22.6815 109.037 23.2765 108.46 24.5955L110.112 25.2865C110.465 24.5955 111.122 24.3695 111.813 24.3695C112.776 24.3695 113.754 24.9485 113.77 25.9785V26.1065C113.433 25.9135 112.712 25.6245 111.829 25.6245C110.048 25.6245 108.234 26.6055 108.234 28.4385C108.234 30.1115 109.695 31.1895 111.331 31.1895C112.583 31.1895 113.272 30.6265 113.706 29.9665H113.77V30.9315H115.567V26.1395C115.567 23.9195 113.915 22.6815 111.781 22.6815ZM100.276 24.4765H97.6279V20.1915H100.276C101.667 20.1915 102.458 21.3465 102.458 22.3335C102.458 23.3025 101.667 24.4765 100.276 24.4765ZM100.228 18.4515H95.7672V30.9525H97.6279V26.2165H100.228C102.291 26.2165 104.319 24.7185 104.319 22.3335C104.319 19.9485 102.291 18.4515 100.228 18.4515ZM75.9037 29.5345C74.6177 29.5345 73.5412 28.4555 73.5412 26.9735C73.5412 25.4755 74.6177 24.3795 75.9037 24.3795C77.1737 24.3795 78.1694 25.4755 78.1694 26.9735C78.1694 28.4555 77.1737 29.5345 75.9037 29.5345ZM78.0407 23.6545H77.9768C77.5588 23.1555 76.7557 22.7045 75.743 22.7045C73.621 22.7045 71.6765 24.5725 71.6765 26.9735C71.6765 29.3575 73.621 31.2105 75.743 31.2105C76.7557 31.2105 77.5588 30.7595 77.9768 30.2435H78.0407V30.8555C78.0407 32.4835 77.1737 33.3535 75.775 33.3535C74.6336 33.3535 73.9263 32.5315 73.637 31.8385L72.0137 32.5155C72.4797 33.6435 73.7178 35.0285 75.775 35.0285C77.9608 35.0285 79.8095 33.7395 79.8095 30.5985V22.9615H78.0407V23.6545ZM81.0955 30.9525H82.9602V18.4505H81.0955V30.9525ZM85.7078 26.8285C85.6599 25.1855 86.9778 24.3475 87.9256 24.3475C88.6658 24.3475 89.2924 24.7175 89.5009 25.2495L85.7078 26.8285ZM91.4942 25.4105C91.1411 24.4605 90.0636 22.7045 87.8617 22.7045C85.6758 22.7045 83.8601 24.4275 83.8601 26.9575C83.8601 29.3415 85.6599 31.2105 88.0702 31.2105C90.0157 31.2105 91.1411 30.0185 91.607 29.3255L90.1603 28.3585C89.6785 29.0675 89.019 29.5345 88.0702 29.5345C87.1225 29.5345 86.447 29.0995 86.013 28.2465L91.6868 25.8945L91.4942 25.4105ZM46.2918 24.0095V25.8135H50.5988C50.4701 26.8285 50.1329 27.5695 49.6191 28.0855C48.9915 28.7135 48.0108 29.4055 46.2918 29.4055C43.64 29.4055 41.5659 27.2635 41.5659 24.6055C41.5659 21.9465 43.64 19.8045 46.2918 19.8045C47.7225 19.8045 48.7671 20.3685 49.5383 21.0935L50.8083 19.8205C49.7308 18.7895 48.3012 17.9995 46.2918 17.9995C42.6593 17.9995 39.6055 20.9645 39.6055 24.6055C39.6055 28.2465 42.6593 31.2105 46.2918 31.2105C48.2523 31.2105 49.7308 30.5665 50.8881 29.3575C52.0773 28.1655 52.4475 26.4905 52.4475 25.1365C52.4475 24.7175 52.4155 24.3315 52.3507 24.0095H46.2918ZM57.345 29.5345C56.059 29.5345 54.9496 28.4715 54.9496 26.9575C54.9496 25.4265 56.059 24.3795 57.345 24.3795C58.63 24.3795 59.7394 25.4265 59.7394 26.9575C59.7394 28.4715 58.63 29.5345 57.345 29.5345ZM57.345 22.7045C54.9975 22.7045 53.085 24.4925 53.085 26.9575C53.085 29.4055 54.9975 31.2105 57.345 31.2105C59.6915 31.2105 61.6041 29.4055 61.6041 26.9575C61.6041 24.4925 59.6915 22.7045 57.345 22.7045ZM66.6363 29.5345C65.3503 29.5345 64.2409 28.4715 64.2409 26.9575C64.2409 25.4265 65.3503 24.3795 66.6363 24.3795C67.9223 24.3795 69.0307 25.4265 69.0307 26.9575C69.0307 28.4715 67.9223 29.5345 66.6363 29.5345ZM66.6363 22.7045C64.2898 22.7045 62.3773 24.4925 62.3773 26.9575C62.3773 29.4055 64.2898 31.2105 66.6363 31.2105C68.9828 31.2105 70.8954 29.4055 70.8954 26.9575C70.8954 24.4925 68.9828 22.7045 66.6363 22.7045Z" fill="white"/>
<path d="M44.0628 13.1611C43.8465 13.4717 43.544 13.7046 43.1552 13.8599C42.7694 14.0122 42.3192 14.0884 41.8048 14.0884C41.2846 14.0884 40.8227 13.9668 40.4194 13.7236C40.016 13.4776 39.7033 13.1289 39.4812 12.6777C39.262 12.2266 39.1494 11.7036 39.1436 11.1089V10.5508C39.1436 9.58692 39.3672 8.83985 39.8144 8.30957C40.2645 7.7793 40.8959 7.51416 41.7084 7.51416C42.3748 7.51416 42.9112 7.68555 43.3174 8.02832C43.7238 8.36817 43.9722 8.85156 44.0628 9.47852H43.2209C43.0631 8.63184 42.5604 8.2085 41.7128 8.2085C41.1487 8.2085 40.7205 8.40772 40.4282 8.80615C40.1388 9.20166 39.9927 9.77588 39.9898 10.5288V11.0518C39.9898 11.7695 40.1534 12.3408 40.4808 12.7656C40.8082 13.1875 41.2509 13.3984 41.8092 13.3984C42.1249 13.3984 42.4011 13.3633 42.6379 13.293C42.8746 13.2227 43.0705 13.104 43.2253 12.937V11.5H41.7479V10.8145H44.0628V13.1611ZM48.809 11.043H46.0425V13.3106H49.2562V14.0005H45.2007V7.60205H49.2123V8.29639H46.0425V10.353H48.809V11.043ZM54.533 8.29639H52.4811V14.0005H51.6437V8.29639H49.5962V7.60205H54.533V8.29639ZM57.8962 14.0005H57.0544V7.60205H57.8962V14.0005ZM63.4492 8.29639H61.3974V14.0005H60.5599V8.29639H58.5125V7.60205H63.4492V8.29639ZM70.8197 11.0078C70.8197 11.6348 70.7145 12.1826 70.5041 12.6514C70.2936 13.1172 69.9955 13.4732 69.6097 13.7193C69.2239 13.9653 68.7737 14.0884 68.2593 14.0884C67.7566 14.0884 67.3108 13.9653 66.9221 13.7193C66.5334 13.4702 66.2309 13.1172 66.0146 12.6602C65.8012 12.2002 65.6915 11.6685 65.6857 11.065V10.6035C65.6857 9.98828 65.7924 9.44483 66.0058 8.97315C66.2191 8.50147 66.5202 8.14111 66.9089 7.89209C67.3006 7.64014 67.7478 7.51416 68.2505 7.51416C68.7621 7.51416 69.2121 7.63867 69.6009 7.8877C69.9926 8.13379 70.2936 8.49268 70.5041 8.96436C70.7145 9.43311 70.8197 9.97949 70.8197 10.6035V11.0078ZM69.9823 10.5947C69.9823 9.83594 69.8304 9.2544 69.5264 8.8501C69.2224 8.44287 68.7971 8.23926 68.2505 8.23926C67.7186 8.23926 67.2992 8.44287 66.9922 8.8501C66.6883 9.2544 66.5319 9.8169 66.5231 10.5376V11.0078C66.5231 11.7432 66.6765 12.3218 66.9835 12.7437C67.2933 13.1626 67.7186 13.3721 68.2593 13.3721C68.803 13.3721 69.2239 13.1743 69.522 12.7788C69.8201 12.3804 69.9735 11.8106 69.9823 11.0693V10.5947ZM76.7191 14.0005H75.8728L72.6591 9.06983V14.0005H71.813V7.60205H72.6591L75.8816 12.5547V7.60205H76.7191V14.0005Z" fill="white"/>
<path fill-rule="evenodd" clip-rule="evenodd" d="M10.1113 7.5471C9.82099 7.8551 9.65039 8.3321 9.65039 8.9511V31.0491C9.65039 31.6681 9.82099 32.1451 10.1113 32.4531L10.1851 32.5251L22.5353 20.1461V19.8541L10.1851 7.4751L10.1113 7.5471Z" fill="#00D7FE"/>
<mask id="mask0_32778_95927" style="mask-type:alpha" maskUnits="userSpaceOnUse" x="22" y="15" width="11" height="10">
<path d="M26.6496 24.2736L22.5342 20.1456V19.8536L26.6516 15.7266L31.6219 18.5566C33.0147 19.3506 33.0147 20.6486 31.6219 21.4416L26.7443 24.2196L26.6496 24.2736Z" fill="white"/>
</mask>
<g mask="url(#mask0_32778_95927)">
<path fill-rule="evenodd" clip-rule="evenodd" d="M26.6496 24.2736L22.5342 20.1456V19.8536L26.6516 15.7266L31.6219 18.5566C33.0147 19.3506 33.0147 20.6486 31.6219 21.4416L26.7443 24.2196L26.6496 24.2736Z" fill="url(#paint0_linear_32778_95927)"/>
</g>
<mask id="mask1_32778_95927" style="mask-type:alpha" maskUnits="userSpaceOnUse" x="10" y="20" width="17" height="13">
<path d="M26.7445 24.22L22.5343 20L10.1104 32.453C10.5703 32.94 11.3285 33 12.1825 32.514L26.7445 24.22Z" fill="white"/>
</mask>
<g mask="url(#mask1_32778_95927)">
<path fill-rule="evenodd" clip-rule="evenodd" d="M26.7445 24.22L22.5343 20L10.1104 32.453C10.5703 32.94 11.3285 33 12.1825 32.514L26.7445 24.22Z" fill="url(#paint1_linear_32778_95927)"/>
</g>
<mask id="mask2_32778_95927" style="mask-type:alpha" maskUnits="userSpaceOnUse" x="10" y="7" width="17" height="14">
<path d="M26.7445 15.7807L12.1825 7.48666C11.3285 7.00066 10.5703 7.06066 10.1104 7.54766L22.5343 20.0007L26.7445 15.7807Z" fill="white"/>
</mask>
<g mask="url(#mask2_32778_95927)">
<path fill-rule="evenodd" clip-rule="evenodd" d="M26.7445 15.7807L12.1825 7.48666C11.3285 7.00066 10.5703 7.06066 10.1104 7.54766L22.5343 20.0007L26.7445 15.7807Z" fill="url(#paint2_linear_32778_95927)"/>
</g>
</g>
<defs>
<linearGradient id="paint0_linear_32778_95927" x1="30.7159" y1="19.9999" x2="22.5342" y2="19.9999" gradientUnits="userSpaceOnUse">
<stop stop-color="#FFBC00"/>
<stop offset="1" stop-color="#FFDA03"/>
</linearGradient>
<linearGradient id="paint1_linear_32778_95927" x1="24.4564" y1="23.9708" x2="13.7577" y2="32.7688" gradientUnits="userSpaceOnUse">
<stop stop-color="#E22652"/>
<stop offset="1" stop-color="#FF3A44"/>
</linearGradient>
<linearGradient id="paint2_linear_32778_95927" x1="11.9917" y1="9.04683" x2="19.1257" y2="15.3052" gradientUnits="userSpaceOnUse">
<stop stop-color="#0ED574"/>
<stop offset="1" stop-color="#07F076"/>
</linearGradient>
<clipPath id="clip0_32778_95927">
<rect width="129.697" height="40" fill="white" transform="translate(0.697266)"/>
</clipPath>
</defs>
</svg>
