<svg width="20" height="20" viewBox="0 0 20 20" fill="none" xmlns="http://www.w3.org/2000/svg">
<path d="M10.0002 9.99996C9.0835 9.99996 8.3335 9.24996 8.3335 8.33329C8.3335 7.41663 9.0835 6.66663 10.0002 6.66663C10.9168 6.66663 11.6668 7.41663 11.6668 8.33329C11.6668 9.24996 10.9168 9.99996 10.0002 9.99996ZM15.0002 8.49996C15.0002 5.47496 12.7918 3.33329 10.0002 3.33329C7.2085 3.33329 5.00016 5.47496 5.00016 8.49996C5.00016 10.45 6.62516 13.0333 10.0002 16.1166C13.3752 13.0333 15.0002 10.45 15.0002 8.49996ZM10.0002 1.66663C13.5002 1.66663 16.6668 4.34996 16.6668 8.49996C16.6668 11.2666 14.4418 14.5416 10.0002 18.3333C5.5585 14.5416 3.3335 11.2666 3.3335 8.49996C3.3335 4.34996 6.50016 1.66663 10.0002 1.66663Z" fill="#0F78FF"/>
</svg>
