<svg width="107" height="24" viewBox="0 0 107 24" fill="none" xmlns="http://www.w3.org/2000/svg">
<path d="M0.0996094 0.409058V7.20776C2.7415 7.20776 4.87833 9.35062 4.87833 12C4.87833 14.6493 2.7415 16.7922 0.0996094 16.7922V23.6104L56.5118 23.5909V0.409058L0.0996094 0.428538V0.409058Z" fill="#00E3DD"/>
<path d="M106.902 7.20776V0.409058H56.5117V23.5909H106.921V16.7727C104.279 16.7727 102.143 14.6493 102.143 12C102.143 9.35062 104.279 7.20776 106.902 7.20776Z" fill="#191956"/>
<path d="M56.5111 16.7922C59.1504 16.7922 61.2899 14.6466 61.2899 12C61.2899 9.35331 59.1504 7.20776 56.5111 7.20776C53.8719 7.20776 51.7324 9.35331 51.7324 12C51.7324 14.6466 53.8719 16.7922 56.5111 16.7922Z" fill="white"/>
<path d="M34.1315 3.42859H29.2556L26.5361 10.7922L26.6526 3.42859H22.0293V20.5909H26.6526L26.5361 12.6624L29.6053 20.5909H34.5783L30.4406 11.7078L34.1315 3.42859Z" fill="#191956"/>
<path d="M37.0859 3.42859V7.53898H39.6307V20.5909H44.254V7.53898H46.8959V3.42859H37.0859Z" fill="#191956"/>
<path d="M9.65625 7.53898H12.201V20.5909H16.8243V7.53898H19.4662V3.42859H9.65625V7.53898Z" fill="#191956"/>
<path d="M65.7383 20.5909H70.3616V13.8312H73.664V9.95456H70.3616V7.46106H73.9165V3.42859H65.7383V20.5909Z" fill="white"/>
<path d="M81.0647 3.42859H76.4414V20.5909H84.5225V16.4611H81.0647V3.42859Z" fill="white"/>
<path d="M92.6046 3.42859L91.7693 5.98054C91.6722 6.25326 91.5556 6.62339 91.4391 7.09093C91.3031 7.53898 91.1671 8.08443 90.9923 8.72729C90.8952 8.29872 90.7786 7.87015 90.6426 7.40262C90.5067 6.93508 90.3707 6.46755 90.1958 5.96106L89.3605 3.42859H84.543L88.7778 13.3247V20.5909H93.4011V13.3247L97.3833 3.42859H92.6046Z" fill="white"/>
</svg>
