<svg width="80" height="80" viewBox="0 0 80 80" fill="none" xmlns="http://www.w3.org/2000/svg">
<g clip-path="url(#clip0_11002_15043)">
<path d="M73.3336 33.3333V21.6667C73.3336 18 70.3336 15 66.667 15H57.5003C57.5003 16.3333 56.3336 17.5 55.0003 17.5C53.667 17.5 52.5003 16.3333 52.5003 15H13.3337C9.66699 15 6.66699 18 6.66699 21.6667V33.3333C10.3337 33.3333 13.3337 36.3333 13.3337 40C13.3337 43.6666 10.3337 46.6666 6.66699 46.6666V58.3333C6.66699 62 9.66699 65 13.3337 65H52.5003C52.5003 63.6666 53.667 62.5 55.0003 62.5C56.3336 62.5 57.5003 63.6666 57.5003 65H66.667C70.3336 65 73.3336 62 73.3336 58.3333V46.6666C69.667 46.6666 66.667 43.6666 66.667 40C66.667 36.3333 69.667 33.3333 73.3336 33.3333ZM55.0003 59.1666C53.667 59.1666 52.5003 58 52.5003 56.6666C52.5003 55.3333 53.667 54.1666 55.0003 54.1666C56.3336 54.1666 57.5003 55.3333 57.5003 56.6666C57.5003 58 56.3336 59.1666 55.0003 59.1666ZM55.0003 50.8333C53.667 50.8333 52.5003 49.6666 52.5003 48.3333C52.5003 47 53.667 45.8333 55.0003 45.8333C56.3336 45.8333 57.5003 47 57.5003 48.3333C57.5003 49.6666 56.3336 50.8333 55.0003 50.8333ZM55.0003 42.5C53.667 42.5 52.5003 41.3333 52.5003 40C52.5003 38.6667 53.667 37.5 55.0003 37.5C56.3336 37.5 57.5003 38.6667 57.5003 40C57.5003 41.3333 56.3336 42.5 55.0003 42.5ZM55.0003 34.1667C53.667 34.1667 52.5003 33 52.5003 31.6667C52.5003 30.3333 53.667 29.1667 55.0003 29.1667C56.3336 29.1667 57.5003 30.3333 57.5003 31.6667C57.5003 33 56.3336 34.1667 55.0003 34.1667ZM55.0003 25.8333C53.667 25.8333 52.5003 24.6667 52.5003 23.3333C52.5003 22 53.667 20.8333 55.0003 20.8333C56.3336 20.8333 57.5003 22 57.5003 23.3333C57.5003 24.6667 56.3336 25.8333 55.0003 25.8333Z" fill="#3054AD"/>
<path d="M63.3337 46.6666C54.1289 46.6666 46.667 54.1286 46.667 63.3333C46.667 72.538 54.1289 80 63.3337 80C72.5384 80 80.0003 72.538 80.0003 63.3333C80.0003 54.1286 72.5384 46.6666 63.3337 46.6666Z" fill="#FF4033"/>
<path d="M72.1729 68.6364L68.6374 72.172L54.495 58.0302L58.0305 54.4946L72.1729 68.6364Z" fill="white"/>
<path d="M58.0312 72.1721L54.4958 68.6365L68.6382 54.4946L72.1736 58.0302L58.0312 72.1721Z" fill="white"/>
</g>
<defs>
<clipPath id="clip0_11002_15043">
<rect width="80" height="80" fill="white"/>
</clipPath>
</defs>
</svg>
