<svg width="80" height="80" viewBox="0 0 80 80" fill="none" xmlns="http://www.w3.org/2000/svg">
<g clip-path="url(#clip0_19113_27410)">
<path d="M15 33.3333H65V54.9999H15V33.3333Z" fill="#174D9E"/>
<path d="M40 45C26.1929 45 15 49.4771 15 55C15 60.5228 26.1929 65 40 65C53.8071 65 65 60.5228 65 55C65 49.4771 53.8071 45 40 45Z" fill="#174D9E"/>
<path d="M38.5 13.6666L0.999999 30.1666C-0.333333 30.8333 -0.333333 32.6666 0.999999 33.3333L38.5 49.8333C39.5 50.1666 40.5 50.1666 41.5 49.8333L78.9999 33.3333C80.3333 32.6666 80.3333 30.8333 78.9999 30.1666L41.5 13.6666C40.5 13.1666 39.5 13.1666 38.5 13.6666Z" fill="#4669C1"/>
<path d="M72.0001 34L38.6668 28.3333C37.8335 28.1667 36.8335 28.8333 36.6668 29.6667C36.5002 30.5 37.1668 31.5 38.0002 31.6667L70.0001 37V61.6666C70.0001 62.6666 70.6668 63.3333 71.6668 63.3333C72.6668 63.3333 73.3335 62.6666 73.3335 61.6666V35.6667C73.3335 34.8333 72.6668 34.1667 72.0001 34Z" fill="#FF4033"/>
<path d="M71.6668 58.3333C69.8259 58.3333 68.3335 59.8256 68.3335 61.6666C68.3335 63.5075 69.8259 64.9999 71.6668 64.9999C73.5078 64.9999 75.0002 63.5075 75.0002 61.6666C75.0002 59.8256 73.5078 58.3333 71.6668 58.3333Z" fill="url(#paint0_linear_19113_27410)"/>
<path d="M76.667 66.6666C76.667 69.5 71.667 76.6666 71.667 76.6666C71.667 76.6666 66.667 69.5 66.667 66.6666C66.667 63.8333 68.8337 61.6666 71.667 61.6666C74.5003 61.6666 76.667 63.8333 76.667 66.6666Z" fill="#FF4033"/>
</g>
<defs>
<linearGradient id="paint0_linear_19113_27410" x1="66.543" y1="67.8471" x2="72.052" y2="67.5106" gradientUnits="userSpaceOnUse">
<stop stop-color="#BD0008"/>
<stop offset="1" stop-color="#E63936"/>
</linearGradient>
<clipPath id="clip0_19113_27410">
<rect width="80" height="80" fill="white"/>
</clipPath>
</defs>
</svg>
