<svg width="350" height="111" viewBox="0 0 350 111" fill="none" xmlns="http://www.w3.org/2000/svg">
<g clip-path="url(#clip0_46115_255675)">
<path d="M131.055 55.6462V55.5484C131.055 44.7907 139.319 36.8691 150.013 36.8691C157.888 36.8691 163.138 40.6832 166.152 46.1599L156.332 51.93C154.971 49.3872 153.124 47.5291 149.819 47.5291C145.832 47.5291 143.11 51.0498 143.11 55.3529V55.4506C143.11 60.1449 145.832 63.3722 149.819 63.3722C153.221 63.3722 155.069 61.5141 156.527 58.8735L166.346 64.448C163.332 69.8269 158.374 74.1299 149.43 74.1299C139.707 74.2277 131.055 66.6973 131.055 55.6462Z" fill="#581F80"/>
<path d="M180.541 37.2598H192.402L207.472 73.4448H194.541L192.694 68.6527H180.249L178.402 73.4448H165.666L180.541 37.2598ZM189.68 60.1443L186.374 51.4404L183.069 60.1443H189.68Z" fill="#581F80"/>
<path d="M208.93 37.5547H226.332C232.652 37.5547 236.638 39.1195 239.166 41.6622C241.305 43.8137 242.471 46.4542 242.471 50.1705V50.2683C242.471 55.5494 239.749 59.1679 235.471 61.2217L243.735 73.4463H230.124L223.416 63.1776H220.888V73.4463H208.93V37.5547ZM226.041 54.6692C228.86 54.6692 230.61 53.3979 230.61 51.1485V51.0507C230.61 48.7036 228.86 47.6278 226.041 47.6278H220.791V54.6692H226.041Z" fill="#581F80"/>
<path d="M242.568 37.5529H255.11L260.166 54.7652L265.902 37.4551H276.207L281.943 54.7652L286.999 37.5529H299.249L287.582 73.7379H277.179L270.957 55.841L264.638 73.7379H254.235L242.568 37.5529Z" fill="#581F80"/>
<path d="M301.484 37.5547H313.443V73.4463H301.484V37.5547Z" fill="#581F80"/>
<path d="M316.457 65.0357L332.595 47.4322H317.04V37.5547H349.707V45.9653L333.568 63.5688H349.707V73.4463H316.359L316.457 65.0357Z" fill="#581F80"/>
<path d="M208.93 87.627H215.541C217.388 87.627 218.749 88.1159 219.721 89.0939C220.499 89.8763 220.985 91.0499 220.985 92.419C220.985 94.7662 219.721 96.2331 217.874 96.9177L221.374 102.101H217.68L214.569 97.5045H212.041V102.101H208.93V87.627ZM215.249 94.6683C216.805 94.6683 217.68 93.886 217.68 92.6146C217.68 91.2454 216.707 90.5609 215.152 90.5609H212.041V94.6683H215.249Z" fill="#581F80"/>
<path d="M224.971 87.627H235.762V90.4631H228.082V93.397H234.887V96.2331H228.082V99.2648H235.86V102.101H224.971V87.627Z" fill="#581F80"/>
<path d="M239.943 87.627H242.86L249.568 96.5265V87.627H252.679V102.101H249.957L242.957 92.908V102.101H239.846L239.943 87.627Z" fill="#581F80"/>
<path d="M260.652 90.5609H256.277V87.627H268.138V90.5609H263.763V102.101H260.555L260.652 90.5609Z" fill="#581F80"/>
<path d="M284.082 87.5293H286.998L293.123 102.101H289.818L288.457 98.8738H282.429L281.068 102.101H277.859L284.082 87.5293ZM287.387 96.0376L285.443 91.3434L283.498 96.0376H287.387Z" fill="#581F80"/>
<path d="M303.234 94.962C303.234 90.8546 306.345 87.4316 310.72 87.4316C313.443 87.4316 315.095 88.3118 316.359 89.681L314.318 92.0281C313.248 91.0502 312.082 90.3656 310.623 90.3656C308.193 90.3656 306.443 92.4193 306.443 94.8642C306.443 97.3092 308.095 99.3629 310.623 99.3629C312.276 99.3629 313.248 98.6783 314.415 97.7004L316.457 99.7541C314.998 101.319 313.345 102.297 310.526 102.297C306.345 102.395 303.234 99.0695 303.234 94.962Z" fill="#581F80"/>
<path d="M325.109 87.5293H328.026L334.151 102.101H330.943L329.582 98.8738H323.554L322.193 102.101H318.984L325.109 87.5293ZM328.512 96.0376L326.568 91.3434L324.623 96.0376H328.512Z" fill="#581F80"/>
<path d="M337.652 87.627H344.263C346.111 87.627 347.472 88.1159 348.444 89.0939C349.222 89.8763 349.708 91.0499 349.708 92.419C349.708 94.7662 348.444 96.2331 346.597 96.9177L350.097 102.101H346.402L343.291 97.5045H340.763V102.101H337.652V87.627ZM343.972 94.6683C345.527 94.6683 346.402 93.886 346.402 92.6146C346.402 91.2454 345.43 90.5609 343.875 90.5609H340.763V94.6683H343.972Z" fill="#581F80"/>
<path d="M55.2222 111C24.7917 111 0 86.0618 0 55.4512C0 24.8407 24.7917 -0.0976562 55.2222 -0.0976562C85.6528 -0.0976562 110.444 24.8407 110.444 55.4512C110.347 86.1596 85.6528 111 55.2222 111ZM55.2222 2.73846C26.25 2.73846 2.72221 26.4054 2.72221 55.549C2.72221 84.6927 26.25 108.36 55.2222 108.36C84.1944 108.36 107.722 84.6927 107.722 55.549C107.722 26.4054 84.1944 2.73846 55.2222 2.73846Z" fill="#FFBA00"/>
<path d="M64.6523 23.4707C73.3051 28.165 78.069 36.7711 79.4301 39.6073H86.4301C83.9023 35.0108 76.8051 24.5465 64.6523 23.4707Z" fill="#FFBA00"/>
<path d="M80.4028 47.235L85.1667 42.7363H79.1389L74.375 47.235H80.4028Z" fill="#FFBA00"/>
<path d="M62.3203 76.3796C63.7786 76.3796 65.3342 76.1839 66.6953 75.695C73.987 73.4456 77.487 66.991 78.8481 63.7637H71.8481C71.362 66.502 69.3203 71.8809 62.3203 76.3796Z" fill="#FFBA00"/>
<path d="M71.2641 46.062L76.7086 40.781C75.9308 39.2162 73.9863 35.7933 70.9724 32.4682C65.6252 26.4048 59.3058 23.373 52.3058 23.373C34.1252 23.373 23.2363 39.7052 23.2363 55.4506C23.2363 75.1078 37.7224 86.4523 48.7085 87.4303C44.3335 85.2788 40.5419 81.9537 37.528 77.7484C32.8613 71.2938 30.3336 62.6876 30.528 54.1792C30.8197 39.9008 41.6113 31.3924 51.8197 31.3924C53.6669 31.3924 55.4169 31.6858 57.0697 32.1748C65.7224 35.0109 69.7085 42.2479 71.2641 46.062Z" fill="#FFBA00"/>
<path d="M81.6663 64.9363C80.1108 68.7504 76.1247 75.9874 67.5691 78.628C65.9163 79.1169 64.0691 79.4103 62.3191 79.4103C51.9163 79.4103 41.0274 70.902 40.6385 56.6235C40.4441 46.6482 44.1385 39.3134 51.6247 34.6191C42.8747 34.7169 33.833 42.1495 33.5413 54.3742C33.1524 69.5328 42.1941 85.7672 60.083 87.5275C61.0552 87.5275 61.9302 87.6253 62.8052 87.6253C77.3885 87.6253 85.2635 74.0315 87.208 70.2174L81.6663 64.9363Z" fill="#FFBA00"/>
</g>
<defs>
<clipPath id="clip0_46115_255675">
<rect width="350" height="111" fill="white"/>
</clipPath>
</defs>
</svg>
