<svg width="104" height="20" viewBox="0 0 104 20" fill="none" xmlns="http://www.w3.org/2000/svg">
<path d="M11.0105 7.26573C10.2956 7.26573 9.61003 7.55097 9.10452 8.05869C8.59901 8.56641 8.31502 9.25504 8.31502 9.97306C8.31502 10.6911 8.59901 11.3797 9.10452 11.8874C9.61003 12.3952 10.2956 12.6804 11.0105 12.6804H14.9134V14.4846H10.5243C9.33295 14.4846 8.19043 14.0093 7.34805 13.1632C6.50567 12.3171 6.03242 11.1696 6.03242 9.97306C6.03242 8.77654 6.50567 7.62901 7.34805 6.78294C8.19043 5.93686 9.33295 5.46154 10.5243 5.46154H17.7892C19.3822 5.46154 20.6691 4.4384 20.6649 3.17736V0.046875H9.96251C4.46877 0.046875 0 4.37314 0 9.89517C0.00443525 12.5474 1.05555 15.0897 2.92298 16.965C4.79041 18.8402 7.32184 19.8954 9.96251 19.8993H20.6649V9.54991C20.6649 8.28677 19.3822 7.26573 17.7892 7.26573H11.0105Z" fill="#ED1C24"/>
<path d="M37.6279 12.4678L42.5138 19.8993H35.8064L31.0526 12.6804H28.7469V19.8993H22.7481V9.54991C22.7481 8.28677 24.0308 7.26573 25.6238 7.26573H35.0854C35.3161 7.25453 35.5337 7.1546 35.693 6.98666C35.8523 6.81871 35.9412 6.59562 35.9412 6.36364C35.9412 6.13165 35.8523 5.90857 35.693 5.74062C35.5337 5.57267 35.3161 5.47274 35.0854 5.46154H25.6238C24.0308 5.46154 22.7439 4.4384 22.7481 3.17736V0.046875H35.645C37.1528 0.0473728 38.6111 0.587335 39.7584 1.56993C40.9056 2.55253 41.6669 3.9135 41.9056 5.40877C42.1443 6.90405 41.8449 8.43583 41.0609 9.72943C40.277 11.023 39.0599 11.9938 37.6279 12.4678Z" fill="#ED1C24"/>
<path d="M46.1133 0.046875H47.176V3.68893C47.176 4.29103 47.4254 4.77103 47.9494 4.77103C48.4734 4.77103 48.6851 4.32261 48.6851 3.87209C48.6851 2.93526 47.8216 3.04894 47.8216 1.7458H48.9429C48.9429 2.49948 49.8023 2.65947 49.8023 3.87209C49.8023 4.82576 49.1567 5.59417 47.9494 5.59417C46.7421 5.59417 46.1133 4.79418 46.1133 3.69946V0.046875Z" fill="#939598"/>
<path d="M52.8713 2.57586C53.2423 2.92533 53.7202 3.2769 53.7202 4.11479C53.7202 4.95267 53.0368 5.58845 51.9909 5.58845C50.945 5.58845 50.291 4.95688 50.291 3.92742H51.3684C51.3684 4.39268 51.5507 4.76952 51.9972 4.76952C52.0769 4.77641 52.1572 4.76625 52.2327 4.7397C52.3082 4.71316 52.3772 4.67085 52.4353 4.61554C52.4933 4.56024 52.539 4.49321 52.5693 4.41887C52.5997 4.34453 52.614 4.26457 52.6113 4.18426C52.6113 3.68111 52.299 3.51269 51.9825 3.21585C51.666 2.91901 51.1776 2.58428 51.1776 1.74219H52.3011C52.3011 2.08745 52.582 2.31481 52.8713 2.57586Z" fill="#939598"/>
<path d="M55.365 4.98576C55.365 5.70154 55.585 6.14364 56.0713 6.14364C56.5576 6.14364 56.8154 5.70154 56.8154 4.98576V3.53736C56.8154 2.92052 56.6184 2.47 56.1405 2.47C55.6626 2.47 55.5326 2.92684 55.5326 3.53736H54.4175C54.4175 2.48474 54.8954 1.65528 55.7842 1.65528C55.9884 1.6506 56.1903 1.70034 56.3692 1.79944C56.5482 1.89854 56.6978 2.04347 56.8028 2.21948H56.8175V0.046875H57.8802V4.98576C57.8802 6.20469 57.2514 6.96679 56.0734 6.96679C54.8954 6.96679 54.252 6.20469 54.252 4.98576H55.365Z" fill="#939598"/>
<path d="M61.1337 2.57647C61.5047 2.92594 61.9721 3.27751 61.9721 4.1154C61.9721 4.95328 61.2888 5.58906 60.2429 5.58906C59.1969 5.58906 58.543 4.95749 58.543 3.92803H59.6203C59.6203 4.39329 59.8027 4.77013 60.2492 4.77013C60.3296 4.77713 60.4106 4.76676 60.4867 4.73973C60.5628 4.71269 60.6323 4.66961 60.6905 4.61338C60.7486 4.55715 60.7942 4.48906 60.824 4.4137C60.8538 4.33834 60.8672 4.25745 60.8633 4.17645C60.8633 3.6733 60.551 3.50488 60.2345 3.20804C59.918 2.9112 59.4296 2.57647 59.4296 1.73438H60.5531C60.5636 2.08805 60.8444 2.31542 61.1337 2.57647Z" fill="#939598"/>
<path d="M64.1396 0.503152C64.978 0.0694728 65.7997 0 66.9294 0V0.898936C65.5272 0.898936 64.2213 1.05262 63.5757 1.98945L63.6051 2.00419C63.8239 1.82753 64.092 1.72377 64.3722 1.70735C64.6284 1.68496 64.8849 1.74541 65.1044 1.87986C65.3238 2.01432 65.4947 2.21574 65.5921 2.45471H65.6236C65.8521 1.93682 66.3677 1.70735 66.9441 1.70735C68.0361 1.70735 68.6901 2.46944 68.6901 3.61259C68.6901 4.80204 67.9607 5.55572 66.7932 5.59361V4.77047C67.2774 4.69468 67.5729 4.32837 67.5729 3.61259C67.5666 2.94733 67.3465 2.52628 66.8644 2.52628C66.3824 2.52628 66.1581 2.94733 66.1581 3.60838V4.21889H65.0409V3.60838C65.0409 2.93891 64.8208 2.52628 64.3345 2.52628C63.8482 2.52628 63.6281 2.94733 63.6281 3.60838C63.6281 4.32416 63.9258 4.69047 64.41 4.76626V5.5894C63.2425 5.55151 62.5508 4.79783 62.5508 3.22733C62.5508 2.00419 63.0916 1.05262 64.1396 0.503152Z" fill="#939598"/>
<path d="M71.1102 1.63264C71.3977 1.62317 71.682 1.6954 71.9305 1.84102C72.1789 1.98664 72.3814 2.19973 72.5146 2.45579H72.5439C72.6454 2.19637 72.8269 1.97644 73.0619 1.82828C73.297 1.68013 73.5731 1.61156 73.8498 1.63264C74.8664 1.63264 75.5266 2.47474 75.5266 3.61367C75.5266 4.80313 74.7993 5.5568 73.6297 5.5947V4.77155C74.116 4.69576 74.4115 4.32945 74.4115 3.61367C74.4115 2.9442 74.1914 2.45579 73.7052 2.45579C73.2189 2.45579 73.0009 2.9442 73.0009 3.61367C73.0009 4.87681 72.2715 5.58628 71.104 5.58628C69.9365 5.58628 69.207 4.87049 69.207 3.60525C69.2133 2.39474 69.9407 1.63264 71.1102 1.63264ZM71.1102 4.77155C71.5944 4.77155 71.8921 4.37576 71.8921 3.62209C71.8921 2.95262 71.5944 2.46421 71.1102 2.46421C70.6261 2.46421 70.3284 2.90631 70.3284 3.62209C70.3284 4.37576 70.624 4.77155 71.1102 4.77155Z" fill="#939598"/>
<path d="M77.1058 5.05248C77.1058 5.68405 77.3636 6.13457 77.8478 6.13457C77.946 6.14312 78.0449 6.13009 78.1376 6.09639C78.2303 6.06269 78.3145 6.00912 78.3846 5.9394C78.4546 5.86969 78.5086 5.7855 78.543 5.69269C78.5773 5.59987 78.5911 5.50066 78.5835 5.40195C78.5917 5.30093 78.5783 5.19932 78.5442 5.10393C78.5101 5.00853 78.4562 4.92154 78.3859 4.84879C78.3157 4.77604 78.2307 4.7192 78.1368 4.68208C78.043 4.64495 77.9422 4.6284 77.8415 4.63354H77.6319V3.74934H77.8897C77.9726 3.7554 78.0558 3.74372 78.1338 3.71506C78.2118 3.68641 78.2829 3.64144 78.3424 3.58313C78.4018 3.52482 78.4483 3.4545 78.4786 3.37681C78.509 3.29913 78.5226 3.21586 78.5185 3.1325C78.5185 2.79566 78.4053 2.44619 77.919 2.44619C77.4327 2.44619 77.2525 2.8504 77.2525 3.3746H76.1374C76.1374 2.30935 76.7515 1.62305 77.919 1.62305C79.0865 1.62305 79.5812 2.30935 79.5812 3.02513C79.5812 3.60407 79.3464 4.02302 78.7931 4.1767V4.21038C79.3548 4.32407 79.6881 4.80406 79.6881 5.46089C79.6881 6.30299 79.0132 6.96193 77.8436 6.96193C76.674 6.96193 75.9844 6.19983 75.9844 5.05669L77.1058 5.05248Z" fill="#939598"/>
<path d="M81.3001 4.98569C81.3001 5.73937 81.5285 6.14357 82.0148 6.14357C82.5011 6.14357 82.7505 5.73937 82.7505 4.98569V3.53729C82.7505 2.8594 82.5766 2.4552 82.0903 2.4552C81.604 2.4552 81.4615 2.8594 81.4615 3.53729H80.3464C80.3464 2.31836 80.9291 1.64258 82.0987 1.64258C83.2683 1.64258 83.8216 2.32889 83.8216 3.54782V4.99622C83.8216 6.21515 83.1928 6.97725 82.0232 6.97725C80.8536 6.97725 80.1934 6.21515 80.1934 4.99622L81.3001 4.98569Z" fill="#939598"/>
<path d="M86.1272 1.6316C86.3956 1.62253 86.6603 1.69666 86.8853 1.84393C87.1103 1.9912 87.2847 2.20446 87.3848 2.45475H87.4058C87.6322 1.93686 87.9592 1.6316 88.5356 1.6316C89.112 1.6316 89.4222 1.93686 89.6737 2.45475H89.7115C89.8108 2.20653 89.9833 1.99471 90.2058 1.84761C90.4283 1.70051 90.6902 1.62515 90.9565 1.6316C92.0506 1.6316 92.6334 2.4737 92.6334 3.61263C92.6334 4.80209 92.0569 5.59366 90.8873 5.59366V4.77051C91.3736 4.69472 91.5162 4.32841 91.5162 3.61263C91.5162 2.94317 91.3736 2.45475 90.8873 2.45475C90.4011 2.45475 90.2585 2.94317 90.2585 3.61263V4.22315H89.1413V3.61263C89.1413 2.94317 89.0365 2.45475 88.5502 2.45475C88.064 2.45475 87.9592 2.94317 87.9592 3.61263V4.22315H86.842V3.61263C86.842 2.94317 86.6994 2.45475 86.2132 2.45475C85.7269 2.45475 85.5843 2.94317 85.5843 3.53684C85.5843 4.47367 86.253 4.97682 87.2465 5.10735C88.4769 5.26735 90.1307 5.31787 90.1307 6.88206H89.068C89.0386 6.43365 88.6362 6.06734 87.7475 6.06734H85.0792V5.28208H85.708V5.2505C85.3448 5.13703 85.0276 4.90911 84.8033 4.60047C84.5791 4.29184 84.4597 3.9189 84.463 3.53684C84.4567 2.46949 85.0331 1.6316 86.1272 1.6316Z" fill="#939598"/>
<path d="M94.8963 1.63158C95.1737 1.6227 95.4477 1.69601 95.684 1.84238C95.9203 1.98875 96.1085 2.20171 96.2251 2.45473H96.2545C96.3704 2.20288 96.5572 1.99069 96.7919 1.84438C97.0266 1.69808 97.2989 1.6241 97.575 1.63158C98.6691 1.63158 99.321 2.47368 99.321 3.61261C99.321 4.80207 98.5916 5.55574 97.4241 5.59364V4.77049C97.9104 4.6947 98.2059 4.32839 98.2059 3.61261C98.2059 2.94314 97.9963 2.45473 97.4995 2.45473C97.0028 2.45473 96.7932 2.94314 96.7932 3.61261V4.22313H95.6781V3.61261C95.6781 2.94314 95.458 2.45473 94.9738 2.45473C94.4896 2.45473 94.2674 2.94314 94.2674 3.61261C94.2674 4.32839 94.563 4.6947 95.0493 4.77049V5.59364C93.8797 5.55574 93.1523 4.80207 93.1523 3.61261C93.1523 2.46946 93.8042 1.63158 94.8963 1.63158Z" fill="#939598"/>
<path d="M100.002 0.046875H101.065V3.68893C101.065 4.29103 101.316 4.77103 101.84 4.77103C102.364 4.77103 102.576 4.32261 102.576 3.87209C102.576 2.93526 101.71 3.04894 101.71 1.7458H102.834C102.834 2.49948 103.691 2.65947 103.691 3.87209C103.691 4.82576 103.045 5.59417 101.84 5.59417C100.635 5.59417 100.002 4.79418 100.002 3.69946V0.046875Z" fill="#939598"/>
<path d="M47.58 7.7219C48.4184 7.28822 49.2401 7.21875 50.3719 7.21875V8.11769C48.9676 8.11769 47.6617 8.27137 47.0183 9.2082L47.0497 9.22294C47.2677 9.04632 47.5352 8.94254 47.8148 8.9261C48.0718 8.90495 48.3287 8.96716 48.5479 9.10358C48.7671 9.23999 48.937 9.44342 49.0326 9.68398H49.0619C49.2904 9.16609 49.806 8.93662 50.3824 8.93662C51.4766 8.93662 52.1284 9.69872 52.1284 10.8419C52.1284 12.0313 51.4011 12.785 50.242 12.8229V11.9997C50.7283 11.924 51.0238 11.5576 51.0238 10.8419C51.0238 10.1724 50.8142 9.75977 50.3174 9.75977C49.8207 9.75977 49.6132 10.1808 49.6132 10.8419V11.4524H48.496V10.8419C48.496 10.1724 48.2864 9.75977 47.7917 9.75977C47.297 9.75977 47.0853 10.1808 47.0853 10.8419C47.0853 11.5576 47.3809 11.924 47.8672 11.9997V12.8229C46.6976 12.785 46.008 12.0313 46.008 10.4608C45.9975 9.22293 46.532 8.27137 47.58 7.7219Z" fill="#939598"/>
<path d="M53.3573 12.2796C53.3573 12.9112 53.6151 13.3617 54.1014 13.3617C54.1994 13.3703 54.2981 13.3573 54.3906 13.3237C54.4832 13.2901 54.5673 13.2367 54.6373 13.1672C54.7073 13.0978 54.7614 13.0139 54.7959 12.9213C54.8304 12.8287 54.8444 12.7298 54.8371 12.6312C54.8371 12.0986 54.5499 11.7891 54.093 11.7891H53.8058V10.9049H54.1391C54.5583 10.9049 54.7679 10.6755 54.7679 10.326C54.7679 9.97652 54.617 9.75336 54.1391 9.67758V8.8418C55.3087 8.87969 55.8704 9.49021 55.8704 10.206C55.8905 10.4594 55.8186 10.7116 55.668 10.9159C55.5173 11.1203 55.2981 11.2629 55.0509 11.3176V11.3681C55.6126 11.4818 55.9459 11.9618 55.9459 12.6944C55.9459 13.5365 55.271 14.1954 54.1014 14.1954C52.9318 14.1954 52.2422 13.4333 52.2422 12.3007L53.3573 12.2796Z" fill="#939598"/>
<path d="M58.3344 8.8418C59.504 8.8418 60.2313 9.64179 60.2313 10.8228C60.2313 11.9597 59.5711 12.7175 58.6845 12.7807V11.907C58.9569 11.7533 59.1309 11.4649 59.1309 10.8312C59.1309 10.1155 58.8207 9.67337 58.3344 9.67337C57.8481 9.67337 57.5379 10.1155 57.5379 10.8312C57.5379 11.4628 57.7203 11.7618 58.0011 11.9133V12.7891C57.1061 12.7449 56.4375 11.9744 56.4375 10.8312C56.4375 9.65021 57.1648 8.8418 58.3344 8.8418Z" fill="#939598"/>
<path d="M60.9145 8.63043C60.9145 7.86833 61.384 7.25781 62.5075 7.25781H64.1382V8.16517H62.606C62.1491 8.16517 61.9772 8.3399 61.9772 8.72937V9.43042H61.9919C62.1038 9.25411 62.259 9.10963 62.4425 9.01084C62.626 8.91205 62.8317 8.86225 63.0399 8.86621C64.0041 8.86621 64.5952 9.6662 64.5952 10.8241C64.5952 11.982 63.9286 12.8072 62.7213 12.8072C61.514 12.8072 60.9082 12.0051 60.9082 10.8241L60.9145 8.63043ZM62.7276 11.9988C63.2516 11.9988 63.4863 11.5188 63.4863 10.8388C63.4863 10.1588 63.1971 9.68305 62.6898 9.68305C62.1826 9.68305 61.9227 10.1336 61.9227 10.8262C61.9227 11.5188 62.2036 11.9988 62.7276 11.9988Z" fill="#939598"/>
<path d="M67.0305 8.8418C68.2 8.8418 68.9169 9.64179 68.9169 10.8228C68.9169 11.9597 68.2587 12.7175 67.37 12.7807V11.907C67.6425 11.7533 67.8186 11.4649 67.8186 10.8312C67.8186 10.1155 67.5063 9.67337 67.02 9.67337C66.5337 9.67337 66.2235 10.1155 66.2235 10.8312C66.2235 11.4628 66.4058 11.7618 66.6867 11.9133V12.7891C65.7917 12.7449 65.123 11.9744 65.123 10.8312C65.1335 9.65021 65.863 8.8418 67.0305 8.8418Z" fill="#939598"/>
<path d="M70.621 10.686C71.122 10.4965 71.5768 10.4755 71.5768 10.0313C71.5794 9.97925 71.5709 9.9273 71.5518 9.87889C71.5327 9.83048 71.5035 9.78674 71.4662 9.75063C71.4288 9.71452 71.3842 9.68687 71.3353 9.66955C71.2864 9.65222 71.2344 9.64563 71.1828 9.65021C71.1262 9.6523 71.0707 9.66587 71.0194 9.69011C70.9682 9.71435 70.9225 9.74875 70.8849 9.79124C70.8473 9.83373 70.8186 9.88344 70.8006 9.93735C70.7827 9.99126 70.7758 10.0483 70.7803 10.1049H69.6946C69.6946 9.38916 70.3402 8.8418 71.1891 8.8418C72.1302 8.8418 72.6919 9.35969 72.6919 9.89442C72.6866 10.0851 72.6236 10.2696 72.5113 10.4235C72.3989 10.5773 72.2426 10.6931 72.0631 10.7555V10.787C72.3907 10.8947 72.6759 11.1039 72.8778 11.3846C73.0796 11.6652 73.1878 12.0029 73.1866 12.3491C73.1866 13.5386 72.3817 14.1786 71.2897 14.1786C70.1976 14.1786 69.3928 13.547 69.3928 12.3491C69.3802 11.3807 70.0425 10.907 70.621 10.686ZM71.2813 13.3617C71.69 13.3617 72.061 13.0417 72.061 12.3554C72.061 11.7239 71.69 11.3491 71.2813 11.3491C70.8726 11.3491 70.4995 11.7154 70.4995 12.3554C70.4995 13.0523 70.8705 13.3617 71.2813 13.3617Z" fill="#939598"/>
<path d="M74.8284 7.14258C75.6794 7.14258 76.3313 7.68362 76.3313 8.43098C76.3351 8.62344 76.285 8.8131 76.1867 8.97834V9.0015C77.0586 9.13834 77.6979 9.77202 77.6979 10.8688C77.6979 12.0583 76.9915 12.812 75.8115 12.812C75.5709 12.8204 75.331 12.7806 75.1059 12.6948C74.8808 12.609 74.675 12.479 74.5005 12.3124C74.326 12.1457 74.1864 11.9459 74.0897 11.7244C73.9931 11.5029 73.9414 11.2643 73.9376 11.0225C73.9305 10.6238 74.0684 10.2361 74.3254 9.93202V9.90886C74.0296 9.84823 73.7638 9.6869 73.5729 9.45214C73.3819 9.21738 73.2775 8.9236 73.2773 8.62045C73.2899 7.64573 73.9648 7.14258 74.8284 7.14258ZM74.8284 9.27729C75.1407 9.27729 75.3 8.97834 75.3 8.56782C75.3 8.1573 75.1407 7.91099 74.8284 7.91099C74.5161 7.91099 74.3589 8.18678 74.3589 8.56782C74.3589 8.94887 74.5035 9.27729 74.8284 9.27729ZM75.8157 11.9994C76.3019 11.9994 76.5744 11.5657 76.5744 10.8794C76.5744 10.2478 76.3019 9.8057 75.8157 9.8057C75.3294 9.8057 75.0569 10.2478 75.0569 10.8794C75.0569 11.5552 75.3315 11.9994 75.8157 11.9994Z" fill="#939598"/>
<path d="M80.764 9.79641C81.135 10.1459 81.6129 10.4975 81.6129 11.3353C81.6129 12.1732 80.9296 12.809 79.8836 12.809C78.8377 12.809 78.1816 12.1901 78.1816 11.1585H79.259C79.259 11.6238 79.4414 12.0006 79.8878 12.0006C79.9683 12.0076 80.0493 11.9972 80.1254 11.9702C80.2015 11.9432 80.271 11.9001 80.3291 11.8438C80.3873 11.7876 80.4328 11.7195 80.4626 11.6442C80.4924 11.5688 80.5059 11.4879 80.502 11.4069C80.502 10.9038 80.1897 10.7353 79.8732 10.4385C79.5566 10.1417 79.0683 9.80694 79.0683 8.96484H80.1917C80.1938 9.308 80.4747 9.52905 80.764 9.79641Z" fill="#939598"/>
<path d="M67.8147 20.0004C68.4981 20.0004 68.9822 19.4804 68.9822 18.6867C68.9822 17.9625 68.5337 17.4362 67.9342 17.4362C67.7762 17.4293 67.6192 17.4646 67.4793 17.5386C67.3393 17.6125 67.2215 17.7225 67.1377 17.8573H67.123V17.2257C67.123 16.8594 67.3327 16.691 67.7099 16.691H68.7244V16.291H67.7016C67.0162 16.291 66.6535 16.5646 66.6535 17.2025V18.6762C66.6389 19.4783 67.0937 20.0004 67.8147 20.0004ZM67.8147 19.6067C67.3452 19.6067 67.1 19.2215 67.1 18.7225C67.1 18.2236 67.3306 17.8236 67.8147 17.8236C68.2989 17.8236 68.4981 18.2173 68.4981 18.7225C68.4981 19.2278 68.2759 19.6046 67.8147 19.6046V19.6067ZM64.7671 20.0004C65.4881 20.0004 65.9199 19.4804 65.9199 18.7562C65.9199 18.032 65.6349 17.6825 65.3205 17.3246C65.0899 17.0573 64.83 16.7689 64.83 16.2931H64.3479C64.3479 16.9373 64.6832 17.2678 64.9348 17.5562C65.0988 17.7088 65.2284 17.8948 65.3152 18.1017C65.4019 18.3086 65.4437 18.5318 65.4378 18.7562C65.4378 19.2215 65.2282 19.5983 64.7671 19.5983C64.306 19.5983 64.0335 19.2972 64.0335 18.5457H63.5514C63.5535 19.5478 64.0502 20.0004 64.7671 20.0004ZM62.1135 18.3162C61.6733 18.3162 61.4365 17.9078 61.4365 17.4867C61.4365 16.9962 61.6733 16.5878 62.1135 16.5878C62.5893 16.5878 62.8052 16.9962 62.8052 17.4867C62.8073 17.8952 62.5914 18.3162 62.1156 18.3162H62.1135ZM57.0117 18.152H58.5586V17.7309H57.0117V18.152ZM61.7467 19.8993H62.2288C62.2078 19.3667 61.6964 19.1562 61.0885 19.0004C60.7471 18.9226 60.4424 18.7298 60.2251 18.4541C60.0077 18.1784 59.8908 17.8363 59.8938 17.4846C59.8938 16.8931 60.116 16.592 60.4534 16.592C60.5263 16.5954 60.5977 16.6136 60.6634 16.6453C60.7291 16.6771 60.7877 16.7218 60.8358 16.7768C60.884 16.8318 60.9206 16.896 60.9435 16.9655C60.9663 17.0351 60.975 17.1085 60.9691 17.1815V17.491C60.9691 18.1646 61.4029 18.712 62.1093 18.712C62.2678 18.7148 62.4252 18.6848 62.5716 18.6239C62.7181 18.563 62.8505 18.4724 62.9606 18.3579C63.0707 18.2434 63.1562 18.1073 63.2117 17.9581C63.2671 17.809 63.2915 17.6499 63.2831 17.491C63.2831 16.7457 62.8157 16.2068 62.1366 16.2068C61.9539 16.2029 61.774 16.2516 61.618 16.3471C61.4621 16.4426 61.3365 16.5809 61.2562 16.7457H61.2353C61.1756 16.579 61.0636 16.4363 60.9162 16.3391C60.7687 16.2418 60.5938 16.1954 60.4178 16.2068C59.8582 16.2068 59.397 16.6489 59.397 17.4846C59.397 18.2425 59.8162 18.8046 60.2857 18.9857V19.0151H59.7953V19.3688H60.5855C61.1577 19.3688 61.732 19.5351 61.753 19.8993H61.7467Z" fill="#939598"/>
<path d="M46.872 19.8994V17.411H46.1133V17.0531C46.6436 17.0531 46.8762 16.8973 46.9517 16.4805H47.3458V19.8994H46.872Z" fill="#939598"/>
<path d="M50.6618 17.3489C50.6586 17.5254 50.599 17.6962 50.4918 17.8361C50.3847 17.9759 50.2355 18.0775 50.0665 18.1258C50.2568 18.1673 50.4268 18.274 50.5473 18.4277C50.6677 18.5813 50.7312 18.7723 50.7268 18.9679C50.7268 19.5658 50.2426 19.9615 49.5362 19.9615C48.8298 19.9615 48.3498 19.5658 48.3498 18.9679C48.3452 18.7729 48.4081 18.5824 48.5277 18.4288C48.6474 18.2752 48.8164 18.1681 49.0059 18.1258C48.8386 18.0757 48.6915 17.9734 48.586 17.8337C48.4805 17.6941 48.422 17.5243 48.419 17.3489C48.419 16.7911 48.8885 16.4121 49.5404 16.4121C50.1923 16.4121 50.6618 16.7911 50.6618 17.3489ZM48.8194 18.9468C48.8194 19.3215 49.1065 19.5658 49.5362 19.5658C49.9659 19.5658 50.2531 19.3215 50.2531 18.9468C50.2531 18.5721 49.9596 18.3384 49.5362 18.3384C49.1128 18.3384 48.8194 18.5868 48.8194 18.9468ZM48.8739 17.3637C48.8739 17.7195 49.1317 17.9426 49.5362 17.9426C49.9407 17.9426 50.1965 17.7195 50.1965 17.3637C50.1965 17.0079 49.9303 16.8121 49.5362 16.8121C49.1422 16.8121 48.8739 17.0289 48.8739 17.3637Z" fill="#939598"/>
<path d="M53.2678 16.8929C52.6665 17.8036 52.2544 18.8269 52.0563 19.9013H51.5448C51.7648 18.8245 52.192 17.8011 52.8025 16.8887H50.916V16.4824H53.2699L53.2678 16.8929Z" fill="#939598"/>
<path d="M56.057 17.3638C56.057 17.9617 55.6692 18.2417 55.1243 18.5596C54.4409 18.9554 54.3047 19.1785 54.3005 19.4985H56.1387V19.8985H53.7912C53.7884 19.8649 53.7884 19.8311 53.7912 19.7975C53.7912 19.1491 53.9526 18.7785 54.7973 18.2859C55.3108 17.9828 55.5791 17.7954 55.5791 17.3744C55.5807 17.2963 55.5658 17.2187 55.5352 17.1469C55.5047 17.075 55.4592 17.0106 55.4019 16.9578C55.3446 16.905 55.2767 16.8651 55.2028 16.8407C55.1289 16.8163 55.0507 16.8081 54.9733 16.8165C54.5395 16.8165 54.3445 17.0649 54.311 17.4859H53.8373C53.8624 16.8059 54.3026 16.4102 54.9775 16.4102C55.6525 16.4102 56.057 16.7912 56.057 17.3638Z" fill="#939598"/>
</svg>
