<svg width="24" height="24" viewBox="0 0 24 24" fill="none" xmlns="http://www.w3.org/2000/svg">
<g clip-path="url(#clip0_24270_6548)">
<path d="M21.7002 4.15001L2.00019 7.50001L1.85019 6.50001C1.65019 5.40001 2.40019 4.40001 3.50019 4.20001L19.3002 1.55002C20.4002 1.35002 21.4002 2.10002 21.6002 3.20002L21.7002 4.15001ZM20.0002 20.5H4.00019C2.90019 20.5 2.00019 19.6 2.00019 18.5V7.50001H22.0002V18.5C22.0002 19.6 21.1002 20.5 20.0002 20.5Z" fill="#3F51B5"/>
<path d="M9.4 3.19999L11.85 5.84999L13.85 5.49999L11.35 2.84999L9.4 3.19999ZM5.45 3.84999L7.9 6.49998L9.9 6.14999L7.4 3.54999L5.45 3.84999ZM13.35 2.54999L15.8 5.14999L17.75 4.84999L15.3 2.19999L13.35 2.54999ZM17.25 1.89999L19.75 4.49999L21.7 4.14999L19.25 1.54999L17.25 1.89999ZM3.75 4.99999C3.33578 4.99999 3 5.33577 3 5.74999C3 6.1642 3.33578 6.49998 3.75 6.49998C4.16421 6.49998 4.5 6.1642 4.5 5.74999C4.5 5.33577 4.16421 4.99999 3.75 4.99999Z" fill="#9FA8DA"/>
<path d="M20 7.5L18 10.5H20L22 7.5H20ZM16 7.5L14 10.5H16L18 7.5H16ZM12 7.5L10 10.5H12L14 7.5H12ZM8 7.5L6 10.5H8L10 7.5H8ZM4 7.5L2 10.5H4L6 7.5H4Z" fill="#9FA8DA"/>
</g>
<defs>
<clipPath id="clip0_24270_6548">
<rect width="24" height="24" fill="white"/>
</clipPath>
</defs>
</svg>
