<svg width="24" height="24" viewBox="0 0 24 24" fill="none" xmlns="http://www.w3.org/2000/svg">
<g clip-path="url(#clip0_24270_6558)">
<path d="M6 22.5L8.35 18.25L9.2 18.75L7.15 22.5H6ZM18 22.5L15.65 18.25L14.8 18.75L16.9 22.5H18Z" fill="#E63936"/>
<path d="M20 19C20 19 20 20 19 20C15.15 20 8.85 20 5 20C4 20 4 19 4 19V5C4 3.8 4.75 2.7 5.9 2.3L7.5 1.7C7.85 1.55 8.2 1.5 8.5 1.5H15.5C15.85 1.5 16.2 1.55 16.5 1.7L18.15 2.3C19.3 2.7 20.05 3.8 20.05 5V19H20Z" fill="url(#paint0_linear_24270_6558)"/>
<path d="M18.0998 2.3L16.4998 1.7C16.1498 1.55 15.7998 1.5 15.4998 1.5H8.4998C8.1498 1.5 7.7998 1.55 7.4998 1.7L5.8498 2.3C5.5498 2.4 5.2498 2.6 5.0498 2.8L5.3998 9.74999C5.4498 11.4 6.5998 12.85 8.1998 13.35C10.4998 14.15 13.6998 14.35 15.8498 13.35C17.5498 12.6 18.5498 11.4 18.6498 9.74999L18.9998 2.8C18.6998 2.6 18.4498 2.4 18.0998 2.3Z" fill="#9A2A28"/>
<path d="M7.58921 17.25C7.58921 17.65 6.65018 18 6.25018 18C5.85018 18 4.8335 17.65 4.8335 17.25C4.8335 16.85 5.85018 16.5 6.25018 16.5C6.65018 16.5 7.58921 16.85 7.58921 17.25ZM17.7502 16.5C17.3502 16.5 16.3335 16.85 16.3335 17.25C16.3335 17.65 17.3502 18 17.7502 18C18.1502 18 19.1724 17.65 19.1724 17.25C19.1724 16.85 18.1502 16.5 17.7502 16.5Z" fill="#F4F4F5"/>
</g>
<defs>
<linearGradient id="paint0_linear_24270_6558" x1="-0.310724" y1="27.901" x2="12.9646" y2="27.1974" gradientUnits="userSpaceOnUse">
<stop stop-color="#BD0008"/>
<stop offset="1" stop-color="#E63936"/>
</linearGradient>
<clipPath id="clip0_24270_6558">
<rect width="24" height="24" fill="white"/>
</clipPath>
</defs>
</svg>
