<svg width="24" height="24" viewBox="0 0 24 24" fill="none" xmlns="http://www.w3.org/2000/svg">
<g clip-path="url(#clip0_24394_2941)">
<g clip-path="url(#clip1_24394_2941)">
<g clip-path="url(#clip2_24394_2941)">
<path d="M2 19L8 17.5L12.5 18.5L17.5 17.5L23 19V11H22V7.5L19 6.5L16.5 7.5L11 5L5 10.5L2 11V19Z" fill="#00B8D4"/>
<path d="M15 9.82388C15.257 9.08838 15.5525 8.36938 15.9865 7.69988C16.424 7.03888 16.95 6.39038 17.78 5.91888C17.988 5.80238 18.2195 5.70488 18.4775 5.63488C18.6025 5.59738 18.741 5.57238 18.878 5.55538C19.0205 5.54088 19.1725 5.53688 19.2455 5.53838C19.7255 5.54438 20.167 5.60038 20.631 5.75038C21.085 5.89938 21.547 6.12888 21.9385 6.48438C22.3305 6.83538 22.646 7.30338 22.813 7.79838C22.979 8.28938 23.023 8.80638 22.9905 9.24738C22.953 9.73238 22.8465 10.2254 22.5725 10.6984C22.305 11.1679 21.8655 11.5624 21.3875 11.7644C20.9075 11.9709 20.4295 12.0424 19.9005 11.9734C19.4575 11.9034 19.021 11.7739 18.6045 11.5019C18.1895 11.2434 17.8355 10.7344 17.808 10.2324C17.7965 10.1094 17.7995 9.99038 17.81 9.87538C17.816 9.80688 17.826 9.77638 17.8345 9.72488L17.867 9.56238C17.915 9.35538 17.989 9.14788 18.1065 8.95888C18.2205 8.77088 18.376 8.59638 18.5715 8.49588C18.765 8.39688 18.9795 8.36088 19.169 8.40838C18.3895 8.66938 18.5005 9.54538 18.6495 10.0674C18.7525 10.3054 18.9115 10.4319 19.1545 10.5224C19.393 10.6114 19.701 10.6479 19.998 10.6364C20.214 10.6329 20.487 10.5099 20.67 10.3839C20.8555 10.2459 20.97 10.0919 21.043 9.89838C21.1135 9.70938 21.158 9.45288 21.1465 9.19538C21.146 8.89388 21.103 8.65588 21.018 8.44538C20.86 8.03788 20.5345 7.75738 20.0275 7.57338C19.783 7.48988 19.4805 7.42988 19.2165 7.41288L19.025 7.40538C18.9775 7.40788 18.9295 7.40188 18.875 7.41188C18.7675 7.41988 18.6475 7.45338 18.519 7.49538C18 7.67138 17.41 8.05888 16.838 8.48388C16.249 8.90238 15.686 9.40738 15 9.82388ZM23 14.9999C22.0675 15.2189 21.058 14.9749 20.1695 14.7284C19.272 14.4739 18.436 14.2259 17.6845 14.2719C17.2915 14.2839 16.974 14.3709 16.647 14.5054C16.325 14.6464 15.992 14.8609 15.576 15.1094C15.168 15.3614 14.665 15.6094 14.128 15.7714C13.59 15.9344 13.032 15.9919 12.5 15.9999C12.2605 15.9979 11.9545 15.9799 11.6885 15.9444C11.4155 15.9089 11.1395 15.8534 10.871 15.7729C10.3345 15.6109 9.8315 15.3624 9.423 15.1114C8.5845 14.5989 8.113 14.2994 7.302 14.2754C6.579 14.2279 5.723 14.4769 4.832 14.7304C3.9425 14.9764 2.9325 15.2204 2 14.9999C2.924 14.7859 3.671 14.3374 4.459 13.8589C5.2475 13.3914 6.114 12.8819 7.243 12.7389C7.752 12.6749 8.3655 12.6949 8.91049 12.8584C9.46249 13.0129 9.92949 13.2639 10.32 13.4524C11.0945 13.8439 11.7085 14.0034 12.5 13.9999C13.2915 14.0049 13.9055 13.8454 14.6805 13.4544C15.0705 13.2649 15.5385 13.0149 16.09 12.8604C16.6335 12.6974 17.246 12.6769 17.77 12.7419C18.871 12.8834 19.757 13.3944 20.5395 13.8609C21.3285 14.3389 22.076 14.7879 23 14.9999ZM2 18.9999C2.924 18.7879 3.6715 18.3389 4.46 17.8614C5.2425 17.3944 6.1285 16.8839 7.2295 16.7424C7.754 16.6774 8.366 16.6979 8.9095 16.8609C9.4615 17.0154 9.929 17.2654 10.319 17.4549C11.0945 17.8454 11.7085 18.0049 12.5 17.9999C13.2915 18.0034 13.9055 17.8439 14.6795 17.4519C15.07 17.2634 15.537 17.0124 16.089 16.8579C16.634 16.6944 17.2475 16.6744 17.7565 16.7384C18.886 16.8814 19.752 17.3914 20.5405 17.8584C21.329 18.3374 22.076 18.7859 23 18.9999C22.0675 19.2204 21.0575 18.9764 20.1685 18.7304C19.2775 18.4769 18.4215 18.2279 17.6985 18.2754C16.8875 18.2994 16.416 18.5984 15.5775 19.1114C15.169 19.3624 14.666 19.6109 14.1295 19.7729C13.861 19.8534 13.585 19.9084 13.312 19.9444C13.0455 19.9799 12.7395 19.9979 12.5 19.9999C11.968 19.9919 11.41 19.9344 10.8715 19.7714C10.335 19.6094 9.832 19.3614 9.4235 19.1094C9.0075 18.8609 8.6745 18.6464 8.3525 18.5054C8.0255 18.3709 7.708 18.2844 7.315 18.2719C6.5635 18.2259 5.7275 18.4739 4.83 18.7284C3.942 18.9749 2.9325 19.2189 2 18.9999Z" fill="#80DEEA"/>
<path d="M2 11C3.2005 10.8035 4.8905 9.828 5.6855 8.9095C5.6855 8.9095 8.5 4 11.5 4C15 4 15.877 5.859 16.179 6.5785C16.477 7.2955 16.5425 8.0675 16.4765 8.73C16.436 9.1405 16.354 9.4795 16.2035 9.8545C16.056 10.2185 15.83 10.564 15.5535 10.8565C14.9965 11.4535 14.2545 11.773 13.555 11.914C13.3775 11.949 13.1995 11.9715 13.021 11.9855C12.833 11.998 12.6845 12.0075 12.436 11.991C12.07 11.956 11.738 11.8755 11.3995 11.757C11.065 11.637 10.7325 11.4745 10.434 11.2365C10.136 11.0035 9.8785 10.683 9.7415 10.3225C9.608 9.9615 9.5855 9.5845 9.6315 9.255C9.6745 8.94 9.7505 8.601 9.913 8.3045C10.069 8.0045 10.309 7.7375 10.6 7.573C10.895 7.4165 11.2225 7.347 11.528 7.39C10.9225 7.5345 10.5265 7.998 10.4425 8.496C10.3965 8.751 10.3885 9.003 10.4195 9.2735C10.4435 9.531 10.515 9.748 10.63 9.924C10.8515 10.2715 11.2635 10.4725 11.7545 10.56C11.995 10.6035 12.2605 10.619 12.496 10.6125C12.548 10.607 12.7005 10.582 12.81 10.555C12.9295 10.527 13.0475 10.491 13.161 10.452C14.1095 10.128 14.5585 9.4785 14.5755 8.634C14.6115 7.6325 14 6 11.5 6C10 6 6.518 9.589 6.518 9.589C5 11 3.209 11.197 2 11Z" fill="#80DEEA"/>
</g>
</g>
</g>
<defs>
<clipPath id="clip0_24394_2941">
<rect width="24" height="24" fill="white"/>
</clipPath>
<clipPath id="clip1_24394_2941">
<rect width="24" height="24" fill="white"/>
</clipPath>
<clipPath id="clip2_24394_2941">
<rect width="24" height="24" fill="white" transform="translate(0.5)"/>
</clipPath>
</defs>
</svg>
