<svg width="124" height="52" viewBox="0 0 124 52" fill="none" xmlns="http://www.w3.org/2000/svg">
<path d="M26.6968 0.9021H0V42.2337C0 47.1293 3.96858 51.0979 8.86421 51.0979H14.89V21.5731H8.984V15.7973H26.5718V21.5731H20.6658V51.0979H26.6968C31.5924 51.0979 35.561 47.1293 35.561 42.2337V9.77152C35.561 4.87589 31.5924 0.907305 26.6968 0.907305V0.9021Z" fill="white"/>
<path d="M20.6657 6.93309V0.9021H14.8951V6.93309H8.98914V12.7089H26.5717V6.93309H20.6657Z" fill="#D22735"/>
<path d="M47.3729 33.4268H50.3259V42.2858H53.1487V33.4268H56.1017V30.5831H47.3729V33.4268Z" fill="white"/>
<path d="M60.461 37.8901H63.5442V35.1715H60.461V33.4267H64.9556V30.5831H57.6434V42.2857H64.966V39.463H60.461V37.8901Z" fill="white"/>
<path d="M74.2884 37.3797C75.08 36.6297 75.4759 35.6767 75.4759 34.5153C75.4759 33.3538 75.08 32.4685 74.2884 31.7081C73.4864 30.9581 72.351 30.5831 70.8823 30.5831H66.4971V42.2857H69.3199V38.5203H70.8823L72.9395 42.2857H75.7727L73.4343 37.9786C73.7624 37.8068 74.0488 37.6089 74.2884 37.3797ZM70.5959 36.3745H69.3199V33.4267H70.5959C71.1479 33.4267 71.5594 33.5622 71.8198 33.833C72.0802 34.1038 72.2156 34.4527 72.2156 34.8746C72.2156 35.8693 71.6739 36.3693 70.5959 36.3693V36.3745Z" fill="white"/>
<path d="M82.7258 37.9214L79.7155 30.604H76.8927V42.2858H79.7155L79.7207 37.3172L81.8352 42.2858H83.6268L85.7413 37.3225L85.7517 42.2858H88.5745V30.604H85.7517L82.7258 37.9214Z" fill="white"/>
<path d="M93.0686 30.5831H90.2458V42.2857H93.0686V30.5831Z" fill="white"/>
<path d="M100.511 36.3797L97.428 30.5831H94.6052V42.2857H97.428L97.4437 36.3797L100.511 42.2857H103.334V30.5831H100.511V36.3797Z" fill="white"/>
<path d="M107.975 30.604L103.464 42.2858H106.287L107.303 39.6817H111.449L112.329 42.2858H115.282L110.798 30.604H107.985H107.975ZM108.23 37.2547L109.308 34.4476L110.521 37.2443L108.23 37.26V37.2547Z" fill="white"/>
<path d="M119.505 39.463V30.5831H116.688V42.2857H124V39.463H119.505Z" fill="white"/>
<path d="M47.3729 18.6617H50.3259V27.5207H53.1487V18.6617H56.1017V15.8181H47.3729V18.6617Z" fill="white"/>
<path d="M70.8615 15.8181H68.0387V27.5208H70.8615V15.8181Z" fill="white"/>
<path d="M84.1369 15.8181H81.3141V27.5208H84.1369V15.8181Z" fill="white"/>
<path d="M98.902 15.8181H96.0792V27.5208H98.902V15.8181Z" fill="white"/>
<path d="M75.2259 15.8181H72.4031V27.5208H79.7205V24.698H75.2259V15.8181Z" fill="white"/>
<path d="M88.7567 19.0836C88.7567 18.8388 89.1161 18.2555 90.1108 18.2555C91.1056 18.2555 91.6628 19.0107 91.6628 19.5367L94.4336 18.8024C94.2981 18.0003 93.9075 17.3389 93.2617 16.8129C92.4441 16.1462 91.3816 15.8181 90.1212 15.8181C88.8609 15.8181 87.7776 16.1358 87.0068 16.7712C86.236 17.4066 85.7568 18.0733 85.7568 19.1305C85.7568 22.8699 91.5378 21.9585 91.5378 24.172C91.5378 24.5261 90.9597 25.0209 90.1004 25.0209C89.4598 25.0209 88.5744 24.6511 88.5744 23.9949C88.5744 23.3387 88.5744 23.3439 88.5744 23.3439L85.7672 24.0522C85.7672 25.1198 86.1891 25.9687 87.0328 26.5937C87.8661 27.2083 88.9442 27.5208 90.2671 27.5208C91.5899 27.5208 92.543 27.2291 93.3138 26.6406C94.095 26.0625 94.4804 25.2396 94.4804 24.172C94.4804 20.3492 88.7567 21.2137 88.7567 19.0888V19.0836Z" fill="white"/>
<path d="M66.4972 19.1201C66.4972 18.1201 66.1743 17.3181 65.5233 16.7191C64.8618 16.1202 63.9244 15.8181 62.7005 15.8181H57.6382V27.5208H62.7005C63.94 27.5208 64.8827 27.2187 65.5233 26.6198C66.1743 26.0208 66.4972 25.2188 66.4972 24.2188C66.4972 23.6407 66.3774 23.1303 66.1378 22.6876C65.8983 22.2502 65.5441 21.8908 65.0754 21.62C66.0232 21.0888 66.5024 20.2555 66.5024 19.1149L66.4972 19.1201ZM63.2265 24.4584C63.065 24.6198 62.8307 24.698 62.5234 24.698H60.4662V22.7918H62.3619C63.1015 22.7918 63.4713 23.1095 63.4713 23.7501C63.4713 24.0522 63.3932 24.2865 63.2317 24.4532L63.2265 24.4584ZM62.3567 20.5731H60.461V18.667H62.5182C62.8307 18.667 63.065 18.7451 63.2213 18.9066C63.3827 19.0784 63.4609 19.3128 63.4609 19.6096C63.4609 20.2502 63.0911 20.5679 62.3515 20.5679L62.3567 20.5731Z" fill="white"/>
</svg>
