<svg width="24" height="24" viewBox="0 0 24 24" fill="none" xmlns="http://www.w3.org/2000/svg">
<g clip-path="url(#clip0_23295_101721)">
<g clip-path="url(#clip1_23295_101721)">
<path d="M8 14.5L2.5 18.5L3 12" fill="#FFCA28"/>
<path d="M20 2.5L19.883 8.5145L15 5" fill="#1E88E5"/>
<path d="M14.5 16.5L18 22L20.5 16" fill="#5C6BC0"/>
<path d="M8 15L10 21.5L14 16.5" fill="#E53935"/>
<path d="M9 6.5L14 11.5L15 5.5" fill="#66BB6A"/>
<path d="M9 7L6.5 12.5L3.5 7" fill="#FF7043"/>
<path d="M16.7405 16.8254C11.2335 16.8254 6.264 15.1514 2.1875 11.8899L2.8125 11.1089C7.711 15.0274 13.9745 16.5479 20.926 15.5049L21.0745 16.4939C19.5985 16.7159 18.152 16.8254 16.7405 16.8254Z" fill="#D7CCC8"/>
<path d="M6.09905 7.3553C4.83455 7.3553 3.72505 7.2268 2.86255 6.9803L3.13705 6.0188C6.23955 6.9048 14.588 6.1898 20.1835 1.6123L20.8165 2.3863C16.592 5.8438 10.4355 7.3553 6.09905 7.3553Z" fill="#D7CCC8"/>
<path d="M6.20029 3.10006L4.19995 4.59961L4.79947 5.39934L6.79981 3.8998L6.20029 3.10006Z" fill="#1E88E5"/>
<path d="M16.6577 8.52494L16.3416 9.47363L17.8414 9.97354L18.1576 9.02484L16.6577 8.52494Z" fill="#FF7043"/>
<path d="M16.8536 12.6464L16.1465 13.3535L17.6466 14.8536L18.3537 14.1465L16.8536 12.6464Z" fill="#E53935"/>
<path d="M11 11H10V13H11V11Z" fill="#5C6BC0"/>
<path d="M8.52577 3.34158L8.02539 4.84131L8.97351 5.15764L9.47389 3.65792L8.52577 3.34158Z" fill="#FFCA28"/>
<path d="M6.41605 18.2222L5.58398 18.7769L6.58405 20.2771L7.41612 19.7224L6.41605 18.2222Z" fill="#66BB6A"/>
</g>
</g>
<defs>
<clipPath id="clip0_23295_101721">
<rect width="24" height="24" fill="white"/>
</clipPath>
<clipPath id="clip1_23295_101721">
<rect width="24" height="24" fill="white"/>
</clipPath>
</defs>
</svg>
