<svg width="24" height="24" viewBox="0 0 24 24" fill="none" xmlns="http://www.w3.org/2000/svg">
<g clip-path="url(#clip0_24275_7536)">
<path d="M14.25 3H9.75C9.336 3 9 3.336 9 3.75V4.5H15V3.75C15 3.336 14.664 3 14.25 3Z" fill="url(#paint0_linear_24275_7536)"/>
<path d="M21 4.5H3C2.45 4.5 2 4.95 2 5.5V19.5C2 20.05 2.45 20.5 3 20.5H21C21.55 20.5 22 20.05 22 19.5V5.5C22 4.95 21.55 4.5 21 4.5Z" fill="url(#paint1_linear_24275_7536)"/>
<path d="M19.5 4.5H18.5V20.5H19.5V4.5Z" fill="#FABB62"/>
<path d="M5.5 4.5H4.5V20.5H5.5V4.5Z" fill="#FABB62"/>
<path d="M17.3274 13.168L13.1679 17.3275C12.9384 17.557 12.5659 17.557 12.3359 17.3275L10.6719 15.6635C10.4424 15.434 10.4424 15.0615 10.6719 14.8315L14.8314 10.672C15.0609 10.4425 15.4334 10.4425 15.6634 10.672L17.3274 12.336C17.5574 12.566 17.5574 12.9385 17.3274 13.168Z" fill="white"/>
<path d="M15.2479 11.6709L16.3294 12.7524L12.7519 16.3299L11.6704 15.2484L15.2479 11.6709Z" fill="#37C6D0"/>
<path d="M10 12C11.1046 12 12 11.1046 12 10C12 8.89543 11.1046 8 10 8C8.89543 8 8 8.89543 8 10C8 11.1046 8.89543 12 10 12Z" fill="white"/>
<path d="M10 11C10.5523 11 11 10.5523 11 10C11 9.44771 10.5523 9 10 9C9.44771 9 9 9.44771 9 10C9 10.5523 9.44771 11 10 11Z" fill="url(#paint2_linear_24275_7536)"/>
</g>
<defs>
<linearGradient id="paint0_linear_24275_7536" x1="12" y1="4.4895" x2="12" y2="3.154" gradientUnits="userSpaceOnUse">
<stop stop-color="#B33F20"/>
<stop offset="0.129" stop-color="#C74724"/>
<stop offset="0.295" stop-color="#D94F29"/>
<stop offset="0.469" stop-color="#E4532B"/>
<stop offset="0.659" stop-color="#E8552C"/>
</linearGradient>
<linearGradient id="paint1_linear_24275_7536" x1="12" y1="4.5235" x2="12" y2="19.5965" gradientUnits="userSpaceOnUse">
<stop stop-color="#FC7D5B"/>
<stop offset="0.06" stop-color="#F8734F"/>
<stop offset="0.18" stop-color="#F3653D"/>
<stop offset="0.326" stop-color="#F05B31"/>
<stop offset="0.523" stop-color="#EE552A"/>
<stop offset="1" stop-color="#ED5328"/>
</linearGradient>
<linearGradient id="paint2_linear_24275_7536" x1="9" y1="10" x2="11" y2="10" gradientUnits="userSpaceOnUse">
<stop stop-color="#FEDE00"/>
<stop offset="1" stop-color="#FFD000"/>
</linearGradient>
<clipPath id="clip0_24275_7536">
<rect width="24" height="24" fill="white"/>
</clipPath>
</defs>
</svg>
