<svg width="80" height="80" viewBox="0 0 80 80" fill="none" xmlns="http://www.w3.org/2000/svg">
<g clip-path="url(#clip0_11002_14985)">
<path d="M73.3336 34.3333V22.6667C73.3336 19 70.3336 16 66.667 16H57.5003C57.5003 17.3333 56.3336 18.5 55.0003 18.5C53.667 18.5 52.5003 17.3333 52.5003 16H13.3337C9.66699 16 6.66699 19 6.66699 22.6667V34.3333C10.3337 34.3333 13.3337 37.3333 13.3337 41C13.3337 44.6666 10.3337 47.6666 6.66699 47.6666V59.3333C6.66699 63 9.66699 66 13.3337 66H52.5003C52.5003 64.6666 53.667 63.5 55.0003 63.5C56.3336 63.5 57.5003 64.6666 57.5003 66H66.667C70.3336 66 73.3336 63 73.3336 59.3333V47.6666C69.667 47.6666 66.667 44.6666 66.667 41C66.667 37.3333 69.667 34.3333 73.3336 34.3333ZM55.0003 60.1666C53.667 60.1666 52.5003 59 52.5003 57.6666C52.5003 56.3333 53.667 55.1666 55.0003 55.1666C56.3336 55.1666 57.5003 56.3333 57.5003 57.6666C57.5003 59 56.3336 60.1666 55.0003 60.1666ZM55.0003 51.8333C53.667 51.8333 52.5003 50.6666 52.5003 49.3333C52.5003 48 53.667 46.8333 55.0003 46.8333C56.3336 46.8333 57.5003 48 57.5003 49.3333C57.5003 50.6666 56.3336 51.8333 55.0003 51.8333ZM55.0003 43.5C53.667 43.5 52.5003 42.3333 52.5003 41C52.5003 39.6667 53.667 38.5 55.0003 38.5C56.3336 38.5 57.5003 39.6667 57.5003 41C57.5003 42.3333 56.3336 43.5 55.0003 43.5ZM55.0003 35.1667C53.667 35.1667 52.5003 34 52.5003 32.6667C52.5003 31.3333 53.667 30.1667 55.0003 30.1667C56.3336 30.1667 57.5003 31.3333 57.5003 32.6667C57.5003 34 56.3336 35.1667 55.0003 35.1667ZM55.0003 26.8333C53.667 26.8333 52.5003 25.6667 52.5003 24.3333C52.5003 23 53.667 21.8333 55.0003 21.8333C56.3336 21.8333 57.5003 23 57.5003 24.3333C57.5003 25.6667 56.3336 26.8333 55.0003 26.8333Z" fill="#3054AD"/>
<path opacity="0.3" d="M72.8973 50.3206C70.2693 48.7996 67.2614 47.9973 64.1964 48C54.7003 48.0028 47.0029 55.4265 47 64.5849C47 65.066 47.0293 65.5329 47.0734 66H70.0655C71.6842 65.9954 72.9952 64.731 73 63.1698V50.4057C72.9707 50.3774 72.9266 50.349 72.8973 50.3206ZM59.7946 63.1698C58.9842 63.1698 58.3273 62.5362 58.3273 61.7547C58.3273 60.9732 58.9842 60.3396 59.7946 60.3396C60.6049 60.3396 61.2619 60.9732 61.2619 61.7547C61.2595 62.5353 60.604 63.1675 59.7946 63.1698ZM59.7946 57.5094C58.9842 57.5094 58.3273 56.8759 58.3273 56.0943C58.3273 55.3128 58.9842 54.6792 59.7946 54.6792C60.6049 54.6792 61.2619 55.3128 61.2619 56.0943C61.2595 56.8749 60.604 57.5072 59.7946 57.5094ZM59.7946 51.8491C58.9842 51.8491 58.3273 51.2155 58.3273 50.434C58.3273 49.6524 58.9842 49.0189 59.7946 49.0189C60.6049 49.0189 61.2619 49.6524 61.2619 50.434C61.2595 51.2146 60.604 51.8468 59.7946 51.8491Z" fill="url(#paint0_radial_11002_14985)"/>
<path d="M65 80C73.2843 80 80 73.2843 80 65C80 56.7157 73.2843 50 65 50C56.7157 50 50 56.7157 50 65C50 73.2843 56.7157 80 65 80Z" fill="url(#paint1_linear_11002_14985)"/>
<path d="M66.2278 60.7091L66.6278 61.0091V60.5091V55V54.5L66.2278 54.8L62.5551 57.5545L62.2884 57.7545L62.5551 57.9545L66.2278 60.7091Z" fill="white" stroke="white" stroke-width="0.5"/>
<path d="M65.0002 75.2C59.9502 75.2 55.8184 71.0682 55.8184 66.0182C55.8184 63.8605 56.5988 61.7486 58.022 60.0959L59.3993 61.2895C58.2515 62.575 57.6547 64.2736 57.6547 66.0182C57.6547 70.0582 60.9602 73.3636 65.0002 73.3636C69.0402 73.3636 72.3456 70.0582 72.3456 66.0182C72.3456 61.9782 69.0402 58.6727 65.0002 58.6727V56.8364C70.0502 56.8364 74.182 60.9682 74.182 66.0182C74.182 71.0682 70.0502 75.2 65.0002 75.2Z" fill="white" stroke="white" stroke-width="0.7" stroke-linejoin="round"/>
</g>
<defs>
<radialGradient id="paint0_radial_11002_14985" cx="0" cy="0" r="1" gradientUnits="userSpaceOnUse" gradientTransform="translate(64.5867 65.0236) scale(17.6923 17.0632)">
<stop offset="0.771"/>
<stop offset="0.941" stop-opacity="0.098"/>
<stop offset="1" stop-opacity="0"/>
</radialGradient>
<linearGradient id="paint1_linear_11002_14985" x1="50" y1="65" x2="80" y2="65" gradientUnits="userSpaceOnUse">
<stop stop-color="#21AD64"/>
<stop offset="1" stop-color="#088242"/>
</linearGradient>
<clipPath id="clip0_11002_14985">
<rect width="80" height="80" fill="white"/>
</clipPath>
</defs>
</svg>
