<svg width="69" height="28" viewBox="0 0 69 28" fill="none" xmlns="http://www.w3.org/2000/svg">
<path d="M14.8917 0H0V23.0544C0 25.7859 2.21412 28 4.94562 28H8.30736V11.5292H5.01399V8.30813H14.8233V11.5292H11.5292V28H14.8917C17.6232 28 19.8373 25.7859 19.8373 23.0544V4.94562C19.8373 2.21412 17.6232 0 14.8917 0Z" fill="#13103E"/>
<path d="M11.5289 3.36728V0H8.30781V3.36728H5.01367V6.58833H14.823V3.36728H11.5289Z" fill="#D22735"/>
<path fill-rule="evenodd" clip-rule="evenodd" d="M25.8936 10.4575C25.6234 10.1263 25.4883 9.59755 25.4883 8.87117C25.4883 8.14107 25.6234 7.6086 25.8936 7.27376C26.1633 6.93944 26.5588 6.77201 27.0801 6.77148C27.54 6.77201 27.8995 6.90156 28.1586 7.16011C28.4283 6.90156 28.7628 6.77201 29.1623 6.77148C29.5846 6.77201 29.9125 6.92434 30.1462 7.22846C30.3804 7.53257 30.4975 7.99272 30.4975 8.60891C30.4975 9.09581 30.4575 9.50934 30.3775 9.84948C30.2975 10.1902 30.1873 10.5221 30.0469 10.8453H28.9915C29.1356 10.5141 29.2429 10.1833 29.3133 9.85266C29.3838 9.52152 29.419 9.12601 29.419 8.66613C29.419 8.25923 29.3764 7.96915 29.2911 7.7959C29.2053 7.62264 29.0805 7.53602 28.9168 7.53602C28.7573 7.53602 28.6185 7.59138 28.5003 7.70212C28.6147 8.0216 28.672 8.41128 28.672 8.87117C28.672 9.60126 28.5358 10.1308 28.2635 10.4598C27.9917 10.7889 27.5972 10.9534 27.0801 10.9534C26.5588 10.9534 26.1633 10.7881 25.8936 10.4575ZM27.3654 10.0752C27.4375 9.99518 27.4897 9.85902 27.522 9.6667C27.5543 9.4749 27.5705 9.20972 27.5705 8.87117C27.5705 8.5289 27.5543 8.26187 27.522 8.07008C27.4897 7.87775 27.4375 7.74079 27.3654 7.6592C27.2929 7.57708 27.1977 7.53602 27.0801 7.53602C26.9545 7.53602 26.8566 7.57522 26.7861 7.65364C26.7156 7.73152 26.6645 7.86636 26.6327 8.05816C26.6004 8.25048 26.5842 8.52149 26.5842 8.87117C26.5842 9.21714 26.6004 9.48523 26.6327 9.67544C26.6645 9.86564 26.7156 9.99969 26.7861 10.0776C26.8566 10.1555 26.9545 10.1944 27.0801 10.1944C27.1977 10.1944 27.2929 10.1547 27.3654 10.0752Z" fill="#13103E"/>
<path fill-rule="evenodd" clip-rule="evenodd" d="M31.2704 10.5549C30.9912 10.2884 30.8516 9.90799 30.8516 9.41367C30.8516 9.01842 30.9522 8.69046 31.1535 8.42979C31.3554 8.16912 31.6389 8.00276 32.0039 7.9307C32.0188 7.88514 32.0262 7.82977 32.0262 7.7646C32.0262 7.68884 32.0121 7.62817 31.9841 7.58261C31.9554 7.53704 31.9125 7.4875 31.8553 7.43399C31.7753 7.35823 31.7144 7.28326 31.6725 7.20908C31.6307 7.13491 31.6097 7.0255 31.6097 6.88086H32.6143C32.618 6.92642 32.6323 6.96642 32.6572 7.00086C32.6816 7.03477 32.7205 7.07848 32.774 7.13199C32.8577 7.2157 32.9213 7.29465 32.9647 7.36882C33.0087 7.443 33.0307 7.54075 33.0307 7.66208C33.0307 7.73467 33.0021 7.82791 32.9449 7.94182C33.2908 8.02925 33.56 8.20223 33.7523 8.46078C33.9441 8.71934 34.04 9.04067 34.04 9.42479C34.04 9.73315 33.9765 10.0023 33.8493 10.2322C33.7216 10.4622 33.538 10.6399 33.2985 10.7655C33.0591 10.8911 32.7738 10.9539 32.4426 10.9539C31.9409 10.9539 31.5501 10.8209 31.2704 10.5549ZM32.9393 9.42479C32.9393 9.16624 32.8993 8.97153 32.8193 8.84067C32.7393 8.70927 32.6138 8.64357 32.4426 8.64357C32.2678 8.64357 32.1403 8.70821 32.0603 8.83749C31.9809 8.96677 31.9411 9.15883 31.9411 9.41367C31.9411 9.67593 31.9809 9.8717 32.0603 10.001C32.1403 10.1303 32.2678 10.1949 32.4426 10.1949C32.7738 10.1949 32.9393 9.93819 32.9393 9.42479Z" fill="#13103E"/>
<path d="M34.7889 7.23402C35.0569 6.92566 35.4458 6.77148 35.9555 6.77148C36.4615 6.77201 36.8504 6.92513 37.1222 7.23084C37.394 7.53708 37.5299 8.00782 37.5299 8.64308C37.5299 9.11462 37.4986 9.52735 37.4361 9.88127C37.3731 10.2347 37.2864 10.556 37.1762 10.8453H36.1725C36.2636 10.5141 36.333 10.1766 36.3807 9.83279C36.4284 9.48841 36.4522 9.09952 36.4522 8.66613C36.4522 8.26293 36.4141 7.97392 36.3378 7.79907C36.2615 7.6237 36.134 7.53602 35.9555 7.53602C35.777 7.53602 35.6496 7.62158 35.5733 7.79272C35.4975 7.96385 35.4596 8.25684 35.4596 8.67169C35.4596 9.10508 35.485 9.49397 35.5359 9.83836C35.5873 10.1822 35.6625 10.5179 35.7616 10.8453H34.7515C34.6376 10.5449 34.5483 10.2177 34.4837 9.86379C34.4191 9.5104 34.3867 9.10349 34.3867 8.64308C34.3867 8.01153 34.5208 7.54185 34.7889 7.23402Z" fill="#13103E"/>
<path d="M40.7315 10.44C40.5413 10.3451 40.3055 10.2977 40.0242 10.2977C39.781 10.2977 39.5577 10.3271 39.3542 10.3859C39.1508 10.4447 38.9539 10.5237 38.7637 10.6228L38.4951 9.94962C38.5868 9.90776 38.7039 9.87147 38.8464 9.84074C38.9889 9.81054 39.1171 9.79544 39.231 9.79544C38.9614 9.66987 38.7343 9.54536 38.55 9.42192C38.3651 9.29847 38.208 9.1321 38.0787 8.92282C37.9494 8.71355 37.8848 8.45473 37.8848 8.14637C37.8848 7.68649 37.9923 7.34237 38.2074 7.11401C38.422 6.88619 38.7177 6.77201 39.0944 6.77148C39.6268 6.77201 39.9368 6.99083 40.0242 7.42793C40.066 7.21495 40.1527 7.05229 40.2841 6.93997C40.4149 6.82818 40.5927 6.77201 40.8173 6.77148C41.034 6.77201 41.207 6.82818 41.3363 6.93997C41.4656 7.05229 41.5511 7.21495 41.593 7.42793C41.6311 7.21495 41.7291 7.05229 41.887 6.93997C42.0449 6.82818 42.2513 6.77201 42.5061 6.77148C42.8902 6.77201 43.1944 6.89096 43.4185 7.12832C43.6431 7.36621 43.7555 7.71907 43.7555 8.1869C43.7555 8.70772 43.6031 9.19436 43.2985 9.64683L42.3917 9.22482C42.4908 9.04257 42.5591 8.87329 42.5967 8.71699C42.6349 8.56122 42.6539 8.38055 42.6539 8.17498C42.6539 7.93179 42.6283 7.76172 42.5769 7.66476C42.5255 7.56781 42.4465 7.51933 42.34 7.51933C42.2563 7.51933 42.1909 7.54794 42.1437 7.60516C42.096 7.66185 42.0722 7.74927 42.0722 7.86742V8.75116H41.0852V7.86742C41.0852 7.63536 40.9959 7.51933 40.8173 7.51933C40.7336 7.51933 40.6671 7.54794 40.6179 7.60516C40.5681 7.66185 40.5432 7.74927 40.5432 7.86742V8.75116H39.5561V7.86186C39.5561 7.6335 39.4705 7.51933 39.2994 7.51933C39.0864 7.51933 38.9802 7.71695 38.9807 8.1122C38.9807 8.38983 39.0377 8.61526 39.1516 8.78851C39.2655 8.96177 39.4242 9.09687 39.6276 9.19383C39.8311 9.29079 40.1002 9.38112 40.435 9.46483C40.9675 9.59782 41.385 9.77266 41.6876 9.98936C41.9896 10.2061 42.1578 10.4914 42.1922 10.8453H41.1138C41.0491 10.6704 40.9217 10.5353 40.7315 10.44Z" fill="#13103E"/>
<path d="M44.5213 7.23402C44.7894 6.92566 45.1783 6.77148 45.688 6.77148C46.1934 6.77201 46.5823 6.92513 46.8546 7.23084C47.1264 7.53708 47.2623 8.00782 47.2623 8.64308C47.2623 9.11462 47.2311 9.52735 47.1685 9.88127C47.1055 10.2347 47.0189 10.556 46.9087 10.8453H45.9049C45.9961 10.5141 46.0654 10.1766 46.1131 9.83279C46.1603 9.48841 46.1839 9.09952 46.1839 8.66613C46.1839 8.26293 46.146 7.97392 46.0702 7.79907C45.9939 7.6237 45.8665 7.53602 45.688 7.53602C45.5089 7.53602 45.3815 7.62158 45.3057 7.79272C45.2294 7.96385 45.1913 8.25684 45.1913 8.67169C45.1913 9.10508 45.2169 9.49397 45.2683 9.83836C45.3197 10.1822 45.3949 10.5179 45.494 10.8453H44.4839C44.37 10.5449 44.2808 10.2177 44.2161 9.86379C44.1515 9.5104 44.1191 9.10349 44.1191 8.64308C44.1191 8.01153 44.2532 7.54185 44.5213 7.23402Z" fill="#13103E"/>
<path d="M48.0614 10.597C47.7991 10.3597 47.668 10.0222 47.668 9.58454V6.88086H48.7234V9.53367C48.7234 9.7615 48.7631 9.92865 48.8426 10.0351C48.9226 10.1416 49.0405 10.1949 49.1962 10.1949C49.5009 10.1949 49.6532 9.99144 49.6532 9.58454C49.6532 9.43619 49.6371 9.31088 49.6047 9.20863C49.5724 9.10584 49.5218 8.98796 49.4529 8.85497C49.3809 8.70662 49.3258 8.57231 49.2876 8.45204C49.2495 8.3323 49.2307 8.18316 49.2312 8.00461H50.2747C50.2864 8.11852 50.3091 8.22131 50.343 8.31297C50.3775 8.40409 50.4252 8.51059 50.4861 8.63245C50.5735 8.79987 50.639 8.95087 50.6824 9.08545C50.7264 9.22055 50.7484 9.38691 50.7484 9.58454C50.7484 10.0105 50.6095 10.3454 50.3319 10.5891C50.0543 10.8323 49.6779 10.9539 49.2026 10.9539C48.704 10.9539 48.3236 10.8349 48.0614 10.597Z" fill="#13103E"/>
<path d="M51.5037 7.23402C51.7718 6.92566 52.1607 6.77148 52.6704 6.77148C53.1764 6.77201 53.5652 6.92513 53.837 7.23084C54.1088 7.53708 54.2448 8.00782 54.2448 8.64308C54.2448 9.11462 54.2135 9.52735 54.151 9.88127C54.0879 10.2347 54.0013 10.556 53.8911 10.8453H52.8873C52.9785 10.5141 53.0479 10.1766 53.0956 9.83279C53.1427 9.48841 53.1663 9.09952 53.1663 8.66613C53.1663 8.26293 53.1284 7.97392 53.0527 7.79907C52.9764 7.6237 52.8489 7.53602 52.6704 7.53602C52.4913 7.53602 52.3639 7.62158 52.2881 7.79272C52.2118 7.96385 52.1737 8.25684 52.1737 8.67169C52.1737 9.10508 52.1993 9.49397 52.2507 9.83836C52.3021 10.1822 52.3774 10.5179 52.4765 10.8453H51.4664C51.3525 10.5449 51.2632 10.2177 51.1985 9.86379C51.1339 9.5104 51.1016 9.10349 51.1016 8.64308C51.1016 8.01153 51.2356 7.54185 51.5037 7.23402Z" fill="#13103E"/>
<path d="M55.0438 10.597C54.7815 10.3597 54.6504 10.0222 54.6504 9.58454V6.88086H55.7058V9.53367C55.7058 9.7615 55.7455 9.92865 55.825 10.0351C55.905 10.1416 56.0229 10.1949 56.1787 10.1949C56.4833 10.1949 56.6356 9.99144 56.6356 9.58454C56.6356 9.43619 56.6194 9.31088 56.5871 9.20863C56.5548 9.10584 56.5042 8.98796 56.4354 8.85497C56.3633 8.70662 56.3082 8.57231 56.27 8.45204C56.2319 8.3323 56.2131 8.18316 56.2136 8.00461H57.2571C57.2688 8.11852 57.2915 8.22131 57.3254 8.31297C57.3599 8.40409 57.4076 8.51059 57.4685 8.63245C57.5559 8.79987 57.6213 8.95087 57.6648 9.08545C57.7088 9.22055 57.7308 9.38691 57.7308 9.58454C57.7308 10.0105 57.5919 10.3454 57.3143 10.5891C57.0367 10.8323 56.6602 10.9539 56.185 10.9539C55.6864 10.9539 55.306 10.8349 55.0438 10.597Z" fill="#13103E"/>
<path d="M25.8989 15.5254C25.5869 15.1148 25.4311 14.571 25.4316 13.8939C25.4316 13.506 25.4772 13.1571 25.5683 12.8472C25.6594 12.5373 25.7736 12.2776 25.9108 12.0684H26.909C26.7909 12.3576 26.6976 12.6506 26.6293 12.9473C26.5609 13.244 26.5268 13.5595 26.5268 13.8939C26.5268 14.3506 26.5903 14.713 26.7175 14.9811C26.8452 15.2491 27.0457 15.3832 27.3191 15.3832C27.5093 15.3832 27.654 15.3289 27.7531 15.2203C27.8521 15.1117 27.9017 14.9662 27.9017 14.784C27.9017 14.6091 27.854 14.4703 27.7586 14.3675C27.6638 14.2647 27.5231 14.2133 27.3366 14.2133H27.1141L27.2341 13.4607H27.4678C27.5933 13.4607 27.6874 13.4377 27.7499 13.3916C27.8129 13.346 27.8444 13.2835 27.8444 13.204C27.8444 13.1203 27.8264 13.0499 27.7904 12.9926C27.7538 12.9354 27.6977 12.8726 27.6219 12.8043C27.5117 12.7015 27.428 12.5998 27.3708 12.4991C27.3136 12.3984 27.2849 12.2549 27.2849 12.0684H28.272C28.2837 12.1447 28.3104 12.213 28.3523 12.2734C28.3941 12.3343 28.4569 12.4085 28.5406 12.4959C28.6546 12.6141 28.7401 12.7198 28.7973 12.813C28.854 12.9063 28.8824 13.0212 28.8824 13.1579C28.8824 13.5081 28.641 13.7307 28.1584 13.8255C28.4206 13.8674 28.6259 13.9768 28.7743 14.1537C28.9226 14.3307 28.9968 14.5577 28.9968 14.8348C28.9968 15.086 28.9311 15.3106 28.7997 15.5088C28.6688 15.7064 28.4768 15.8613 28.2235 15.9737C27.9708 16.0855 27.6693 16.1414 27.3191 16.1414C26.6844 16.1414 26.211 15.9361 25.8989 15.5254Z" fill="#13103E"/>
<path d="M31.1874 14.8355V13.1761C31.1874 13.0314 31.1561 12.9202 31.0936 12.8423C31.0306 12.7644 30.9384 12.7255 30.817 12.7255C30.7026 12.7255 30.6131 12.7596 30.5484 12.828C30.4838 12.8963 30.4515 12.9856 30.4515 13.0958C30.4515 13.214 30.4668 13.3186 30.4976 13.4097L29.5216 13.575C29.4379 13.3965 29.3961 13.2272 29.3961 13.0672C29.3961 12.8505 29.4551 12.6584 29.5733 12.491C29.6909 12.3241 29.8562 12.1941 30.0692 12.1008C30.2822 12.0076 30.5293 11.9609 30.8107 11.9609C31.1 11.9609 31.353 12.0121 31.5697 12.1143C31.7864 12.2171 31.9527 12.3628 32.0687 12.5514C32.1848 12.7395 32.2428 12.9551 32.2428 13.1983V14.8474C32.2428 15.0906 32.1858 15.3113 32.0719 15.5094C31.9575 15.707 31.7901 15.862 31.5697 15.9743C31.3493 16.0861 31.083 16.142 30.7709 16.142C30.4705 16.142 30.2102 16.0851 29.9898 15.9712C29.7688 15.8572 29.5995 15.7012 29.4819 15.5031C29.3638 15.3054 29.3047 15.0829 29.3047 14.8355C29.3047 14.6077 29.3656 14.3759 29.4875 14.1401L30.4062 14.4135C30.3606 14.5507 30.3378 14.6895 30.3378 14.8299C30.3378 14.9936 30.3749 15.1269 30.4491 15.2297C30.5227 15.3325 30.63 15.3838 30.7709 15.3838C31.0486 15.3838 31.1874 15.2011 31.1874 14.8355Z" fill="#13103E"/>
<path fill-rule="evenodd" clip-rule="evenodd" d="M33.0187 15.7532C32.7601 15.4947 32.6309 15.1296 32.6309 14.6581V13.2149C32.6309 12.7926 32.7421 12.4834 32.9646 12.2874C33.1871 12.0919 33.4696 11.9941 33.8118 11.9941C33.922 11.9941 34.1008 12.0074 34.3483 12.0339C34.5231 12.0567 34.6524 12.0681 34.7361 12.0681C34.9337 12.0681 35.1162 12.0434 35.2837 11.9941L35.3981 12.7356C35.2418 12.8077 35.0516 12.8437 34.8275 12.8437C34.7475 12.8437 34.6314 12.8323 34.4794 12.8095C34.4147 12.8021 34.3472 12.7936 34.2767 12.7841C34.2063 12.7746 34.1369 12.7698 34.0685 12.7698C33.9392 12.7698 33.8433 12.7963 33.7808 12.8493C33.7178 12.9028 33.6862 12.9884 33.6862 13.106V13.4604C33.77 13.3915 33.8794 13.3362 34.0145 13.2943C34.1496 13.2525 34.295 13.2315 34.4508 13.2315C34.6977 13.2315 34.9162 13.2888 35.1064 13.4032C35.2966 13.5171 35.445 13.6787 35.5515 13.888C35.658 14.0973 35.7112 14.3367 35.7112 14.6064C35.7112 15.0743 35.5772 15.447 35.3091 15.7246C35.041 16.0022 34.6561 16.1411 34.1544 16.1411C33.6558 16.1411 33.2772 16.0118 33.0187 15.7532ZM33.792 15.1945C33.8624 15.3201 33.9832 15.3829 34.1544 15.3829C34.4659 15.3829 34.6216 15.1394 34.6216 14.6525C34.6216 14.4093 34.5846 14.2316 34.5104 14.1193C34.4362 14.0069 34.3194 13.9508 34.1599 13.9508C33.9771 13.9508 33.8192 14.0077 33.6862 14.1216V14.6525C33.6862 14.8883 33.7215 15.069 33.792 15.1945Z" fill="#13103E"/>
<path fill-rule="evenodd" clip-rule="evenodd" d="M36.421 12.8709C36.6966 12.5302 37.0873 12.3125 37.5933 12.2176L37.5702 11.9609H38.4945L38.4723 12.2176C38.9814 12.3088 39.3759 12.5236 39.6556 12.8622C39.9354 13.2007 40.0752 13.6323 40.0752 14.1568C40.0752 14.5563 39.9952 14.9052 39.8352 15.2034C39.6757 15.5023 39.4429 15.7325 39.1366 15.8941C38.8304 16.0557 38.4643 16.1365 38.0383 16.1365C37.6087 16.1365 37.2417 16.0575 36.9376 15.8996C36.633 15.7417 36.402 15.5137 36.2446 15.2154C36.0868 14.9165 36.0078 14.5637 36.0078 14.1568C36.0078 13.6397 36.1455 13.2111 36.421 12.8709ZM38.0383 15.3838C38.3541 15.3838 38.5928 15.284 38.7544 15.0842C38.916 14.8845 38.9968 14.5753 38.9968 14.1568C38.9968 13.8225 38.952 13.5602 38.8625 13.37C38.7735 13.1798 38.6413 13.0314 38.4659 12.9249C38.504 13.0961 38.5231 13.2937 38.5231 13.5178V14.4477H37.5535V13.5409C37.5535 13.3279 37.5726 13.1226 37.6108 12.9249C37.4317 13.0314 37.2995 13.1787 37.2142 13.3668C37.1284 13.5554 37.0855 13.8188 37.0855 14.1568C37.0855 14.9748 37.4031 15.3838 38.0383 15.3838Z" fill="#13103E"/>
<path d="M40.4707 15.2662C40.4082 14.9907 40.377 14.6667 40.377 14.2943C40.377 13.7311 40.4797 13.2916 40.6853 12.9758C40.8903 12.6606 41.2231 12.4476 41.6835 12.3368C41.942 12.2764 42.2197 12.2253 42.5164 12.1835C42.7484 12.1453 42.9291 12.1119 43.0584 12.0833C43.1876 12.0547 43.3111 12.0139 43.4287 11.9609L43.7713 12.6166C43.6075 12.7385 43.4041 12.8269 43.1609 12.882C42.9172 12.9371 42.6281 12.9819 42.2938 13.0163C41.9706 13.0465 41.7404 13.0903 41.6032 13.1475C41.4665 13.2042 41.3659 13.2879 41.3012 13.3986C41.4305 13.2921 41.5998 13.2389 41.8091 13.2389C42.003 13.2389 42.1664 13.294 42.2994 13.4042C42.4324 13.5144 42.5198 13.6701 42.5617 13.8715C42.6152 13.6664 42.7256 13.5096 42.893 13.401C43.0599 13.2929 43.2727 13.2389 43.5312 13.2389C43.9079 13.2389 44.2065 13.3509 44.4269 13.575C44.6478 13.7997 44.7583 14.1419 44.7583 14.6018C44.7583 14.8758 44.7268 15.1203 44.6637 15.3354C44.6012 15.5499 44.5109 15.7828 44.3927 16.0339H43.4176C43.5167 15.7637 43.5909 15.5288 43.6401 15.329C43.6894 15.1293 43.714 14.9097 43.714 14.6702C43.714 14.2214 43.5962 13.997 43.3604 13.997C43.159 13.997 43.0584 14.1359 43.0584 14.4135V15.2925H42.0713V14.4135C42.0713 14.1359 41.9743 13.997 41.7804 13.997C41.6623 13.997 41.5727 14.0503 41.5118 14.1568C41.4514 14.2633 41.4212 14.4326 41.4212 14.6646C41.4212 14.9083 41.4448 15.1309 41.4919 15.3322C41.5396 15.5341 41.613 15.768 41.7121 16.0339H40.7362C40.6223 15.7982 40.5338 15.5423 40.4707 15.2662Z" fill="#13103E"/>
<path d="M47.0869 14.7267C47.0869 14.51 47.049 14.3209 46.9732 14.1593C46.8969 13.9977 46.7809 13.8104 46.6252 13.5974C46.5033 13.4263 46.4044 13.2761 46.3287 13.1468C46.2524 13.0175 46.1886 12.8626 46.1372 12.6819C46.0858 12.5012 46.0601 12.2967 46.0601 12.0684H47.1274C47.1311 12.266 47.1738 12.4466 47.2553 12.6104C47.3375 12.7741 47.4583 12.9698 47.6178 13.1977C47.7396 13.373 47.8384 13.5262 47.9142 13.657C47.9905 13.7884 48.0551 13.9378 48.1081 14.1053C48.1616 14.2727 48.1884 14.4552 48.1884 14.6528C48.1884 14.9607 48.1237 15.2269 47.9945 15.4515C47.8652 15.6756 47.6827 15.8468 47.4469 15.9649C47.2111 16.0826 46.9353 16.1414 46.6196 16.1414C46.2964 16.1414 46.0169 16.0807 45.7811 15.9594C45.5454 15.8375 45.3647 15.6653 45.2391 15.4428C45.1135 15.2203 45.0508 14.9607 45.0508 14.664C45.0508 14.3598 45.1345 14.0536 45.3019 13.7452L46.2142 14.0647C46.1385 14.2512 46.1006 14.4568 46.1006 14.6814C46.1006 14.9018 46.1425 15.0738 46.2262 15.1972C46.3094 15.3212 46.4405 15.3832 46.6196 15.3832C46.9311 15.3832 47.0869 15.1644 47.0869 14.7267Z" fill="#13103E"/>
<path d="M51.2901 15.6286C51.0999 15.5338 50.8641 15.4864 50.5828 15.4864C50.3391 15.4864 50.1155 15.5158 49.912 15.5746C49.7086 15.6334 49.5117 15.7123 49.3215 15.8114L49.0537 15.1383C49.1448 15.0964 49.2617 15.0604 49.4042 15.0302C49.5467 14.9995 49.6752 14.9841 49.7896 14.9841C49.5194 14.8585 49.2921 14.734 49.1077 14.6106C48.9234 14.4871 48.7665 14.3208 48.6373 14.1115C48.508 13.9022 48.4434 13.6437 48.4434 13.3358C48.4434 12.8754 48.5506 12.531 48.7652 12.3027C48.9803 12.0749 49.2762 11.9609 49.6529 11.9609C50.1849 11.9609 50.4948 12.1795 50.5828 12.6166C50.6246 12.4036 50.711 12.2409 50.8418 12.1286C50.9732 12.0168 51.151 11.9609 51.3751 11.9609C51.5918 11.9609 51.765 12.0168 51.8949 12.1286C52.0241 12.2409 52.1097 12.4036 52.1516 12.6166C52.1892 12.4036 52.287 12.2409 52.4448 12.1286C52.6027 12.0168 52.8091 11.9609 53.0639 11.9609C53.448 11.9609 53.7524 12.0796 53.9771 12.317C54.2012 12.5549 54.3132 12.9077 54.3132 13.3756C54.3132 13.8964 54.1612 14.383 53.857 14.8355L52.9503 14.4135C53.0488 14.2312 53.1172 14.0619 53.1553 13.9056C53.1935 13.7499 53.2125 13.5692 53.2125 13.3636C53.2125 13.1205 53.1869 12.9504 53.1355 12.8534C53.0841 12.7565 53.0051 12.708 52.8986 12.708C52.8149 12.708 52.7492 12.7366 52.7015 12.7938C52.6544 12.8505 52.6308 12.9379 52.6308 13.0561V13.9406H51.6437V13.0561C51.6437 12.824 51.5542 12.708 51.3751 12.708C51.2914 12.708 51.2249 12.7366 51.1756 12.7938C51.1264 12.8505 51.1017 12.9379 51.1017 13.0561V13.9406H50.1147V13.0505C50.1147 12.8222 50.0291 12.708 49.858 12.708C49.645 12.708 49.5385 12.9059 49.5385 13.3017C49.5385 13.5793 49.5954 13.8045 49.7093 13.9772C49.8238 14.1504 49.9827 14.2855 50.1862 14.3825C50.3896 14.4794 50.6585 14.5698 50.9929 14.6535C51.5253 14.7865 51.9428 14.9613 52.2453 15.178C52.5479 15.3947 52.7161 15.68 52.75 16.0339H51.6723C51.6072 15.8591 51.4798 15.724 51.2901 15.6286Z" fill="#13103E"/>
<path d="M56.7268 15.2297C56.8031 15.1269 56.8412 14.9862 56.8412 14.8077V13.033C56.8412 12.828 56.7615 12.7255 56.602 12.7255C56.4346 12.7255 56.3509 12.828 56.3509 13.033V13.7403H55.3924V13.045C55.3924 12.8812 55.3201 12.7994 55.1755 12.7994C55.149 12.7994 55.1015 12.8031 55.0332 12.8105C54.9643 12.8185 54.909 12.8224 54.8671 12.8224C54.723 12.8224 54.6091 12.788 54.5254 12.7191L54.6565 11.9895C54.7439 12.0123 54.8258 12.0237 54.9021 12.0237C54.9588 12.0237 55.0157 12.0179 55.0729 12.0062C55.1068 12.0025 55.1429 11.9988 55.181 11.9951C55.2192 11.9914 55.2573 11.9895 55.2955 11.9895C55.4396 11.9895 55.5707 12.0322 55.6889 12.1175C55.8065 12.2033 55.8902 12.3318 55.94 12.5029C56.0009 12.3239 56.1103 12.1888 56.2682 12.0976C56.4256 12.0065 56.6166 11.9609 56.8412 11.9609C57.1644 11.9609 57.4211 12.0539 57.6113 12.2399C57.8015 12.4264 57.8966 12.6757 57.8966 12.9877V14.8641C57.8966 15.1115 57.8386 15.3311 57.7226 15.5229C57.6066 15.7153 57.4354 15.8665 57.2092 15.9767C56.983 16.0869 56.7064 16.142 56.3795 16.142C56.0674 16.142 55.7972 16.0851 55.5689 15.9712C55.341 15.8572 55.167 15.7004 55.0467 15.5007C54.927 15.3009 54.8671 15.0755 54.8671 14.8244C54.8671 14.5812 54.9317 14.3454 55.061 14.117L55.9742 14.3912C55.9249 14.5205 55.9003 14.663 55.9003 14.8188C55.9003 14.9899 55.9392 15.1269 56.0171 15.2297C56.095 15.3325 56.2158 15.3838 56.3795 15.3838C56.5353 15.3838 56.651 15.3325 56.7268 15.2297Z" fill="#13103E"/>
<path d="M58.3379 15.2662C58.2754 14.9907 58.2441 14.6667 58.2441 14.2943C58.2441 13.7311 58.3467 13.2916 58.5517 12.9758C58.7573 12.6606 59.0903 12.4476 59.5507 12.3368C59.8092 12.2764 60.0869 12.2253 60.3836 12.1835C60.6151 12.1453 60.7955 12.1119 60.9248 12.0833C61.054 12.0547 61.1778 12.0139 61.2959 11.9609L61.6384 12.6166C61.4747 12.7385 61.2713 12.8269 61.0281 12.882C60.7844 12.9371 60.4954 12.9819 60.161 13.0163C59.8373 13.0465 59.6071 13.0903 59.4704 13.1475C59.3337 13.2042 59.233 13.2879 59.1684 13.3986C59.2977 13.2921 59.4667 13.2389 59.6755 13.2389C59.8699 13.2389 60.0336 13.294 60.1666 13.4042C60.2996 13.5144 60.387 13.6701 60.4289 13.8715C60.4819 13.6664 60.592 13.5096 60.7595 13.401C60.9269 13.2929 61.1399 13.2389 61.3984 13.2389C61.7751 13.2389 62.0737 13.3509 62.2941 13.575C62.515 13.7997 62.6255 14.1419 62.6255 14.6018C62.6255 14.8758 62.594 15.1203 62.5309 15.3354C62.4684 15.5499 62.3781 15.7828 62.2599 16.0339H61.2848C61.3834 15.7637 61.4575 15.5288 61.5073 15.329C61.5566 15.1293 61.5812 14.9097 61.5812 14.6702C61.5812 14.2214 61.4633 13.997 61.2276 13.997C61.0257 13.997 60.9248 14.1359 60.9248 14.4135V15.2925H59.9385V14.4135C59.9385 14.1359 59.8416 13.997 59.6476 13.997C59.5295 13.997 59.44 14.0503 59.379 14.1568C59.3181 14.2633 59.2876 14.4326 59.2876 14.6646C59.2876 14.9083 59.3115 15.1309 59.3592 15.3322C59.4069 15.5341 59.48 15.768 59.5785 16.0339H58.6034C58.4894 15.7982 58.401 15.5423 58.3379 15.2662Z" fill="#13103E"/>
<path d="M63.3865 12.4227C63.6546 12.1149 64.0435 11.9609 64.5532 11.9609C65.0586 11.9609 65.4475 12.1141 65.7198 12.4203C65.9916 12.726 66.1276 13.1965 66.1276 13.8317C66.1276 14.3033 66.096 14.716 66.033 15.0699C65.9705 15.4233 65.8841 15.7447 65.7739 16.0339H64.7702C64.8613 15.7028 64.9307 15.3653 64.9784 15.0215C65.0255 14.6771 65.0491 14.2882 65.0491 13.8548C65.0491 13.4516 65.0112 13.1626 64.9355 12.9877C64.8592 12.8129 64.7317 12.7255 64.5532 12.7255C64.3741 12.7255 64.2467 12.811 64.1709 12.9822C64.0946 13.1533 64.0565 13.446 64.0565 13.8603C64.0565 14.2937 64.0822 14.6826 64.1336 15.027C64.1849 15.3714 64.2602 15.707 64.3593 16.0339H63.3492C63.2353 15.7335 63.146 15.4064 63.0813 15.0524C63.0167 14.6991 62.9844 14.2922 62.9844 13.8317C62.9844 13.2007 63.1184 12.731 63.3865 12.4227Z" fill="#13103E"/>
<path d="M27.4568 19.9142C27.4568 19.6975 27.4187 19.5084 27.3424 19.3468C27.2666 19.1852 27.1506 18.9979 26.9943 18.7849C26.873 18.6138 26.7741 18.4636 26.6978 18.3343C26.6215 18.205 26.558 18.0501 26.5071 17.8694C26.4557 17.6887 26.43 17.4842 26.43 17.2559H27.4965C27.5003 17.454 27.5432 17.6347 27.6253 17.7979C27.7069 17.9616 27.8274 18.1576 27.9869 18.386C28.1088 18.5608 28.2078 18.7137 28.2841 18.8445C28.3599 18.9759 28.4245 19.1253 28.478 19.2928C28.531 19.4602 28.5575 19.6427 28.5575 19.8403C28.5575 20.1482 28.4929 20.4144 28.3636 20.639C28.2343 20.8637 28.0518 21.0348 27.816 21.1524C27.5803 21.2701 27.3045 21.3289 26.9887 21.3289C26.6655 21.3289 26.386 21.2682 26.1503 21.1469C25.9145 21.025 25.7338 20.8528 25.6082 20.6303C25.4827 20.4078 25.4199 20.1482 25.4199 19.8515C25.4199 19.5473 25.5036 19.2414 25.671 18.9335L26.5842 19.253C26.5079 19.439 26.4698 19.6443 26.4698 19.8689C26.4698 20.0893 26.5116 20.2613 26.5953 20.3847C26.679 20.5087 26.8102 20.5707 26.9887 20.5707C27.3008 20.5707 27.4568 20.3519 27.4568 19.9142Z" fill="#13103E"/>
<path d="M30.6509 20.4227C30.723 20.3242 30.759 20.1931 30.759 20.0293C30.759 19.6415 30.6011 19.4476 30.2854 19.4476H30.0573L30.1772 18.7228H30.2909C30.5495 18.7228 30.6787 18.5858 30.6787 18.3119C30.6787 18.1864 30.6464 18.0886 30.5818 18.0187C30.5171 17.9482 30.4279 17.913 30.314 17.913C30.1921 17.913 30.0999 17.9453 30.0374 18.0099C29.9749 18.0746 29.9433 18.1638 29.9428 18.2778C29.9428 18.3461 29.9523 18.4089 29.9714 18.4661L28.9851 18.6433C28.9279 18.4833 28.8993 18.3329 28.8993 18.1919C28.8993 17.9943 28.9555 17.8165 29.0678 17.6587C29.1796 17.5008 29.343 17.3763 29.5581 17.2851C29.7727 17.194 30.0247 17.1484 30.314 17.1484C30.599 17.1484 30.8501 17.198 31.0674 17.2971C31.2841 17.3956 31.4512 17.5275 31.5688 17.6928C31.687 17.8587 31.7461 18.0367 31.7461 18.2269C31.7461 18.6794 31.4931 18.9684 30.9871 19.0939C31.2722 19.1358 31.4888 19.2431 31.6372 19.4158C31.7855 19.5891 31.8597 19.8087 31.8597 20.0746C31.8597 20.3067 31.7991 20.5178 31.6777 20.708C31.5559 20.8982 31.3789 21.0495 31.1468 21.1618C30.9148 21.2736 30.6409 21.3295 30.3251 21.3295C30.0173 21.3295 29.7521 21.2744 29.5295 21.1642C29.307 21.054 29.1377 20.9038 29.0217 20.7136C28.9057 20.5234 28.8477 20.3123 28.8477 20.0802C28.8477 19.8561 28.9028 19.6489 29.013 19.4587L29.9261 19.721C29.8917 19.8121 29.8745 19.9263 29.8745 20.0635C29.8745 20.2156 29.9107 20.3382 29.9833 20.4315C30.0554 20.5247 30.1693 20.5713 30.3251 20.5713C30.4697 20.5713 30.5783 20.5218 30.6509 20.4227Z" fill="#13103E"/>
<path fill-rule="evenodd" clip-rule="evenodd" d="M32.5812 18.0584C32.8572 17.7177 33.248 17.5 33.7534 17.4051L33.7312 17.1484H34.6555L34.6324 17.4051C35.1421 17.4963 35.5366 17.7111 35.8158 18.0497C36.0955 18.3882 36.2354 18.8198 36.2354 19.3443C36.2354 19.7438 36.1554 20.0929 35.9954 20.3917C35.8359 20.69 35.6031 20.92 35.2968 21.0816C34.9906 21.2432 34.6245 21.324 34.1985 21.324C33.7688 21.324 33.4019 21.245 33.0978 21.0871C32.7931 20.9298 32.5622 20.7017 32.4048 20.4029C32.2469 20.1046 32.168 19.7517 32.168 19.3443C32.168 18.8272 32.3057 18.3986 32.5812 18.0584ZM34.1985 20.5713C34.5143 20.5713 34.753 20.4715 34.9146 20.2717C35.0762 20.072 35.1569 19.7628 35.1569 19.3443C35.1569 19.01 35.1122 18.7477 35.0226 18.5575C34.9336 18.3673 34.8017 18.2189 34.6269 18.1124C34.6645 18.2836 34.6833 18.4812 34.6833 18.7053V19.636H33.7137V18.7284C33.7137 18.5154 33.7328 18.3101 33.7709 18.1124C33.5919 18.2189 33.4596 18.3662 33.3743 18.5543C33.2885 18.7429 33.2456 19.0063 33.2456 19.3443C33.2456 20.1623 33.5632 20.5713 34.1985 20.5713Z" fill="#13103E"/>
<path d="M36.7157 20.2233C36.6357 19.8847 36.5957 19.472 36.5957 18.9851C36.5957 18.3615 36.7118 17.8995 36.9438 17.5991C37.1759 17.2986 37.5163 17.1484 37.965 17.1484C38.2082 17.1484 38.4135 17.2083 38.5809 17.328C38.7484 17.4478 38.8644 17.6293 38.9291 17.8724C39.0658 17.3898 39.408 17.1484 39.9559 17.1484C40.3739 17.1484 40.6981 17.3005 40.9286 17.6046C41.1585 17.9087 41.2735 18.3689 41.2735 18.9851C41.2735 19.472 41.2335 19.8855 41.1535 20.2256C41.074 20.5663 40.9639 20.8982 40.8229 21.2214H39.7961C39.9291 20.8829 40.0289 20.5483 40.0957 20.2177C40.1619 19.8866 40.195 19.4948 40.195 19.0423C40.195 18.6237 40.1628 18.3299 40.0981 18.1609C40.0335 17.9919 39.9291 17.9074 39.785 17.9074C39.6743 17.9074 39.5913 17.9434 39.5362 18.0155C39.4811 18.0875 39.4536 18.2073 39.4536 18.3747V20.0691H38.4101V18.3747C38.4101 18.2036 38.3825 18.0838 38.3274 18.0155C38.2718 17.9471 38.1947 17.913 38.0962 17.913C37.9399 17.913 37.8297 17.9985 37.7656 18.1697C37.7004 18.3408 37.6678 18.6335 37.6678 19.0478C37.6678 19.5003 37.7022 19.8921 37.7711 20.2233C37.8395 20.5539 37.942 20.8866 38.0787 21.2214H37.0519C36.9073 20.8945 36.7952 20.5618 36.7157 20.2233Z" fill="#13103E"/>
<path d="M42.0661 20.9728C41.8033 20.7349 41.6719 20.3974 41.6719 19.9603V17.2559H42.7273V19.9087C42.7273 20.137 42.7673 20.3045 42.8473 20.4109C42.9273 20.5174 43.0452 20.5707 43.2009 20.5707C43.505 20.5707 43.6571 20.3672 43.6571 19.9603C43.6571 19.812 43.6409 19.6864 43.6086 19.5836C43.5763 19.4808 43.526 19.363 43.4576 19.23C43.3856 19.0816 43.3305 18.9476 43.2923 18.8278C43.2542 18.7081 43.2351 18.5587 43.2351 18.3796H44.2794C44.2905 18.4941 44.3133 18.5968 44.3477 18.688C44.3816 18.7791 44.4291 18.8856 44.49 19.0074C44.5774 19.1749 44.6431 19.3261 44.6871 19.4612C44.7311 19.5963 44.7531 19.7627 44.7531 19.9603C44.7531 20.3863 44.6142 20.7209 44.3366 20.9641C44.0584 21.2078 43.6818 21.3294 43.2065 21.3289C42.7085 21.3289 42.3283 21.2102 42.0661 20.9728Z" fill="#13103E"/>
<path d="M47.0752 19.9142C47.0752 19.6975 47.0373 19.5084 46.9615 19.3468C46.8852 19.1852 46.7692 18.9979 46.6134 18.7849C46.4916 18.6138 46.3925 18.4636 46.3162 18.3343C46.2404 18.205 46.1769 18.0501 46.1255 17.8694C46.0741 17.6887 46.0484 17.4842 46.0484 17.2559H47.1149C47.1186 17.454 47.1615 17.6347 47.2436 17.7979C47.3252 17.9616 47.446 18.1576 47.606 18.386C47.7274 18.5608 47.8262 18.7137 47.9025 18.8445C47.9782 18.9759 48.0429 19.1253 48.0964 19.2928C48.1494 19.4602 48.1759 19.6427 48.1759 19.8403C48.1759 20.1482 48.1112 20.4144 47.9819 20.639C47.8527 20.8637 47.6702 21.0348 47.4344 21.1524C47.1986 21.2701 46.9228 21.3289 46.6071 21.3289C46.2839 21.3289 46.0044 21.2682 45.7686 21.1469C45.5329 21.025 45.3522 20.8528 45.2266 20.6303C45.1016 20.4078 45.0391 20.1482 45.0391 19.8515C45.0385 19.5473 45.122 19.2414 45.2894 18.9335L46.2026 19.253C46.1263 19.439 46.0881 19.6443 46.0881 19.8689C46.0881 20.0893 46.13 20.2613 46.2137 20.3847C46.2974 20.5087 46.4285 20.5707 46.6071 20.5707C46.9191 20.5707 47.0752 20.3519 47.0752 19.9142Z" fill="#13103E"/>
<path fill-rule="evenodd" clip-rule="evenodd" d="M50.7316 20.8678C50.5604 20.7878 50.3665 20.7478 50.1498 20.7478C49.9676 20.7478 49.7861 20.7764 49.6054 20.8336C49.4248 20.8908 49.2603 20.9669 49.1119 21.0617L48.8433 20.36C48.935 20.3218 49.0481 20.2887 49.1827 20.2606C49.3178 20.232 49.4576 20.2177 49.6023 20.2177C48.8075 19.8526 48.4102 19.2992 48.4102 18.5575C48.4102 18.2454 48.4663 17.984 48.5786 17.7731C48.6904 17.5617 48.8433 17.4049 49.0372 17.3026C49.2311 17.1998 49.4481 17.1484 49.6881 17.1484C50.0187 17.1484 50.3077 17.2586 50.5552 17.479C50.8174 17.2586 51.1483 17.1484 51.5478 17.1484C51.8402 17.1484 52.0951 17.2065 52.3123 17.3225C52.529 17.4385 52.6943 17.5983 52.8082 17.8017C52.9221 18.0052 52.9791 18.2303 52.9791 18.4772C52.9791 18.8884 52.8508 19.2145 52.5944 19.4555C52.3374 19.6971 51.9886 19.8179 51.5478 19.8179C51.2548 19.8179 51.0007 19.7591 50.7856 19.6415C50.571 19.5234 50.4057 19.3626 50.2897 19.1591C50.1737 18.9557 50.1156 18.7284 50.1156 18.4772C50.1156 18.3024 50.1443 18.1408 50.2015 17.9924C50.1061 17.9241 50.0033 17.8899 49.8931 17.8899C49.7639 17.8899 49.6632 17.9413 49.5911 18.0441C49.5185 18.1469 49.4823 18.3008 49.4823 18.5058C49.4823 18.8825 49.5821 19.184 49.7819 19.4102C49.9816 19.6365 50.2717 19.8161 50.6521 19.9491C50.9218 20.0444 51.1557 20.1395 51.3538 20.2344C51.5515 20.3298 51.7282 20.459 51.8839 20.6222C52.0397 20.7859 52.1234 20.9857 52.1351 21.2214H51.0796C51.0187 21.0657 50.9027 20.9478 50.7316 20.8678ZM51.8442 18.9421C51.9088 18.8415 51.9412 18.6865 51.9412 18.4772C51.9412 18.0746 51.81 17.873 51.5478 17.8724C51.4142 17.873 51.3152 17.9236 51.2505 18.0242C51.1859 18.1249 51.1536 18.2799 51.1536 18.4892C51.1536 18.6905 51.1859 18.8415 51.2505 18.9421C51.3152 19.0433 51.4142 19.0939 51.5478 19.0939C51.6807 19.0939 51.7796 19.0433 51.8442 18.9421Z" fill="#13103E"/>
<path fill-rule="evenodd" clip-rule="evenodd" d="M53.9567 21.1563C53.7194 21.0402 53.5361 20.8765 53.4068 20.6651C53.2775 20.4543 53.2129 20.2082 53.2129 19.9268C53.2129 19.5803 53.3059 19.2987 53.4919 19.082C53.6784 18.8653 53.9655 18.6809 54.3533 18.5289C54.5473 18.4531 54.6908 18.3914 54.7841 18.3437C54.8773 18.296 54.943 18.2502 54.9812 18.2062C55.0193 18.1628 55.0384 18.1087 55.0384 18.0441C55.0384 17.9795 55.0164 17.9281 54.9724 17.8899C54.929 17.8518 54.8615 17.8327 54.7698 17.8327C54.6675 17.8327 54.5907 17.8518 54.5393 17.8899C54.4879 17.9281 54.4622 17.9832 54.4622 18.0552C54.4622 18.086 54.4659 18.1241 54.4733 18.1697L53.561 18.4033C53.5038 18.2778 53.4752 18.1503 53.4752 18.0211C53.4752 17.8653 53.5302 17.7209 53.6404 17.5879C53.7507 17.4544 53.9056 17.3479 54.1054 17.2684C54.3051 17.1884 54.5306 17.1484 54.7817 17.1484C55.0366 17.1484 55.2598 17.1892 55.4516 17.2708C55.644 17.3529 55.7923 17.4661 55.8967 17.6102C56.0011 17.7548 56.0533 17.9164 56.0533 18.095C56.0533 18.2513 56.0172 18.3901 55.9452 18.5114C55.8731 18.6333 55.759 18.7398 55.6027 18.8309C55.8427 18.949 56.03 19.0995 56.1645 19.2823C56.2996 19.4646 56.3672 19.6794 56.3672 19.9268C56.3672 20.2044 56.3044 20.4487 56.1789 20.6596C56.0533 20.8704 55.8718 21.0349 55.6345 21.1531C55.3966 21.2707 55.116 21.3295 54.7928 21.3295C54.4733 21.3295 54.1946 21.2718 53.9567 21.1563ZM54.4106 20.4084C54.4943 20.517 54.6217 20.5713 54.7928 20.5713C55.1277 20.5713 55.2951 20.3488 55.2951 19.9038C55.2951 19.748 55.2599 19.6081 55.1894 19.4842C55.1189 19.3607 55.0191 19.242 54.8898 19.1281C54.654 19.2309 54.4943 19.344 54.4106 19.4675C54.3269 19.5909 54.285 19.7514 54.285 19.9491C54.285 20.1472 54.3269 20.3003 54.4106 20.4084Z" fill="#13103E"/>
<path d="M58.7756 20.4172C58.8519 20.3144 58.89 20.1737 58.89 19.9952V18.2205C58.89 18.0155 58.81 17.913 58.65 17.913C58.4826 17.913 58.3992 18.0155 58.3997 18.2205V18.9278H57.4412V18.2325C57.4412 18.0687 57.3689 17.9869 57.2243 17.9869C57.1978 17.9869 57.1501 17.9906 57.0812 17.998C57.0129 18.006 56.9578 18.0099 56.9159 18.0099C56.7713 18.0099 56.6574 17.9758 56.5742 17.9074L56.7053 17.177C56.7928 17.1998 56.8744 17.2112 56.9501 17.2112C57.0073 17.2112 57.0645 17.2054 57.1218 17.1937C57.1557 17.19 57.1917 17.1863 57.2299 17.1826C57.268 17.1789 57.3062 17.177 57.3443 17.177C57.4884 17.177 57.6195 17.2197 57.7377 17.305C57.8553 17.3908 57.939 17.5193 57.9888 17.6904C58.0498 17.5119 58.1589 17.3768 58.3163 17.2851C58.4742 17.194 58.6654 17.1484 58.89 17.1484C59.2132 17.1484 59.4699 17.2417 59.6601 17.4282C59.8503 17.6142 59.9455 17.8632 59.9455 18.1752V20.0524C59.9455 20.2993 59.8875 20.5189 59.7714 20.7112C59.6554 20.903 59.4843 21.054 59.258 21.1642C59.0318 21.2744 58.7549 21.3295 58.4275 21.3295C58.116 21.3295 57.846 21.2726 57.6177 21.1587C57.3893 21.0447 57.2153 20.8879 57.0956 20.6882C56.9758 20.4884 56.9159 20.263 56.9159 20.0119C56.9159 19.7687 56.9806 19.5329 57.1098 19.3045L58.023 19.5787C57.9732 19.708 57.9483 19.8505 57.9483 20.0063C57.9483 20.1774 57.9875 20.3144 58.0659 20.4172C58.1438 20.52 58.2643 20.5713 58.4275 20.5713C58.5838 20.5713 58.6998 20.52 58.7756 20.4172Z" fill="#13103E"/>
<path d="M60.3868 20.4545C60.3242 20.1785 60.293 19.8542 60.293 19.4818C60.293 18.9186 60.3955 18.4793 60.6005 18.1641C60.8061 17.8483 61.1391 17.6353 61.5995 17.5251C61.8581 17.4642 62.1357 17.4128 62.4324 17.371C62.6639 17.3328 62.8443 17.2994 62.9736 17.2708C63.1029 17.2422 63.2266 17.2014 63.3447 17.1484L63.6873 17.8041C63.5236 17.926 63.3201 18.0144 63.0769 18.0695C62.8332 18.1246 62.5442 18.1694 62.2099 18.2038C61.8862 18.234 61.6559 18.2778 61.5193 18.335C61.3826 18.3922 61.2819 18.4759 61.2172 18.5861C61.3465 18.4796 61.5156 18.4264 61.7243 18.4264C61.9182 18.4264 62.0819 18.4815 62.2154 18.5917C62.3484 18.7019 62.4358 18.8579 62.4777 19.0598C62.5307 18.8542 62.6409 18.6971 62.8083 18.5885C62.9757 18.4804 63.1887 18.4264 63.4473 18.4264C63.824 18.4264 64.1225 18.5384 64.3429 18.7625C64.5633 18.9872 64.6738 19.3294 64.6743 19.7893C64.6738 20.0633 64.6423 20.3078 64.5797 20.5229C64.5172 20.7374 64.4269 20.9703 64.3087 21.2214H63.3336C63.4322 20.9512 63.5063 20.7165 63.5561 20.5173C63.6054 20.3176 63.6301 20.098 63.6301 19.8585C63.6301 19.4097 63.5122 19.1851 63.2764 19.1845C63.0745 19.1851 62.9736 19.3239 62.9736 19.601V20.48H61.9873V19.601C61.9873 19.3239 61.8904 19.1851 61.6965 19.1845C61.5783 19.1845 61.4888 19.2378 61.4278 19.3443C61.3669 19.4513 61.3364 19.6206 61.3364 19.8521C61.3364 20.0958 61.3603 20.3184 61.408 20.5197C61.4556 20.7216 61.5288 20.9555 61.6273 21.2214H60.6522C60.5383 20.9857 60.4498 20.73 60.3868 20.4545Z" fill="#13103E"/>
<path d="M65.4353 17.6102C65.7034 17.3024 66.0923 17.1484 66.602 17.1484C67.1075 17.1484 67.4963 17.3016 67.7687 17.6078C68.0405 17.914 68.1764 18.3845 68.1764 19.0192C68.1764 19.4908 68.1449 19.9035 68.0818 20.2574C68.0193 20.6113 67.9329 20.9327 67.8227 21.2214H66.8182C66.9098 20.8908 66.9792 20.5533 67.0264 20.209C67.0741 19.8646 67.0979 19.4757 67.0979 19.0423C67.0979 18.6391 67.0601 18.3501 66.9843 18.1752C66.908 18.0004 66.7806 17.913 66.602 17.913C66.4229 17.913 66.2955 17.9985 66.2198 18.1697C66.1435 18.3408 66.1053 18.6335 66.1053 19.0478C66.1053 19.4818 66.131 19.8707 66.1824 20.2145C66.2338 20.5589 66.309 20.8945 66.4081 21.2214H65.398C65.2841 20.921 65.1948 20.5939 65.1302 20.2399C65.0655 19.8866 65.0332 19.4797 65.0332 19.0192C65.0332 18.3882 65.1673 17.9185 65.4353 17.6102Z" fill="#13103E"/>
</svg>
