<svg width="52" height="18" viewBox="0 0 52 18" fill="none" xmlns="http://www.w3.org/2000/svg">
<path d="M1.63729 6.05933C1.61373 6.0767 1.59475 6.09901 1.58185 6.12448C1.56895 6.14995 1.56246 6.17789 1.56292 6.20612V16.2557C1.56292 16.2979 1.57741 16.339 1.60423 16.3728C1.61964 16.3914 1.63888 16.4068 1.66077 16.4182C1.68267 16.4295 1.70677 16.4366 1.73164 16.4389C1.7565 16.4413 1.7816 16.4388 1.80544 16.4318C1.82927 16.4247 1.85134 16.4131 1.87032 16.3978L4.32294 14.4288C4.82462 14.0262 5.46121 13.8049 6.11942 13.8042H14.5846C14.6098 13.8038 14.6346 13.7987 14.6577 13.7892C14.6808 13.7797 14.7017 13.766 14.7192 13.7489C14.7367 13.7318 14.7504 13.7116 14.7597 13.6895C14.7689 13.6673 14.7734 13.6437 14.773 13.6199V6.21081C14.7731 6.18246 14.7663 6.15447 14.7531 6.12902C14.74 6.10356 14.7207 6.08131 14.697 6.06402L8.28943 1.32967C8.25699 1.30535 8.2168 1.29212 8.17539 1.29212C8.13398 1.29212 8.09379 1.30535 8.06135 1.32967L1.63729 6.05933ZM0.240752 6.20612C0.239661 5.97935 0.293272 5.75532 0.397509 5.55105C0.501746 5.34679 0.653873 5.16763 0.842339 5.02721L7.26145 0.297548C7.52052 0.104803 7.84068 0 8.17044 0C8.50019 0 8.82036 0.104803 9.07942 0.297548L15.5002 5.02721C15.6884 5.16771 15.8403 5.34691 15.9443 5.55119C16.0482 5.75547 16.1015 5.97946 16.1001 6.20612V13.6152C16.1072 14.0001 15.9522 14.3719 15.6693 14.6489C15.3863 14.9259 14.9986 15.0854 14.5912 15.0924H6.12603C5.77492 15.0931 5.4356 15.2121 5.16912 15.4281L2.70989 17.4002C2.52674 17.5478 2.30839 17.6513 2.07361 17.7016C1.80042 17.7525 1.51775 17.7322 1.25577 17.6431C0.993789 17.554 0.76235 17.3994 0.586172 17.1957C0.363004 16.9291 0.24237 16.5987 0.244061 16.2588C0.222575 10.7468 0.229183 6.73077 0.240752 6.20612ZM22.8332 14.5802C22.3451 14.5924 21.8594 14.5116 21.4051 14.3426C20.9508 14.1735 20.5372 13.9198 20.1889 13.5965C19.8317 13.2594 19.5505 12.8575 19.3622 12.415C19.1738 11.9725 19.0823 11.4985 19.0932 11.0217V1.61074C19.0843 1.29142 19.207 0.98131 19.4353 0.745687C19.5405 0.633716 19.6702 0.544717 19.8155 0.484859C19.9607 0.425 20.1181 0.39572 20.2765 0.399047C20.4446 0.398625 20.6111 0.429745 20.7663 0.490606C20.9216 0.551466 21.0625 0.640854 21.1809 0.753578C21.2992 0.866302 21.3928 1.00012 21.456 1.14726C21.5192 1.2944 21.5508 1.45195 21.5491 1.61074V11.0217C21.5491 11.7899 21.992 12.2115 22.777 12.2224H22.8332C22.9964 12.2198 23.1584 12.2492 23.309 12.3089C23.4595 12.3685 23.5952 12.4572 23.7075 12.5691C23.8217 12.6806 23.9111 12.8128 23.9701 12.9576C24.0292 13.1025 24.0568 13.2571 24.0513 13.4123C24.0599 13.5663 24.0344 13.7204 23.9765 13.8646C23.9186 14.0089 23.8295 14.1401 23.7149 14.25C23.6003 14.3599 23.4627 14.446 23.3109 14.5029C23.1591 14.5597 22.9964 14.5861 22.8332 14.5802ZM27.4145 3.07071C27.236 3.07191 27.0591 3.03795 26.8952 2.97101C26.7313 2.90407 26.584 2.8056 26.4626 2.68189C26.3331 2.5589 26.2312 2.4126 26.1628 2.25166C26.0943 2.09072 26.0608 1.91843 26.0643 1.74502C26.0635 1.39577 26.2063 1.05987 26.4626 0.808149C26.5848 0.686198 26.7326 0.589618 26.8965 0.524562C27.0604 0.459506 27.2368 0.427401 27.4145 0.430278C27.5921 0.428436 27.7682 0.461018 27.932 0.526011C28.0957 0.591005 28.2436 0.687027 28.3665 0.808149C28.6221 1.06023 28.7649 1.39589 28.7648 1.74502C28.7678 1.91839 28.7342 2.09057 28.6658 2.25146C28.5974 2.41235 28.4956 2.55869 28.3665 2.68189C28.2435 2.80416 28.0957 2.90165 27.9318 2.96847C27.7679 3.03529 27.5914 3.07008 27.4129 3.07071H27.4145ZM27.4145 14.6786C27.0828 14.6741 26.766 14.5471 26.5322 14.3247C26.2984 14.1023 26.166 13.8022 26.1634 13.4888V5.34262C26.1666 5.02565 26.302 4.72267 26.5402 4.49943C26.655 4.38718 26.7923 4.29772 26.9441 4.23632C27.096 4.17491 27.2593 4.14281 27.4244 4.14187C27.587 4.14074 27.748 4.172 27.897 4.23361C28.0459 4.29522 28.1794 4.38579 28.2888 4.49943C28.508 4.73161 28.6297 5.03153 28.6309 5.34262V13.4888C28.6345 13.6445 28.605 13.7993 28.5442 13.9441C28.4835 14.0889 28.3927 14.2208 28.2772 14.332C28.1668 14.4436 28.0328 14.5321 27.884 14.5919C27.7351 14.6516 27.5746 14.6811 27.4129 14.6786H27.4145ZM35.412 14.5911C35.166 14.5937 34.9248 14.5273 34.7189 14.4002C34.513 14.2732 34.3515 14.0913 34.2551 13.8776L30.7365 5.84074C30.6647 5.68681 30.6238 5.52161 30.6158 5.35357C30.6177 5.04057 30.744 4.73965 30.9695 4.51037C31.0807 4.39316 31.2171 4.29967 31.3696 4.23613C31.522 4.17259 31.6871 4.14046 31.8537 4.14187C32.0928 4.147 32.3252 4.21701 32.5233 4.34353C32.7214 4.47006 32.8768 4.64777 32.9709 4.85545L35.3839 10.5673L37.7836 4.86639C37.8761 4.65452 38.0323 4.47293 38.233 4.34414C38.4336 4.21536 38.6698 4.14504 38.9124 4.14187C39.0793 4.14034 39.2446 4.1724 39.3974 4.23594C39.5501 4.29948 39.6868 4.39304 39.7982 4.51037C40.0101 4.7416 40.1273 5.03681 40.1288 5.34262C40.1276 5.51753 40.09 5.6905 40.0181 5.85166L36.5209 13.8776C36.2515 14.3819 35.8896 14.5911 35.4103 14.5911H35.412ZM46.419 14.7005C45.7075 14.6993 45.0036 14.5616 44.3502 14.2956C43.6967 14.0295 43.1073 13.6409 42.6178 13.1531C41.5853 12.1607 41.0086 10.8236 41.013 9.4321C41.0079 8.03469 41.5794 6.6904 42.6062 5.68459C43.0958 5.19679 43.6852 4.80808 44.3386 4.54207C44.9921 4.27607 45.6959 4.13832 46.4074 4.13718C47.1208 4.14046 47.8262 4.27911 48.4817 4.54493C49.1372 4.81075 49.7296 5.19832 50.2235 5.68459C51.2385 6.69676 51.8045 8.03782 51.8051 9.4321C51.813 10.8201 51.2453 12.1558 50.2235 13.1531C49.7302 13.6371 49.1392 14.0228 48.4855 14.2875C47.8318 14.5522 47.1285 14.6905 46.4173 14.6942L46.419 14.7005ZM46.419 12.2989C46.8098 12.2988 47.1965 12.2239 47.5558 12.0787C47.9151 11.9335 48.2396 11.7211 48.5097 11.4542C49.0581 10.9075 49.3628 10.1823 49.3606 9.42912C49.3585 8.6759 49.0496 7.95234 48.4981 7.40843C48.2292 7.14521 47.907 6.93586 47.5507 6.79286C47.1943 6.64987 46.8111 6.57618 46.4239 6.57618C46.0368 6.57618 45.6536 6.64987 45.2972 6.79286C44.9409 6.93586 44.6186 7.14521 44.3498 7.40843C43.7964 7.95209 43.4874 8.67706 43.4874 9.43132C43.4874 10.1856 43.7964 10.9105 44.3498 11.4542C44.616 11.7198 44.9365 11.9317 45.2919 12.0769C45.6473 12.2221 46.0301 12.2976 46.4173 12.2989H46.419Z" fill="#1552F5"/>
</svg>
