<svg width="77" height="24" viewBox="0 0 77 24" fill="none" xmlns="http://www.w3.org/2000/svg">
<path d="M65.202 0H11.6872C5.22846 0 0 5.22073 0 11.6699V12.3301C0 18.7793 5.22846 24 11.6872 24H65.202C71.6607 24 76.8892 18.7793 76.8892 12.3301V11.6699C76.8892 5.22073 71.6607 0 65.202 0Z" fill="#A155B9"/>
<path d="M54.4992 12.2687C54.4992 17.2591 50.4394 21.2975 45.4416 21.2975H12.164C7.16619 21.2975 3.10645 17.2591 3.10645 12.2687V11.7466C3.10645 6.75624 7.16619 2.71785 12.164 2.71785H45.4416C50.4394 2.71785 54.4992 6.75624 54.4992 11.7466V12.2687Z" fill="white"/>
<path d="M59.4044 13.7889C59.4044 14.3416 58.9277 14.8177 58.3741 14.8177C57.7897 14.8177 57.3438 14.3416 57.3438 13.7889C57.3438 13.2361 57.7897 12.7601 58.3741 12.7601C58.9277 12.7601 59.4044 13.2361 59.4044 13.7889Z" fill="white"/>
<path d="M65.4327 9.07486C65.0636 9.16699 64.6176 9.21305 64.0025 9.21305C64.7714 9.53551 65.1405 9.99616 65.1405 10.7639C65.1405 11.9309 64.1871 12.7754 62.6339 12.7754C62.3725 12.7754 62.1572 12.7601 61.9419 12.714C61.8035 12.7754 61.7266 12.929 61.7266 13.0518C61.7266 13.2361 61.8035 13.405 62.3879 13.405H63.3105C64.7099 13.405 65.6172 14.142 65.6172 15.1555C65.6172 16.3992 64.51 17.1516 62.4494 17.1516C60.4195 17.1516 59.7275 16.5528 59.5891 15.5701C59.5583 15.3858 59.7275 15.2322 59.912 15.2322H60.9116C61.05 15.2322 61.173 15.3244 61.2038 15.4626C61.2806 15.8157 61.6036 15.9693 62.4955 15.9693C63.5566 15.9693 63.7872 15.6775 63.7872 15.2937C63.7872 14.9405 63.5566 14.6948 62.9415 14.6948H62.0649C60.7424 14.6948 60.2196 14.1574 60.2196 13.5125C60.2196 13.0825 60.5118 12.6219 60.927 12.3608C60.1581 11.9463 59.8351 11.4242 59.8351 10.6411C59.8351 9.27447 60.927 8.42994 62.4801 8.42994C63.6181 8.46065 64.3562 8.19962 64.9867 7.8311C65.1405 7.73897 65.3558 7.8311 65.4327 8.01536L65.648 8.67563C65.7248 8.84453 65.6172 9.02879 65.4327 9.07486ZM61.6343 10.595C61.6343 11.2553 62.0034 11.6084 62.557 11.6084C63.1414 11.6084 63.4643 11.2553 63.4643 10.5643C63.4643 9.90403 63.1721 9.58158 62.557 9.58158C62.0034 9.59693 61.6343 9.98081 61.6343 10.595Z" fill="white"/>
<path d="M71.4606 12.1459H67.7391C67.8468 13.2207 68.3696 13.5125 69.1078 13.5125C69.5076 13.5125 69.8767 13.3896 70.2919 13.144C70.4303 13.0518 70.6148 13.0979 70.7224 13.2054L71.0915 13.7274C71.1992 13.8656 71.1684 14.0653 71.0146 14.1727C70.461 14.5413 69.769 14.8177 68.9232 14.8177C66.9087 14.8177 65.9092 13.5278 65.9092 11.6545C65.9092 9.84261 66.8934 8.41459 68.7079 8.41459C70.4303 8.41459 71.4913 9.55087 71.4913 11.4856C71.4913 11.7006 71.4913 11.977 71.4606 12.1459ZM69.7536 10.9942C69.7229 10.1804 69.4922 9.61229 68.7695 9.61229C68.1543 9.61229 67.816 9.99616 67.7391 11.071H69.7536V10.9942Z" fill="white"/>
<path d="M17.623 10.5029V14.9866C17.623 15.1555 17.4846 15.309 17.3 15.309H15.9776C15.793 15.309 15.6546 15.1708 15.6546 14.9866V10.8407C15.6546 10.1344 15.4239 9.9501 15.101 9.9501C14.7012 9.9501 14.3936 10.2726 14.1168 10.81V14.9866C14.1168 15.1555 13.9631 15.309 13.7939 15.309H12.4406C12.2869 15.309 12.1485 15.1708 12.1485 14.9866V10.8407C12.1485 10.1344 11.887 9.9501 11.5641 9.9501C11.1643 9.9501 10.8567 10.2726 10.5646 10.81V14.9866C10.5646 15.1555 10.4262 15.309 10.2724 15.309H8.91913C8.76535 15.309 8.59619 15.1708 8.59619 14.9866V9.04415C8.59619 8.87525 8.74997 8.7217 8.91913 8.7217H10.0571C10.2109 8.7217 10.3185 8.82918 10.3493 8.98273L10.4569 9.50481C10.9644 8.84454 11.5641 8.52208 12.3638 8.52208C13.1019 8.52208 13.6555 8.8906 13.9169 9.55087C14.4398 8.85989 15.0549 8.52208 15.8699 8.52208C16.931 8.52208 17.623 9.25912 17.623 10.5029Z" fill="#414042"/>
<path d="M22.7436 15.309C22.2361 16.8752 21.2058 17.8273 19.3297 18.0115C19.1759 18.0269 19.0068 17.9194 18.9914 17.7505L18.8838 16.9674C18.853 16.8138 18.9607 16.6449 19.1144 16.6296C20.0063 16.476 20.4677 16.1843 20.7752 15.6315C20.5599 15.5854 20.2985 15.2323 20.2216 14.9866L18.3917 9.13628C18.3148 8.93667 18.4686 8.72169 18.6838 8.72169H20.0832C20.237 8.72169 20.3447 8.82918 20.4062 8.96738L21.5134 14.0346L22.759 8.95202C22.7897 8.81383 22.9128 8.72169 23.0512 8.72169H24.4044C24.6197 8.72169 24.7735 8.93667 24.6966 9.13628L22.7436 15.309Z" fill="#414042"/>
<path d="M47.0562 11.2399C45.8721 10.8868 45.7029 10.7486 45.7029 10.3954C45.7029 10.1037 45.9643 9.90403 46.5026 9.90403C46.9331 9.90403 47.3483 10.0115 47.7482 10.2111C47.7943 10.2265 47.8251 10.2572 47.8712 10.2726C48.0096 10.3493 48.2095 10.3033 48.3018 10.1651L48.6862 9.53551C48.7785 9.39732 48.7323 9.1977 48.5939 9.12092C48.5478 9.09021 48.4402 9.02879 48.4402 9.02879C47.8866 8.70634 47.1792 8.50672 46.4257 8.50672C44.7649 8.50672 43.7345 9.38196 43.7345 10.5182C43.7345 11.5317 44.3804 12.2073 45.6722 12.5758C46.8562 12.9136 47.0562 13.0518 47.0562 13.4971C47.0562 13.8964 46.7025 14.1113 46.1027 14.1113C45.5953 14.1113 45.1186 13.9578 44.688 13.6967C44.6418 13.6507 44.5803 13.62 44.5342 13.5739C44.4112 13.4818 44.2266 13.5432 44.1344 13.6814L43.6577 14.3417C43.5654 14.4798 43.5962 14.6641 43.7038 14.7716C43.7499 14.8023 43.7807 14.833 43.8268 14.8637C44.4419 15.263 45.2416 15.524 46.1642 15.524C47.7943 15.524 49.086 14.7255 49.086 13.3589C49.086 12.1612 48.3633 11.6084 47.0562 11.2399Z" fill="#414042"/>
<path d="M42.8579 11.9616C42.8579 14.0192 41.8737 15.4933 40.2129 15.4933C39.4748 15.4933 38.875 15.1708 38.4752 14.6488L38.4291 14.9712C38.3983 15.1555 38.2446 15.2783 38.06 15.2783H36.999C36.799 15.2783 36.6299 15.1094 36.6299 14.9098V6.3263C36.6299 6.14204 36.7683 5.97313 36.9682 5.95778L38.2138 5.81958C38.4291 5.78887 38.629 5.97313 38.629 6.18811V9.30519C39.0288 8.75241 39.6747 8.41459 40.4282 8.41459C41.9814 8.42995 42.8579 9.73513 42.8579 11.9616ZM40.8127 11.9616C40.8127 10.2726 40.3667 9.87333 39.7362 9.87333C39.2902 9.87333 38.8904 10.1651 38.6136 10.6564V13.4204C38.8597 13.8196 39.2287 14.0653 39.6593 14.0653C40.3359 14.0653 40.8127 13.5278 40.8127 11.9616Z" fill="#414042"/>
<path d="M28.0647 14.5873C28.0647 16.6142 27.0959 17.428 25.6965 17.9808C25.5273 18.0422 25.3274 17.9808 25.2505 17.8119L24.8661 16.9674C24.7892 16.7985 24.8661 16.5989 25.0199 16.5221C25.6965 16.1843 26.081 15.7697 26.081 14.7102V9.07486C26.081 8.8906 26.2347 8.73705 26.4193 8.73705H27.711C27.8955 8.73705 28.0493 8.8906 28.0493 9.07486V14.5873H28.0647Z" fill="#414042"/>
<path d="M35.6306 12.0077C35.6306 14.1113 34.4157 15.4933 32.4012 15.4933C30.4175 15.4933 29.1719 14.2035 29.1719 11.9923C29.1719 9.88868 30.3867 8.50672 32.4012 8.50672C34.4003 8.52208 35.6306 9.79655 35.6306 12.0077ZM31.2017 12.0077C31.2017 13.4664 31.6016 14.0653 32.3858 14.0653C33.1855 14.0653 33.5699 13.4357 33.5699 12.023C33.5699 10.5643 33.1701 9.9501 32.3858 9.9501C31.6016 9.93474 31.2017 10.5797 31.2017 12.0077Z" fill="#414042"/>
<path d="M28.2493 6.47985C28.2493 7.12477 27.7572 7.60078 27.0652 7.60078C26.3732 7.60078 25.8965 7.10941 25.8965 6.47985C25.8965 5.83494 26.3732 5.35893 27.0652 5.35893C27.7572 5.35893 28.2493 5.8503 28.2493 6.47985Z" fill="#414042"/>
</svg>
