<svg width="111" height="63" viewBox="0 0 111 63" fill="none" xmlns="http://www.w3.org/2000/svg">
<g clip-path="url(#clip0_24755_10976)">
<path d="M20.8121 24.6772H11.9708C11.689 24.6773 11.4187 24.7898 11.2195 24.9899C11.0202 25.1901 10.9082 25.4616 10.9082 25.7447V38.7313C10.9082 39.0144 11.0202 39.2859 11.2195 39.486C11.4187 39.6862 11.689 39.7987 11.9708 39.7987H13.327C13.6088 39.7987 13.879 39.6862 14.0783 39.486C14.2776 39.2859 14.3895 39.0144 14.3896 38.7313V33.9866H18.8776C19.1594 33.9866 19.4296 33.8741 19.6289 33.6739C19.8281 33.4737 19.9401 33.2022 19.9402 32.9191V31.5569C19.9401 31.2738 19.8282 31.0023 19.6289 30.8022C19.4296 30.602 19.1594 30.4895 18.8776 30.4895H14.3896V28.1744H20.812C21.0938 28.1743 21.3641 28.0619 21.5634 27.8617C21.7626 27.6615 21.8746 27.39 21.8746 27.1069V25.7447C21.8746 25.4616 21.7626 25.1902 21.5634 24.99C21.3641 24.7898 21.0939 24.6773 20.8121 24.6772Z" fill="#0094D9"/>
<path d="M32.1848 36.3197H26.0516V25.7447C26.0516 25.4616 25.9397 25.1901 25.7404 24.99C25.5412 24.7898 25.2709 24.6773 24.9891 24.6772H23.6329C23.3511 24.6773 23.0808 24.7898 22.8816 24.9899C22.6823 25.1901 22.5703 25.4616 22.5703 25.7447V38.7313C22.5703 39.0144 22.6823 39.2859 22.8816 39.486C23.0808 39.6862 23.3511 39.7987 23.6329 39.7987H32.1848C32.4666 39.7987 32.7369 39.6862 32.9362 39.486C33.1354 39.2859 33.2474 39.0144 33.2474 38.7313V37.3871C33.2474 37.104 33.1354 36.8325 32.9361 36.6323C32.7369 36.4322 32.4666 36.3197 32.1848 36.3197Z" fill="#0094D9"/>
<path d="M43.2225 25.2619C43.1337 25.086 42.9981 24.9383 42.8307 24.8351C42.6634 24.7319 42.4709 24.6773 42.2746 24.6772H40.593C40.4256 24.6773 40.2606 24.717 40.1114 24.7933C39.9622 24.8695 39.833 24.9801 39.7343 25.1159L36.7034 29.2931L33.6577 25.1142C33.5591 24.9788 33.43 24.8687 33.2811 24.7928C33.1322 24.7169 32.9675 24.6773 32.8005 24.6773H31.119C30.9227 24.6774 30.7303 24.7321 30.563 24.8353C30.3958 24.9385 30.2603 25.0862 30.1715 25.2621C30.0827 25.438 30.0442 25.6351 30.0602 25.8317C30.0761 26.0282 30.1459 26.2165 30.2619 26.3756L34.9564 32.8142V38.7314C34.9564 39.0145 35.0684 39.286 35.2676 39.4862C35.4669 39.6864 35.7371 39.7988 36.0189 39.7989H37.3747C37.6565 39.7989 37.9267 39.6864 38.126 39.4862C38.3253 39.286 38.4372 39.0145 38.4373 38.7314V32.8142L43.1318 26.3756C43.2478 26.2164 43.3176 26.0282 43.3336 25.8316C43.3496 25.635 43.3112 25.4378 43.2225 25.2619Z" fill="#0094D9"/>
<path d="M78.0953 47.8236C78.1183 47.8006 78.1328 47.7703 78.1362 47.7378C78.1396 47.7053 78.1317 47.6727 78.1139 47.6454C78.0961 47.6181 78.0694 47.5978 78.0384 47.588C78.0074 47.5781 77.974 47.5794 77.9438 47.5915C72.645 49.6641 66.8659 50.1678 61.2909 49.0429C55.716 47.918 50.5787 45.2116 46.4875 41.2443C46.4623 41.2199 46.429 41.2058 46.394 41.2047C46.3591 41.2035 46.325 41.2154 46.2982 41.2381C46.2715 41.2607 46.2541 41.2926 46.2494 41.3274C46.2446 41.3622 46.2529 41.3975 46.2725 41.4265C48.5605 44.8199 51.5184 47.7046 54.9627 49.9013C58.407 52.0981 62.2641 53.56 66.2944 54.1963C66.831 54.2766 67.585 54.4088 67.874 54.2918C72.5422 52.4011 75.7615 50.083 78.0953 47.8236Z" fill="#0094D9"/>
<path d="M100.352 29.3283C101.053 26.3108 102.02 22.4727 102.223 15.6662C102.332 12.0278 102.142 8.34891 102.057 6.96898C102.054 6.90881 102.035 6.85061 102.002 6.79994C101.969 6.74926 101.925 6.7078 101.872 6.6795C101.819 6.6512 101.759 6.637 101.699 6.63826C101.639 6.63952 101.581 6.6562 101.529 6.68671L81.0515 18.6384C80.9928 18.6727 80.9452 18.7233 80.9144 18.7841C80.8836 18.8449 80.871 18.9133 80.8781 18.9811C80.8851 19.049 80.9115 19.1133 80.9541 19.1665C80.9967 19.2196 81.0536 19.2592 81.1181 19.2806L87.1989 21.2951C87.2907 21.3248 87.3734 21.3776 87.4391 21.4486C87.5047 21.5195 87.5512 21.6062 87.5741 21.7003C87.9845 23.5445 88.1912 25.4286 88.1903 27.3184C88.1984 33.978 85.984 40.448 81.9009 45.6944C79.0697 49.3421 75.4381 52.2835 71.2892 54.2894C71.2583 54.304 71.2333 54.3288 71.2184 54.3596C71.2034 54.3904 71.1993 54.4254 71.2068 54.4589C71.2143 54.4923 71.2329 54.5222 71.2596 54.5436C71.2863 54.5649 71.3195 54.5765 71.3536 54.5764C86.0107 54.3824 96.9528 43.9618 100.352 29.3283Z" fill="#224099"/>
<path d="M49.7259 24.6953C48.2455 24.6917 46.7973 25.1294 45.5646 25.953C44.332 26.7767 43.3703 27.9492 42.8013 29.3221C42.2323 30.6951 42.0815 32.2068 42.3681 33.6658C42.6547 35.1249 43.3658 36.4658 44.4113 37.5187C45.4568 38.5715 46.7898 39.2892 48.2415 39.5806C49.6931 39.8721 51.1983 39.7244 52.5663 39.1561C53.9344 38.5878 55.1039 37.6245 55.9267 36.3882C56.7495 35.1519 57.1888 33.6981 57.1888 32.2109C57.1866 30.2215 56.4002 28.3139 55.0017 26.9055C53.6031 25.497 51.7062 24.7024 49.7259 24.6953ZM49.7259 36.2655C48.9294 36.2673 48.1502 36.0318 47.487 35.5888C46.8237 35.1457 46.3062 34.5151 45.9997 33.7765C45.6932 33.038 45.6117 32.2247 45.7653 31.4396C45.919 30.6544 46.3009 29.9327 46.8628 29.3657C47.4248 28.7986 48.1415 28.4117 48.9223 28.2538C49.7032 28.096 50.5131 28.1743 51.2496 28.4789C51.9861 28.7834 52.6162 29.3006 53.0602 29.9649C53.5042 30.6292 53.7421 31.4109 53.7438 32.211C53.745 33.2836 53.3226 34.3128 52.5694 35.0729C51.8161 35.833 50.7935 36.2619 49.7259 36.2655Z" fill="#224099"/>
<path d="M69.4901 24.6772H68.1338C67.852 24.6773 67.5818 24.7898 67.3825 24.9899C67.1833 25.1901 67.0713 25.4616 67.0713 25.7447V33.0536L60.8712 25.0871C60.7717 24.9594 60.6447 24.8562 60.4997 24.7852C60.3547 24.7142 60.1954 24.6773 60.0341 24.6772H58.9493C58.6675 24.6773 58.3973 24.7898 58.198 24.9899C57.9987 25.1901 57.8868 25.4616 57.8867 25.7447V38.7313C57.8868 39.0144 57.9987 39.2859 58.198 39.486C58.3973 39.6862 58.6675 39.7987 58.9493 39.7987H60.3056C60.5874 39.7987 60.8576 39.6862 61.0569 39.486C61.2561 39.2858 61.3681 39.0144 61.3681 38.7313V31.4222L67.5682 39.3891C67.6677 39.5167 67.7947 39.62 67.9397 39.6909C68.0848 39.7619 68.244 39.7988 68.4053 39.7988H69.4901C69.7719 39.7988 70.0421 39.6863 70.2414 39.4862C70.4407 39.286 70.5527 39.0145 70.5527 38.7314V25.7448C70.5527 25.4617 70.4407 25.1902 70.2415 24.99C70.0422 24.7898 69.7719 24.6773 69.4901 24.6772Z" fill="#224099"/>
<path d="M81.6274 28.154C81.8694 28.1068 82.0876 27.9766 82.2446 27.7856C82.4015 27.5945 82.4875 27.3546 82.4877 27.107V25.7447C82.4876 25.4616 82.3757 25.1901 82.1764 24.99C81.9771 24.7898 81.7069 24.6773 81.4251 24.6772H72.9651C72.6833 24.6773 72.413 24.7898 72.2137 24.9899C72.0144 25.1901 71.9024 25.4616 71.9023 25.7447V38.7314C71.9024 39.0145 72.0144 39.286 72.2137 39.4862C72.413 39.6864 72.6833 39.7989 72.9651 39.7989H81.1182C81.3735 39.7947 81.6184 39.6961 81.806 39.5221C81.9935 39.348 82.1107 39.1105 82.135 38.8552L82.1658 37.4863C82.184 36.7873 81.7161 36.3018 81.1295 36.3018H75.3841V33.9867H81.2693C81.4004 33.9902 81.5309 33.9676 81.6532 33.9202C81.7756 33.8728 81.8874 33.8015 81.9822 33.7105C82.077 33.6195 82.1529 33.5105 82.2056 33.3899C82.2583 33.2693 82.2867 33.1393 82.2891 33.0076L82.3113 31.5569C82.3127 31.4163 82.2861 31.2768 82.2332 31.1467C82.1802 31.0166 82.102 30.8983 82.0031 30.799C81.9041 30.6996 81.7864 30.621 81.6568 30.5678C81.5273 30.5147 81.3885 30.488 81.2486 30.4894H75.3839V28.1744C75.3839 28.1744 81.5618 28.1667 81.6274 28.154Z" fill="#224099"/>
</g>
<defs>
<clipPath id="clip0_24755_10976">
<rect width="111" height="62" fill="white" transform="translate(0 0.5)"/>
</clipPath>
</defs>
</svg>
