<svg width="113" height="15" viewBox="0 0 113 15" fill="none" xmlns="http://www.w3.org/2000/svg">
<g clip-path="url(#clip0_24755_11031)">
<mask id="mask0_24755_11031" style="mask-type:alpha" maskUnits="userSpaceOnUse" x="20" y="0" width="70" height="14">
<path d="M20.5723 4.66548V0.95901C20.5723 0.706315 20.7882 0.5 21.0513 0.5H22.9367C23.1998 0.5 23.4153 0.706315 23.4153 0.95901V2.05655C23.4279 2.28686 23.6239 2.46878 23.8665 2.46878H30.3011C32.3084 2.46878 33.2175 4.58831 32.4862 6.09209C32.2701 6.53073 28.8514 13.5122 28.8514 13.5122C28.767 13.6833 28.6421 13.7577 28.4149 13.7577H26.1028C25.5068 13.7577 25.3873 13.4638 25.59 13.0528C25.59 13.0528 29.1653 5.75183 29.2289 5.62268C29.3825 5.31361 29.0712 5.12449 28.767 5.12449H21.0501C20.7882 5.12449 20.5723 4.91817 20.5723 4.66548ZM39.3734 13.7577H31.4917C30.9184 13.7577 30.8067 13.4597 30.9993 13.0432C30.9993 13.0432 31.7099 11.5133 31.798 11.3228C31.8829 11.1383 31.9806 11.0429 32.2669 11.0429H36.622C36.622 11.0429 34.846 3.09615 34.79 2.84393C34.7267 2.56009 34.9549 2.30787 35.2436 2.30787H37.3134C37.516 2.30787 37.7487 2.4429 37.7887 2.62659C37.8236 2.78432 39.582 10.7636 39.6152 10.9103C39.696 11.2717 39.8137 11.3029 39.9739 10.9298C40.0171 10.8276 43.4743 2.71863 43.5399 2.5609C43.6056 2.40681 43.7478 2.30787 43.9351 2.30787H46.3101C46.6228 2.30787 46.829 2.68457 46.6736 3.04262C46.5343 3.36174 43.1652 11.0032 43.0708 11.2197C42.1375 13.3141 41.1258 13.7577 39.3734 13.7577ZM64.9736 4.66548V0.95901C64.9736 0.706315 65.1866 0.5 65.4522 0.5H67.3365C67.6009 0.5 67.8157 0.706315 67.8157 0.95901V2.05655C67.8273 2.28686 68.0241 2.46878 68.2678 2.46878H74.7026C76.7082 2.46878 77.6192 4.58831 76.8883 6.09209C76.6718 6.53073 73.2506 13.5114 73.2506 13.5114C73.1675 13.6833 73.0428 13.7577 72.8136 13.7577H70.5037C69.9073 13.7577 69.7884 13.4638 69.9899 13.0528C69.9899 13.0528 73.5652 5.75183 73.6299 5.62268C73.7823 5.31361 73.4729 5.12449 73.1692 5.12449H65.4522C65.1866 5.12449 64.9736 4.91817 64.9736 4.66548ZM89.535 4.19259C89.2273 4.85151 86.2697 11.2311 86.2697 11.2311C86.2697 11.2311 87.3095 13.0692 87.388 13.2095C87.567 13.525 87.5335 13.7577 87.0433 13.7577H84.9379C84.607 13.7577 84.4096 13.6324 84.2809 13.4061C84.2179 13.2951 81.1281 7.83104 81.1281 7.83104C81.1281 7.83104 79.3384 11.6569 79.1802 11.995C78.9539 12.4768 78.4967 13.0721 77.9038 13.3969C77.3392 13.7082 76.8231 13.7577 75.953 13.7577H75.8503C75.2181 13.7577 75.2735 13.4277 75.3786 13.2018C75.4461 13.0595 79.3592 4.7023 79.3592 4.7023C79.3592 4.7023 78.3489 2.9157 78.2814 2.7977C78.0874 2.45628 78.2814 2.30787 78.6052 2.30787H80.6178C81.0288 2.30787 81.3279 2.4948 81.5109 2.81798C81.6327 3.0333 84.4875 8.08368 84.4875 8.08368C84.4875 8.08368 86.9954 2.68011 87.0532 2.55238C87.1334 2.38289 87.2858 2.30787 87.5035 2.30787H89.2262C89.826 2.30787 90.2544 2.64646 89.535 4.19259Z" fill="white"/>
</mask>
<g mask="url(#mask0_24755_11031)">
<path d="M20.5723 4.66548V0.95901C20.5723 0.706315 20.7882 0.5 21.0513 0.5H22.9367C23.1998 0.5 23.4153 0.706315 23.4153 0.95901V2.05655C23.4279 2.28686 23.6239 2.46878 23.8665 2.46878H30.3011C32.3084 2.46878 33.2175 4.58831 32.4862 6.09209C32.2701 6.53073 28.8514 13.5122 28.8514 13.5122C28.767 13.6833 28.6421 13.7577 28.4149 13.7577H26.1028C25.5068 13.7577 25.3873 13.4638 25.59 13.0528C25.59 13.0528 29.1653 5.75183 29.2289 5.62268C29.3825 5.31361 29.0712 5.12449 28.767 5.12449H21.0501C20.7882 5.12449 20.5723 4.91817 20.5723 4.66548ZM39.3734 13.7577H31.4917C30.9184 13.7577 30.8067 13.4597 30.9993 13.0432C30.9993 13.0432 31.7099 11.5133 31.798 11.3228C31.8829 11.1383 31.9806 11.0429 32.2669 11.0429H36.622C36.622 11.0429 34.846 3.09615 34.79 2.84393C34.7267 2.56009 34.9549 2.30787 35.2436 2.30787H37.3134C37.516 2.30787 37.7487 2.4429 37.7887 2.62659C37.8236 2.78432 39.582 10.7636 39.6152 10.9103C39.696 11.2717 39.8137 11.3029 39.9739 10.9298C40.0171 10.8276 43.4743 2.71863 43.5399 2.5609C43.6056 2.40681 43.7478 2.30787 43.9351 2.30787H46.3101C46.6228 2.30787 46.829 2.68457 46.6736 3.04262C46.5343 3.36174 43.1652 11.0032 43.0708 11.2197C42.1375 13.3141 41.1258 13.7577 39.3734 13.7577ZM64.9736 4.66548V0.95901C64.9736 0.706315 65.1866 0.5 65.4522 0.5H67.3365C67.6009 0.5 67.8157 0.706315 67.8157 0.95901V2.05655C67.8273 2.28686 68.0241 2.46878 68.2678 2.46878H74.7026C76.7082 2.46878 77.6192 4.58831 76.8883 6.09209C76.6718 6.53073 73.2506 13.5114 73.2506 13.5114C73.1675 13.6833 73.0428 13.7577 72.8136 13.7577H70.5037C69.9073 13.7577 69.7884 13.4638 69.9899 13.0528C69.9899 13.0528 73.5652 5.75183 73.6299 5.62268C73.7823 5.31361 73.4729 5.12449 73.1692 5.12449H65.4522C65.1866 5.12449 64.9736 4.91817 64.9736 4.66548ZM89.535 4.19259C89.2273 4.85151 86.2697 11.2311 86.2697 11.2311C86.2697 11.2311 87.3095 13.0692 87.388 13.2095C87.567 13.525 87.5335 13.7577 87.0433 13.7577H84.9379C84.607 13.7577 84.4096 13.6324 84.2809 13.4061C84.2179 13.2951 81.1281 7.83104 81.1281 7.83104C81.1281 7.83104 79.3384 11.6569 79.1802 11.995C78.9539 12.4768 78.4967 13.0721 77.9038 13.3969C77.3392 13.7082 76.8231 13.7577 75.953 13.7577H75.8503C75.2181 13.7577 75.2735 13.4277 75.3786 13.2018C75.4461 13.0595 79.3592 4.7023 79.3592 4.7023C79.3592 4.7023 78.3489 2.9157 78.2814 2.7977C78.0874 2.45628 78.2814 2.30787 78.6052 2.30787H80.6178C81.0288 2.30787 81.3279 2.4948 81.5109 2.81798C81.6327 3.0333 84.4875 8.08368 84.4875 8.08368C84.4875 8.08368 86.9954 2.68011 87.0532 2.55238C87.1334 2.38289 87.2858 2.30787 87.5035 2.30787H89.2262C89.826 2.30787 90.2544 2.64646 89.535 4.19259Z" fill="#1B358F"/>
</g>
<path d="M53.0258 5.26206C53.0258 5.01879 52.8202 4.82132 52.5672 4.82132H51.2476C50.9659 4.82132 50.8263 4.90161 50.7545 5.05122C50.7134 5.13394 48.7492 9.1403 48.7492 9.1403H52.5672C52.8109 9.1403 53.0096 8.95825 53.0249 8.72835L53.0258 5.26206ZM55.8498 13.2736C55.8498 13.5404 55.6231 13.7577 55.344 13.7577H53.4318C53.1535 13.7577 52.9267 13.5404 52.9267 13.2736V11.6781H47.5044L46.8353 13.0409C46.5595 13.6036 46.3455 13.7577 45.8968 13.7577H44.2976C43.6936 13.7577 43.5718 13.456 43.7778 13.038L48.1951 3.94999C48.6955 2.92538 49.7026 2.30786 50.6876 2.30786L55.344 2.30867C55.6231 2.30867 55.8498 2.526 55.8498 2.7928V13.2736ZM0.5 13.2918V5.29947C0.5 3.67189 1.84613 2.34801 3.52186 2.30786H12.0584C12.3263 2.30786 12.5417 2.51628 12.5417 2.77538V4.69612C12.5417 4.86561 12.3985 5.00388 12.2217 5.00388H4.01522C3.76288 5.00388 3.56008 5.20094 3.56008 5.44422V6.33262C3.56008 6.57148 3.75406 6.76485 4.00011 6.77174H11.4479C11.6986 6.77174 11.9026 6.9692 11.9026 7.21128V8.8494C11.9026 9.09393 11.6986 9.28853 11.4479 9.28853H4.01522C3.76288 9.28853 3.56008 9.48721 3.56008 9.72889V10.6059C3.56008 10.8468 3.76288 11.043 4.01522 11.043L12.4174 11.0451C12.6357 11.0451 12.7206 11.1193 12.6273 11.3102C12.2444 12.079 11.9757 12.6208 11.6759 13.227C11.445 13.694 11.243 13.7577 11.0352 13.7577H0.98328C0.714978 13.7577 0.5 13.5489 0.5 13.2918ZM13.8813 13.2918V2.77538C13.8813 2.51628 14.1025 2.30786 14.3715 2.30786H16.2305C16.5012 2.30786 16.7211 2.51628 16.7211 2.77538V10.627C16.7327 10.8586 16.933 11.043 17.1828 11.043H25.1845C25.4087 11.043 25.4944 11.1193 25.3998 11.3102L24.4351 13.227C24.1977 13.694 23.9939 13.7577 23.7855 13.7577H14.3715C14.1008 13.7577 13.8813 13.5489 13.8813 13.2918ZM57.6746 13.2918V2.77538C57.6746 2.51628 57.8924 2.30786 58.164 2.30786H60.0228C60.2936 2.30786 60.5135 2.51628 60.5135 2.77538V10.627C60.5251 10.8586 60.7283 11.043 60.9754 11.043H68.9799C69.2022 11.043 69.2876 11.1193 69.193 11.3102L68.2277 13.227C67.9921 13.694 67.7872 13.7577 67.577 13.7577H58.164C57.8924 13.7577 57.6746 13.5489 57.6746 13.2918Z" fill="#63C7EF"/>
<mask id="mask1_24755_11031" style="mask-type:alpha" maskUnits="userSpaceOnUse" x="88" y="1" width="25" height="14">
<path d="M90.4166 11.0281H107.877C108.194 11.0281 108.331 11.313 108.184 11.664L107.447 13.4057C107.301 13.7573 106.926 14.0412 106.606 14.0412H89.1453C88.8295 14.0412 88.691 13.7573 88.8382 13.4057L89.5743 11.664C89.7221 11.313 90.0985 11.0281 90.4166 11.0281ZM94.6726 1.98877H112.135C112.452 1.98877 112.589 2.27075 112.442 2.62166L111.707 4.36764C111.559 4.719 111.182 5.00188 110.863 5.00188H93.4025C93.0861 5.00188 92.9481 4.719 93.0971 4.36764L93.8314 2.62166C93.9792 2.27075 94.3545 1.98877 94.6726 1.98877ZM101.01 5.8194L101.331 6.6956H102.543C102.801 6.6956 102.857 6.90198 102.612 7.19493L101.849 8.10237L102.161 8.95497C102.231 9.147 102.253 9.35338 101.811 9.35338H100.799L100.034 10.2613C99.8436 10.4858 99.7795 10.49 99.6768 10.2123L99.361 9.35338H98.1307C97.8709 9.35338 97.8149 9.1449 98.0591 8.85242L98.8368 7.92637L98.5314 7.0911C98.4609 6.90198 98.4407 6.6956 98.8807 6.6956H99.8731L100.651 5.76959C100.841 5.54421 100.905 5.53915 101.01 5.8194Z" fill="white"/>
</mask>
<g mask="url(#mask1_24755_11031)">
<path d="M112.576 1.98877H88.7793V14.6439H112.576V1.98877Z" fill="#1B358F"/>
</g>
</g>
<defs>
<clipPath id="clip0_24755_11031">
<rect width="112" height="14" fill="white" transform="translate(0.5 0.5)"/>
</clipPath>
</defs>
</svg>
