<svg width="120" height="40" viewBox="0 0 120 40" fill="none" xmlns="http://www.w3.org/2000/svg">
<g clip-path="url(#clip0_5460_37616)">
<path d="M59.4648 5.97713H52.5255C40.0661 5.97713 62.9946 8.98375 42.3872 8.98375H34.57C34.4935 8.98683 34.4178 8.96701 34.3526 8.92684C34.2875 8.88666 34.2357 8.82795 34.2041 8.75822C34.1725 8.68849 34.1623 8.6109 34.175 8.53539C34.1877 8.45988 34.2227 8.38987 34.2754 8.33432C36.5965 5.92903 41.2988 4.35356 46.4883 4.35356H59.098C61.5893 4.37217 64.0234 3.6064 66.0553 2.16475C67.4444 1.16054 67.8593 0.360779 64.1792 0.360779C59.7955 0.360779 54.3235 0.517123 44.4137 0.517123C3.52374 0.517123 17.5947 14.9489 17.1016 12.8683C15.5322 6.25374 34.8707 18.3945 42.1828 15.3999C49.086 12.5376 64.3415 5.97713 59.4648 5.97713Z" fill="#55B9E9"/>
<path d="M102.032 -2.01811e-05C101.994 -0.00637533 101.954 -0.00103762 101.918 0.0153144C101.882 0.0316663 101.852 0.058294 101.831 0.0918121C101.811 0.12533 101.801 0.164225 101.802 0.203551C101.804 0.242877 101.817 0.280859 101.84 0.312668C102.61 1.93023 86.4883 8.12987 83.7342 9.93384C82.7781 10.5712 82.6338 10.463 83.3975 9.68729C85.7246 7.34815 100.547 -2.01811e-05 97.0956 -2.01811e-05H89.7595C89.7233 -0.0044456 89.6867 0.000866611 89.6532 0.0153671C89.6198 0.0298676 89.5909 0.0530299 89.5694 0.0824587C89.548 0.111887 89.5348 0.146514 89.5312 0.182758C89.5276 0.219002 89.5338 0.255548 89.549 0.288615C90.2345 1.84003 72.243 8.34634 69.6392 9.86168C69.0379 10.2104 68.9477 10.1323 69.4288 9.68729C71.8341 7.49246 87.703 -2.01811e-05 83.3193 -2.01811e-05H71.2267C70.8779 -2.01811e-05 70.8359 0.162337 71.1004 0.39084C73.5057 2.45338 56.1275 11.8641 42.2369 16.7348C41.5394 16.9813 41.5695 17.1677 42.3091 17.1617C49.6332 17.1016 59.3807 16.9633 66.362 16.9633C67.4143 16.9633 68.4486 16.9633 69.4648 16.9212L70.8118 16.8791C98.8274 15.7907 111.702 3.94466 113.349 0.529144C113.608 -2.01866e-05 114.005 -2.01811e-05 102.032 -2.01811e-05Z" fill="#1B154A"/>
<path d="M9.29645 24.9609L8.06374 26.2417C7.37619 25.6225 6.48149 25.2835 5.55622 25.2916C3.86049 25.2916 2.40529 26.5724 2.40529 29.7955C2.40529 33.0186 3.37342 34.2754 5.24354 34.2754C5.90914 34.2895 6.56668 34.1277 7.14973 33.8063V30.7095H5.34576L5.10523 29.0138H9.39868V34.8767C8.16186 35.6476 6.73692 36.0636 5.27961 36.0793C1.87011 36.0433 0 33.8965 0 29.7955C0 25.6945 2.48948 23.5598 5.48406 23.5598C6.88634 23.5278 8.24864 24.0284 9.29645 24.9609Z" fill="#1B154A"/>
<path d="M19.098 31.8701H13.3493C13.5057 33.7402 14.3896 34.3475 15.5983 34.3475C16.4287 34.3311 17.2311 34.044 17.8833 33.5297L18.8033 34.7925C17.8472 35.58 16.6444 36.0057 15.4059 35.9952C12.5676 35.9952 11.0463 34.107 11.0463 31.2147C11.0463 28.4305 12.5195 26.3199 15.1112 26.3199C17.7029 26.3199 19.1461 28.0457 19.1461 30.938C19.1461 31.2327 19.11 31.5995 19.098 31.84M16.9513 30.3006C16.9513 28.7913 16.4101 27.8954 15.1473 27.8954C14.107 27.8954 13.4516 28.5869 13.3433 30.4029H16.9513V30.3006Z" fill="#1B154A"/>
<path d="M29.1702 31.1966C29.1702 34.089 27.5646 36.0433 24.8587 36.0433C22.1527 36.0433 20.5532 34.2393 20.5532 31.1966C20.5532 28.3223 22.1588 26.386 24.8767 26.386C27.5947 26.386 29.1702 28.19 29.1702 31.1966ZM22.8864 31.1966C22.8864 33.3915 23.5659 34.3656 24.8587 34.3656C26.1515 34.3656 26.837 33.3794 26.837 31.1966C26.837 29.0138 26.1576 28.0457 24.8767 28.0457C23.5959 28.0457 22.8864 29.0319 22.8864 31.1966Z" fill="#1B154A"/>
<path d="M36.6807 26.5063L36.3019 28.653C36.034 28.5773 35.7565 28.5409 35.4781 28.5448C34.3657 28.5448 33.7944 29.3626 33.4516 30.902V35.7847H31.2147V26.6266H33.139L33.3434 28.4306C33.7764 27.1137 34.6603 26.3861 35.7487 26.3861C36.058 26.3816 36.3662 26.4242 36.6627 26.5123" fill="#1B154A"/>
<path d="M45.7787 27.1076C44.918 27.357 44.022 27.4626 43.1269 27.4203C43.621 27.5812 44.0498 27.8978 44.349 28.3227C44.6482 28.7476 44.8017 29.258 44.7865 29.7775C44.7865 31.5815 43.4035 32.8563 41.1004 32.8563C40.7328 32.8642 40.366 32.8176 40.012 32.718C39.8983 32.7903 39.8042 32.8896 39.7381 33.0071C39.672 33.1246 39.636 33.2566 39.6332 33.3914C39.6332 33.7222 39.8196 34.0348 40.7396 34.0348H42.1407C44.1672 34.0348 45.4841 35.1232 45.4841 36.6326C45.4841 38.4365 43.9086 39.555 40.914 39.555C37.6549 39.555 36.7408 38.5207 36.7408 36.6807H38.7312C38.7312 37.6007 39.1281 37.9976 40.9441 37.9976C42.7601 37.9976 43.2472 37.5165 43.2472 36.7949C43.2472 36.0733 42.712 35.7005 41.6897 35.7005H40.2887C38.4546 35.7005 37.6729 34.8887 37.6729 33.9386C37.6924 33.5875 37.8015 33.2473 37.99 32.9504C38.1784 32.6536 38.4398 32.41 38.7493 32.2429C38.2505 32.0274 37.8292 31.6651 37.5413 31.2043C37.2534 30.7435 37.1127 30.206 37.1377 29.6632C37.1377 27.6729 38.7132 26.374 40.9261 26.374C42.4216 26.4718 43.9119 26.1154 45.2015 25.3517L45.7787 27.1076ZM39.3867 29.6211C39.3867 30.7276 39.988 31.4251 41.0163 31.4251C42.0445 31.4251 42.6398 30.7697 42.6398 29.6211C42.6398 28.4726 42.0866 27.8893 40.9802 27.8893C39.976 27.8893 39.3867 28.5809 39.3867 29.6392" fill="#1B154A"/>
<path d="M49.5671 23.3373C49.5755 23.6146 49.501 23.8881 49.3531 24.1229C49.2053 24.3576 48.9908 24.5429 48.7371 24.6552C48.4834 24.7674 48.2019 24.8015 47.9288 24.753C47.6556 24.7045 47.4031 24.5756 47.2036 24.3829C47.004 24.1902 46.8664 23.9424 46.8084 23.6711C46.7504 23.3998 46.7746 23.1173 46.8779 22.8599C46.9812 22.6024 47.159 22.3816 47.3884 22.2256C47.6179 22.0697 47.8886 21.9857 48.166 21.9843C48.3488 21.9735 48.5318 22.0006 48.7035 22.0641C48.8752 22.1276 49.0318 22.2261 49.1635 22.3533C49.2952 22.4804 49.3991 22.6336 49.4686 22.8029C49.538 22.9723 49.5716 23.1543 49.5671 23.3373ZM49.3085 35.7847H47.0776V26.6265H49.3085V35.7847Z" fill="#1B154A"/>
<path d="M59.3866 34.5339L58.9296 36.0072C58.4957 36.0193 58.0686 35.8977 57.7061 35.6589C57.3436 35.4202 57.0633 35.0757 56.9031 34.6723C56.6045 35.1178 56.1954 35.4782 55.7159 35.7185C55.2364 35.9588 54.7028 36.0707 54.1671 36.0433C52.3632 36.0433 51.2086 34.8827 51.2086 33.2231C51.2086 31.2327 52.7119 30.1563 55.3818 30.1563H56.5243V29.6392C56.5243 28.4365 55.9831 28.0457 54.8105 28.0457C53.9893 28.0856 53.1787 28.2478 52.4052 28.5267L51.8821 27.0234C52.9419 26.606 54.0685 26.3839 55.2074 26.368C57.6488 26.368 58.7252 27.4925 58.7252 29.5189V33.3614C58.7252 34.101 58.9657 34.3656 59.4167 34.564M56.5423 33.3614V31.4552H55.5923C54.1551 31.4552 53.4455 31.9723 53.4455 33.0487C53.418 33.2273 53.431 33.4098 53.4837 33.5827C53.5364 33.7556 53.6273 33.9144 53.7498 34.0473C53.8723 34.1802 54.0232 34.2837 54.1912 34.3503C54.3592 34.4168 54.5401 34.4447 54.7203 34.4317C55.0975 34.4384 55.4685 34.3357 55.7886 34.1362C56.1087 33.9367 56.3642 33.6488 56.5243 33.3072" fill="#1B154A"/>
<path d="M68.8214 29.1521V35.7667H66.6026V29.5009C66.6026 28.3584 66.1696 28.0276 65.4781 28.0276C64.6843 28.0276 64.095 28.5628 63.5599 29.4107V35.7847H61.335V26.6265H63.2592L63.4336 27.8292C63.748 27.3826 64.1649 27.018 64.6493 26.7659C65.1337 26.5137 65.6716 26.3814 66.2177 26.38C67.8593 26.38 68.8154 27.4143 68.8154 29.1641" fill="#1B154A"/>
<path d="M85.9591 35.7847H84.0409L81.7559 25.6223L79.4528 35.7847H77.5827L75.1052 23.8725H76.5965L78.5869 34.4498L80.9561 23.8725H82.5676L84.991 34.4498L87.0475 23.8725H88.4366L85.9591 35.7847Z" fill="#1B154A"/>
<path d="M92.279 23.3854C92.2838 23.5895 92.2277 23.7904 92.1179 23.9625C92.0082 24.1346 91.8496 24.2701 91.6626 24.3518C91.4755 24.4335 91.2684 24.4576 91.0675 24.4212C90.8667 24.3848 90.6812 24.2894 90.5348 24.1472C90.3883 24.005 90.2875 23.8224 90.2451 23.6227C90.2028 23.4231 90.2209 23.2153 90.297 23.0259C90.3731 22.8365 90.5039 22.6741 90.6727 22.5592C90.8415 22.4444 91.0406 22.3825 91.2448 22.3812C91.38 22.3737 91.5153 22.3943 91.6422 22.4417C91.7691 22.4891 91.8848 22.5623 91.982 22.6566C92.0792 22.751 92.1557 22.8645 92.2069 22.9899C92.258 23.1153 92.2826 23.25 92.279 23.3854ZM92.0024 35.7847H90.5532V26.6747H92.0024V35.7847Z" fill="#1B154A"/>
<path d="M102.117 29.2543V35.7847H100.662V29.4648C100.662 28.0637 100.108 27.6127 99.1702 27.6127C98.0999 27.6127 97.3663 28.2862 96.7289 29.2904V35.7847H95.2797V26.6747H96.5244L96.6447 28.0637C96.9489 27.5789 97.3696 27.178 97.8685 26.8975C98.3675 26.6171 98.9287 26.4661 99.501 26.4582C101.179 26.4582 102.117 27.5105 102.117 29.2423" fill="#1B154A"/>
<path d="M112.556 27.0595C111.694 27.2705 110.808 27.3636 109.922 27.3361C110.401 27.5075 110.813 27.8262 111.099 28.2465C111.385 28.6668 111.531 29.167 111.515 29.6753C111.515 31.4792 110.235 32.736 108.088 32.736C107.694 32.7436 107.302 32.6847 106.927 32.5616C106.776 32.659 106.651 32.7924 106.564 32.9498C106.477 33.1072 106.43 33.2837 106.428 33.4636C106.428 33.8966 106.705 34.2453 107.673 34.2453H109.128C110.98 34.2453 112.189 35.2976 112.189 36.7168C112.189 38.4666 110.788 39.4528 107.98 39.4528C105.051 39.4528 104.101 38.5688 104.101 36.7348H105.418C105.418 37.8292 105.935 38.3103 107.98 38.3103C110.024 38.3103 110.698 37.7751 110.698 36.825C110.698 35.8749 110.042 35.478 108.84 35.478H107.396C105.803 35.478 105.075 34.6843 105.075 33.7823C105.091 33.4548 105.189 33.1366 105.362 32.8578C105.534 32.579 105.775 32.3488 106.061 32.1888C105.581 31.9671 105.179 31.6058 104.908 31.152C104.636 30.6982 104.508 30.173 104.54 29.6452C104.54 27.7931 105.995 26.4943 108.004 26.4943C110.301 26.5484 111.1 26.1996 112.123 25.7306L112.556 27.0595ZM106.025 29.6392C106.025 30.92 106.753 31.7679 108.034 31.7679C109.315 31.7679 110.042 30.9681 110.042 29.6211C110.042 28.2742 109.369 27.5285 108.022 27.5285C106.675 27.5285 106.043 28.4065 106.043 29.6211" fill="#1B154A"/>
<path d="M119.759 27.5105L119.116 28.4245C118.427 27.9255 117.597 27.6581 116.747 27.6608C115.67 27.6608 114.997 28.1599 114.997 28.9417C114.997 29.7234 115.496 30.0661 117.005 30.463C118.942 30.9681 120.012 31.6656 120.012 33.2832C120.012 35.1353 118.334 36.0192 116.494 36.0192C115.253 36.0605 114.041 35.6309 113.103 34.8166L113.885 33.9326C114.618 34.5155 115.527 34.8315 116.464 34.8286C117.667 34.8286 118.491 34.2754 118.491 33.3614C118.491 32.4474 118.022 32.0625 116.236 31.5574C114.263 31.0403 113.488 30.2285 113.488 28.9477C113.488 27.5105 114.871 26.4702 116.705 26.4702C117.817 26.4491 118.902 26.8171 119.771 27.5105" fill="#1B154A"/>
</g>
<defs>
<clipPath id="clip0_5460_37616">
<rect width="120" height="39.555" fill="white"/>
</clipPath>
</defs>
</svg>
