<svg xmlns="http://www.w3.org/2000/svg" width="88" height="39" viewBox="0 0 88 39" fill="none">
  <g clip-path="url(#clip0_31707_16520)">
    <path d="M-0.125 15.5653C2.05682 15.5653 3.82757 17.3315 3.82757 19.4921C3.82757 21.6526 2.05682 23.4347 -0.125 23.4347V29.0331H46.2307V23.4031C44.1754 23.2769 42.5469 21.5738 42.5469 19.4921C42.5469 17.4104 44.1754 15.723 46.2307 15.581V9.9668H-0.125V15.5653ZM30.4363 12.4585H38.5469V15.8334H36.3651V26.5572H32.539V15.8334H30.4363V12.4585ZM17.9936 12.4585H21.8039L21.709 18.4985L23.9699 12.4585H28.0015L24.9501 19.2555L28.3809 26.5572H24.2544L21.7248 20.0598L21.8197 26.5572H17.9936V12.4585ZM7.78014 12.4585H15.8908V15.8334H13.709V26.5572H9.89872V15.8334H7.79595V12.4585H7.78014Z" fill="white"/>
    <path d="M88.1296 15.5022V9.9668H46.7383V15.581C48.7936 15.7072 50.4221 17.4104 50.4221 19.4921C50.4221 21.5738 48.7936 23.2612 46.7383 23.4031V29.0331H88.1296V23.3873C85.9478 23.3873 84.177 21.6211 84.177 19.4448C84.177 17.2685 85.9636 15.5022 88.1296 15.5022ZM60.8727 15.7545H57.9478V17.8046H60.6829V20.9903H57.9478V26.5414H54.1217V12.4427H60.8727V15.7545ZM69.6474 26.5414H62.9596V12.4427H66.7857V23.1508H69.6474V26.5414ZM76.9833 20.5802V26.5572H73.1573V20.5802L69.6474 12.4585H73.6474L74.3272 14.556C74.4537 14.966 74.5802 15.3602 74.6908 15.7387C74.8015 16.1172 74.8964 16.4799 74.9754 16.8269C75.1177 16.3065 75.2442 15.8649 75.3391 15.4864C75.4497 15.1079 75.5288 14.8083 75.6079 14.5717L76.3035 12.4585H80.2561L76.9833 20.5802Z" fill="white"/>
  </g>
  <defs>
    <clipPath id="clip0_31707_16520">
      <rect width="88" height="39" fill="white"/>
    </clipPath>
  </defs>
</svg>
