<svg width="141" height="24" viewBox="0 0 141 24" fill="none" xmlns="http://www.w3.org/2000/svg">
<path d="M140 19.992V12.4257C140 9.24884 138.148 8.12905 134.788 8.12905C131.383 8.12905 129.737 9.432 129.6 11.8781H132.96C133.006 11.2377 133.372 10.7577 134.788 10.7577C136.045 10.7577 136.64 11.1688 136.64 11.7865C136.64 12.3354 136.297 12.5406 135.451 12.6328L133.257 12.8602C130.285 13.1811 128.937 14.4145 128.937 16.6547C128.937 18.7345 130.217 20.3349 132.937 20.3349C134.788 20.3349 135.886 19.7413 136.845 18.552V19.992H140ZM136.708 15.5122C136.708 16.7691 135.52 17.7063 133.691 17.7063C132.8 17.7063 132.274 17.2945 132.274 16.5177C132.274 15.924 132.64 15.4206 133.806 15.2608L135.795 14.9861C136.137 14.9406 136.503 14.8724 136.708 14.8036V15.5122ZM121.211 11.6949C121.211 11.1922 121.646 10.8038 122.789 10.8038C123.954 10.8038 124.32 11.2149 124.434 11.8781H127.794C127.634 9.38589 125.943 8.12905 122.789 8.12905C119.383 8.12905 117.76 9.75221 117.76 11.9463C117.76 14.2326 119.223 15.2154 121.76 15.5577L122.972 15.7181C124.16 15.8785 124.617 16.152 124.617 16.7463C124.617 17.3867 124.069 17.7063 122.72 17.7063C121.394 17.7063 120.8 17.2945 120.709 16.4495H117.303C117.371 18.7579 118.766 20.3349 122.72 20.3349C126.354 20.3349 128.069 18.8949 128.069 16.4716C128.069 14.0722 126.606 13.1577 123.68 12.7693L122.468 12.6095C121.486 12.4718 121.211 12.1977 121.211 11.6949ZM112.948 19.992H116.399V13.2493C116.399 9.45474 114.868 8.12905 111.873 8.12905C110.022 8.12905 109.04 8.90589 108.56 9.79768V8.47137H105.313V19.9914H108.765V13.4097C108.765 11.8787 109.542 11.1928 110.845 11.1928C112.285 11.1928 112.948 11.8787 112.948 13.4097V19.9926L112.948 19.992ZM100.738 19.992H103.893V12.4257C103.893 9.24884 102.041 8.12905 98.681 8.12905C95.2756 8.12905 93.6303 9.432 93.4926 11.8781H96.8526C96.8981 11.2377 97.2644 10.7577 98.681 10.7577C99.9379 10.7577 100.533 11.1688 100.533 11.7865C100.533 12.3354 100.19 12.5406 99.3442 12.6328L97.1501 12.8602C94.1785 13.1804 92.8301 14.4145 92.8301 16.6547C92.8301 18.7345 94.1097 20.3349 96.8293 20.3349C98.6811 20.3349 99.7787 19.7413 100.738 18.552V19.992ZM100.602 15.5122C100.602 16.7691 99.4124 17.7063 97.584 17.7063C96.6928 17.7063 96.1667 17.2945 96.1667 16.5177C96.1667 15.924 96.5324 15.4206 97.6983 15.2608L99.6871 14.9861C100.03 14.94 100.396 14.8724 100.602 14.8036V15.5122ZM88.3491 19.992H91.8013V13.2493C91.8013 9.45474 90.2697 8.12905 87.3442 8.12905C85.721 8.12905 84.7838 8.74611 84.1901 9.59179V4.01495H80.7152V19.992H84.1667V13.4084C84.1667 11.8775 84.9436 11.1916 86.2465 11.1916C87.6865 11.1916 88.3497 11.8775 88.3497 13.4084V19.9914L88.3491 19.992ZM78.0568 20.1973C78.9032 20.1973 79.7027 20.0147 79.7027 20.0147V17.2491C79.7027 17.2491 79.1312 17.3179 78.72 17.3179C77.7139 17.3179 77.0735 16.9977 77.0735 15.7642V11.2832H79.7027V8.472H77.0735V5.112H73.6225V8.472H71.8857V11.2832H73.6225V16.1526C73.6225 18.9404 75.2918 20.1973 78.0568 20.1973ZM68.4568 11.2832H70.9939V8.472H68.4562V8.01474C68.4562 7.00926 69.0284 6.64358 70.1027 6.64358C70.5145 6.64358 70.9939 6.68905 70.9939 6.68905V3.90063C70.9939 3.90063 70.4229 3.76358 69.5312 3.76358C66.7655 3.76358 65.0059 5.24905 65.0059 8.03747V8.472H63.2691V11.2832H65.0059V19.992H68.4562L68.4568 11.2832ZM59.1082 19.992H62.3539V8.472H58.9029V15.0549C58.9029 16.5865 58.1261 17.2718 56.8686 17.2718C55.4741 17.2718 54.8109 16.5859 54.8109 15.0549V8.472H51.36V15.2147C51.36 19.0086 52.8916 20.3343 55.8398 20.3343C57.6461 20.3343 58.6282 19.5575 59.1082 18.6657V19.992ZM39.9998 19.992H50.5832V16.7684H43.7027V3.99221H39.9998V19.992ZM24 12C24 5.352 18.648 0 12 0C5.376 0 0 5.352 0 12C0 18.624 5.376 24 12 24C18.648 24 24 18.624 24 12ZM23.136 12C23.136 18.12 18.144 23.136 12 23.136C5.88 23.136 0.864 18.1206 0.864 12C0.864 5.856 5.88 0.864 12 0.864C18.144 0.864 23.136 5.856 23.136 12ZM16.248 11.28C15.984 11.28 15.648 11.28 15.216 11.304L15.528 10.776H16.032C17.832 10.776 19.176 10.872 20.4 11.088L20.952 10.56C19.584 10.32 17.928 10.176 16.248 10.176H15.84L16.104 9.672H16.56C18.312 9.672 19.896 9.816 21.432 10.104L22.008 9.552C20.28 9.216 18.432 9.04863 16.44 9.04863C15.5907 9.05134 14.7418 9.09138 13.896 9.16863C12.936 11.232 11.4 12.4326 9.672 12.4086C9 12.384 8.15937 12.0966 7.08 11.52L6.072 10.944L6.384 10.656L8.712 11.664L9.216 11.28L4.512 9.144L3.792 9.696L2.112 9L2.136 9.696C4.392 10.728 5.328 11.304 7.704 13.008C10.8 15.216 13.56 16.416 17.4 17.184L18.408 16.224H18.168C15.624 16.224 13.344 15.384 12.024 13.968C13.128 13.296 14.4954 12.9846 16.392 12.9846C16.896 12.9846 17.616 13.032 18.288 13.104L18.864 12.552C17.9641 12.4423 17.0585 12.3862 16.152 12.384C15.5433 12.383 14.9348 12.4071 14.328 12.456L14.76 11.928C15.2715 11.8977 15.7837 11.8817 16.296 11.88C17.568 11.88 18.408 11.928 19.368 12.072L19.92 11.544C18.912 11.3766 17.52 11.28 16.248 11.28Z" fill="#05164D"/>
</svg>
