<svg width="109" height="25" viewBox="0 0 109 25" fill="none" xmlns="http://www.w3.org/2000/svg">
<g clip-path="url(#clip0_24755_10811)">
<path d="M42.6276 12.6968C42.3446 12.4048 42.0001 12.1636 41.6063 11.9477C41.2125 11.7319 40.7941 11.5161 40.3387 11.3129C40.0311 11.1605 39.7603 11.0336 39.5266 10.8939C39.2927 10.7669 39.0958 10.6273 38.9482 10.4749C38.7882 10.3352 38.6774 10.1702 38.5913 9.97971C38.5175 9.80197 38.4682 9.58615 38.4682 9.31952C38.4682 8.88778 38.6282 8.55769 38.9604 8.30375C39.2927 8.0625 39.7112 7.93553 40.228 7.93553C40.7448 7.93553 41.2125 8.03711 41.6432 8.22759C42.0739 8.41803 42.4554 8.65927 42.8 8.9386L43.206 6.88173C42.8492 6.62778 42.4062 6.4373 41.877 6.27226C41.3601 6.1199 40.7941 6.03101 40.1788 6.03101C39.5757 6.03101 39.0466 6.10721 38.5544 6.27226C38.0744 6.42461 37.656 6.65317 37.3115 6.95788C36.9669 7.2499 36.6961 7.61812 36.4992 8.0498C36.3023 8.48149 36.2162 8.97668 36.2162 9.52264C36.2162 10.0559 36.2777 10.5003 36.4131 10.8812C36.5485 11.2621 36.7331 11.5922 36.9915 11.8715C37.2376 12.1509 37.5453 12.4048 37.9021 12.6207C38.259 12.8365 38.6651 13.0524 39.1081 13.2682C39.5019 13.4586 39.8342 13.6364 40.1172 13.7887C40.4003 13.9412 40.6218 14.1062 40.7941 14.2712C40.9663 14.4363 41.0894 14.6268 41.1632 14.8299C41.2371 15.0331 41.274 15.2743 41.274 15.5536C41.274 16.0107 41.1017 16.3789 40.7571 16.6328C40.4126 16.8868 39.9326 17.0264 39.305 17.0264C38.7267 17.0264 38.1975 16.9249 37.6929 16.7344C37.1884 16.544 36.7084 16.2647 36.2408 15.9218L35.9824 18.0295C36.3639 18.2707 36.8315 18.4866 37.3607 18.677C37.9021 18.8675 38.5051 18.9563 39.1696 18.9563C40.5479 18.9563 41.6186 18.6262 42.3939 17.9533C43.1691 17.2804 43.5629 16.3408 43.5629 15.1092C43.5629 14.5633 43.4768 14.0935 43.3045 13.7126C43.1445 13.319 42.9107 12.9889 42.6276 12.6968Z" fill="#1A428A"/>
<path d="M49.1133 15.998C48.9289 16.3535 48.7318 16.6456 48.5106 16.8614C48.2888 17.0773 48.0182 17.1788 47.6861 17.1788C47.3167 17.1788 47.0461 17.0519 46.8737 16.7979C46.7014 16.544 46.6152 16.1885 46.6152 15.7314V9.71313H44.4863V15.8203C44.4863 16.2901 44.5356 16.7217 44.634 17.1153C44.7325 17.509 44.8801 17.839 45.0893 18.1057C45.2985 18.385 45.5692 18.5882 45.9015 18.7405C46.2338 18.8802 46.6278 18.9564 47.0954 18.9564C47.3661 18.9564 47.6246 18.9183 47.8337 18.8294C48.055 18.7405 48.252 18.639 48.4244 18.512C48.5967 18.385 48.7444 18.2453 48.8674 18.093C48.9904 17.9406 49.1012 17.801 49.1748 17.6613V18.7532H51.2053V9.71313H49.1133V15.998Z" fill="#1A428A"/>
<path d="M56.6329 9.48462C56.3497 9.48462 56.1037 9.5227 55.8946 9.61159C55.6729 9.70044 55.4763 9.80202 55.3161 9.92899C55.1437 10.056 54.996 10.1956 54.8731 10.348C54.7501 10.5003 54.6392 10.64 54.5656 10.7797V9.70044H52.5352V18.7406H54.6271V12.4303C54.8116 12.0748 55.0086 11.7827 55.2299 11.5669C55.4516 11.3511 55.7222 11.2495 56.0544 11.2495C56.4238 11.2495 56.6944 11.3764 56.8667 11.6304C57.0391 11.8843 57.1253 12.2398 57.1253 12.6969V18.7406H59.254V12.6207C59.254 11.6685 59.057 10.9066 58.6513 10.3353C58.2325 9.77664 57.5683 9.48462 56.6329 9.48462Z" fill="#1A428A"/>
<path d="M62.8592 13.23H66.3295V11.2875H62.8592V8.18942H67.1046L67.1908 6.24683H60.6191V18.7532H67.4V16.8106H62.8592V13.23Z" fill="#1A428A"/>
<path d="M74.4388 16.3408C74.2296 15.9472 73.9958 15.5409 73.762 15.1473C73.5281 14.741 73.2947 14.3602 73.0851 14.0046C73.2947 13.6745 73.516 13.3317 73.7377 12.9635C73.959 12.5953 74.1681 12.2398 74.3652 11.897C74.5743 11.5288 74.7835 11.1605 74.9805 10.8178C75.1776 10.4749 75.3741 10.1067 75.5959 9.72583H73.3562C73.2575 9.90357 73.1713 10.0813 73.0851 10.2464C72.999 10.4115 72.9132 10.5765 72.8145 10.7416C72.6915 10.9701 72.5439 11.2241 72.3715 11.5161C72.1992 11.8081 72.0515 12.062 71.9038 12.2905C71.7562 12.0493 71.6085 11.7827 71.4734 11.5161C71.3379 11.2494 71.2149 11.0082 71.104 10.7923L70.5749 9.72583H68.1876C68.3846 10.0813 68.5938 10.4495 68.7782 10.8178C68.9627 11.1859 69.1718 11.5541 69.381 11.9097C69.5906 12.2778 69.8119 12.6588 70.0336 13.0397C70.2549 13.4206 70.4766 13.8015 70.7104 14.1697C70.5008 14.5252 70.2795 14.8807 70.0457 15.2489C69.8119 15.6171 69.5906 15.9853 69.381 16.3408C69.1472 16.7471 68.9259 17.1407 68.7042 17.5343C68.4829 17.9279 68.2612 18.3342 68.0273 18.7532H70.2674C70.3904 18.4993 70.5255 18.2707 70.6364 18.0549C70.7593 17.8391 70.8823 17.6232 70.9932 17.4201L71.8423 15.9599L72.6915 17.4963L73.3683 18.7659H75.7435C75.5218 18.3342 75.3005 17.9279 75.0788 17.5343C74.8575 17.1153 74.6484 16.7344 74.4388 16.3408Z" fill="#1A428A"/>
<path d="M80.4081 9.48462C80.0024 9.48462 79.6451 9.57347 79.3498 9.73856C79.0424 9.90361 78.7964 10.1194 78.6115 10.3607V9.70044H76.5195V22.4353H78.55H78.6115V17.9534C78.673 18.055 78.7592 18.1692 78.8579 18.2835C78.9562 18.3977 79.0917 18.512 79.2394 18.6009C79.3992 18.7025 79.5715 18.7787 79.7807 18.8422C79.9898 18.9056 80.2237 18.9437 80.4943 18.9437C81.4175 18.9437 82.168 18.5501 82.7218 17.7502C83.2878 16.963 83.5589 15.7568 83.5589 14.1316C83.5589 12.5953 83.2757 11.4272 82.7218 10.6527C82.1559 9.87822 81.3929 9.48462 80.4081 9.48462ZM80.962 16.5187C80.6545 17.0011 80.2977 17.2297 79.879 17.2297C79.5836 17.2297 79.3256 17.1408 79.1039 16.963C78.8821 16.7853 78.7224 16.5948 78.5994 16.4044V11.9351C78.7102 11.7827 78.87 11.6177 79.0671 11.4526C79.2636 11.2876 79.5222 11.1987 79.8301 11.1987C80.2852 11.1987 80.6667 11.4399 80.962 11.9097C81.2573 12.3795 81.405 13.1667 81.405 14.2586C81.4175 15.2743 81.2699 16.0362 80.962 16.5187Z" fill="#1A428A"/>
<path d="M87.9644 9.7131C87.7306 9.802 87.5215 9.91628 87.337 10.0559C87.1646 10.1956 87.0049 10.3607 86.8693 10.5511C86.7338 10.7416 86.6234 10.932 86.5246 11.1352V9.7131H84.4941V18.7532H86.5861V12.8111C86.8199 12.3033 87.1032 11.9478 87.4353 11.7446C87.7679 11.5415 88.1615 11.4272 88.6166 11.4272C88.74 11.4272 88.8383 11.4272 88.9124 11.4399C88.986 11.4526 89.0721 11.4653 89.1457 11.4907L89.3428 9.63695C89.183 9.59887 88.9981 9.58618 88.7889 9.58618C88.4689 9.58618 88.1983 9.63695 87.9644 9.7131Z" fill="#1A428A"/>
<path d="M92.8 9.48462C91.7291 9.48462 90.8925 9.90361 90.2771 10.7289C89.6618 11.5669 89.3418 12.735 89.3418 14.2332C89.3418 14.9315 89.4405 15.5664 89.625 16.1504C89.8095 16.7345 90.0801 17.2297 90.4127 17.636C90.7569 18.055 91.1631 18.3724 91.6429 18.6009C92.1232 18.8295 92.6523 18.9437 93.2304 18.9437C93.9072 18.9437 94.449 18.8676 94.8673 18.7152C95.2856 18.5628 95.6424 18.3597 95.9135 18.1184L95.7658 16.3409C95.212 16.8868 94.5351 17.1662 93.7228 17.1662C93.4274 17.1662 93.1447 17.1027 92.8736 16.9757C92.6029 16.8488 92.3691 16.671 92.16 16.4298C91.9508 16.2012 91.7785 15.9219 91.6555 15.6172C91.5325 15.2998 91.4584 14.9569 91.4463 14.576H95.9377C95.9624 14.449 95.975 14.284 95.9871 14.0682C95.9996 13.8523 95.9996 13.6491 95.9996 13.446C95.9996 12.2271 95.7285 11.2622 95.1873 10.5512C94.6702 9.85284 93.8583 9.48462 92.8 9.48462ZM91.471 13.0651C91.5199 12.3541 91.6555 11.8335 91.9014 11.5161C92.1353 11.186 92.4432 11.0209 92.8 11.0209C93.5504 11.0209 93.9319 11.7065 93.9692 13.0651H91.471Z" fill="#1A428A"/>
<path d="M101.992 14.3094C101.795 14.0936 101.561 13.9158 101.303 13.7507C101.044 13.5984 100.774 13.446 100.49 13.3317C100.208 13.2048 99.9738 13.0905 99.7889 12.9889C99.5923 12.8874 99.4446 12.7858 99.3217 12.6842C99.1982 12.5826 99.1246 12.4811 99.0631 12.3668C99.0138 12.2525 98.977 12.1255 98.977 11.9732C98.977 11.6812 99.0878 11.4526 99.3091 11.3129C99.5308 11.1606 99.7768 11.0844 100.023 11.0844C100.429 11.0844 100.798 11.1606 101.143 11.3002C101.487 11.4399 101.795 11.6177 102.066 11.8081L102.336 10.0687C102.029 9.90361 101.684 9.76395 101.303 9.64967C100.921 9.53539 100.466 9.48462 99.9612 9.48462C99.5676 9.48462 99.1861 9.54808 98.8167 9.67505C98.4478 9.80202 98.1278 9.97976 97.8446 10.2083C97.5618 10.4369 97.3401 10.7162 97.1803 11.0463C97.008 11.3764 96.9218 11.7574 96.9218 12.1637C96.9218 12.57 96.9833 12.9254 97.0942 13.2175C97.205 13.5222 97.3769 13.7761 97.5739 13.992C97.771 14.2078 98.0169 14.3983 98.2876 14.5633C98.5587 14.7284 98.8414 14.8808 99.1493 15.0077C99.5429 15.1728 99.8629 15.3632 100.121 15.5537C100.38 15.7441 100.503 16.0235 100.503 16.3536C100.503 16.5314 100.466 16.6837 100.404 16.798C100.343 16.9122 100.244 17.0138 100.146 17.0773C100.035 17.1408 99.9123 17.1916 99.7768 17.217C99.6291 17.2424 99.4935 17.2551 99.3585 17.2551C98.9155 17.2551 98.4972 17.1535 98.091 16.963C97.6848 16.7599 97.3154 16.544 97.008 16.3155L96.7988 18.2708C97.1924 18.4866 97.5986 18.6517 98.0169 18.766C98.4352 18.8802 98.9155 18.931 99.4568 18.931C100.429 18.931 101.204 18.6771 101.77 18.1946C102.349 17.6994 102.632 17.0011 102.632 16.0869C102.632 15.6934 102.57 15.3505 102.459 15.0585C102.349 14.7792 102.189 14.5252 101.992 14.3094Z" fill="#1A428A"/>
<path d="M108.835 15.0712C108.724 14.7792 108.565 14.5252 108.368 14.3094C108.171 14.0936 107.937 13.9158 107.679 13.7507C107.42 13.5984 107.149 13.446 106.866 13.3317C106.583 13.2048 106.35 13.0905 106.165 12.9889C105.968 12.8874 105.82 12.7858 105.697 12.6842C105.587 12.5826 105.5 12.4811 105.439 12.3668C105.39 12.2525 105.365 12.1255 105.365 11.9732C105.365 11.6812 105.476 11.4526 105.697 11.3129C105.919 11.1606 106.165 11.0844 106.411 11.0844C106.817 11.0844 107.186 11.1606 107.531 11.3002C107.875 11.4526 108.183 11.6177 108.454 11.8081L108.724 10.0687C108.417 9.90361 108.072 9.76395 107.691 9.64967C107.309 9.53539 106.866 9.48462 106.35 9.48462C105.956 9.48462 105.574 9.54808 105.205 9.67505C104.836 9.80202 104.516 9.97976 104.233 10.2083C103.95 10.4369 103.728 10.7162 103.556 11.0463C103.384 11.3764 103.298 11.7574 103.298 12.1637C103.298 12.57 103.359 12.9254 103.47 13.2175C103.593 13.5222 103.741 13.7761 103.95 13.992C104.147 14.2078 104.393 14.3983 104.663 14.5633C104.934 14.7284 105.217 14.8808 105.525 15.0077C105.919 15.1728 106.239 15.3632 106.497 15.5537C106.755 15.7441 106.879 16.0235 106.879 16.3536C106.879 16.5314 106.842 16.6837 106.78 16.798C106.706 16.9122 106.62 17.0138 106.522 17.0773C106.411 17.1408 106.288 17.1916 106.14 17.217C105.992 17.2424 105.857 17.2551 105.722 17.2551C105.279 17.2551 104.86 17.1535 104.454 16.963C104.048 16.7599 103.679 16.544 103.371 16.3155L103.162 18.2708C103.556 18.4866 103.962 18.6517 104.381 18.766C104.799 18.8802 105.279 18.931 105.82 18.931C106.793 18.931 107.568 18.6771 108.134 18.1946C108.712 17.6994 108.995 17.0011 108.995 16.0869C109.02 15.7061 108.958 15.3632 108.835 15.0712Z" fill="#1A428A"/>
<path d="M15.2599 16.9502C11.1005 17.2676 5.34127 18.2071 1.21875 17.9786C1.64946 18.8928 2.20323 19.7434 2.84315 20.5307C3.20002 20.9623 3.59381 21.3813 4.01222 21.7749C6.25193 23.8572 9.14383 24.9999 12.1465 24.9999C15.1615 24.9999 18.0534 23.8699 20.2685 21.8257C21.1915 20.975 21.9298 20.0736 22.5205 19.0832C22.9266 18.4103 23.2466 17.6993 23.5173 16.9247C21.7329 16.5566 18.681 16.6835 15.2599 16.9502Z" fill="#1A428A"/>
<path d="M2.20236 5.80239L8.29387 9.43364L8.42923 9.47176C8.50306 9.47176 8.57689 9.43364 8.63843 9.37018C8.77379 9.20513 8.92146 9.05277 9.08146 8.91311C9.17989 8.82421 9.20448 8.67186 9.14295 8.55758L5.62346 2.27266C5.58652 2.19648 5.52499 2.15839 5.43886 2.133C5.36503 2.1203 5.27885 2.133 5.21732 2.18379C4.99583 2.33615 4.77433 2.5139 4.56512 2.67896C4.45437 2.76784 4.42975 2.9202 4.49129 3.04717L6.54637 6.72926L6.65714 6.88162V6.89431L6.50948 6.78003L2.94072 4.64696C2.82997 4.57078 2.66999 4.60887 2.58385 4.72315C2.41156 4.93897 2.25158 5.16753 2.10391 5.39609C2.05469 5.45955 2.04238 5.54844 2.06699 5.6246C2.0916 5.68811 2.14083 5.75157 2.20236 5.80239Z" fill="#1A428A"/>
<path d="M15.0625 8.6973C15.0625 8.7735 15.0994 8.84965 15.161 8.91316C15.3209 9.05283 15.4686 9.20518 15.604 9.37023C15.6901 9.47182 15.8378 9.4972 15.9486 9.43374L22.04 5.80244C22.1016 5.76437 22.1508 5.70086 22.1754 5.61196C22.1877 5.53581 22.1754 5.45961 22.1385 5.38345C21.9908 5.1549 21.8185 4.92634 21.6586 4.71051C21.5724 4.59624 21.4247 4.57085 21.3017 4.63433L17.733 6.7547L17.5852 6.86898L17.696 6.71663L19.7634 3.03453C19.8373 2.90756 19.8004 2.7552 19.6896 2.66632C19.4804 2.48857 19.2589 2.32351 19.0374 2.17115C18.9758 2.12036 18.902 2.10766 18.8159 2.13306C18.742 2.14576 18.6805 2.19654 18.6313 2.27272L15.0994 8.55764L15.0625 8.6973Z" fill="#1A428A"/>
<path d="M12.8227 7.69428C12.8596 7.75774 12.9334 7.80851 13.0072 7.83395C13.2165 7.87202 13.4134 7.93548 13.6102 7.99899C13.7333 8.03707 13.8687 7.9863 13.9425 7.87202L17.462 1.5744C17.499 1.51092 17.5113 1.42204 17.4867 1.34586C17.462 1.26968 17.4128 1.2062 17.339 1.16811C17.0929 1.05383 16.8467 0.939562 16.5883 0.83799C16.4652 0.787201 16.3176 0.83799 16.2437 0.964956L14.1763 4.64703L14.1025 4.81207H14.0902L14.1148 4.63433V0.380903C14.1148 0.241238 14.0164 0.11427 13.881 0.101573C13.6103 0.0634825 13.3395 0.0253921 13.0688 0.0126953C12.9949 0.0126953 12.9211 0.0380889 12.8596 0.0888762C12.798 0.139663 12.7734 0.215844 12.7734 0.292025V7.55462L12.8227 7.69428Z" fill="#1A428A"/>
<path d="M23.8607 10.424H19.7382L19.5659 10.4494V10.4367L19.7258 10.3605L23.2946 8.2275C23.4177 8.15129 23.4669 8.01163 23.4177 7.87197C23.3192 7.61803 23.2085 7.35139 23.0977 7.11014C23.0608 7.03399 22.9993 6.98322 22.9254 6.95778C22.8516 6.9324 22.7777 6.94509 22.7039 6.98322L16.6124 10.6145L16.514 10.7161C16.4771 10.7796 16.4647 10.8684 16.4894 10.9573C16.5632 11.1604 16.6124 11.3636 16.6493 11.5794C16.674 11.7191 16.7847 11.808 16.9201 11.808H23.9591C24.033 11.808 24.1068 11.7699 24.1683 11.7191C24.2176 11.6556 24.2422 11.5794 24.2422 11.5033C24.2176 11.2239 24.193 10.9446 24.1437 10.6653C24.1191 10.5256 23.9961 10.424 23.8607 10.424Z" fill="#1A428A"/>
<path d="M7.45746 11.7699C7.519 11.7318 7.56823 11.6556 7.59283 11.5794C7.62977 11.3636 7.67896 11.1604 7.75279 10.9573C7.80202 10.8303 7.74049 10.6907 7.62977 10.6145L1.53826 6.99591C1.47673 6.95779 1.39058 6.9451 1.31675 6.97048C1.24291 6.99591 1.18138 7.04668 1.14446 7.12284C1.03371 7.37678 0.922955 7.63072 0.824506 7.89735C0.775279 8.02433 0.824506 8.17668 0.947564 8.25288L4.51632 10.3732L4.67629 10.4494V10.4621L4.49171 10.424H0.369181C0.233815 10.424 0.110754 10.5256 0.0984484 10.6653C0.06153 10.9446 0.0246121 11.2239 0 11.5033C0 11.5794 0.0246121 11.6556 0.0738363 11.7191C0.123061 11.7699 0.196897 11.808 0.270733 11.808H7.3098L7.45746 11.7699Z" fill="#1A428A"/>
<path d="M10.2997 7.87202L10.3982 7.97361C10.472 8.01168 10.5458 8.02437 10.6197 7.99899C10.8166 7.93548 11.0135 7.87202 11.2226 7.83394C11.3581 7.80851 11.4442 7.69428 11.4442 7.55462V0.292026C11.4442 0.215846 11.4073 0.139665 11.3581 0.0761808C11.2965 0.0253936 11.2227 0 11.1488 0C10.8781 0.0253936 10.6074 0.050787 10.3366 0.101575C10.2013 0.126968 10.1028 0.241239 10.1028 0.380904V4.63433L10.1274 4.81207H10.1151L10.0413 4.64703L7.97389 0.964957C7.90006 0.83799 7.7647 0.787202 7.62928 0.850688C7.3832 0.95226 7.12476 1.06653 6.89092 1.1808C6.81709 1.21889 6.7679 1.28237 6.74326 1.35856C6.71867 1.43474 6.73097 1.51092 6.7679 1.5871L10.2997 7.87202Z" fill="#1A428A"/>
<path d="M23.4674 13.3826C20.9324 13.3826 18.9757 14.0174 13.9302 15.122C6.79273 16.6837 1.72264 15.3887 0.565875 15.2363C0.393589 15.2109 0.282834 15.2998 0.332059 15.5029C0.455119 16.0997 0.885832 17.382 1.20579 17.9661C5.34061 18.1946 11.0999 17.2551 15.247 16.9377C18.6804 16.6837 21.72 16.5441 23.5043 16.9123C23.7874 16.0743 24.0089 15.1855 24.1443 14.2205C24.2427 13.6746 24.1689 13.3826 23.4674 13.3826Z" fill="#EE5F2A"/>
<path d="M13.327 15.1601C12.7486 15.2489 11.5057 15.4521 9.97976 15.4394C7.02628 15.4267 2.54689 14.3602 0.430247 13.3825C0.344104 13.3444 0.245656 13.3571 0.159514 13.4206C0.0856775 13.4841 0.0364535 13.573 0.0487596 13.6746C0.0610654 13.8142 0.0733717 13.9539 0.0856775 14.0935C0.0979838 14.157 0.122596 14.2205 0.257962 14.284C0.491775 14.3856 3.8021 15.541 8.92144 15.6172C10.3735 15.6298 12.2194 15.4013 13.327 15.1601Z" fill="#EE5F2A"/>
</g>
<defs>
<clipPath id="clip0_24755_10811">
<rect width="109" height="25" fill="white"/>
</clipPath>
</defs>
</svg>
