<svg width="112" height="21" viewBox="0 0 112 21" fill="none" xmlns="http://www.w3.org/2000/svg">
<path d="M99.2071 15.2628L101.098 18.4388C101.684 19.3906 102.65 19.8226 103.853 19.8226H108.719L103.023 12.8469L102.215 12.3818L100.082 13.0851L99.002 14.6653L99.2071 15.2628Z" fill="url(#paint0_linear_13367_25302)"/>
<path d="M103.023 12.8468L101.834 11.3901L98.6914 13.0985L99.0247 14.8229L99.2072 15.2628C99.1357 14.0941 101.121 12.7372 103.023 12.8468Z" fill="url(#paint1_linear_13367_25302)"/>
<path d="M99.2073 15.2628L97.507 12.4215C97.3022 12.0991 97.2461 11.8171 97.2461 11.4885C97.2461 11.1271 97.3985 10.929 97.984 10.6152C98.6661 10.2851 100.039 10.1416 101.455 10.1416C103.755 10.1416 104.306 10.8877 104.541 11.6927C104.541 11.6927 104.216 11.5623 103.452 11.5623C101.029 11.5623 99.0923 12.751 99.0923 14.551C99.0923 14.9287 99.2073 15.2628 99.2073 15.2628Z" fill="url(#paint2_linear_13367_25302)"/>
<path d="M91.9043 3.17529H94.1914C95.1559 3.17529 95.5515 3.57406 95.9417 3.9653C96.3883 4.37559 97.7428 6.22827 100.606 9.84425H97.5071C96.2399 9.84425 95.839 9.62606 95.3489 8.87068L91.9043 3.17529Z" fill="url(#paint3_linear_13367_25302)"/>
<path d="M110.144 19.0718L110.309 19.6729H110.313L110.481 19.0718H110.621L110.731 19.8244H110.618L110.54 19.2103H110.538L110.364 19.8244H110.244L110.075 19.2128H110.073L109.996 19.8244H109.888L109.997 19.0718H110.144ZM109.793 19.0718V19.1685H109.574V19.8243H109.465V19.1685H109.246V19.0718H109.793Z" fill="#334357"/>
<mask id="mask0_13367_25302" style="mask-type:luminance" maskUnits="userSpaceOnUse" x="0" y="0" width="112" height="21">
<path d="M0.271484 20.5942H111.716V0.920389H0.271484V20.5942Z" fill="white"/>
</mask>
<g mask="url(#mask0_13367_25302)">
<path d="M56.1207 9.85042H56.0951L54.7935 13.569H57.4254L56.1207 9.85042ZM58.4504 16.4987L57.813 14.672H54.4053L53.7667 16.4987H52.3121L55.3645 8.368H56.9855L59.9909 16.4987H58.4504ZM70.7971 8.04222H72.22V9.40145H70.7971V8.04222ZM70.813 10.3055H72.2036V16.4987H70.813V10.3055ZM60.5449 8.04162H61.9684V9.40145H60.5449V8.04162ZM60.5613 10.3055H61.9519V16.4987H60.5613V10.3055ZM69.295 8.04962H67.9044V16.4987H69.295V8.04962ZM64.8623 13.4785V16.4987H63.4675V11.8969C63.4675 11.4548 63.4175 10.6128 63.4004 10.3068H64.5235C64.6448 10.3068 64.6795 10.3585 64.6832 10.4792C64.6856 10.6621 64.6954 11.2466 64.6954 11.2466H64.7271C64.8368 10.9787 65.2322 10.1768 66.3876 10.1768C66.7746 10.1768 67.061 10.3031 67.1079 10.3222C67.1079 10.5888 67.0805 11.1739 67.0665 11.3285C67.058 11.4301 67.0141 11.4633 66.9641 11.4633C66.9166 11.4633 66.8946 11.4523 66.8684 11.4418C66.7819 11.4049 66.5796 11.3426 66.2987 11.3426C65.5564 11.3426 64.8623 11.884 64.8623 13.4785ZM77.5278 16.4987V12.4992C77.5278 11.7356 77.1829 11.27 76.5357 11.27C75.6801 11.27 75.1122 12.1901 75.1122 13.4317V16.4987H73.7209V11.9493C73.7209 11.4486 73.6758 10.7188 73.6527 10.3068H74.7703C74.8964 10.3068 74.9324 10.3591 74.9336 10.4737C74.9373 10.6061 74.9482 11.2466 74.9482 11.2466H74.9799C75.1475 10.9553 75.5759 10.1762 76.858 10.1762C78.1798 10.1762 78.9184 11.0895 78.9184 12.115V16.4987H77.5278ZM81.3766 12.7659H83.9507C84.0037 11.7676 83.4851 11.2084 82.7026 11.2084C81.8836 11.2084 81.4138 11.807 81.3766 12.7659ZM84.8081 15.1388C84.8855 15.1388 84.908 15.2072 84.9141 15.2774C84.9379 15.5416 84.9604 16.139 84.9568 16.2911C84.8081 16.3392 84.0603 16.6169 83.0561 16.6169C81.1054 16.6169 79.9318 15.5971 79.9318 13.4015C79.9318 11.5163 80.9324 10.1768 82.7313 10.1768C84.4973 10.1768 85.337 11.3704 85.337 12.8521C85.337 13.0264 85.3181 13.3208 85.2877 13.7119H81.359C81.359 14.7693 82.0256 15.5281 83.2578 15.5281C83.9367 15.5281 84.4766 15.2823 84.6911 15.1776C84.7337 15.1567 84.7587 15.1388 84.8081 15.1388ZM88.0658 16.6169C89.8763 16.6169 90.7429 15.8686 90.7429 14.7564C90.7429 13.6614 89.9732 13.2007 89.1578 12.9285C88.9238 12.8521 88.6947 12.7745 88.4808 12.7018C87.9226 12.5152 87.6332 12.2701 87.6332 11.9043C87.6332 11.5182 87.9817 11.2478 88.7057 11.2478C89.3492 11.2478 89.8751 11.5133 90.0835 11.6149C90.1182 11.6309 90.1493 11.6537 90.2048 11.6537C90.2486 11.6537 90.3029 11.6259 90.3102 11.5163C90.3242 11.3088 90.3486 10.9325 90.3486 10.571C90.1798 10.4928 89.571 10.1768 88.5917 10.1768C87.0957 10.1768 86.1761 10.9633 86.1761 12.001C86.1761 13.0073 86.8568 13.4668 87.6057 13.7174C87.7782 13.7766 88.0981 13.8825 88.2852 13.9465C89.0671 14.2089 89.2901 14.4472 89.2901 14.8167C89.2901 15.299 88.7819 15.5373 87.9074 15.5373C87.1902 15.5373 86.6972 15.2713 86.4991 15.1776C86.4589 15.1598 86.4351 15.1388 86.3797 15.1388C86.2767 15.1388 86.2749 15.2774 86.2736 15.3002C86.2694 15.3667 86.2365 16.0084 86.2365 16.2221C86.4004 16.2936 87.1109 16.6169 88.0658 16.6169ZM6.07818 9.85042H6.05258L4.75033 13.569H7.38043L6.07818 9.85042ZM8.40724 16.4987L7.76921 14.672H4.36154L3.72352 16.4987H2.26953L5.32193 8.3674H6.94167L9.94715 16.4987H8.40724ZM31.1366 8.04162H32.5589V9.40081H31.1366V8.04162ZM31.1531 10.3055H32.5425V16.4987H31.1531V10.3055ZM28.1671 13.4785V16.4987H26.7747V11.8969C26.7747 11.4541 26.7247 10.6122 26.7064 10.3055H27.8301C27.9514 10.3055 27.9873 10.3585 27.9879 10.4786C27.9916 10.6609 28.0026 11.2466 28.0026 11.2466H28.0336C28.1439 10.9787 28.5382 10.1768 29.6942 10.1768C30.08 10.1768 30.3688 10.3024 30.4163 10.3215C30.4163 10.5882 30.3877 11.1733 30.3743 11.3285C30.3651 11.4295 30.3207 11.4621 30.2713 11.4621C30.2244 11.4621 30.2006 11.4523 30.175 11.4418C30.0873 11.4042 29.8856 11.342 29.6071 11.342C28.8642 11.342 28.1671 11.884 28.1671 13.4785ZM17.8947 16.4987V12.5362C17.8947 11.8224 17.5961 11.2687 16.8752 11.2687C16.0635 11.2687 15.5955 12.1667 15.5955 13.4243V16.4987H14.2055V12.5239C14.2055 11.8747 13.9374 11.2687 13.1915 11.2687C12.3682 11.2687 11.9075 12.1648 11.9075 13.4686V16.4987H10.5145V11.9881C10.5145 11.4055 10.4633 10.5814 10.4468 10.3055H11.5602C11.6857 10.3055 11.7272 10.3474 11.7296 10.4786C11.7326 10.643 11.7424 11.2466 11.7424 11.2466H11.7741C11.8588 11.0698 12.3164 10.1762 13.5937 10.1762C14.7838 10.1762 15.239 11.039 15.3518 11.3051C15.4615 11.0711 15.9898 10.1762 17.1885 10.1762C18.4352 10.1762 19.2859 10.8524 19.2859 12.211V16.4987H17.8947ZM21.7424 12.7647H24.317C24.37 11.7682 23.8533 11.2078 23.069 11.2078C22.25 11.2078 21.7814 11.807 21.7424 12.7647ZM25.1756 15.1388C25.2518 15.1388 25.275 15.2072 25.2811 15.2774C25.3048 15.5416 25.3274 16.1396 25.3237 16.2911C25.1756 16.3392 24.4279 16.6169 23.4237 16.6169C21.4724 16.6169 20.2987 15.5958 20.2987 13.4003C20.2987 11.5176 21.2987 10.1768 23.0995 10.1768C24.8636 10.1768 25.7052 11.3697 25.7052 12.8521C25.7052 13.0264 25.6857 13.3208 25.6546 13.7106H21.7259C21.7259 14.7693 22.3932 15.5281 23.6235 15.5281C24.303 15.5281 24.8441 15.2823 25.058 15.1764C25.1007 15.1555 25.1251 15.1388 25.1756 15.1388ZM42.6235 13.3565H42.3871C40.6394 13.3565 40.2957 13.9705 40.2957 14.5944C40.2957 15.1043 40.6284 15.5872 41.2816 15.5872C42.1494 15.5872 42.6235 14.7404 42.6235 13.8492V13.3565ZM42.9587 16.4987C42.8465 16.4987 42.7533 16.4611 42.7411 16.2967C42.7277 16.0947 42.7003 15.7036 42.7003 15.7036H42.6814C42.5991 15.8175 42.0921 16.6169 40.8191 16.6169C39.5997 16.6169 38.9002 15.6672 38.9002 14.6246C38.9002 13.1791 40.289 12.453 42.3493 12.453H42.6235V12.2258C42.6235 11.5773 42.1671 11.23 41.3139 11.23C40.5461 11.23 39.9087 11.5022 39.6607 11.6296C39.6442 11.6377 39.5991 11.6641 39.5577 11.6641C39.4919 11.6641 39.4547 11.6229 39.4511 11.5496C39.4401 11.3168 39.4163 10.8691 39.4127 10.5851C39.6637 10.4885 40.4962 10.1762 41.4121 10.1762C43.2329 10.1762 44.0147 11.0304 44.0147 12.3946V14.8094C44.0147 15.6901 44.0958 16.2665 44.1244 16.4987H42.9587ZM38.1512 15.1388C38.1878 15.1388 38.2396 15.1635 38.2518 15.2719C38.2786 15.5669 38.2896 16.0497 38.2908 16.2012C38.0129 16.3398 37.4108 16.6169 36.6723 16.6169C34.8161 16.6169 33.6778 15.5281 33.6778 13.3978C33.6778 11.4018 34.6899 10.1768 36.6723 10.1768C37.3298 10.1768 37.9349 10.4084 38.2908 10.5932C38.2908 10.8136 38.2695 11.3131 38.2518 11.5231C38.2433 11.6111 38.2012 11.6537 38.1512 11.6537C38.0958 11.6537 38.0769 11.6389 38.044 11.6241C37.5961 11.4024 37.175 11.2952 36.796 11.2952C35.6144 11.2952 35.1281 12.0767 35.1281 13.3978C35.1281 14.5753 35.5169 15.4985 36.796 15.4985C37.2847 15.4985 37.7302 15.3224 38.0062 15.1881C38.0806 15.153 38.0934 15.1388 38.1512 15.1388ZM49.0257 16.4987V12.4992C49.0257 11.735 48.6808 11.2694 48.0348 11.2694C47.1786 11.2694 46.6095 12.1889 46.6095 13.4317V16.4987H45.2195V11.9493C45.2195 11.4486 45.1744 10.7188 45.1524 10.3055H46.2682C46.3956 10.3055 46.4322 10.3591 46.4328 10.4737C46.4358 10.6048 46.4462 11.2466 46.4462 11.2466H46.4766C46.646 10.9546 47.0738 10.1756 48.356 10.1756C49.6796 10.1756 50.4181 11.0895 50.4181 12.1137V16.4987H49.0257Z" fill="#334357"/>
</g>
<defs>
<linearGradient id="paint0_linear_13367_25302" x1="98.998" y1="12.9078" x2="98.998" y2="19.8051" gradientUnits="userSpaceOnUse">
<stop stop-color="#EB2023"/>
<stop offset="0.0963" stop-color="#E92026"/>
<stop offset="0.2039" stop-color="#E31E27"/>
<stop offset="0.2986" stop-color="#E01E26"/>
<stop offset="0.4043" stop-color="#D81F27"/>
<stop offset="0.5" stop-color="#CF2027"/>
<stop offset="0.6" stop-color="#C62127"/>
<stop offset="0.7" stop-color="#B92025"/>
<stop offset="0.8" stop-color="#AE1F23"/>
<stop offset="0.9" stop-color="#A01D22"/>
<stop offset="1" stop-color="#901C1C"/>
</linearGradient>
<linearGradient id="paint1_linear_13367_25302" x1="99.1874" y1="15.2513" x2="103.003" y2="12.8338" gradientUnits="userSpaceOnUse">
<stop stop-color="#6C221F"/>
<stop offset="0.2491" stop-color="#7F2620"/>
<stop offset="0.4983" stop-color="#982B24"/>
<stop offset="0.7491" stop-color="#B53125"/>
<stop offset="1" stop-color="#CB3327"/>
</linearGradient>
<linearGradient id="paint2_linear_13367_25302" x1="98.8899" y1="14.5903" x2="104.474" y2="11.3932" gradientUnits="userSpaceOnUse">
<stop stop-color="#E7EBEE"/>
<stop offset="0.2491" stop-color="#DFE4E8"/>
<stop offset="0.4983" stop-color="#CAD1D7"/>
<stop offset="0.7491" stop-color="#A8B5BD"/>
<stop offset="1" stop-color="#93A6AD"/>
</linearGradient>
<linearGradient id="paint3_linear_13367_25302" x1="95.7394" y1="3.17729" x2="95.7394" y2="9.84048" gradientUnits="userSpaceOnUse">
<stop stop-color="#05AEE9"/>
<stop offset="0.0963" stop-color="#00A9E0"/>
<stop offset="0.2039" stop-color="#07A3DC"/>
<stop offset="0.2986" stop-color="#089DD5"/>
<stop offset="0.4043" stop-color="#0A92CC"/>
<stop offset="0.5" stop-color="#0F87C3"/>
<stop offset="0.6" stop-color="#127CB8"/>
<stop offset="0.7" stop-color="#0E70AD"/>
<stop offset="0.8" stop-color="#0F63A3"/>
<stop offset="0.9" stop-color="#135393"/>
<stop offset="1" stop-color="#184485"/>
</linearGradient>
</defs>
</svg>
